<?xml version="1.0" encoding="utf-8"?>
<!-- Generator: Adobe Illustrator 27.2.0, SVG Export Plug-In . SVG Version: 6.00 Build 0)  -->
<svg version="1.1" id="Livello_1" xmlns="http://www.w3.org/2000/svg" xmlns:xlink="http://www.w3.org/1999/xlink" x="0px" y="0px"
	 viewBox="0 0 1726 542.1" style="enable-background:new 0 0 1726 542.1;" xml:space="preserve">
<style type="text/css">
	.st0{display:none;fill:#003399;}
	.st1{fill:#FFFFFF;}
	.st2{fill:#009245;}
	.st3{fill:#C1272D;}
	.st4{fill-rule:evenodd;clip-rule:evenodd;fill:#FFFFFF;}
</style>
<rect x="-129.9" y="-351" class="st0" width="1986" height="1128"/>
<g>
	<g>
		<g>
			<g>
				<g>
					<path class="st1" d="M1293,400.2h97.8l12.2-179c2.2-30,0-66.7,0-66.7h1.1c0,0,13.3,41.7,22.2,66.7l41.7,115h83.4l41.7-115
						c8.9-25,22.2-66.7,22.2-66.7h1.1c0,0-2.2,36.7,0,66.7l12.2,179h97.3L1693.7,2.8h-105.6l-57.8,167.8c-8.9,25.6-20,65.6-20,65.6
						h-1.1c0,0-11.1-40-20-65.6L1431.4,2.8h-105.6L1293,400.2z"/>
				</g>
			</g>
			<g>
				<g>
					<path class="st1" d="M777.8,2.8H675.5L540.5,400.2h100l23.9-83.4h123.9l24.5,83.4h100L777.8,2.8z M687.2,239l22.8-77.3
						c7.2-25,16.1-68.4,16.1-68.4h1.1c0,0,8.9,43.4,16.1,68.4l22.2,77.3H687.2z"/>
				</g>
			</g>
			<g>
				<g>
					<path class="st1" d="M1070.7,2.8H929.5v397.4h141.2c125.1,0,205.1-74.5,205.1-199.5S1195.7,2.8,1070.7,2.8 M1066.8,316.8h-40
						V86.1h40c65.6,0,108.4,38.9,108.4,114.5C1175.2,276.8,1134,316.8,1066.8,316.8"/>
				</g>
			</g>
			<g>
				<g>
					<path class="st1" d="M425.4,46l-0.2-0.2v-1.2l0.2-0.2c1.1,0,1.8-0.1,2.2-0.2c0.3-0.1,0.6-0.3,0.9-0.6c0.2-0.3,0.8-1.3,1.5-2.9
						l2.4-5.2l6.3-14.2c1.2-2.8,2.4-5.6,3.5-8.3h1.5l9.8,23.1l1.3,3.1c0.4,0.9,0.8,1.8,1.3,2.9c0.5,1,0.8,1.6,1,1.8
						c0.2,0.2,0.4,0.3,0.7,0.4s0.9,0.2,1.9,0.2l0.2,0.2v1.2l-0.2,0.2c-1.6-0.1-3.1-0.2-4.4-0.2c-2.5,0.1-5.1,0.1-7.7,0.2l-0.2-0.2
						v-1.2l0.2-0.2c1.7,0,2.8-0.1,3.2-0.2c0.4-0.1,0.7-0.4,0.7-0.8c0-0.3-0.1-0.8-0.3-1.3l-2.8-7h-13.3l-2.5,5.9
						c-0.5,1.1-0.7,1.8-0.7,2.3c0,0.4,0.2,0.7,0.6,0.9c0.4,0.2,1.5,0.3,3.1,0.3l0.2,0.2v1.2l-0.2,0.2c-2-0.1-3.7-0.2-5.2-0.2
						C428.8,45.8,427.1,45.8,425.4,46 M435.9,33h11.7l-5.8-13.9L435.9,33z"/>
				</g>
			</g>
			<g>
				<g>
					<path class="st1" d="M459.2,89.8v0.7l-0.1,0.3l-1.1,0.7c-0.3,0.2-0.4,0.3-0.5,0.4c0,0.1-0.1,0.5-0.2,1.4s-0.1,1.8-0.1,3
						c0,1.3,0.1,2.8,0.2,4.4l-0.1,0.2c-4.2,1.6-8.5,2.4-13,2.4c-3.4,0-6.5-0.6-9.2-1.9s-4.9-3.2-6.5-5.7c-1.6-2.5-2.4-5.5-2.4-9
						c0-5.3,1.8-9.5,5.5-12.7s8.4-4.7,14.2-4.7c4.3,0,8.2,0.7,11.6,2.2l0.2,0.2c-0.3,1-0.6,3.2-1,6.5l-0.2,0.2h-1.1l-0.2-0.2
						l-0.1-2.4c0-0.8-0.1-1.3-0.2-1.4c0-0.1-0.2-0.3-0.5-0.5s-1-0.6-2.1-1.1s-2.3-0.8-3.4-1.1s-2.4-0.3-3.7-0.3
						c-2.8,0-5.3,0.6-7.5,1.8c-2.2,1.2-3.8,2.9-4.9,5.1c-1.1,2.2-1.7,4.7-1.7,7.5c0,2.8,0.6,5.5,1.8,7.9c1.2,2.4,2.9,4.3,5.1,5.7
						c2.2,1.4,4.8,2,7.7,2c1.3,0,2.6-0.1,3.9-0.4c1.3-0.2,2.4-0.6,3.3-1.1c0.1-0.5,0.2-1.5,0.2-3v-2.6c0-1.2-0.1-2-0.2-2.3
						c-0.2-0.3-0.5-0.5-1.1-0.6s-1.9-0.2-3.9-0.2l-0.2-0.2v-1l0.2-0.2l1.4,0c2.4,0.1,4.4,0.1,5.9,0.1c0.9,0,2.2,0,3.8-0.1
						L459.2,89.8z"/>
				</g>
			</g>
			<g>
				<g>
					<path class="st1" d="M430,126.6l0.2-0.2c5.3,0.1,8.6,0.1,10.1,0.1c5,0,9.5,0,13.5-0.1l0.1,0.2c-0.4,1.5-0.7,3.8-0.8,6.9
						l-0.1,0.2h-1.1l-0.2-0.2c0-0.1,0-0.3,0-0.4c0-1.3-0.1-2.5-0.3-3.7c-1-0.4-2.3-0.7-4-0.8s-3-0.2-3.9-0.2c-1.2,0-2.8,0.1-4.7,0.2
						l-0.1,3.7l-0.1,4.2l-0.1,4.7c1.7,0.1,3.2,0.1,4.6,0.1c1.4,0,2.6,0,3.5-0.1c1-0.1,1.5-0.2,1.7-0.3s0.3-0.3,0.4-0.6
						c0.1-0.3,0.2-0.8,0.2-1.5l0.1-1.4l0.2-0.2h1.1l0.2,0.2c0,1.7-0.1,3.4-0.1,5l0.1,5.2l-0.2,0.2h-1.1l-0.2-0.2l-0.2-1.4
						c-0.1-1.1-0.2-1.7-0.3-1.9c-0.1-0.2-0.2-0.4-0.4-0.5c-0.2-0.1-0.8-0.3-1.7-0.4c-0.9-0.1-2.2-0.1-3.8-0.1c-0.9,0-2.2,0-4.1,0.1
						c-0.1,1.3-0.1,3.4-0.1,6.5c0,3.2,0,5.6,0.1,7.1h4.2c3.7,0,6.1,0,7-0.1c0.9-0.1,1.8-0.3,2.7-0.7c0.1-0.4,0.4-1.2,0.7-2.5
						c0.3-1.3,0.5-2.1,0.5-2.4l0.2-0.2h1.1l0.2,0.2c-0.1,0.7-0.3,1.8-0.4,3.5c-0.1,1.6-0.2,3-0.2,4.2l-0.2,0.2
						c-2.9-0.1-6.8-0.1-11.5-0.1l-6.3,0c-1.5,0-3,0.1-4.6,0.2l-0.2-0.2v-0.8l0.2-0.2c0.9-0.5,1.4-0.8,1.5-0.9c0.1-0.1,0.2-1.5,0.3-4
						s0.1-4.5,0.1-5.9v-8.5l0-5.2c0-1.1,0-2.1,0-2.8c0-0.7-0.1-1.2-0.2-1.5c-0.1-0.3-0.2-0.5-0.3-0.6c-0.1-0.1-0.3-0.2-0.5-0.3
						s-0.6-0.2-1.1-0.2l-1.8-0.1l-0.2-0.2L430,126.6L430,126.6z"/>
				</g>
			</g>
			<g>
				<g>
					<path class="st1" d="M424.6,215.8l-0.2-0.2v-1.1l0.2-0.2c0.9,0,1.7-0.1,2.2-0.2c0.6-0.1,0.9-0.2,1.1-0.5c0.2-0.2,0.3-0.6,0.3-1
						s0.1-1.5,0.2-3.2s0.1-2.9,0.1-3.6v-18.6c0-0.8-0.1-1.4-0.4-1.7c-0.3-0.4-0.7-0.6-1.2-0.7c-0.5-0.1-1.3-0.2-2.5-0.2l-0.2-0.2
						v-1.1l0.2-0.2c2.1,0.1,3.5,0.1,4.2,0.1c1.5,0,2.8,0,3.8-0.1l7.3,9.5l10.8,13.5c1.3,1.6,2.6,3.2,4,4.7v-17.8
						c0-0.5,0-1.7-0.1-3.5c0-1.8-0.1-3-0.2-3.4s-0.2-0.8-0.4-1s-0.5-0.3-1.1-0.4s-1.2-0.1-2.2-0.2l-0.2-0.2v-1.1l0.2-0.2
						c1.2,0.1,3,0.1,5.3,0.1c2.1,0,3.6,0,4.6-0.1l0.2,0.2v1.1l-0.2,0.2c-1,0-1.8,0.1-2.3,0.2s-0.9,0.3-1,0.5c-0.1,0.2-0.2,0.6-0.3,1
						c0,0.5-0.1,1.5-0.2,3.2s-0.1,2.9-0.1,3.6V204l0,6.3c0,2.1,0.1,4.2,0.1,6.2c-0.8-0.3-2.1-0.6-4-1l-1.6-1.9l-4.9-6l-15.6-19.5
						v17.7c0,0.7,0,2,0.1,3.8c0,1.8,0.1,2.9,0.2,3.3s0.2,0.7,0.3,0.8c0.1,0.2,0.4,0.3,0.8,0.4c0.4,0.1,1.2,0.2,2.5,0.2l0.2,0.2v1.1
						l-0.2,0.2c-0.8-0.1-2.1-0.2-3.9-0.2C428.3,215.6,426.3,215.6,424.6,215.8"/>
				</g>
			</g>
			<g>
				<g>
					<path class="st1" d="M427.8,272.2v-1.1l5.5-6.9l13.2-16.9c2-2.5,3.3-4.4,4-5.5h-0.9l-3.7,0c-3.3,0-5.9,0-7.9,0.2
						c-2,0.1-3.3,0.2-3.9,0.3s-1,0.3-1.2,0.5c-0.2,0.2-0.3,0.7-0.4,1.4l-0.3,3l-0.2,0.2h-1.1l-0.2-0.2c0.1-1.2,0.1-2.1,0.1-2.8
						c0-1.9,0-3.4-0.1-4.5l0.2-0.2c5.5,0.1,9.3,0.2,11.5,0.2c3.6,0,8.4-0.1,14.3-0.2l0.2,0.2v1.2c-1.7,2-2.9,3.4-3.5,4.3L434.2,270
						l9.3,0.2c1.9,0,3.7,0,5.6-0.1s3.1-0.2,3.7-0.3c0.6-0.1,1-0.2,1.2-0.4c0.2-0.2,0.4-0.3,0.5-0.5c0.1-0.2,0.2-0.7,0.4-1.6l0.5-3.1
						l0.2-0.2h1.1l0.2,0.2c-0.1,1-0.2,3.7-0.3,8l-0.2,0.2c-6.5-0.1-11.6-0.2-15.3-0.2c-2.6,0-7,0.1-13,0.2L427.8,272.2z"/>
				</g>
			</g>
			<g>
				<g>
					<path class="st1" d="M436.1,296.3l2.9,0.1c1.9,0.1,3.1,0.1,3.7,0.1c0.5,0,2.7-0.1,6.6-0.2l0.2,0.2v1.2l-0.2,0.2
						c-1.1,0-1.9,0.1-2.5,0.1c-0.6,0.1-1,0.2-1.3,0.3c-0.3,0.2-0.4,0.6-0.5,1.2c-0.1,0.6-0.1,1.5-0.1,2.6l0,5.3V318l0,4.5
						c0,1.7,0.1,2.9,0.1,3.4c0.1,0.5,0.2,0.8,0.3,1c0.2,0.2,0.4,0.3,0.8,0.4c0.4,0.1,1.4,0.2,3.1,0.3l0.2,0.1v1.2l-0.2,0.2
						c-0.1,0-1.4,0-4-0.1c-1.1,0-1.9,0-2.6,0c-0.5,0-2.7,0.1-6.6,0.2l-0.2-0.2v-1.2l0.2-0.1c1.4-0.1,2.4-0.1,2.9-0.2
						c0.5-0.1,0.8-0.2,1-0.4c0.2-0.2,0.3-0.5,0.4-0.9c0.1-0.5,0.2-1.5,0.2-3.2l0-4.9v-10.7l0-4.5c0-1.8-0.1-2.9-0.1-3.4
						s-0.2-0.8-0.3-1c-0.2-0.2-0.4-0.3-0.8-0.4c-0.4-0.1-1.4-0.2-3.1-0.2l-0.2-0.2v-1.2L436.1,296.3z"/>
				</g>
			</g>
			<g>
				<g>
					<path class="st1" d="M425.4,385.6l-0.2-0.2v-1.2l0.2-0.2c1.1,0,1.8-0.1,2.2-0.2c0.3-0.1,0.6-0.3,0.9-0.6s0.8-1.3,1.5-2.9
						l2.4-5.2l6.3-14.2c1.2-2.8,2.4-5.6,3.5-8.3h1.5l9.8,23.1l1.3,3.1c0.4,0.9,0.8,1.8,1.3,2.9c0.5,1,0.8,1.6,1,1.8
						c0.2,0.2,0.4,0.3,0.7,0.4s0.9,0.2,1.9,0.2l0.2,0.2v1.2l-0.2,0.2c-1.6-0.1-3.1-0.2-4.4-0.2c-2.5,0.1-5.1,0.2-7.7,0.2l-0.2-0.2
						v-1.2l0.2-0.2c1.7,0,2.8-0.1,3.2-0.2s0.7-0.4,0.7-0.8c0-0.3-0.1-0.8-0.3-1.3l-2.8-7h-13.3l-2.5,5.9c-0.5,1.1-0.7,1.8-0.7,2.3
						c0,0.4,0.2,0.7,0.6,0.8c0.4,0.2,1.5,0.3,3.1,0.3l0.2,0.2v1.2l-0.2,0.2c-2-0.1-3.7-0.2-5.2-0.2
						C428.8,385.4,427.1,385.5,425.4,385.6 M435.9,372.7h11.7l-5.8-13.9L435.9,372.7z"/>
				</g>
			</g>
			<g>
				<g>
					<rect x="411.7" class="st2" width="3.7" height="402"/>
				</g>
			</g>
			<g>
				<g>
					<rect x="470.7" y="0.5" class="st3" width="3.7" height="402"/>
				</g>
			</g>
			<g>
				<g>
					<g>
						<g>
							<g>
								<g>
									<path class="st1" d="M88.9,78.8l2.8-1.2l0.6,1.3v0l4.4,9.6l-1.7,1.5c-2.2,2-4.5,4-6.6,6.2c-1,1-2,2.1-3.1,3.3
										c-0.4,0.5-0.9,0.9-1.3,1.4l-2.2-2h0v0v0l0.7-5.2c0,0,0,0,0,0c0.5-0.6,1.1-1.1,1.6-1.7c0.7-0.7,1.4-1.4,2.1-2.1
										c1.1-1,2.1-2,3.2-3l-0.7-1.6l-1.4-3.1L88.9,78.8z"/>
								</g>
							</g>
						</g>
					</g>
					<g>
						<g>
							<g>
								<g>
									<path class="st1" d="M52.3,145.7l-2.5-1.4c0,0.1-0.1,0.1-0.1,0.2c-0.5,0.9-1,1.7-1.4,2.4c-0.1,0.1-0.1,0.2-0.2,0.3
										l-1.3,2.3l0.1,0l3.3,1.9l1.3,0.7c-0.9,4.4-1.5,8.5-1.9,12.6l-9.2,1.9l-3,0.6h0v0l-0.1,2.3c0,0.8-0.1,2.1-0.1,3.8
										c0,4.2,0,10.2,0.1,12.1l0.1,2.4l12.1,2.5c0.4,3.9,1.1,8.1,2,12.5l-10.8,6.2l0.7,2.3c0.4,1.2,1.3,4.3,2.3,7.4
										c0.2,0.6,0.4,1.2,0.6,1.8l0.4,1.3l0.4-0.1l2.4-0.8l1.7-4.2c0,0,0-0.1,0.1-0.1c-0.3-1-0.7-2.1-1-3c0,0,0,0,0,0
										c-0.2-0.6-0.4-1.2-0.5-1.7l1.9-1.1l3.7-2.1h0l4.1-6.4c0,0,0,0,0,0c0,0,0-0.1,0-0.1c-0.2-1-0.4-1.9-0.5-2.8
										c-0.8-4.2-1.3-8.1-1.6-11.7l-0.2-2.2l-11.9-2.5c0-3,0-7.7,0-10.8l11.9-2.5l0.2-2.2c0.4-5.1,1.2-10.4,2.5-16.2l0.5-2.2
										l-2.8-1.6l-2.5-1.4L52.3,145.7z"/>
								</g>
							</g>
						</g>
					</g>
					<g>
						<g>
							<g>
								<g>
									<path class="st1" d="M296.6,220.8l-1.9-0.6l-1.8-4.1c0.2-0.5,0.3-1,0.5-1.5c0.1-0.3,0.2-0.6,0.3-0.9
										c0.2-0.6,0.4-1.2,0.5-1.6l-6.7-3.8l-1.9-1.1l1.8-3.7l0.4,0.1l0.9-1.6l1.6,0.9l10.9,6.3l-0.5,2.2c-0.3,1.2-1,3.4-1.4,4.8
										c0,0.1-0.1,0.2-0.1,0.3c-0.3,0.8-0.5,1.7-0.8,2.6L296.6,220.8z"/>
								</g>
							</g>
						</g>
					</g>
					<g>
						<g>
							<g>
								<path class="st1" d="M171.1,311.3c-3.3,0-6.6,0-8-0.1l-2.4-0.1l-2.5-12.2c-4-0.4-8.2-1.1-12.6-2l-6,10.8l-2.3-0.7
									c-2.6-0.8-12.6-4-15.2-4.9l-2.2-0.8l1.4-12.3c-3.9-1.7-7.7-3.7-11.4-5.8l-9.1,8.3l-2-1.3c-2.1-1.3-10.8-7.6-12.9-9.4
									l-1.8-1.5l5.1-11.3c-3.3-3-6.3-6-9-8.9L69,264.4l-1.5-1.8c-0.4-0.4-0.9-1.2-1.6-2.2l-0.6-0.8c-0.9-1.2-2-2.7-3-4.1l4.9-3.5
									c1,1.4,2.1,2.9,3,4.1l0.6,0.8c0,0,0,0,0.1,0.1l10.9-5l1.5,1.7c3.4,3.8,7.2,7.6,11.7,11.6l1.6,1.5l-5,11
									c2.4,1.8,6.2,4.5,8.7,6.3l8.9-8.2l1.9,1.2c4.7,2.8,9.7,5.3,14.7,7.4l2.1,0.9l-1.4,12c2.9,1,7.3,2.4,10.2,3.3l5.9-10.5
									l2.2,0.5c5.7,1.2,11.1,2.1,16.2,2.5l2.2,0.2l2.5,11.9c3,0,7.7,0,10.7,0l2.4-11.7l2.2-0.2c6-0.6,11.3-1.4,16.2-2.6l2.2-0.5
									l6,10.5c2.9-0.9,7.4-2.4,10.3-3.3l-1.4-12l2-0.9c5.1-2.2,10-4.8,14.6-7.5l1.9-1.2l9,8.2c2.4-1.7,6.2-4.5,8.6-6.3l-5.1-10.9
									l1.7-1.5c4.5-3.9,8.3-7.7,11.6-11.6l1.5-1.7l11.1,5c1.4-1.9,3.4-4.6,5-6.9c0.5-0.8,1-1.5,1.5-2.1l5,3.4
									c-0.4,0.6-1,1.4-1.5,2.2c-2,2.8-5.4,7.5-6.7,9.1l-1.5,1.8l-11.2-5.1c-2.7,3-5.7,6-9,9l5.2,11.2l-1.9,1.5
									c-1.9,1.5-10.5,7.9-12.9,9.4l-1.9,1.2l-9.1-8.3c-3.6,2.1-7.4,4-11.3,5.8l1.4,12.2l-2.2,0.8c-2.5,1-12.5,4.2-15.2,4.9
									l-2.3,0.7l-6.1-10.8c-3.9,0.8-8.1,1.5-12.6,2l-2.4,12.1l-2.4,0.1C177.7,311.3,174.4,311.3,171.1,311.3z"/>
							</g>
						</g>
					</g>
					<g>
						<g>
							<g>
								<g>
									<path class="st1" d="M163.6,43.9C163.6,43.9,163.6,43.9,163.6,43.9L163.6,43.9z M267.9,99.7l-2.4,1.1l-5.2,2.4l-1.5-1.7
										c-3.6-4.1-7.4-8-11.6-11.6l-1.7-1.5l5-11c-1.6-1.2-3.8-2.8-5.8-4.3c-1.1-0.8-2.1-1.5-2.9-2.1l-8.8,8.2l-1.9-1.2
										c-4.7-2.8-9.7-5.3-14.7-7.4l-2.1-0.9l1.4-12c-2.8-1-7.3-2.5-10.2-3.3L199.5,65l-2.2-0.5c-5.5-1.3-10.8-2.1-16.2-2.6
										l-2.2-0.2l-2.5-11.8c-3-0.1-7.7-0.1-10.7,0l-2.4,11.8l-2.2,0.2c-5.9,0.5-11.1,1.3-16.1,2.6l-2.2,0.5l-6.1-10.5
										c-2.9,0.9-7.3,2.3-10.2,3.3l1.4,12l-2.1,0.9c-4.9,2-9.8,4.5-14.6,7.4l-1.9,1.2l-9-8.2c-0.5,0.3-1,0.7-1.4,1
										c-1.5,1.1-3.3,2.4-4.9,3.6c0,0,0,0,0,0c-0.2,0.2-0.4,0.3-0.7,0.5l-1.8-2.4l2.7-5.7c0.4-0.3,0.8-0.6,1.2-0.8
										c1.7-1.2,2.9-2,3.6-2.5l0.8-0.5h0l1.2-0.8l9.1,8.3c3.7-2.2,7.5-4.1,11.3-5.8l-1.4-12.1l2.1-0.9c2.7-1.1,12.7-4.3,15.2-5
										l2.2-0.6l6.2,10.7c4-0.9,8.1-1.6,12.6-2l2.4-11.9l2.2-0.2c0.1,0,0.2,0,0.4,0l0.3,0l0.1,0c3.2-0.1,12.8-0.1,15.5,0l2.3,0.2
										l2.5,12c4.2,0.4,8.3,1.1,12.6,2l6-10.7l2.2,0.5c2.7,0.7,12.8,3.9,15.4,5l2.1,0.9L220.8,66c3.9,1.7,7.7,3.6,11.4,5.8
										l8.9-8.3l0.2,0.1c0,0,0,0,0,0l1.8,1c0.2,0.1,0.5,0.3,0.8,0.5c1.3,0.9,3.2,2.2,4.4,3.1c0,0,0,0,0,0c1.2,0.9,2.5,1.8,3.6,2.6
										h0c0.2,0.1,0.4,0.3,0.5,0.4c1.6,1.2,3,2.3,3.7,2.9l1.8,1.5l-1.4,3l-3.7,8.2c3.2,2.9,6.2,5.9,9,9l3.7-1.8l1.2-0.5l1.3,2.7
										L267.9,99.7z"/>
								</g>
							</g>
						</g>
					</g>
					<g>
						<g>
							<g>
								<g>
									<path class="st1" d="M286.8,185.7L286.8,185.7l0-0.4l2.4-0.4h0l0.2,0l9.4-1.9c0.1-3,0.1-7.6,0-10.7l-11.9-2.4l-0.2-2.3
										c-0.5-5.9-1.3-11.1-2.6-16.1l-0.5-2.2l4.7-2.6l4.3-2.5l2.2,0.2l0.9,1.5l-0.7,3.8c0,0,0,0,0,0l-3,1.7l-1.4,0.8
										c0.9,4,1.6,8.1,2,12.6l6.3,1.2l3.8,0.8c0.8,1.3,1.5,2.5,2.2,3.6c0,0.2,0,0.5,0,0.8c0,1.2,0.1,3,0.1,4.8c0,3.8,0,8-0.1,9.6
										l-0.2,2.3l-12.1,2.5c-0.2,2.4-0.6,4.8-1,7.4l-0.4-0.1l-2.6-0.4L286.8,185.7z"/>
								</g>
							</g>
						</g>
					</g>
					<g>
						<g>
							<g>
								<path class="st1" d="M112.7,257.9l20.3-68.1l-56.4-42.9l70.9-1.7L171,78.3l23.6,66.9l70.8,1.6L209.1,190l20.3,67.9
									L171,217.6L112.7,257.9z M171,210.2l47.7,32.9l-16.6-55.4l46-35.2l-57.8-1.3L171,96.5l-19.1,54.6L94,152.5l46,35l-16.6,55.6
									L171,210.2z"/>
							</g>
							<g>
								<path class="st1" d="M109.9,261.8l21.3-71.4l-59.1-45l74.4-1.8L171,73.5l24.8,70.2l74.3,1.7l-59.1,45.2l21.3,71.2L171,219.5
									L109.9,261.8z M81.3,148.4l53.6,40.8l-19.3,64.7l55.4-38.3l55.5,38.3l-19.3-64.5l53.6-41l-67.3-1.5L171,83.2l-22.3,63.6
									L81.3,148.4z M221.5,247.1L171,212.2l-50.4,34.9l17.6-58.9L89.4,151l61.4-1.5L171,91.6l20.5,58l61.3,1.4l-48.8,37.3
									L221.5,247.1z M171,208.3l44.8,30.9l-15.6-52.1l43.3-33.1l-54.3-1.2L171,101.4l-18,51.3L98.6,154l43.2,32.9l-15.6,52.3
									L171,208.3z"/>
							</g>
						</g>
					</g>
					<g>
						<g>
							<g>
								<path class="st1" d="M196.9,148.9l-5.1-0.1l-1.2-3.5l-1.8-63.5l2.2,0.5c27.7,5.8,51.4,23.3,65,47.9l1.1,2L196.9,148.9z
									 M194.4,145.2l2,0l55.3-15.4c-12.9-22-34.3-37.7-59.2-43.6l1.7,58.3L194.4,145.2z"/>
							</g>
						</g>
					</g>
					<g>
						<g>
							<g>
								<path class="st1" d="M145.6,148.8l-60.1-17.7l1.1-2c14.1-24.5,37.9-41.6,65.5-47l2.2-0.4l-2.7,63.4l-1.3,3.6L145.6,148.8z
									 M90.9,128.9l55.2,16.3l1.7,0l0.3-0.8l2.5-58.3C125.7,91.6,104.2,107.1,90.9,128.9z"/>
							</g>
						</g>
					</g>
					<g>
						<g>
							<g>
								<path class="st1" d="M100.4,244.6l-1.5-1.7c-7.6-8.5-13.6-18.1-17.9-28.6l-0.2-0.5l0.1-0.6c1.9-7.9,3.1-17.4,2.6-20.5
									c-0.2-0.9-0.3-1.4-0.4-1.8l0,0l-6.2,4.7l4.7-9.4c0.2-0.6,0.3-1,0.3-1.2c-1.1,0-3.2,0.3-5.2,1.3l-2.4,1.2l-0.2-2.7
									c-0.5-6.2-0.4-12.6,0.4-18.9l0.3-2.3l60.9,22.6l2.1,1.6l-1.2,4.2L100.4,244.6z M84.5,213.5c3.8,9.2,9,17.7,15.5,25.3
									l33-48.2l0.3-1.1l-55.7-20.7c-0.4,4.5-0.5,9-0.3,13.4c2.6-0.8,5.6-1,6.8-0.1l0,0c1.3,1.1,1.5,2.9,0.6,5.5
									c1.2,0.8,1.8,2.6,2.1,4.5C87.6,196,86.2,206.1,84.5,213.5z"/>
							</g>
						</g>
					</g>
					<g>
						<g>
							<g>
								<path class="st1" d="M170.9,274.9c-13.9,0-27.8-3-40.8-8.9l-2.1-1l40.5-50.9l2.5-1.7l2.4,1.7l0.2,0.2l39.4,51.2l-2.1,0.9
									C198.2,272.1,184.5,274.9,170.9,274.9z M133.8,263.7c23.4,10.1,50,10.2,73.5,0.3L171,216.9L133.8,263.7z"/>
							</g>
						</g>
					</g>
					<g>
						<g>
							<g>
								<path class="st1" d="M240.9,245.5l-35.1-53l-1.3-4.3l2-1.5l0.3-0.1l60.9-21.7l0.2,2.3c1,8.8,0.7,17.8-0.8,26.6l-0.3,1.8
									l-1.8-0.3c-0.7-0.1-1.2,0-1.5,0.3c-0.4,0.3-0.5,1-0.4,1.8c0.1,1.2,0.7,2.8,1.7,4.8l0.3,0.6l-0.2,0.7
									c-4.1,15-11.9,28.9-22.4,40.3L240.9,245.5z M209.1,190.9l32.3,48.7c9.2-10.5,16-23,19.8-36.5c-1-2.2-1.6-3.9-1.7-5.4
									c-0.3-2.5,0.6-4,1.5-4.9c0.7-0.7,1.7-1.2,2.8-1.3c1.1-7.2,1.3-14.5,0.7-21.8l-55.7,19.9L209.1,190.9z"/>
							</g>
						</g>
					</g>
					<g>
						<g>
							<g>
								<path class="st4" d="M345.5,204.3c4-5.7,4.5-10.8,1.5-15.4c1.1-7.5,0.4-12.2-2.3-14.1c-2.8-1.9-6.2-1.3-10.2,1.9
									c-2.4-1.2-5.5-0.1-9.6,3.5c0.7-1.8,0.8-3.4,0.2-4.8c3.6-1.7,5.9-3.5,7-5.5c1-2,1.6-5.2,1.6-9.5c0.4-2.6,2.9-7.3,7.3-14.1
									c3-6.8,0.9-9.1-6.4-7.1c4-3.6,6-6.7,6-9.4c0.3-2.5-0.8-5.7-3.1-9.6c-1-2.2-2.4-2.6-4.4-1.2c0.7-1.4,1.1-3,1.1-5
									c0.1-1.9-1.2-6-3.9-12.2c-0.4-8.2-2.4-11.6-5.8-10.2c-0.5-4.3-1.9-8.4-4.2-12.2c-3.3-5-6-6.3-7.9-4
									c-5.4-8-10.5-11.4-15.2-10c-0.1-3.5-1.3-6.6-3.5-9.4c-1.2-5.3-2.8-8.9-4.6-11c-2.5-1-4.2,0.4-5.2,4.2
									c-0.4-3-1.4-6.2-2.9-9.6c-1.5-3.3-4-5-7.3-5.2c-1.2-0.1-2.4,0.1-3.5,0.6c-2.2-1.4-4.1-2.1-5.6-2.1c-4.7-5-9-5.4-12.9-1.2
									l-0.6-4.4c-1.4-5.1-4.2-6.2-8.3-3.3c-6.8-7.1-12.6-11.7-17.5-13.9c-4-1.4-6.6-1-7.9,1c-2.1-2.1-4.3-3.4-6.7-4
									s-4.6-1.2-6.6-1.9c-3.2-0.1-4.6,1.6-4.2,5.2c-5,0.3-8.4,1.1-10.3,2.6c-1.9,1.5-2.4,3.5-1.5,6.1c0.9,2.6,2.9,4.8,6.1,6.4
									c-0.8,1-1.2,2.5-1,4.6c0.1,2.1,2.4,3.8,6.6,5.2c3.2,0.8,6.3,0.9,9.4,0.2c-0.7,3.2,0.4,5.2,3.3,6c4,4.1,9,5.2,15,3.1l-0.6,4
									l8.1,3.3c0.3,3.9,2.1,6.7,5.4,8.3l3.2,1.4c-0.7,0.1-3.7,2.5-3.7,2.9c-0.5,0.5-1.5,2.7-0.5,4.2c0.4,0.6,1.2,1,2.4,1.3
									c1.5,0.2,3,0.3,4.5,0.4c2,0.2,3.9,0.2,5.9,0.2c0.1,1,0.7,2.7,1.4,3.9c0.6,1.2,2,3.1,4.5,5.7c2.3,2.5,6.5,4.9,10.1,6.4
									c-0.2,0.2-1.2,3-2.1,5.4c-0.5,1.5-1,3.5-1,5.4c0,2,0.4,3.9,1.4,5.2c-0.5-0.2-2.5,1.2-3.2,2.3c-2.6,4,3,9.7,3.9,11.7
									c-0.4,0-2,0.7-2.8,1.3c-1.9,1.4-1.3,8.3,4.2,9.4c1.4,0.7,7.7,4.3,10.8,7.5c0.6,0.6,2.4,3.9,4.9,7.2c1.3,1.8,2.8,4.7,6,4.8
									c0.1,0.5,0.3,0.9,0.4,1.4c2.4,7.2,5.8,14.2,9.9,21c0.3,0.6,0.7,1.1,1,1.7c0.8,1.4,1.7,2.7,2.5,4c0,0.3,5.4,6.1,7.4,11.3
									c-0.6,3.4-0.6,6.3-0.6,6.5c-0.7,6.7-1.9,12.8-3.6,18.4c-5.9-2.8-6.9,1-7.7,4.8c-0.1-0.2-2.8-0.5-3.1,0.8
									c0.1-0.5-0.1-1-0.4-1.5c-1-1.6-3.5-2.5-4.9-1.6c0,0-1.9,1.3-3,2.2c-0.4,0.3-0.7-1.9-0.8-3.5c-0.1-1.1-0.3-5,0.4-6.5
									c0-0.1,0.2-0.4,0.5-0.8c0.5-0.7,1.3-1.7,1.8-2.7c1.3-2.4,0.9-8.8-0.4-14.7c-0.4-1.8-0.8-3.5-1.3-5.1c-0.6-2-2-3-3.2-3.5
									c-0.5-0.2-3.6,0-4.2,2.4c-0.2-1.4-2.4-2.2-4-2.5c-4.5-1.1-9.4,7.6-8.9,15.8c-1-0.8-2.1-1.3-3.2-1.4c-2.4-0.3-4.4,1-4,4.2
									c0.2,1.6,0.9,3.4,1.9,5.4c3,6.1,8.5,13.5,8.7,17.3c-2.9-2.5-9.4-2.6-9.4,3.6c0,1.9,1.5,5.1,2.2,6.4
									c-1.3,6.6,6.3,11.5,12.5,17.7c-0.1,2.6,0.7,2.9,1.5,3.8c0.1,0.1,0.2,0.2,0.3,0.4c-1.1,1.7-8.1,12.7-8.2,13
									c-0.3,0.1-5.1-2.6-6.7-1.2c-1.7,1.5-3.1,3.5-3.9,4.7l0.8,7.7c0.5,3.2-1.1,6.8-5.1,10.7c-3.9,3.9-6.5,7.6-7.8,10.9
									c-0.7,2.5-3.4,5.2-8.1,8.1c-0.3-0.8-1.4-2.2-3.3-4c-0.3-0.5-0.8-0.8-1.7-0.6c-4.7,1.2-14.2,5.4-28.5,12.5
									c-2.5,1.2-6,4.9-10.6,11H188c-2.2-1.2-4.6-3-7.1-5.2c-1.8-1.4-5-0.9-9.6,1.5c-4.3-1-8.6-0.1-12.9,2.7
									c-2.6,1-4.6,1.2-5.8,0.6l-10.2-11c-21.1-8.9-32.6-12.8-34.5-11.8c-2.1,1.2-3.6,3-4.6,5.4c-2.1-1-5.2-3.6-9.4-7.9l-6.4-7.3
									c-4.7-5.3-6.7-10.2-5.8-15l1-6.4c0.1-1,0-1.7-0.4-2.3c-1.5-1.7-4.2-2.7-5.6-2.9c-0.3-0.1-1.2-0.4-2.2,3.3
									c0.3,0.9-6.7-9.1-6.8-9.4c0.2-0.2,0.3-0.3,0.5-0.6c1.9-2.4,4.9-7.9,6.6-14.2c2.1-7.8,3.1-16.4,3-19.7
									c0.3-0.6,0.4-0.8,0.8-1.2c1.2-1,2.6-5,3.8-10c1.8-7.8,3.1-17.8,2.6-21.2c-0.4-2.2-0.9-3.4-1.6-3.4c-0.6-0.1-1.2,0.1-1.8,0.5
									L83,187c0.7-1.8,0.7-3,0-3.5c-0.4-0.4-4.1-0.4-7.3,1.2c0,0-0.1,0-0.1,0c-0.4-3.6-2.1-8.9-3-10.8c-0.3-0.6-1.2,0-1.2,0.1
									c-5.8,3.5-8.4,11.2-10.5,20.8l-1.7,1.5c-1.6,2.1-3.2,4.2-4.7,6.4c-0.6,1-1.3,2-1.9,3c-2.4,3.8-4.4,7.9-6.1,12.1
									c-1.4,3.5-2.5,7.2-3.3,11c-1.2-1.9-1.9-4.7-3.1-8.4c-1.1-3.7-1.5-6.1-1-7.4c1.1-1.9,0.8-3.7-1.1-5.4
									c-1.4-1.4-3.2-7.6-5.4-18.7c0.1-2.9,1.3-7.3,3.5-13.1c2.2-5.8,5.9-13.2,10.8-21.5c0.2-0.4,2.4-2.7,3.1-2.9
									c0.8-0.2,1.8-0.8,3-1.8c9.6-7.7,31.4-37.4,32.9-55.6c0.1-1.7,0.1-3.4-0.1-4.9c0.3-0.1,2.1-3.1,4.4-7.1
									c2.1-3.7,4.7-8.4,6.7-12.4c1.9-3.8,3.4-7,3.7-8.6l1.8-0.6l2.1-0.8c6.9-2.8,12.8-5.7,18.2-8.2l8.4-4.5
									c5.8-2.5,11.4-5.9,16.6-10.2c5.5-4.9,8.5-9.9,8.9-15.2c-1-1.2-3.8-1.9-8.5-2.1c2.5-2.8,3.8-5.7,4-8.7
									c-1.8-2.5-7.2-2.9-16.2-1.2c-9.4,2.4-17.7,6-24.7,11c-7.2,4.6-13.7,10.1-19.4,16.7C86.1,43.9,81.5,50.7,78,57.8l4.2-9.6
									c2.1-4.6,4.3-9.9,6.6-16c0.7-2.9,0.7-5,0.1-6.2c-0.6-1.2-2-1.6-4.1-1c-2.2,0.5-6.2,3.5-12.1,8.7c-6.4,6.5-12,14.5-16.9,24.1
									c-4.9,9.5-8.3,17.1-10.1,22.6c1-6.2,0.8-11.6-0.4-16c-0.7-1.8-2.2-2.3-4.6-1.5c-2.2,1.5-4.4,3.8-6.6,6.9
									c-2.2,3-4.4,6-6.4,8.8c-2.1,2.9-4.5,6.9-7.4,12.1c-2.8,5.3-5.3,11.5-7.5,18.7c-2.2,7.2-3.8,16.8-4.9,28.7
									c-0.7,7.6-0.1,15.8,1.7,24.5c2.2,8.7,4.4,15.2,6.6,19.3c2.2,4.2,4.3,6.6,6.2,7.3c1.2,3,2.9,8.1,5,15.2
									c1.1,3.3,1.6,5.9,1.4,7.6c-0.1,1.7,0.3,2.9,1.3,3.6c1,0.7,1.9,2.1,2.6,4.2c1.8,6.7,4.2,12.8,7.3,18.5
									c-0.6,3-0.8,6.1-0.8,9.1c-6.7-19.3-12.1-33.8-16.2-43.6c-8-17.9-14.3-26-18.9-24.5c-2.2,0.8-3.6,2.9-4.2,6
									c-0.1,1.2-0.1,4.4,0,9.6c0.1,5.1,0.6,10.5,1.5,16.2c4.2,18.4,11.3,33.8,21.4,46.1l15.2,17.9c3.1,3,6,5.3,8.7,6.8
									c2.8,1.5,5.3,1.8,7.7,1.2c3.5,5.5,7.8,11.4,13.1,17.5c3.3,5.1,6.8,7.5,10.4,7.3c1.5,3.3,3.8,5,6.9,5l3.1-0.4
									c4.3,4.2,8.2,7.5,11.6,10l-3.9,11.2c-6.9,1-13.3,1.5-19.1,1.7c-5.4-3.9-13-9.1-22.9-15.8l-0.6-12.5
									c-0.3-4.3,0.5-7.9,2.3-10.8c0.4-2.3-0.9-4.5-3.9-6.4c-4.6-2.2-7.8-3.1-9.8-2.7c-0.8,0.3-1.3,1-1.4,2.3v6.8l-19.7,0.4
									c-1.8,0-3.3,0.7-4.5,2.1c-1.2,1.4-1.2,4.2-0.1,8.3c0.1,1.5,0.1,2.8-0.2,3.9c-1,4.4-3.5,9.8-7.7,16.2c-0.6,1-0.3,2.4,0.7,4.4
									c1,1.9,3.6,5,7.8,9.1c1.8,1.8,4.6,4,8.2,6.7c3.7,2.6,10.1,6.6,19.4,12c10.9,6.5,21.4,11.9,31.4,16.2
									c2.1,0.1,15.9-1.7,41.6-5.6l0.2,2.3c-7.3,5.5-12.1,7.8-14.1,6.9c-2.9,0.3-3.8,2.4-2.7,6.4c0.8,1.8,2.4,3,4.6,3.7l2.7,3.1
									l7.7,4.6c2.9,0.8,5.7,0.8,8.3,0c2.5-1,4.2-3.1,5-6.4l9.1-9.1l6-4.6c4.7-0.8,7.8-2.5,9.1-5c0.3-2.2,0.9-3.6,1.9-4.2l7.3-5
									c0.3-0.7,3.3,0.5,8.9,3.5c2.8,0.7,5.2,0.5,7.3-0.4l5.4-3.1c4.9,1.1,13.4,7.1,25.6,18.1c-0.1,1.2,0.6,2.7,2.3,4.4
									c1,1.2,3.6,2.3,7.9,3.1l2.9,5.4l2.9,1c4.3,0.1,8.3-1.4,12.1-4.6l4.6-1.5c2.4-1.8,3.4-3.6,3.1-5.4l-1.9-1.9l-3.9-1
									c-5-2.3-10-5.5-15.2-9.5l-3.3-2.5c15.1,2.6,33.9,4.7,56.3,6.2c2.8,0.5,6.5-0.9,11.1-4.3c4.6-3.4,18.7-13.4,42.1-30
									c3.5-3.8,6.2-8,8.3-12.9c-2.1-1.9-3.9-4.7-5.5-8.3s-2.6-6.6-3-9.1c-0.5-2.4-0.6-4.5-0.2-6.3c0.4-1.9-0.2-3.6-1.9-5.3
									c-0.7-1-2.3-1.6-4.8-1.9c-4.4-0.4-9.4-0.3-15,0.2c-2.6-0.3-4.2-0.9-4.6-1.9l0.2-5c0.4-2.2-0.2-3.2-1.9-2.9
									c-6.1,1.5-9.8,3-11,4.6c-1.8,1.9-1.7,4,0.2,6.2c1.5,1.4,2.3,3,2.3,4.8c-0.8,9.2-1.6,15.3-2.3,18.5c-10.1,8-17,13-20.6,14.8
									c-2.9,1-9.4,0.5-19.5-1.2c-2.2-1.9-3.8-5.3-4.8-10c3.5-2.1,7.1-4.6,11-7.5c2.6-0.4,4.9-0.9,6.7-1.6c1.8-0.6,2.7-2.3,2.7-5.1
									c1.8-0.7,3.1-2.2,3.9-4.6l12-14.5c3.9-3.3,8.1-5.3,12.7-5.8c5.5-0.4,12.7-3.5,21.6-9.3c1.4-1.5,1.4-3.7,0-6.4
									c2.6-1.5,6.9-5.8,12.9-12.9c2.4-3.3,2.9-7,1.7-11c5.5-6.6,8.7-11.9,9.4-15.8c0.5-3.5,0.5-7.2-0.2-11.2
									c2.6-1.7,4.5-3.1,5.5-4.3c1-1.2,1.6-2.8,1.6-4.9C347.8,207.4,347,205.7,345.5,204.3z M236.6,48.2l-7.1-2.3l0.4-4.8L226,42
									c-3.7,1.2-7.5,0.1-11.2-3.3c-2.5,0.4-3.5-0.5-3.1-2.9c1-2.1,0.7-3.2-0.8-3.3l-6,0.6c-3.9-0.5-6.4-1.7-7.7-3.3
									c-0.8-1.4-0.3-3.1,1.7-5.2c-3.7-1.5-6.1-3.2-7-5c-0.9-1.8-0.3-3.3,1.7-4.4c2-1.1,5.7-1.3,11.1-0.6c-1.2-1.5-1.6-3.1-1-4.8
									c0.1-1.7,3.7-0.8,10.8,2.7l4.2,2.5c1.1-2.1,3-2.7,5.6-1.9c3.2,1.5,6.2,3.4,8.9,5.5s5.9,5.2,9.4,9.2c2.9-1.9,5-1.5,6.2,1.2
									l0.6,5c-3-2.9-6.8-3.1-11.2-0.6l-2.9-1.2c-4-4.9-6.4-8.5-7.3-11c-0.8-3.2-1.2-3.5-1.2-0.8c0.1,2.8,1.8,6.3,5,10.6
									c-6.1-1.9-10.6-4.4-13.4-7.5c-2.9-3-5-5.6-6.5-7.7c-1.5-2.5-2.1-2.5-1.9,0c1.7,3,3.9,5.9,6.9,8.5c-2.2-1-4.3-1.9-6.2-2.9
									c-4.9-2.1-8.9-3.2-12.1-3.3c-1.5,0-1.6,0.3-0.2,0.8c5.4,1.4,9.3,2.7,11.7,3.9c2.4,1.2,4,2.2,4.9,3.2
									c-3.9,1.7-7.9,2.4-12.1,2.3c-2.6-0.1-3.8-0.1-3.5,0.2s1.1,0.5,2.5,0.8c5,0.5,10,0,15.2-1.7c3.7,1.9,8.1,3.8,13.1,5.6
									c-3,0.7-6,2.1-8.9,4.2c-1.1,1.4-0.5,1.5,1.6,0.2c2.2-1.7,5.5-2.7,10-3.1l3.5,1.5c-0.3,3.7,0.6,7.5,2.7,11.4L236.6,48.2z
									 M253.3,68.2c-7.8,0.1-9.3,0-9.8-1.2c-0.3-0.9-0.5-1.8,2.3-3.3l1.4-2.4c-4.5-2-8.7-4.5-8.9-10.1l3.7-1.5
									c1.7-1.9,1.7-3.4,0.1-4.4c-1.6-1-2.5-3.5-2.6-7.7c1.5-3.3,5.3-3.3,11.2,0c2.6-5.1,5.8-6.6,9.5-4.6c-4,0-6.4,1.7-7.1,5.2
									c-0.4,2.2-0.4,4.9,0,8.1c-1.4-1.9-3-3.6-5-5c-3.7-1.9-4.4-1.7-2.1,0.6c2.4,2.4,4.4,4.8,6.2,7.3c-3,2.5-6.4,3.6-10,3.3
									c-1.2,0.5-1,0.9,0.6,1c1.7,0.4,3.6,0.3,5.8-0.4c-0.3,2.2,0.5,5.9,1.4,8.1c1.3,1.9,3.1,3.6,5.1,5.1
									C254.5,66.7,253.7,67.2,253.3,68.2z M257.6,72.1c-0.1-1.7,1.3-2.6,4.4-2.8c3-0.2,3.5-1.1,1.5-2.6c-4-1.4-7.3-3.7-10-7
									c-1.8-2.4-1.8-4,0-5l3.1-0.8L258,52l-1.9-7.3c-0.5-3.7,0.5-6.4,3.1-7.9c3.7-0.5,7.4,0.5,11,3.3c0.1-1.9,1.4-2.5,3.9-1.8
									c2.4,0.8,4.7,5.9,6.8,15.5l3.3,1.2c1.1-2.6,2-4,2.7-4c1.1,0,2.2,2.3,3.3,6.9c2.8,2.5,4.1,6.6,3.9,12.2
									c-1.8,2.4-2.8,5.3-2.9,8.7l-1.7-3.7c-1-4.2-1.4-8.5-1.2-13.1c-0.1-1.9-0.4-1.9-0.6,0c-0.4,4-0.5,7.4-0.2,10.2
									c-3.7-4.9-7.8-9.2-12.1-13.1c-0.8-3-1.1-6.5-0.8-10.4c-0.4-3.3-0.8-4.1-1-2.3c-0.3,4.2-0.1,8,0.4,11.6
									c-3.2-3.2-6.9-7.8-11.2-13.9c-1.1-1.9-1.6-2.4-1.5-1.2c2.6,5,5.4,9.1,8.3,12.5s5.3,6,7.1,7.9c-3.6-1.1-6.7-1.8-9.4-2.2
									c-2.6-0.4-5-1.1-7.3-2.2c-2.1-0.4-2,0.1,0.2,1.5c1.2,0.8,3.8,1.6,7.6,2.3c3.8,0.7,7.4,1.9,10.7,3.5c1.8,1.1,4.2,3.9,7.3,8.5
									l2.5,5.6c-3.9-2.1-8.2-3.5-12.9-4.4c-4.7-0.8-7.5-1.6-8.3-2.3c-3.6-1.5-4-1.4-1.2,0.4c0.8,0.8,3.8,1.8,8.8,2.8
									c5,1,9.9,3,14.6,5.9l0.4,1.2c-1,1.1-1.3,2.6-1,4.6l1.5,4.2c-1.2-1.5-3-0.8-5.2,2.1c0.8-1.8,0.6-3.5-0.6-5
									c-1.9-2.9-6.6-6-14.1-9.4L269,83C263,81,259.2,77.4,257.6,72.1z M308.2,175.7c-1.5-2.1-3.5-5.4-6.2-9.9s-4.7-8-5.9-10.8
									c-1.2-2.8-1.5-5.6-0.6-8.5c0.1-0.2,0.1-0.5,0.2-0.7c0.5-1.6,0.8-2.9,1.2-4c0.2-0.7,0.5-1.4,0.7-1.9c0.5-1.5,0.5-1.8-0.2-0.8
									c-0.3,0.5-0.6,1-0.8,1.5c-1.1,2.1-1.9,4.2-2.5,6.2c-0.1,0.3-0.2,0.5-0.2,0.8l-0.2-0.6l-4-11.3c0.2-1.7,0.6-3.7,1.3-5.8
									c1.2-3.6,3.3-7.7,6.2-12.3c1.4-2.5,1.2-2.7-0.4-0.6c-3.2,4.3-5.6,8.7-7.1,13.1c-0.4,1.2-0.8,2.5-1,3.7l-1.5-3.4l-4.9-10.9
									c-0.1-2.6,1.5-7.6,5-15c1.8-3.9,1.4-3.7-1.2,0.4c-2.2,4.2-3.8,8-4.8,11.6c-0.6-2.5-1.2-4.9-1.8-7.2
									c-0.8-3.2-1.7-6.1-2.5-8.8c-0.4-1.5-0.9-2.8-1.3-4.1l-1.5-0.4l0.6,1.6l0.2,0.6c0.7,4.7,1.7,8.9,2.8,12.8
									c0.5,1.9,1.1,3.6,1.8,5.3c-1.2-1.1-2.5-2.1-3.9-3c-1.6-1.1-3.3-2-5.1-2.9c-1.8-1-1.8-0.8,0,0.6c1.6,1,3.1,1.9,4.5,2.9
									c1.9,1.4,3.5,2.8,4.7,4.2c1.7,3.9,3.2,7.4,4.6,10.6c-1.5-1-3.5-2.2-6.1-3.4c-1.9-0.9-4.1-1.8-6.6-2.8
									c-2.2-0.4-2.2-0.1,0,0.8c2.9,1.2,5.3,2.3,7.3,3.5c2.3,1.3,4.1,2.6,5.3,3.9c0.5,0.5,1,1.1,1.3,1.6l4.2,11
									c-1.5,0-3.5-2.3-6-6.9c-2.1-3.9-7.3-7.6-15.6-11.2c-1.7-0.7-2.4-2.1-2.3-4.4c0.3-1.5,1.9-2.1,4.8-1.9
									c-0.8-2.4-1.8-4.2-2.9-5.6L266,111c-2.2-4.6-0.9-6.9,3.9-6.9c-1.8-2.8-2.4-4.9-1.9-6.4c0-0.5,0-0.9,0-1.4
									c0.1-2.1,0.8-4.2,1.9-6.3c0.8-1.6,1.5-3.3,1.9-5c2.6,1.5,5,2.8,7.2,3.9c2.1,1,3.3,2.9,3.4,5.7l-1,6.4
									c0.4,1.2,1.5,0.8,3.3-1.2c1.8-2.5,3.3-3.9,4.4-4.4c1.5,0.7,3,1.9,4.4,3.8c1.4,2.6,0.9,7.5-1.5,14.5l-2.3,5.8
									c4.7-6.2,8.5-9.2,11.4-8.9c1,0.7,1.3,2.1,0.9,4.3c-0.3,2.1-0.3,4.4,0,6.8c0.4,2.4-0.5,4.4-2.4,6s-3.3,4.4-3.9,8.1
									c4.4-3.3,6.2-2.7,5.4,1.9l-2.5,8.9c-0.7,4.3,0,6.3,2.1,6c2.1-0.3,3.4,0,3.9,0.8c0.5,0.8,0.6,2.3,0.3,4.4
									c-1.2,2.9-1.8,4.8-1.7,5.7c0.1,0.9,0.5,1.7,1.1,2.3c0.6,0.6,2,0.5,4-0.4s3.1-0.3,3.1,1.9s0,4.2,0.1,6.2c0.1,2,0.7,4,2,5.9
									c0.9,1.3,2.1,2.2,3.6,2.6c0.1,0,0.1,0,0.2,0.1l1.9-2.3c-2.8,0.1-4-1.7-3.9-5.4c0.2-3.8,0.2-6.7-0.1-8.7
									c-1.1-2.6-2.2-4.1-3.3-4.4s-3.7-7.2-7.7-20.8l4.4,0.2c3.2,11.6,5.8,17.9,7.7,18.8c1.9,0.9,2.8,1.9,2.7,3.1
									c-0.1,1.2,0.2,3.7,1,7.6c2.5-0.7,3.9-3,4.4-6.9c0.7-3.6-0.4-6.4-3.1-8.3c-2.9-1.7-4.6-3.2-5-4.6c-0.8-2.4,0.1-3.8,2.7-4.4
									c1.5-0.8-2.1-4.2-11-10c-4.6-3.2-6-6-4.1-8.5c0.7-1.2,2-1.2,3.9,0.1c1.9,1.3,3.1,1.6,3.6,0.9c1-1.9,0.2-3.3-2.3-4
									c-2.5-0.8-3.7-1.6-3.5-2.6c-0.1-4.3-0.1-7.2,0.2-8.7c0.3-1.5,0.1-3.3-0.4-5.4c-1.5-2.2-4.4-2.1-8.7,0.4
									c1-2.4,1.2-4.6,0.7-6.9c-0.5-2.2-1.6-4.4-3.2-6.4l-2.1-6.4c-0.5-2.2,0.7-3.7,3.7-4.6c-1-4.3-1-7.3,0-9.1
									c1-1.9,1.7-3.5,2.1-4.8c0.4-1.2,1.7-1.4,3.7-0.4c2.1,1,5.4,4.6,10,11c2.2-2.5,4.4-1.6,6.5,2.7c2.5,3.9,3.5,8.5,2.9,13.9
									c5.1-2.8,6.9-0.9,5.4,5.6c2.2,4.6,3.6,8.1,4,10.7c0.5,2.6,0.1,5-1.2,7.2c-1.3,2.2-1.9,3.9-1.9,5.1c0.1,1.2,0.5,1.1,1.5-0.1
									c0.9-1.2,2.7-2.3,5.5-3.1c1.8,3.9,2.6,6.4,2.3,7.7c0,1.5-0.9,3.2-2.8,5c-1.9,1.8-3,3.9-3.2,6.4c0,1.2,0.6,1.9,1.9,1.9l3.7-1
									c1.9-0.3,2,1.2,0.2,4.6c-1.9,3.6-3.4,6.7-4.3,9.1c-0.9,2.5-1.4,4.5-1.4,6c-0.1,3.2-0.7,5-1.7,5.6c0.3-4,0.2-8.2-0.3-12.6
									c-0.5-4.4-1.4-9.2-2.6-14.6c1.1-1,2.6-4.2,4.6-9.8c1-2.8,0.8-3.1-0.6-1c-1.5,4.2-3,6.7-4.6,7.7c-1.5-5.1-3.2-11.4-5-18.7
									c2.1-3.5,3.4-7.8,4-13.1c0.1-4.4-0.1-4.8-0.8-1c-0.8,5.3-2.4,9.4-4.6,12.3c-1.8-5.8-3.7-11.3-5.8-16.4
									c0.7-2.9,1-6.3,0.8-10.2c-0.1-3.9-0.5-4-1-0.4c0,2.9-0.4,5.4-1,7.5l-4.6-11.6l-2.9-6.7c-1-2.2-1.3-2.2-1,0L306,88
									c-2.1-2.4-4-4.1-5.8-5.2c-1.8-1.1-2.1-1-1,0.2c3,2.6,5.7,5.5,7.9,8.5c1.8,4.4,3.6,9,5.4,13.7c-5.3-4.4-8.9-6.9-11-7.5
									c-2.6-1-2.6-0.5,0,1.5c3.7,2.4,8.2,6.5,13.3,12.5c1.7,4.9,3.3,9.5,4.8,14.1c-2.6-1.5-5.8-4.6-9.5-9.1
									c-1.7-1.7-1.7-1.4-0.2,0.8c3,4.6,6.6,8.6,10.6,12.1l3.1,12.7c-3.2-3.2-7.3-6.5-12.5-9.8c-2.2-1.4-2.4-1.1-0.4,0.8
									c4.4,3.2,9.1,7.9,13.9,14.1c1.4,3.9,2,11,1.9,21.4c-0.1,2.6-2.1,4.6-5.8,5.8l0,0.4l-0.8,9.6l-5.2,0.2
									C311.8,180.9,309.7,177.9,308.2,175.7z M315,185.5c0.8-0.3,2.7,0,4.5,0c-1.9,10.5-4.2,22-6,29.3l-2.9-1.7
									C313.1,203.1,314.4,191.8,315,185.5z M278.1,244.7c-0.8-0.6-3.1-2.5-7-5.7c-3.5-3-4.6-5.8-3.3-8.3c-1-1.2-1.8-2.7-2.6-4.3
									c-0.8-1.7-0.6-3.3,0.5-4.9s3.7-0.9,7.7,2.2c0.7-2.4,0.7-4.6,0-6.7c-0.7-2.1-1.5-4.2-2.5-6.2c-1.8-3.3-3.5-6.2-5.2-8.5
									c-0.8-1.7-1.3-3-1.4-3.9c0.1-0.5,0.2-1,0.3-1.5c0,0,0,0,0.1,0c0.8-0.4,2.1,0.1,4,1.7c3.5-3.8,5.7-4.8,6.9-3.2
									c1.1,1.6,2,4.3,2.7,8c0.7,3.7,0.8,7.6,0.2,11.6l-0.8,0.8l0.8,0.8c0.3,0.8-0.1,3.9-1,9.3c0,1.1,0.3,2.2,1,3.3c0,0,0,0,0,0
									c0,0,0,0,0-0.1c-0.3-1.6-0.3-2.9-0.2-3.7c0.1-0.7,0.6-2.3,1.4-4.9c0.8-2.6,1.1-4,1.1-4.4s0-0.6-1.1-0.7
									c1.2-0.4,1.5-1,1.8-1.8c0.4-0.8,0.4-1.5,0.2-2.3c-0.2-0.8-0.4-3-0.4-6.5c-0.1-3.6-0.4-6.3-1-8.2s-1-3.3-1.1-4.4
									c-0.1-1-1-1.6-2.5-1.8c-1.5-0.1-3.7,1.4-6.4,4.6c1.2-6,2.5-9.9,3.9-12c1.3-2,2.7-2.6,4-1.8c1.4,0.8,2.3,1.7,2.7,2.7
									c0.4,1,1,0.8,1.9-0.5c0.8-1.3,1.5-1.8,2.1-1.4c0.5,0.4,1.1,1.2,1.8,2.5c0.6,1.2,1.1,2.6,1.4,4c0.3,1.4,0.5,3.9,0.7,7.6
									c0,0.3,0,0.7,0,1c0.1,2.8-0.3,4.9-1.1,6c-0.1,0.1-0.2,0.2-0.2,0.3c-1.1,1.2-1.7,2.8-1.7,4.6c0.3,7.2,0.8,10.8,1.7,10.7
									c0.8-0.1,1.8-0.6,3-1.7c1.2-1,2.2-1.4,3.1-1.2c0.7,0.2,1.2,1.6,1.4,4.1c0,0.6,0.1,1.2,0.1,2c0.1,3.7,0.5,4.1,1,1.2
									c0.5-3,1.6-4.5,3.1-4.5c1.5,0,1.8,4,0.8,12.1c-5.4,4.8-9.3,8.9-11.6,12c-0.8-3.5-0.9-5.9-0.1-7.3c0.8-1.4,1.5-2.9,2.1-4.7
									c0.6-1.7,1.1-3.3,1.6-4.7c0.1-0.4,0.2-0.7,0.3-1c0.7-2.2,0.4-2.2-0.8-0.1c0,0.1-0.1,0.2-0.2,0.3c-0.8,1.7-1.6,3.1-2.2,4.4
									c-0.6,1.2-1.4,2.5-2.2,3.7c-0.2-1.8-0.9-4.9-2-9.1c-0.2-0.9-0.5-1.8-0.7-2.8c-1.2-3.9-1.6-3.8-1,0.2
									c0.1,0.8,0.3,1.6,0.4,2.4c0.9,5.7,1.5,11.1,1.9,16.5c-2.4-2.5-4.7-4.6-7.2-6.4c-0.6-0.4-1.1-0.9-1.7-1.3
									c-1.7-1.4-3.3-2.9-4.7-4.5c-1.5-1-1.8-0.8-0.8,0.4c1.2,1.6,2.8,3.4,4.8,5.3c0.8,0.8,1.6,1.6,2.6,2.4c3.3,3,5.2,4.9,5.9,5.9
									c0.7,1,1.1,1.8,1.2,2.5c-1.2,1.7-2.7,3.4-4.4,5.2c-0.4-0.2-0.6-0.5-0.9-0.7c-0.5-0.5-0.7-1.2-0.8-2.1
									C279.3,246.3,278.9,245.3,278.1,244.7z M266.7,265.5c1.8,0,4.2,0.9,3.6,2.4c-0.6,1.5-1.3,4-2.7,4.2
									c-1.4,0.2-4.1-1.8-4.1-3.6C263.5,266.7,264.9,265.5,266.7,265.5z M203.6,320.6c1.7-1.9,3.8-3.7,6.4-5.2
									c11.8-5.8,19.6-9.2,23.5-10.2c0.7-0.3,1.3-0.1,1.9,0.6l1.6,2.1l-2.3,1.5c-1.4,1.1-3.1,1.6-5.2,1.5c-1.8-0.1-4.2,0.5-7.3,1.8
									c-3,1.3-4.7,3.2-5,5.5c-0.5,1.7-1.3,2.7-2.3,3.1c-3,1.7-5.8,3.1-8.3,4.3l-6.5-0.4L203.6,320.6z M220.2,322.1
									c-0.7-2.3,0.1-4.2,2.5-5.6c2.2-1.7,4.6-2.3,7.3-2.1c1.1,0.1,1.2,2.2,0.2,6c-0.8,1.9-4.9,4.3-12.3,7l-6.9-0.8l7.3-4.2
									l1.9,2.9h1L220.2,322.1z M180.3,323.1l2.1,2l-4.6-2.2L180.3,323.1z M109.4,304.6c1.2-0.5,2.7-0.4,4.5,0.4l10,4.8l17,6.4
									c4.2,4.4,6.7,7.5,7.7,9.1c-3.5,0.4-7.2,0.7-11.2,0.8l-8.9-6.2c-3.6-4.3-6.2-7.4-7.9-9.3c-1.7-1.9-3.3-3.3-4.8-4.2
									c-2.2-1.2-4-1.7-5.4-1.2c-1,0.3-2,1.7-3.1,4.2l-0.4-0.4C107.3,306.7,108.2,305.2,109.4,304.6z M119,313.6
									c-1.9,1-3.9,1-5.8,0l-3.3-2.5c1.1-2.8,2.6-3.7,4.4-2.7l3.3,2.9L119,313.6z M82.9,196.4c-0.2,3.8-0.9,8.2-1.8,13.1
									c-0.6,3.2-1.4,6.5-2.3,10.1c-0.1-7.6-0.5-12.8-1-15.4l0.9-2.6l0.9-2.6c0.1-1.8-0.2-1.9-1.1-0.2l-0.4,0.8l-0.8,1.5l-0.2-4.2
									l0.4-0.5l2.8-3.5C82.3,191,83.2,192.1,82.9,196.4z M79.8,185.2c1.8-0.4,2.1,0.4,1,2.5l-3.9,5.8c-0.2-1.5-0.4-2.9-0.6-4.1
									c-0.1-0.7-0.2-1.4-0.2-2C77.3,186.4,78.6,185.7,79.8,185.2z M63.4,194.9c2.9-11.5,5.7-17.6,8.3-18.3
									c1.5,4,2.8,11.5,3.7,22.3c1,10.9,1,20.7,0,29.4c-1.2,11.1-3.1,18.6-5.6,22.4l-2.7,5.8c0-6,0.1-11.3,0.2-15.8
									c0-1.7,0.1-3.2,0.1-4.7c0-0.2,0-0.3,0-0.5c0.2-5.4,0.4-12.6,0.6-21.5c0.2-8.9,0.8-19.1,1.8-30.4c0.6-2.8,0.4-3.4-0.4-1.9
									c-2.2,11.5-3.5,26.2-3.9,44.2l-0.1,6.3l-0.1,5.5l-0.1,5.3l-0.3,10.5l0,0.4l-2.7-3.1c-0.1-0.5-0.2-1-0.3-1.5
									c-0.1-0.8-0.3-1.5-0.4-2.3c-1.2-7.4-1.9-15.1-1.9-23.1c0-1.2,0-2.5,0.1-3.7C60,212.6,61.3,204.1,63.4,194.9z M45,229.7
									c0.6-2.9,1.5-5.8,2.7-8.8c2.8-7.4,7.2-15.1,13-22.9c-1.4,5.7-2.2,9.9-2.3,12.7c-2.8,4.8-5.3,9.7-7.5,14.5
									c-2.6,5.7-4.8,11.3-6.6,16.9c-0.8,3.2-1.5,7-2.1,11.4C41.7,247.9,42.7,239.9,45,229.7z M58.6,247.1l-4.6-5.8l3.3-8.3
									C57.2,237.5,57.6,242.2,58.6,247.1z M153.1,23.1c0,2.6-1.6,5.5-4.8,8.7c-4.9,4.4-10.9,8.5-18.2,12.2
									c-7.3,3.7-16.7,8.2-28.4,13.3v-1.2C115.9,45.6,129,37,141.1,30.4c3.2-1.9,2.9-2.5-0.8-1.7c-4.1,2.1-8.7,4.6-13.7,7.7
									c-8.3,5.4-16.4,10.7-24.3,16l0.2-2.5c15.8-13.9,28.8-22.8,38.9-26.8C146.3,22,150.2,22,153.1,23.1z M106.3,28.1
									c7.6-6.2,16.6-11.1,27.1-14.5c5.1-1.4,9.6-2,13.3-1.9c1.8,0.4,2.3,1.5,1.4,3.1l-4.6,6c-4,0.5-9.5,2.9-16.5,6.9
									c-7,4-14.5,9.4-22.6,16l-2.9,1.9c-1.5-1.1-4.3-0.6-8.3,1.5c12.8-10.7,23.8-18.8,33.2-24.3c6.1-3,9.6-5.2,10.6-6.4
									c-3.1,0.8-7.3,2.7-12.9,5.7c-5.5,3-14.7,9.2-27.4,18.6l-12.3,11C91.5,42.1,98.7,34.3,106.3,28.1z M93.5,51.1
									c2.2-1.2,3.7-1.7,4.6-1.5c0.6,1.4,0.7,3.3,0.4,5.7c-0.3,2.4-2.1,7.5-5.4,15.3l-1.6,3.1l-2.6,5l-3.6,6.9
									C80,86.3,74.8,88.8,70,93.1c2.5-4.3,5.5-9.2,9-14.8c3.5-5.5,9-13.8,16.5-24.9c1.2-2.1,1.3-2.6,0.1-1.6c-1.2,1-4.3,5-9.4,12
									c-5.1,6.9-12,17.7-20.6,32.2c-0.4,0.6-0.8,1.2-1.4,2.1c-0.2,0.3-0.4,0.7-0.7,1c-0.3,0.5-0.6,1-1,1.5
									c-0.2,0.3-0.4,0.5-0.5,0.8c-0.2,0.3-0.4,0.6-0.6,0.9c-0.2,0.2-0.3,0.5-0.5,0.7c-0.3,0.5-0.7,1-1,1.6
									c-0.2,0.3-0.4,0.5-0.5,0.8s-0.4,0.6-0.6,0.9c-0.2,0.3-0.4,0.6-0.6,0.9c-0.2,0.3-0.4,0.6-0.6,0.9c-0.4,0.6-0.8,1.1-1.1,1.8
									c-0.2,0.4-0.5,0.8-0.8,1.2c-0.4,0.6-0.8,1.2-1.2,1.9c-0.1,0.1-0.1,0.1-0.1,0.2c-0.5,0.7-0.9,1.5-1.5,2.2
									c-0.2,0.4-0.5,0.8-0.8,1.2c-0.3,0.5-0.6,1-0.9,1.5c-0.6,1-1.3,2-2,3c-0.1,0.2-0.2,0.3-0.3,0.5c-0.3,0.4-0.6,0.9-0.9,1.3
									c-0.7,0.7-2.8,1.1-6.2,1.2l-6.9,20.2c0.6,0.8,2.3,0.5,5.2-0.8c-1.4,2.6-3.5,4.1-6.2,4.4l-1.7-1.2l-0.8-3.1l0.2-1.9l1.7,0.2
									l7.3-18.5l-4.4-5.4l1.1-3.1c1.4,2.9,2.7,4.5,3.9,4.8c1.9-3.7,4.7-8.8,8.4-15.3c3.7-6.4,8-13,13-19.6L62.5,83
									c0-1,0.5-1,1.4-0.2l10.4-15l-8.5,14.8c1.4,1.5,0.8,2.6-1.9,3.1c-8.9,11.8-15.6,23.5-20.4,35.1l2.1,0.6
									c1.2,0.5,2.4,0,3.5-1.6l12.7-22.4L74,74.9C79.6,64.7,86.1,56.8,93.5,51.1z M48.2,125.7c-2.9,5.4-5.1,10.2-6.7,14.5l-1.7-0.2
									l4.4-13.5L48.2,125.7z M38.8,148.4l-4.1,11.2l-2.9,9.8l1-8.3l1.5-6l1.2-6L38.8,148.4z M32,138.4c1-6.2,2.3-11.9,3.9-17
									l1.7,2.1L32,138.4z M62.5,63.8c2.4-4.9,5.8-10.3,10.4-16.4c1.4-3.2,0.6-3.1-2.3,0.2c-6.8,8.5-14.7,21.8-23.7,40.1l4-10
									c0.7-2.2,2.9-7.2,6.6-15.1c3.7-7.8,7.4-14,11-18.6c3.6-4.6,6.1-7.5,7.5-8.9c5-4.3,7.9-6.3,8.7-6c0.7,0.5,0.9,1.5,0.6,2.7
									L75.2,58C68.5,70.9,59.8,84.3,49,98.3c-4.6,5-7.4,8.2-8.5,9.5c-1.1,1.4-2,2.7-2.7,4l0.8-3.5l3.9-6.2
									C48.1,93,54.8,80.3,62.5,63.8z M34.5,215.5c0-2.8-0.3-4.5-0.9-5.2c-0.6-0.7-1.2-2-1.9-3.8c-0.6-1.9-1.6-4.6-2.8-8.3
									c-1.2-3.7-2.2-7-2.7-9.9h0c-3.7-1.7-6.4-4.5-8.1-8.4c-1.7-3.9-3.2-9.1-4.7-15.5c-1.4-6.4-2-14-1.8-22.9
									c0.7-10.5,2.2-20.8,4.6-30.8c3.5-13.9,10.5-27,21.2-39.5c2.4-2.6,3.8-3.3,4.4-1.9c0.6,5.5,0.5,10.9-0.1,16.1
									c-0.6,5.2-2,11-4.1,17.4c-5.4,18-8.7,30.1-9.8,36.4c-2.1,7.3-4.4,16.9-6.9,28.7c-1.1-5.7-0.4-17.6,2-35.8
									c2.4-18.2,5.5-31.2,9.2-39c1.8-4,1.7-4.6-0.2-1.9c-8.4,14.4-13.4,35.7-14.8,63.8c-0.3,9.8,0.3,16.9,1.7,21.3
									c1.4,4.4,3,6.9,4.8,7.6c1,0.5,2,0.5,3.1-0.2c0.8-5.3,1.4-9.5,1.7-12.8c0.3-3.3,0.7-7.1,1.1-11.4c0.5-4.4,1.3-8,2.6-10.9
									l0.8,0.8c-1.4,6.4-2.1,10.8-2.2,13.3c-0.1,2.5-0.2,5-0.5,7.5s-0.6,7.3-0.8,14.3c1.7-5.7,3.5-11.1,5.4-16.2l6.4-18.7
									l5.7-13.5l2.6-6.2c0,0,0.1-0.1,0.1-0.1c0.8-1.6,1.7-3.3,2.7-5c0.4-0.8,0.9-1.6,1.4-2.4c0.5-0.8,1-1.7,1.5-2.6
									c0.1-0.1,0.2-0.2,0.2-0.4c0.5-0.8,0.9-1.5,1.4-2.2c0.7-1.1,1.4-2.2,2.1-3.4c0.8-1.3,1.7-2.6,2.6-3.9c0.2-0.3,0.4-0.7,0.7-1
									c2-3,4.2-6.1,6.5-9.3c1.3-1.5,2.5-2.8,3.7-3.9c0.4-0.4,0.8-0.8,1.2-1.1l0.6-0.5c0.3-0.2,0.6-0.5,0.9-0.7
									c0.3-0.2,0.6-0.4,0.9-0.6c0.2-0.1,0.4-0.2,0.6-0.4c0.4-0.3,0.9-0.5,1.3-0.7c0.2-0.1,0.5-0.2,0.7-0.3
									c0.2-0.1,0.5-0.2,0.7-0.3c0,0,0.1,0,0.1,0c0.2-0.1,0.5-0.2,0.7-0.2c0.2-0.1,0.4-0.1,0.6-0.1c0.1,0,0.1,0,0.2,0c0,0,0,0,0,0
									c0,0,0.1,0,0.1,0c0.2,0,0.3,0,0.5-0.1c0.6,0.9,0.8,2.4,0.7,4.5v0c0,0,0,0.1,0,0.2c0,0.1,0,0.2-0.1,0.4
									c0,0.2-0.1,0.4-0.1,0.6c0,0.3-0.1,0.6-0.1,0.9c-0.1,0.3-0.1,0.7-0.2,1c0,0,0,0.1,0,0.1c-0.1,0.2-0.1,0.4-0.1,0.6v0
									c0,0,0,0.1,0,0.1c-1,4.3-2.6,8.8-5,13.5c-0.2,0.1-0.3,0.1-0.1,0.2c-0.2,0.4-0.5,0.9-0.7,1.3c0,0.1-0.1,0.2-0.1,0.2
									c-0.5,0.9-1,1.9-1.5,2.8c-0.3,0.5-0.6,1-0.8,1.5c-0.6,1-1.1,1.9-1.7,2.9c-1.1,1.9-2.3,3.8-3.4,5.5c-0.3,0.4-0.5,0.9-0.8,1.3
									c-0.3,0.5-0.7,1-1,1.5c-0.1,0.2-0.2,0.3-0.3,0.5c-0.1,0.2-0.2,0.3-0.3,0.5c-0.3,0.4-0.5,0.8-0.8,1.2c-0.3,0.5-0.7,1-1,1.4
									s-0.7,0.9-1,1.4c-0.3,0.5-0.7,0.9-1,1.4c-0.3,0.5-0.7,0.9-1,1.3c0,0,0,0-0.1,0.1c-0.5,0.7-1.1,1.3-1.6,2
									c-0.8,1-1.6,2-2.5,2.9c-0.5,0.6-1.1,1.2-1.6,1.7c0,0,0,0,0,0c-0.5,0.6-1.1,1.1-1.6,1.6c-0.5,0.5-0.9,0.9-1.4,1.4
									c-0.1,0.1-0.1,0.1-0.2,0.2c-0.4,0.4-0.8,0.8-1.2,1.1h0c-0.1,0.1-0.2,0.2-0.3,0.3l0.2-0.4l10.6-17.2l-3.1-0.4
									c-0.1,0.1-0.1,0.2-0.2,0.3c-0.3,0.4-0.5,0.8-0.8,1.2s-0.5,0.8-0.8,1.2c-1.7,2.7-3.2,5-4.4,7c-0.3,0.5-0.6,1-0.9,1.5
									c-0.2,0.4-0.5,0.8-0.7,1.2c-0.2,0.4-0.5,0.8-0.7,1.2c-0.5,0.9-1,1.7-1.4,2.4c-0.1,0.2-0.2,0.5-0.4,0.7
									c-2.8,5.4-5.5,10.5-8.1,15.2c-2.6,4.7-4.4,8.4-5.2,11s-2.6,7.3-5.2,14.1c0,1.2,0.8,4.8,2.5,10.8c1.6,6,3.1,9.5,4.3,10.5
									c1.2,1,1.3,2.2,0.3,3.4c-0.4,1.1-0.1,3.2,0.8,6.2c0.7,3.3,2.3,7.9,4.8,13.7l-0.6,2.1C38.9,228.8,36.6,222.4,34.5,215.5z
									 M27.6,153.8c-1.4,11.1-2.6,19.7-3.5,26l-0.8-1.7C22.4,176.9,23.9,168.8,27.6,153.8z M93.5,309.9l-2.7-3.5
									c-0.8-1-2-1.2-3.4-0.6c-1.5,0.5-2.6-0.3-3.4-2.5c-3.7,2.2-7.6,1.4-11.4-2.5l-6.9-8.3l-6.4-11l-2.3-1.7c0,0,0,0,0,0
									c-0.1,0.1-0.2,0.2-0.4,0.2c-0.2,0.1-0.5,0.2-0.8,0.4c0,0,0,0,0,0c-0.8,0.3-1.7,0.4-2.6,0.4c-0.2,0-0.4,0-0.6-0.1
									c-0.2,0-0.4-0.1-0.6-0.1l-8.3-5.4c-1.9-1.8-6.1-8.9-12.5-21.4c-8.4-16.1-14.2-28.2-17.3-36.4c-2.2-6.8-3.7-11.1-4.4-12.9
									c-0.7-1.8-1-1.8-0.8-0.1c0.1,1.7,1.2,5.6,3.1,11.6c1.9,6,5.6,14.9,10.8,26.5c4.6,9.4,9.1,18,13.5,25.8
									c-10.2-11.1-17.7-21.5-22.2-31.2c-4.6-9.6-7.6-18.4-9.1-26.6c-0.7-2.9-1.1-7.4-1.2-13.4c-0.1-6-0.1-9.4,0.2-10.1
									c0.7-2.1,1.7-3,2.9-2.7c0.8,0,2.7,2,5.7,5.9c3,3.9,7,12.8,12.2,26.6c5.1,13.8,8.3,22.8,9.5,27.1c1.2,4.3,2.4,8,3.5,11.2
									c1.2,3.2,2.6,6.4,4.3,9.8c2.5,5,5,8.4,7.5,10.2c0.5,0.3,1,0.7,1.4,0.9c0.3,0.1,0.5,0.3,0.8,0.4c0.2,0.1,0.4,0.2,0.5,0.2
									c0.2,0.1,0.4,0.2,0.6,0.2c0.2,0.1,0.4,0.1,0.6,0.2c0.2,0,0.4,0.1,0.5,0.1c0.1,0,0.2,0,0.4,0c0,0,0.1,0,0.1,0
									c0.1,0,0.3,0,0.4,0c0.1,0,0.3,0,0.4-0.1c0.1,0,0.2-0.1,0.4-0.1c0.1,0,0.2-0.1,0.4-0.2c0.1-0.1,0.2-0.1,0.4-0.2
									c0.1-0.1,0.2-0.2,0.3-0.3L50.9,265c-1-2.1-0.8-4.1-2.8-3.6l0.8,1.3c-0.7-0.3-1.4-0.3-2.3-0.1c-0.1,0-0.3,0-0.4,0H46
									c0,0-0.1,0-0.1,0c-0.1,0-0.2,0-0.3,0c-0.6,0-1.1-0.2-1.5-0.4c-0.3-0.2-0.6-0.4-0.8-0.6c-0.1-0.1-0.2-0.2-0.2-0.3
									c-0.1-0.1-0.1-0.2-0.2-0.3c-0.1-0.2-0.2-0.3-0.2-0.5c-0.1-0.2-0.1-0.4-0.2-0.6c0-0.2-0.1-0.4-0.1-0.6c0-0.2,0-0.5,0-0.7
									v-0.1c0,0,0-0.1,0-0.1v-0.2c0-0.1,0-0.3,0-0.5c0-0.2,0.1-0.5,0.1-0.8c0.3-2.5,1.2-6.8,2.7-12.9c0.2-0.8,0.5-1.6,0.8-2.4
									c0.1-0.4,0.2-0.8,0.4-1.1s0.2-0.8,0.4-1.1c0.3-0.9,0.6-1.7,0.9-2.6c0.3-0.8,0.6-1.6,0.9-2.4c0,0,0,0,0,0
									c0.1-0.4,0.3-0.8,0.5-1.2c0.1-0.4,0.3-0.8,0.5-1.2c0,0,0,0,0,0c0.3-0.8,0.6-1.6,1-2.4c0.3-0.8,0.7-1.6,1-2.4
									c0.3-0.8,0.7-1.6,1.1-2.4c0,0,0,0,0,0c0.4-1,0.9-1.9,1.4-2.8c0.5-0.9,0.9-1.9,1.4-2.8c0,0,0-0.1,0.1-0.1
									c0-0.1,0.1-0.1,0.1-0.2c0.1-0.2,0.2-0.3,0.2-0.5c0-0.1,0.1-0.1,0.1-0.2c0.1-0.1,0.1-0.2,0.2-0.3c0.2-0.5,0.5-0.9,0.7-1.4
									c0.5-1,1.1-2,1.7-3.1c-0.5,3.2-0.8,6-0.9,8.5c0,0.3,0,0.7-0.1,1c0,0.5,0,0.9,0,1.4v0.4c-5.1,11.5-8.9,20.8-11.2,27.8
									c-1.2,5.1-1.2,7.6,0.2,7.5l1.6-0.8l-1.2-2.9l0.8-2.3l2.5,4.3l1.4-1l1.2,1.9l-1.2,1.9l9.4,13.5l2.3-1.9l1.7,1.9
									c-2.8,2.8-3.9,4.6-3.3,5.4c2.5,4.6,4.8,8.2,6.9,11c4.2,6.1,7.6,7.8,10.2,5.2c0.8-0.7,1.9-0.5,3.1,0.4c1.2,1,2.6,3,4.2,6.2
									l-0.2-4.8l-7.7-7.3l-4.4-8.7c-3.6-5.1-6.2-9.1-7.7-11.8c-1.5-2.8-3.4-6.1-5.7-10c-2.3-3.9-5.1-8.2-8.4-13.1l0.6-2.3l6.7,8.1
									c6,7.6,10.1,13.4,12.6,17.3c2.4,4,3.9,4.9,4.3,2.8l1.2-3.9l1.9,1l-1.2,8.1l-0.4,2.5c-0.1,1.9,0.2,3.1,1.1,3.4
									c0.9,0.3,1.7,1.6,2.4,3.8c0.4,1.4,2.6,4.3,6.6,8.6c3.9,4.4,8.1,8,12.5,11s8,5.4,10.8,7.3c2.8,1.9,4.2,3.7,4.1,5.5l3.9,0.8
									l-1-5l2.5-0.6c1.2,0.8,2.3,2.3,3.1,4.6c3.6,2.8,6.7,5,9.4,6.6l-9.1,1.7l-15.6-9.4L93.5,309.9z M55.2,261.2l1.2-1.2l5.8,9.8
									l-0.6,1.2L55.2,261.2z M65,280.7l2.3-2.9l5.4,7.7l3.1,5.6l1.1,3.1c-1.9-1-3.6-2.4-5-4.3l-3.3-4.4L65,280.7z M113,330.8
									l-12.5,2.1l2.9-8.3L113,330.8z M142.7,369.7c-5.8,5.7-12.4,11.1-19.7,16.2l-2.5-0.8c4.3-2.6,10.4-6.9,18.3-12.9l3.5-3.9
									l-1.9-0.2c-2.6,2.3-5.7,4.7-9,7.2c-3.4,2.4-7.3,4.8-11.7,7l-6,2.9l1,1.2l4.6,0.6c2.6,1.7,3.7,3.3,3.3,5
									c-1.4,2.1-3.6,2.4-6.7,0.8l-5-2.7c-1.8-1.8-3.6-3-5.4-3.7l-2.1-1.7l0.8-2.1l6.2,2.5h1.9l-1-3.7l7.5-4.6
									c1.9-0.7,2.8-1.9,2.5-3.5l0.6-3.8c3.2,0.7,6.6,0.2,10.4-1.6c3.7-1.7,7.3-2.7,10.6-3C145,366.3,144.9,367.9,142.7,369.7z
									 M137.7,361.1c-7.2,1.6-13.7,3-19.5,4.3c-14.5,2.6-28.9,4.8-43,6.4c-3.6-1-14-6.3-31.2-16c-12.2-7.3-20.7-13.3-25.6-17.9
									c-5.5-6-7.8-9.6-6.6-10.8c3.6-6,6-11.2,7.3-15.8c0.6-1.9,0.7-3.5,0.4-4.6c-1.5-4.7-0.4-7.1,3.3-7.3
									c9.3-0.5,15.5-0.7,18.7-0.4c1.4,0.1,2.3-0.3,2.7-1.2l3.1-6.2l-1.9-0.8l-2.7,4.2l-0.2-4.8c0-0.7,0.4-0.9,1.2-0.6
									c5.8,1.5,8.5,3.5,8.1,5.8c-1.8,3-2.6,6.5-2.5,10.4l0.2,10.8c-7.3-4.8-15.2-9.1-23.7-12.9c1-0.1,2.1-0.2,3.3-0.3
									s2.1-0.5,2.5-1.3c0.4-0.8-0.3-1.3-2.3-1.5c-4.3,0-7.1,0.3-8.3,1c-1,1.1-0.8,2.3,0.6,3.5c10,5,18.8,10,26.4,15
									c12.1,7.6,21.4,13.8,28.1,18.7c6.5-0.1,15.6-1,27.4-2.7l17.9-3.3c7.3-1.4,15-2.6,22.9-3.5c2.9-0.4,6.6-0.7,11-0.8
									c4.4-0.1,8.5-0.5,12.3-1c3.6,6.8,5.8,12.8,6.6,17.9c0.4,2.6,0.1,4.1-1,4.4C156.8,355.6,144.9,359.5,137.7,361.1z
									 M190.9,354.3l-1-3.3l-5.6,7.1l-4.6,2.9c-2.1,1.8-4.2,2.5-6.4,2.1l-7.3-3.5l3.7-1.9l1,0.8c-0.7,2.1,0.1,1.8,2.5-0.8l6.4-6.2
									c0.4-3.7-0.5-8.5-2.7-14.4c-2.2-5.9-3.9-9.6-5-11.1c-0.3-1.2-3.5-1.5-9.6-0.8c3.6-1.8,7.8-1.9,12.7-0.4l5,2.1l2.7-1.2
									l1.5,1.4c7.1,7.6,11.1,12.8,12,15.6c0.9,2.8,1,5.5,0.3,8.1C193.9,354,192,355.3,190.9,354.3z M213.6,383.8
									c-1.2-1-1.6-1.9-1-2.9l4.2,3.5C215.9,385,214.8,384.8,213.6,383.8z M240.6,384.2l2.3,0.4l-0.8,1l-5.4,1.7
									c-2.4,2.1-5.1,3.5-8.3,4.2l-3.5-0.6l-0.8-2.5c0.8-1.2,1.9-2.2,3.2-2.7s3-1,5.1-1.5l5,0.8L240.6,384.2z M232.9,381.9
									c-3.7,0-6.1,0.4-7.1,1.2h-2.9c-4-2.8-7.2-5.3-9.6-7.7l-9.8-7.7c1.8-1,5.7-0.6,11.6,1L232.9,381.9z M262.6,339.7
									c4,0.3,7.1,0.2,9.1-0.5c3.7-1.5,11.4-7.2,23.1-17c11.2-8.4,20.7-14.3,28.5-17.7c2.4-1.4,2.5-2.4,0.3-3
									c-2.1-0.6-5.4-0.9-9.7-0.9c-1.4,1.1-1.2,2,0.4,2.7c1.9-0.1,3.3,0,4.1,0.4c-9.3,4.8-17,9.7-23.3,14.5c0.5-3.2,1-8.7,1.5-16.4
									c-0.1-2.5-1-4.7-2.5-6.7c-1-1.4,0.4-2.6,4-3.7l2.9-0.8v4.6l-4-1l0.4,2.1c0.8,1.5,2.4,2.6,4.6,3.1l11.2,0.6l5-0.2
									c5.8,0.1,8.7,1.6,8.5,4.3c-0.1,2.7,0.1,5.2,0.6,7.6c1,6,3.3,11.6,7.1,17c-0.8,2.5-2.6,5.4-5.4,8.7l-10.8,7.1
									c-9.3,6.7-21.9,15.3-37.8,26c-11.4,0.3-25-0.6-40.9-2.7c-11.5-1.5-24.7-4.4-39.7-8.7l-3.3-0.8l1.5-1.5
									c2.4-3,3.6-5.1,3.9-6.1c0.2-1-0.1-3.4-1-7.1c-0.9-3.7-3.5-8-7.8-13v-1.2l3.1-0.4c8.6,0.5,16.2,1.7,23,3.3
									c6.7,1.7,14.7,3.2,24,4.6C252.1,338.3,258.6,339.3,262.6,339.7z M247,334.2c-3.6-0.5-9.4-1.6-17.5-3.1l7.3-2.5
									c3.9,0.8,6.1,0,6.7-2.5C244,329,245.2,331.7,247,334.2z M290.5,272.9c-2.8,3-3.7,6.2-2.7,9.5c-3.9,2.1-7.6,5.1-11.2,9.1
									c-3.6,4-6.3,7.4-8.2,10.2c-1.9,2.8-3.9,4.4-5.9,5c-2.4,1.1-5.1,0.5-8.1-1.7l-0.8,5.2l-13.9,8.5l-6.9,2.9
									c0.5-1.4,0.9-3.7,1-7.1l2.5-2.1c9.6-5,15.1-9.6,16.6-13.7c1.9-3.5,4-6.3,6.2-8.6c2.2-2.3,3.8-5.1,4.8-8.4l0.2-5l-0.6-5.2
									c2.2,2.5,4.2,3,6,1.7c2.9-5.4,6-10.4,9.4-15.1c3.3-4.6,6.9-9,10.6-13c3.7-4,6.9-7.4,9.5-10.2l-0.2,5.2
									c-8.3,10.2-13.5,17.2-15.6,21c-7.1,10.7-11.8,19.1-14.3,25.3c-1.5,3.5-3.7,6.2-6.7,8.3c-2.2,1.1-3.9,2.3-5,3.5
									c-1,1.8-0.4,2.3,1.7,1.5c1.4-1.4,2.9-2.4,4.6-3.1c3-1.5,9.5-8.7,19.5-21.6l-0.2-7.3l2.3-3.9c-0.1,4,0.2,6.2,1,6.6
									c0.8,0.4,2-0.7,3.4-3.4c1.5-2.7,5-10.2,10.7-22.3c-1.2,3.7-1.3,7-0.2,9.8c-3.3,2.3-4.2,6.4-2.7,12.1L290.5,272.9z
									 M337.1,226.7c-0.5,3.5-1.6,6.4-3.4,8.9c-5.7,6.5-8,10.4-7.1,11.6c1.5,2.6,1.2,5.6-0.8,8.9c-3,3.7-7.1,7.9-12,12.5
									c1.4,2.8,0.4,5.1-3.1,7.1c-4,2.2-8.4,4.2-13.3,5.8c9-6.8,14.5-14.1,16.6-21.8c2.9-2.6,5.5-4.4,7.7-5.2
									c1.9-1.2,2.3-1.8,1-1.7c-2.5,1-5.1,2.5-7.9,4.6c2.6-5.3,4.5-10.9,5.6-17c5.4-5.3,8.8-9.4,10.2-12.5c1.9-2.9,2-3.5,0.2-1.9
									c-2.1,3.5-5.3,7.1-9.6,11c1.9-6,3.7-12.6,5.2-20c0.7-4.3,0.5-5-0.6-2.3l-2.1,7.3c-1-2.9-2.1-5.1-3.3-6.6l2.7,8.7
									c-0.5,3.5-1.9,8.4-3.9,14.8c-1.9-5.5-4.5-10.5-7.7-15c-2.9-3.6-3.4-3.7-1.5-0.2c3.2,4.6,5.8,10.6,7.9,18.1
									c-1.7,6.6-3.6,12.2-5.8,16.6c-1.7-2.5-3.4-4.2-5.2-5.2c-1.4-0.7-1.4-0.3,0,1.2c1.8,1.8,3.3,3.6,4.4,5.4
									c-1.7,4-3.9,7.5-6.5,10.6c-2.7,3-5.4,5.6-8,7.7c3.3-5.1,4.4-10.8,3.3-17c0-1.1,0.9-2,2.6-2.7c1.7-0.7,2.3-1.5,1.8-2.3
									c-1.5-3-2.3-5.5-2.3-7.3c1.1-0.5,2.8-0.5,5,0c1.8-1.2,1.6-3-0.5-5.3c-2.1-2.3-3.5-5.6-4-9.9c0-2.5,1.7-3.4,5-2.7
									c1.5-0.1,1.7-1.9,0.4-5.4l-3.5-4.8c-2.5-5.5-1.5-7.6,3.1-6l5.4,3.3c3.6,1.4,5.3-1,5.2-7.3c0-1.4,1.1-1.7,3.2-0.9
									s4.1-0.9,5.9-4.9c1.8-1.9,3.2-0.1,4.2,5.4c-0.4,7.3,1.4,10.8,5.4,10.4C337.5,221.3,337.6,223.3,337.1,226.7z M343.3,208.9
									c0.2,1.4-0.1,2.5-0.9,3.4c-0.8,0.9-2.4,1.7-4.8,2.4l-2.3-4.2c0.1-3.3-1-6.5-3.3-9.6c1-0.8,2.5-1.7,4.6-2.5
									c1.5-0.7,1.2-0.9-0.8-0.6c-2.2,0.4-4,1-5.2,1.7h-0.4c1.2-4.4,3.3-8.7,6-12.7c0.7-1.8,0.3-1.7-1.2,0.2
									c-2.4,3.3-4.4,6.8-6.2,10.6c-0.8-0.8-1.5-2.4-1.9-4.6c-0.5-2.6-1-2.7-1.2-0.2c0.4,3.2,1,5.5,1.9,6.9c-3,4.7-5.5,6.6-7.3,5.6
									c1.1-6.6,2.6-13.6,4.4-21c3.2-3.2,6-4.2,8.3-3.1c3.3-2.6,6.2-3.1,8.5-1.5c1.2,2.1,1.8,4.1,1.7,6.1c-0.1,2-0.8,4.3-2.1,6.8
									c2.6,0,4,1,4.2,3.1c-1.1,4.7-3.3,8.1-6.6,10.2C341.5,206.5,343.1,207.5,343.3,208.9z"/>
							</g>
						</g>
					</g>
				</g>
				<g>
					<g>
						<g>
							<path class="st1" d="M147.7,355.2c1.9-0.5,3.7-1,5.1-2.8l0.9,1.4l-1-7l-0.5,0.5c0.1,3.7-0.9,6.5-4.1,7.5
								c-4.6,0.5-6.6-4.1-7.6-8.7c-0.5-4.6-0.1-10.2,4.5-10.7c2.8-0.5,5.1,1.8,6.1,5l0.5,0l-1-6l-0.5,0l0,1.4
								c-1.9-0.9-3.3-1.3-5.6-0.8c-5.1,0.5-7.8,5.7-7.3,11.7C138.3,352.6,142.6,356.2,147.7,355.2"/>
						</g>
					</g>
					<g>
						<g>
							<path class="st1" d="M203,334.9l0,0.9c0.9,0,1.8,0.5,1.9,1.4c0.5,0.9,0,2.8,0,3.7l-1.3,8.8c0,0.9-0.4,3.2-0.9,3.7
								c-0.5,0.9-1.4,1-2.3,1l0,0.5c1.4,0.5,2.3,0.4,3.7,0.4c1.4,0.4,2.3,0.4,3.7,0.9l0-1c-0.9,0-1.8,0-1.9-1.3c0-0.5,0-2.8,0.4-3.7
								l0.8-8.8c0.4-1,0.4-2.8,0.9-3.7c0.4-1,1.8-1,2.3-1l0.5-0.5c-1.4,0-2.8-0.4-4.2-0.4C205.8,335.8,204.3,335.3,203,334.9"/>
						</g>
					</g>
					<g>
						<g>
							<path class="st1" d="M130.5,339.2c0,0.9,0.5,2.8,0.5,3.7l1.5,8.8c0,0.9,0.5,2.8,0.1,3.7c0,1.4-0.9,1.4-1.8,1.4l0,0.5
								c1.4,0,2.8,0,3.7-0.5l3.7,0l0-1c-0.9,0-1.9,0-2.4-0.9c-0.4-0.5-0.9-2.8-0.9-3.7l-1.1-8.8c-0.5-0.9-0.5-2.8-0.5-3.7
								c0.4-0.9,1.4-1.4,1.9-1.4l0-0.5c-0.9,0-2.3,0.5-3.7,0.5c-0.9,0-2.3,0-3.7,0.5l0.5,0.4C128.7,338.3,129.6,338.3,130.5,339.2"
								/>
						</g>
					</g>
					<g>
						<g>
							<path class="st1" d="M29.6,325.1c2.3,1.4,4.6,1.4,6.9-1.5c2.3-3.3,0.4-5.6-1.9-7.4c-0.5-0.5-1.4-1.4-2.4-1.8
								c-1.4-0.9-2.4-1.8-3.8-2.8l0,0.9c0.5,0.5,1.4,0.9,1,1.8c-0.5,0.9-1.8,2.8-2.3,3.3l-5,7.1c-0.4,0.9-1.8,2.8-2.8,3.3
								c-0.9,0.5-1.4,0-2.3-0.4l-0.4,0.5c1.4,0.4,2.3,1.4,3.3,2.2c0.9,0.5,1.9,1.4,2.8,1.8l0.5-0.5c-0.9-0.5-1.4-0.9-1.4-1.8
								c0.4-0.9,1.8-2.8,2.3-3.7l2.3-2.8c0.9,0.9,0.9,0.9,1,2.3l-0.4,7.4l-0.4,2.3c0.5,0.5,1.4,0.5,1.9,0.9c0.4,0.5,0.9,0.9,1.4,1.4
								l0.4-0.5c-0.9-0.9-1-1.4-1-2.8L29.6,325.1z M27.2,322.4l4.1-5.6c0.5,0,0.5-0.5,0.9-0.5c0,0,0.9,0.5,1.4,0.9
								c1.4,0.9,1.4,3.2,0.1,5.1C31,325.6,29.6,324.2,27.2,322.4"/>
						</g>
					</g>
					<g>
						<g>
							<path class="st1" d="M110.2,351.9c-0.9-0.9-2.4-0.9-3.8-0.9c1.8-1,3.7-2.4,3.2-5.2c-0.5-3.7-3.8-4.2-6.6-3.6
								c-1,0-1.9,0.5-2.8,0.5c-1.4,0-2.3,0-3.8,0.5l0,0.5c0.9,0,1.9,0,2.4,0.9c0.5,0.5,1,2.8,1,3.7l1,8.8c0,0.9,0.5,2.8,0.5,3.7
								c0,1.4-1.4,1.4-1.8,1.4l0,0.9c1.4-0.5,2.8-0.9,4.2-1c0.9,0,2.3,0,2.8-0.5c1.4,0,3.3,0,4.6-1.5c0.9-1,1.8-2.3,1.8-4.7
								C112.6,354.1,111.6,352.7,110.2,351.9 M102.2,343.6c0,0,1,0,1.4-0.5c1.8,0,2.8,0.9,3.3,3.2c0,1.4,0,2.8-0.9,3.7
								c-0.5,0.5-1.4,0.5-2.3,1l-0.5,0l-1-6L102.2,343.6z M107.1,360.7c-0.9,0-1.8,0-2.3-0.9c-0.5-0.9-0.5-2.3-0.9-3.2l-0.5-4.2
								l0.9,0c0.9,0,1.9-0.5,3.2,0c0.9,0.9,1.9,1.8,1.9,3.7C109.8,358.4,108.9,360.2,107.1,360.7"/>
						</g>
					</g>
					<g>
						<g>
							<path class="st1" d="M114.5,359.7l0,0.5c4.2-0.5,8.8-1.5,13-2l1.4,0l-0.5-5.6l-0.9,0.5c0,1.4,0,2.8-0.9,3.7
								c-0.9,1-2.3,1-3.2,1.4c-3.2,0.5-4.2-0.4-4.7-4.1l-1-8.8c0-1-0.5-3.3-0.5-4.2c0.4-0.9,1.4-0.9,2.3-1l-0.5-0.9
								c-0.9,0.5-2.3,0.5-3.7,0.5c-0.9,0.5-2.3,0.5-3.7,0.5l0.5,0.9c0.5-0.5,1.9-0.5,2.3,0.4c0,1,0.5,3.3,0.5,4.2l1.5,8.3
								c0,0.9,0.5,3.3,0.1,4.2C116.4,359.2,115.5,359.2,114.5,359.7"/>
						</g>
					</g>
					<g>
						<g>
							<path class="st1" d="M95.4,353.9c-0.9-0.5-2.3-0.5-3.7-0.5c1.8-0.9,3.2-2.3,2.7-5.1c-0.5-4.2-4.3-4.6-6.6-4.1
								c-0.9,0.5-1.8,0.5-3.3,0.5c-0.9,0.5-2.3,0.5-3.2,0.5l0,0.9c0.9-0.5,1.9-0.5,2.3,0.4c0,0.9,0.5,3.2,0.5,4.2l1.5,8.4
								c0,0.9,0.5,3.2,0.5,4.2c-0.5,0.9-1.4,0.9-2.3,1.4l0,0.5c1.9,0,2.8-0.5,4.7-0.5c0.9-0.5,1.8-0.5,3.2-0.5
								c1.4,0,3.2-0.5,4.2-1.4c1.4-1.4,2.3-2.8,1.8-4.7C97.8,356.2,96.9,354.8,95.4,353.9 M86.5,347l0-0.9c0.5-0.5,1.4-0.5,1.4-0.5
								c2.3-0.5,3.3,0.9,3.8,3.2c0,1.4,0,2.3-0.9,3.3c-0.5,0.9-1.4,0.9-2.3,1l-0.9,0.5L86.5,347z M91.8,362.8
								c-0.9,0.5-1.8,0.5-2.3-0.4c-0.4-1-0.9-2.8-1-3.7l-0.5-3.7l0.5,0c1.4-0.5,2.8-0.5,3.7,0c1.4,0.5,1.9,1.8,2.4,3.2
								C95.1,360.9,94.2,362.7,91.8,362.8"/>
						</g>
					</g>
					<g>
						<g>
							<path class="st1" d="M160.6,352.7l0-0.9c-0.9,0-2.3,0.5-2.4-0.9c-0.5-0.9,0.4-3.2,0.4-4.6l0-0.9l6-1l1.9,3.2
								c0,0.5,0.5,1.4,0.5,1.8c0.5,1.4-0.9,1.4-1.4,1.9l0,0.5c0.9,0,2.3-0.5,3.7-0.5c0.9-0.5,2.3-0.5,3.2-0.5l0-0.9
								c-0.9,0-1.8,0-2.3-0.4c-0.5-0.9-1.4-2.3-1.9-3.2l-7.2-14.3l-0.9,0l-2.2,12.5c-0.4,1.9-0.4,3.8-0.8,6.1
								c-0.5,1.4-0.9,1.9-2.3,2.4l0,0.5c0.9,0,1.8,0,2.8-0.5L160.6,352.7z M160.9,336.1l3.8,7.4l-5.1,0.5L160.9,336.1z"/>
						</g>
					</g>
					<g>
						<g>
							<path class="st1" d="M281.4,357.2c0.5,1.8,0,2.3-0.9,3.2l0.5,0.5c0.5-0.5,1.4-0.9,2.3-1.4c0.9-0.5,1.3-1,2.3-1.4l-0.5-0.5
								c-0.5,0.5-1.8,1-2.3,0c-0.5-1.4-1-3.7-1-4.6l-0.5-0.9l5.5-2.9l2.4,1.8c0.9,0.4,1.4,1.3,1.9,1.8c0.5,0.9-0.4,1.9-1.4,1.9
								l0.5,0.9c0.9-0.9,2.3-1.4,3.2-1.9c0.9-0.9,2.3-1.4,3.2-1.9l-0.5-0.5c-0.5,0-1.4,0.5-2.3,0c-0.9-0.4-2.3-1.8-2.8-2.3
								l-12.2-10.5l-1,0l2.5,12.5C280.9,353.1,281.4,355.4,281.4,357.2 M285.9,348.4l-4.6,2.4l-1.5-7.9L285.9,348.4z"/>
						</g>
					</g>
					<g>
						<g>
							<path class="st1" d="M290.1,334.4l6.6,9.2c0.9,0.9,1.9,2.3,2.4,3.2c0.5,1.4,0,1.8-0.9,2.8l0.4,0.5c0.9-1,1.4-1.4,2.3-1.9
								c0.9-0.5,1.8-0.9,2.3-1.9l0-0.5c-0.9,0.5-1.8,1-2.8,0.5c-0.9-0.9-2.3-2.3-2.8-3.2l-6.2-8.3l16.8,5.3c1,0.5,1.9,0.9,2.8,0.9
								l0.5-0.5l-7.6-10.2c-1-1.4-2.9-3.7-3.3-4.6c-0.5-1.4,0.5-1.4,0.9-2.3l-0.5-0.5c-0.9,0.5-1.4,1-1.8,1.9c-1,0.5-1.9,1-2.8,1.4
								l0.5,0.5c1.4-0.5,1.9-1,3.2,0c1,0.9,1.9,2.8,2.8,3.7l5.2,6.9l-18.2-5.8c-0.5,0.5-1.4,1-1.9,1c-0.5,0.9-0.9,0.9-1.9,1.4l0.5,1
								C287.8,333.9,288.7,333.9,290.1,334.4"/>
						</g>
					</g>
					<g>
						<g>
							<path class="st1" d="M62.4,342.5c2.3-3.3,0.4-6-1.9-7.4c-0.9-0.5-1.9-1.4-2.8-1.8c-0.9-0.9-2.4-1.4-3.3-2.3l-0.5,0.5
								c0.9,0.5,1.9,0.9,1.4,2.3c-0.4,0.5-1.8,2.4-2.3,3.3l-4.6,7c-0.4,1-1.9,2.8-2.8,3.3c-0.5,0.9-1.4,0-2.3-0.5l0,1
								c0.9,0.5,1.9,1.3,2.8,1.8c1.4,1,2.4,1.4,3.3,2.3l0.5-0.5c-0.9-0.9-1.9-1.4-1.4-2.3c0-0.9,1.3-2.8,1.8-3.8l2.3-2.8
								c0,0,0.9,0.9,1.4,0.9C56.4,345.3,60.1,346.2,62.4,342.5 M59.6,341.1c-1.4,2.3-3.2,2.8-5.1,1.5c-0.5-0.5-0.9-0.4-0.9-0.9
								l3.6-5.6c0.9-1.4,0.9-1.4,1.9-0.5C60.9,336.9,61.4,338.8,59.6,341.1"/>
						</g>
					</g>
					<g>
						<g>
							<path class="st1" d="M313.9,335.3c0,1.4,0,1.9-0.9,2.8l0.5,0.9c0.5-0.9,1.4-1.4,1.9-1.9c0.9-0.5,1.8-1,2.3-1.4l-0.5-0.9
								c-0.4,0.5-1.4,1.4-2.3,0.5c-0.5-0.9-1.5-3.2-1.5-4.6l-0.5-0.5l5.1-3.8l2.8,1.8c0.5,0.5,1.4,0.9,1.9,1.4
								c0.5,0.9-0.4,1.9-0.9,2.3l0.5,0.5c0.9-1,1.8-1.4,2.7-2.4s1.8-1.4,2.8-1.9l0-0.9c-0.9,0.5-1.9,1-2.8,0.5
								c-0.5,0-2.4-1.4-2.8-1.8l-13.6-9.1l-0.4,0.5l3.9,12C312.4,331.2,312.9,333,313.9,335.3 M317,325.5l-4.1,3.3L310,321
								L317,325.5z"/>
						</g>
					</g>
					<g>
						<g>
							<path class="st1" d="M75.1,343.9l0,0.9c0.5,0.5,1.4,0.9,0.5,2.3c-0.4,0.9-4.1,4.2-5,5.2l-6,4.7l1.7-7.9
								c0.5-1.4,1.8-6.1,2.3-7c0.5-0.9,1.9-0.5,2.3,0l0.5-0.5c-1.4-0.4-2.3-1.3-3.3-1.8c-0.9-0.5-1.9-1.4-2.8-1.8l-0.4,0.5
								c1.4,1.4,0.9,2.8,0.5,4.6l-4,16.8l0.9,0.5l12-10.4c1.9-1.4,3.7-3.8,5.6-2.4l0-0.4c-0.5-0.5-1.4-0.9-2.4-1.4
								C77,345.3,76.1,344.8,75.1,343.9"/>
						</g>
					</g>
					<g>
						<g>
							<path class="st1" d="M259.4,364.3l1.3-5.6l-1,0c-0.4,1.8-0.4,2.8-2.3,3.8c-0.9,0.5-2.3,0-3.7,0c-2.8-0.4-3.3-1.4-2.9-5.1
								l1.3-8.9c0.5-0.9,0.4-3.2,0.9-4.2c0.4-0.9,1.9-0.5,2.3-0.5l0.4-0.9c-1.4,0-2.8,0-4.2-0.4c-0.9,0-2.3-0.4-3.2-0.4l-0.5,0.4
								c0.9,0,1.9,0.5,2.4,1.4c0,0.9-0.5,3.2-0.4,4.2l-1.3,8.4c-0.5,0.9-0.9,3.3-0.9,3.7c-0.9,0.9-1.9,1-2.8,1l0,0.5
								c4.6,0.9,8.8,1.3,13.5,2.2C258.4,363.9,259.3,363.9,259.4,364.3"/>
						</g>
					</g>
					<g>
						<g>
							<path class="st1" d="M44.1,342.4c-2.3,2.3-3.7,1.9-6,0.5c-0.9-0.4-1.9-1.4-1.9-2.8c0-0.9,0.9-1.9,1.4-2.8l2.8-4.2
								c2.3,1.4,3.3,2.3,1.5,5.1l0.5,0.5c0.9-1,1.4-1.9,2.3-3.3c0.5-0.9,1.4-1.9,2.3-3.3l-0.5,0c-1.4,1.4-2.8,2.8-5.6,0.5l4.1-6.1
								c0.9-0.9,0.9-0.9,1.4-0.5l1.4,0.9c2.3,1.8,3.3,2.8,1.5,5.5l0.5,0.5l2.8-3.8l-9.9-6.9l-0.9,0.5c0.9,0.5,1.9,0.9,1.4,2.3
								c-0.5,0.5-1.8,2.4-2.3,3.3l-4.6,6.6c-0.9,0.9-2.3,2.8-2.8,3.3c-0.9,0.5-1.9,0-2.3-0.4l-0.4,0.5l11.3,8.2l2.7-4.2L44.1,342.4z
								"/>
						</g>
					</g>
					<g>
						<g>
							<path class="st1" d="M241.2,359.6c-0.5-0.9-0.5-2.8-1-3.7l-3-15.8l-0.9-0.4l-5.4,11.2c-0.9,1.9-1.8,3.7-2.7,5.6
								c-0.9,1.4-1.4,1.9-2.8,1.9l-0.5,0.5c0.9,0,1.9,0.5,2.8,0.5c0.9,0,1.8,0.4,2.8,0.4l0-0.5c-0.5-0.5-1.9-0.5-1.9-1.8
								c0.5-1,1.4-3.3,1.8-4.2l0.5-1l6.5,0.9l0.5,3.2l0,2.8c0,0.9-1.4,0.5-1.9,0.5l-0.5,1c1.4,0,2.8,0,3.7,0.4
								c1.4,0,2.8,0.4,3.7,0.4l0-0.5C242.1,360.5,241.7,360.5,241.2,359.6 M231.8,351.3l3.6-7.5l1.5,8.3L231.8,351.3z"/>
						</g>
					</g>
					<g>
						<g>
							<path class="st1" d="M228,343.3l0.5,0.4l0.9-4.7l-15.9-2.6l-0.9,4.7l0.9,0.5c0.4-3.7,1.3-3.7,4.1-3.3c0.9,0,2.3,0.5,1.9,0.9
								l-1.7,14.4c-0.4,2.3-0.9,2.8-3.7,2.8l0,0.5c1.4,0.5,2.8,0.4,4.2,0.4c1.4,0.4,2.8,0.9,4.2,0.9l0-0.5c-2.3-0.9-2.3-1.4-2.4-3.7
								l2.1-14.4c0-0.9,1.4-0.5,2.8-0.5C227.5,339.6,228.4,340.5,228,343.3"/>
						</g>
					</g>
					<g>
						<g>
							<path class="st1" d="M267.6,346c0,0.5,0.5,2.8,0.5,3.7l0.6,8.8c0,0.9,0.5,2.8,0,3.7c0,1.4-1.4,1.4-1.9,1.4l0,0.5
								c1.4,0,2.3,0,3.7-0.5l3.7,0l0-0.5c-0.9,0-1.8,0-2.3-0.9c-0.5-0.9-0.5-3.2-0.5-4.2l-1-8.4l0-4.2c0.4-1,1.4-1,2.3-1l0-0.9
								c-1.4,0-2.8,0.5-3.7,0.5l-3.7,0l0,1C266.2,345.1,267.2,344.6,267.6,346"/>
						</g>
					</g>
				</g>
			</g>
		</g>
	</g>
	<g>
		<path class="st1" d="M60.3,533.9c-6,5.7-14.4,9.3-23.5,9.3c-17.3,0-31.5-14.2-31.5-31.5c0-17.3,14.2-31.5,31.5-31.5
			c8.7,0,16.5,3.6,22.3,9.2l-4.3,4.3c-4.6-4.6-11-7.5-18-7.5c-13.9,0-25.4,11.4-25.4,25.4c0,14,11.5,25.4,25.4,25.4
			c7.5,0,14.2-2.8,19.1-7.3L60.3,533.9z"/>
		<path class="st1" d="M123.6,481.2v37.6c0,13.4-11,24.4-24.4,24.4s-24.4-11-24.4-24.4v-37.6h6.1v37.6c0,10.1,8.2,18.3,18.3,18.3
			c10,0,18.3-8.2,18.3-18.3v-37.6H123.6z"/>
		<path class="st1" d="M148.2,540.6c-3.8-1.7-7.3-4.2-10.5-7.4l4.4-4.3c5.3,5.4,11.7,8.2,18.9,8.2c9,0,15-4.9,15-12.1v-0.2
			c0-3.1-0.9-5.3-3-7c-2.4-2-6.7-3.7-13-5.1c-7.1-1.5-11.7-3.3-14.7-5.7c-3.2-2.6-4.8-6.1-4.8-10.6v-0.2c0-2.2,0.4-4.3,1.4-6.2
			c0.9-1.9,2.2-3.7,3.8-5.1c3.5-3,8.2-4.6,13.3-4.6c3.5,0,7,0.7,10.4,1.9c3,1.2,5.9,2.9,8.7,5.1l-3.8,4.7c-4.7-3.7-9.8-5.7-15.2-5.7
			c-3.6,0-7,1.1-9.2,3.1c-2.1,1.8-3.2,4.2-3.2,6.7v0.2c0,2.7,0.7,4.3,2.5,5.8c2.3,1.8,6.2,3.3,12.3,4.6c7.4,1.7,12.4,3.7,15.7,6.4
			c3.4,2.9,5,6.7,5,11.7v0.2c0,5.1-2.1,9.7-5.9,13c-3.8,3.4-9.1,5.1-15.2,5.1C156.3,543.2,152.1,542.3,148.2,540.6z"/>
		<path class="st1" d="M242.2,487.3H220v54.8h-6.1v-54.8h-22.2v-6.1h50.5L242.2,487.3L242.2,487.3z"/>
		<path class="st1" d="M312.6,511.7c0,17.3-14.2,31.5-31.5,31.5c-17.3,0-31.5-14.2-31.5-31.5c0-17.3,14.2-31.5,31.5-31.5
			C298.4,480.2,312.6,494.4,312.6,511.7z M306.5,511.7c0-14-11.4-25.4-25.4-25.4s-25.4,11.4-25.4,25.4c0,14,11.4,25.4,25.4,25.4
			S306.5,525.7,306.5,511.7z"/>
		<path class="st1" d="M327,542.1l5.3-60.9h7.4l18.3,42.9l18.2-42.9h7.5l5.3,60.9h-6.2l-4.4-50.6l-16.9,39.7h-7.2l-16.8-39.7
			l-4.4,50.6H327z"/>
		<path class="st1" d="M411.9,540.6c-3.8-1.7-7.3-4.2-10.5-7.4l4.4-4.3c5.3,5.4,11.7,8.2,18.9,8.2c9,0,15-4.9,15-12.1v-0.2
			c0-3.1-0.9-5.3-3-7c-2.4-2-6.7-3.7-13-5.1c-7-1.5-11.7-3.3-14.7-5.7c-3.2-2.6-4.8-6.1-4.8-10.6v-0.2c0-2.2,0.4-4.3,1.4-6.2
			c0.9-1.9,2.2-3.7,3.8-5.1c3.5-3,8.2-4.6,13.3-4.6c3.5,0,7,0.7,10.3,1.9c3,1.2,5.9,2.9,8.7,5.1l-3.8,4.7c-4.7-3.7-9.8-5.7-15.2-5.7
			c-3.7,0-7,1.1-9.2,3.1c-2.1,1.8-3.2,4.2-3.2,6.7v0.2c0,2.7,0.7,4.3,2.5,5.8c2.3,1.8,6.2,3.3,12.3,4.6c7.4,1.7,12.3,3.7,15.7,6.4
			c3.4,2.9,5,6.7,5,11.7v0.2c0,5.1-2.1,9.7-5.9,13c-3.8,3.4-9.1,5.1-15.2,5.1C420,543.2,415.8,542.3,411.9,540.6z"/>
		<path class="st1" d="M521,522.6h-25.4l-7.5,19.6h-6.5l23.4-60.9h6.6l23.4,60.9h-6.5L521,522.6z M519,517.3l-10.7-27.8l-10.7,27.8
			H519z"/>
		<path class="st1" d="M597.3,542.1h-7.5L554.6,490v52.1h-6.1v-60.9h7.5l35.2,52.1v-52.1h6.1V542.1z"/>
		<path class="st1" d="M670.1,511.7c0,16.8-13.8,30.4-30.5,30.4h-21.8v-60.9h21.8C656.3,481.2,670.1,495,670.1,511.7z M664,511.7
			c0-13.4-11-24.4-24.4-24.4H624V536h15.7C653,536,664,525.1,664,511.7z"/>
		<path class="st1" d="M710.8,542.1l5.3-60.9h7.4l18.3,42.9l18.2-42.9h7.5l5.3,60.9h-6.2l-4.3-50.6l-16.9,39.7h-7.2l-16.8-39.7
			l-4.4,50.6H710.8z"/>
		<path class="st1" d="M850.2,511.7c0,17.3-14.2,31.5-31.5,31.5c-17.3,0-31.5-14.2-31.5-31.5c0-17.3,14.2-31.5,31.5-31.5
			S850.2,494.4,850.2,511.7z M844.1,511.7c0-14-11.4-25.4-25.4-25.4c-14,0-25.4,11.4-25.4,25.4c0,14,11.4,25.4,25.4,25.4
			C832.7,537.1,844.1,525.7,844.1,511.7z"/>
		<path class="st1" d="M915.4,542.1h-7.5L872.8,490v52.1h-6.1v-60.9h7.5l35.2,52.1v-52.1h6.1V542.1z"/>
		<path class="st1" d="M995.2,511.7c0,17.3-14.2,31.5-31.5,31.5c-17.3,0-31.5-14.2-31.5-31.5c0-17.3,14.2-31.5,31.5-31.5
			C981,480.2,995.2,494.4,995.2,511.7z M989.1,511.7c0-14-11.4-25.4-25.4-25.4s-25.4,11.4-25.4,25.4c0,14,11.4,25.4,25.4,25.4
			C977.7,537.1,989.1,525.7,989.1,511.7z"/>
		<path class="st1" d="M1055.3,499.9c0,10.3-8.3,18.7-18.7,18.7H1018v23.5h-6.1v-60.9h24.7C1047,481.2,1055.3,489.7,1055.3,499.9z
			 M1049.2,499.9c0-7-5.7-12.6-12.6-12.6H1018v25.2h18.6C1043.6,512.6,1049.2,506.9,1049.2,499.9z"/>
		<path class="st1" d="M1129.8,511.7c0,17.3-14.2,31.5-31.5,31.5c-17.3,0-31.5-14.2-31.5-31.5c0-17.3,14.2-31.5,31.5-31.5
			C1115.6,480.2,1129.8,494.4,1129.8,511.7z M1123.7,511.7c0-14-11.4-25.4-25.4-25.4s-25.4,11.4-25.4,25.4c0,14,11.4,25.4,25.4,25.4
			C1112.3,537.1,1123.7,525.7,1123.7,511.7z"/>
		<path class="st1" d="M1186.5,536v6.1h-40v-60.9h6.1V536H1186.5z"/>
		<path class="st1" d="M1206.5,542.1h-6.1v-60.9h6.1V542.1z"/>
		<path class="st1" d="M1233.2,487.3v21.3h25.2v6.1h-25.2v21.3h33.9v6.1h-40v-60.9h40v6.1L1233.2,487.3L1233.2,487.3z"/>
		<path class="st1" d="M1288,540.6c-3.8-1.7-7.3-4.2-10.5-7.4l4.3-4.3c5.3,5.4,11.7,8.2,18.9,8.2c9,0,15.1-4.9,15.1-12.1v-0.2
			c0-3.1-0.9-5.3-3-7c-2.4-2-6.7-3.7-13.1-5.1c-7.1-1.5-11.7-3.3-14.7-5.7c-3.2-2.6-4.8-6.1-4.8-10.6v-0.2c0-2.2,0.4-4.3,1.4-6.2
			c0.9-1.9,2.2-3.7,3.8-5.1c3.5-3,8.2-4.6,13.3-4.6c3.5,0,7,0.7,10.3,1.9c3,1.2,5.9,2.9,8.7,5.1l-3.8,4.7c-4.7-3.7-9.8-5.7-15.2-5.7
			c-3.7,0-7,1.1-9.2,3.1c-2.1,1.8-3.2,4.2-3.2,6.7v0.2c0,2.7,0.7,4.3,2.5,5.8c2.3,1.8,6.2,3.3,12.3,4.6c7.4,1.7,12.3,3.7,15.7,6.4
			c3.4,2.9,5.1,6.7,5.1,11.7v0.2c0,5.1-2.1,9.7-5.9,13c-3.8,3.4-9.1,5.1-15.2,5.1C1296.2,543.2,1291.9,542.3,1288,540.6z"/>
		<path class="st1" d="M1397.1,522.6h-25.4l-7.5,19.6h-6.5l23.4-60.9h6.6l23.4,60.9h-6.5L1397.1,522.6z M1395.1,517.3l-10.7-27.8
			l-10.7,27.8H1395.1z"/>
		<path class="st1" d="M1474.7,542.1h-4.9l-1-4.5c-5.1,3.6-11.1,5.6-17.8,5.6c-17.3,0-31.5-14.2-31.5-31.5
			c0-17.3,14.2-31.5,31.5-31.5c8.6,0,16.5,3.6,22.3,9.2l-4.3,4.3c-4.6-4.6-11-7.5-17.9-7.5c-14,0-25.4,11.4-25.4,25.4
			c0,14,11.4,25.4,25.4,25.4c6.7,0,12.9-2.7,17.5-7v-12.6l-17.8-1v-4.9h23.9L1474.7,542.1L1474.7,542.1z"/>
		<path class="st1" d="M1498.5,487.3v21.3h25.2v6.1h-25.2v21.3h33.9v6.1h-40v-60.9h40v6.1L1498.5,487.3L1498.5,487.3z"/>
		<path class="st1" d="M1597.1,542.1h-7.5l-35.2-52.1v52.1h-6.1v-60.9h7.5l35.2,52.1v-52.1h6.1V542.1z"/>
		<path class="st1" d="M1669,533.9c-6,5.7-14.4,9.3-23.5,9.3c-17.3,0-31.5-14.2-31.5-31.5c0-17.3,14.2-31.5,31.5-31.5
			c8.7,0,16.5,3.6,22.3,9.2l-4.3,4.3c-4.6-4.6-11-7.5-18-7.5c-13.9,0-25.4,11.4-25.4,25.4c0,14,11.5,25.4,25.4,25.4
			c7.5,0,14.2-2.8,19.1-7.3L1669,533.9z"/>
		<path class="st1" d="M1704.6,516.8v25.3h-6.1v-25.1l-21.5-35.9h7.1l17.4,29l17.4-29h7.1L1704.6,516.8z"/>
	</g>
</g>
</svg>
