<?xml version="1.0" encoding="utf-8"?>
<!-- Generator: Adobe Illustrator 26.0.3, SVG Export Plug-In . SVG Version: 6.00 Build 0)  -->
<svg version="1.1" id="Livello_1" xmlns="http://www.w3.org/2000/svg" xmlns:xlink="http://www.w3.org/1999/xlink" x="0px" y="0px"
	 viewBox="0 0 1100.79 1919.6" style="enable-background:new 0 0 1100.79 1919.6;" xml:space="preserve">
<style type="text/css">
	.st0{fill:#003399;}
	.st1{fill:#009245;}
	.st2{fill:#C1272D;}
	.st3{fill-rule:evenodd;clip-rule:evenodd;fill:#003399;}
</style>
<g>
	<path class="st0" d="M696.99,1919.6h90.6l11.32-165.77c2.06-27.8,0-61.77,0-61.77h1.02c0,0,12.36,38.61,20.59,61.77l38.61,106.56
		h77.22l38.6-106.56c8.24-23.16,20.59-61.77,20.59-61.77h1.04c0,0-2.06,33.97,0,61.77l11.32,165.77H1098l-29.86-368.06h-97.81
		L916.8,1707c-8.23,23.68-18.53,60.74-18.53,60.74h-1.03c0,0-10.3-37.06-18.53-60.74l-53.54-155.46h-97.81L696.99,1919.6z"/>
	<path class="st0" d="M252.24,1919.6h92.66l-125.09-368.06h-94.72L0,1919.6h92.66l22.14-77.22h114.79L252.24,1919.6z
		 M172.96,1635.44c0,0,8.24,40.15,14.93,63.31l20.59,71.56H135.9l21.1-71.56c6.7-23.16,14.93-63.31,14.93-63.31H172.96z
		 M360.34,1919.6h130.76c115.82,0,189.95-68.99,189.95-184.81c0-115.82-74.13-183.25-189.95-183.25H360.34V1919.6z M450.43,1842.38
		v-213.63h37.06c60.75,0,100.39,36.03,100.39,106.04c0,70.53-38.1,107.59-100.39,107.59H450.43z"/>
	<path class="st0" d="M27.32,1431.13l-0.69-0.61v-3.99l0.69-0.61c3.74-0.05,6.15-0.24,7.22-0.58c1.08-0.33,2.04-1,2.88-2
		c0.85-1,2.55-4.26,5.11-9.8l8.07-17.52l20.9-47.32c3.94-9.27,7.86-18.54,11.75-27.81h4.99l32.81,77.13l4.38,10.29
		c1.28,2.92,2.75,6.1,4.42,9.53c1.66,3.43,2.82,5.46,3.46,6.07c0.64,0.61,1.43,1.09,2.38,1.42c0.95,0.33,3.06,0.52,6.34,0.58
		l0.61,0.61v3.99l-0.61,0.61c-5.43-0.46-10.32-0.69-14.67-0.69c-8.5,0.26-17.01,0.49-25.51,0.69l-0.61-0.61v-3.99l0.61-0.61
		c5.74-0.1,9.32-0.35,10.76-0.73c1.43-0.38,2.15-1.27,2.15-2.65c0-1.13-0.36-2.61-1.08-4.46l-9.45-23.43H59.74l-8.37,19.67
		c-1.49,3.53-2.23,6.12-2.23,7.76c0,1.28,0.69,2.23,2.07,2.84c1.38,0.61,4.87,0.95,10.45,1l0.69,0.61v3.99l-0.62,0.61
		c-6.61-0.41-12.4-0.61-17.36-0.61C38.74,1430.51,33.06,1430.72,27.32,1431.13 M62.35,1388.03h38.87l-19.28-46.33L62.35,1388.03z"/>
	<path class="st0" d="M311.76,1388.64v2.31l-0.31,0.92l-3.77,2.23c-0.92,0.57-1.46,1-1.61,1.31c-0.15,0.31-0.35,1.83-0.58,4.57
		c-0.23,2.74-0.35,6.08-0.35,10.03c0,4.46,0.28,9.3,0.85,14.52l-0.46,0.77c-14.03,5.38-28.45,8.07-43.25,8.07
		c-11.37,0-21.64-2.15-30.81-6.45c-9.17-4.3-16.44-10.68-21.82-19.13c-5.38-8.45-8.07-18.49-8.07-30.12
		c0-17.72,6.06-31.81,18.17-42.26c12.11-10.45,27.93-15.67,47.44-15.67c14.34,0,27.22,2.43,38.64,7.3l0.54,0.84
		c-0.92,3.43-2,10.63-3.23,21.59l-0.62,0.54h-3.53l-0.61-0.61l-0.38-8.14c-0.15-2.66-0.32-4.22-0.5-4.69
		c-0.18-0.46-0.73-1.06-1.65-1.81c-0.92-0.74-3.29-1.92-7.11-3.53c-3.82-1.61-7.64-2.79-11.49-3.53c-3.84-0.74-7.96-1.11-12.37-1.11
		c-9.37,0-17.67,1.95-24.89,5.84c-7.22,3.89-12.67,9.57-16.33,17.02c-3.66,7.45-5.49,15.74-5.49,24.85c0,9.42,1.97,18.2,5.92,26.31
		c3.94,8.12,9.6,14.46,16.98,19.02c7.38,4.56,15.95,6.84,25.74,6.84c4.25,0,8.59-0.42,13.02-1.27c4.43-0.84,8.08-2.04,10.95-3.57
		c0.46-1.64,0.69-4.94,0.69-9.91v-8.53c0-4.05-0.26-6.57-0.77-7.57c-0.51-1-1.78-1.7-3.8-2.11c-2.02-0.41-6.39-0.66-13.1-0.77
		l-0.69-0.69v-3.38l0.69-0.69l4.69,0.15c8.04,0.26,14.6,0.38,19.67,0.38c2.92,0,7.2-0.15,12.83-0.46L311.76,1388.64z"/>
	<path class="st0" d="M372.71,1322.5l0.61-0.54c17.57,0.31,28.81,0.46,33.73,0.46c16.8,0,31.76-0.15,44.87-0.46l0.39,0.54
		c-1.28,4.92-2.23,12.63-2.84,23.12l-0.46,0.61h-3.76l-0.69-0.61c0.05-0.46,0.08-0.87,0.08-1.23c0-4.35-0.33-8.5-1-12.45
		c-3.23-1.43-7.7-2.37-13.41-2.8c-5.71-0.43-10-0.65-12.87-0.65c-4.05,0-9.22,0.28-15.52,0.85l-0.31,12.29l-0.23,14.06l-0.23,15.6
		c5.53,0.31,10.63,0.46,15.29,0.46c4.71,0,8.65-0.15,11.83-0.46c3.17-0.31,5.03-0.63,5.57-0.96c0.54-0.33,0.95-0.97,1.23-1.92
		c0.28-0.95,0.53-2.62,0.73-5.03l0.31-4.76l0.61-0.61h3.53l0.61,0.61c-0.1,5.58-0.23,11.19-0.38,16.83l0.38,17.29l-0.61,0.61h-3.53
		l-0.61-0.61l-0.54-4.61c-0.46-3.58-0.79-5.72-1-6.42c-0.21-0.69-0.68-1.29-1.42-1.8c-0.74-0.51-2.65-0.92-5.72-1.23
		c-3.07-0.31-7.3-0.46-12.68-0.46c-2.97,0-7.5,0.13-13.6,0.38c-0.26,4.3-0.38,11.47-0.38,21.51c0,10.76,0.13,18.67,0.38,23.74h14.14
		c12.45,0,20.23-0.15,23.36-0.46c3.12-0.31,6.09-1.05,8.91-2.23c0.46-1.18,1.22-3.91,2.27-8.18c1.05-4.28,1.65-6.95,1.81-8.03
		l0.77-0.54h3.69l0.61,0.54c-0.46,2.2-0.91,6.04-1.34,11.52c-0.44,5.48-0.65,10.17-0.65,14.06l-0.54,0.61
		c-9.78-0.31-22.59-0.46-38.41-0.46l-20.9-0.15c-4.87,0-9.94,0.2-15.21,0.61l-0.61-0.61v-2.54l0.61-0.77
		c3.02-1.54,4.75-2.5,5.19-2.88s0.79-4.86,1.08-13.44c0.28-8.58,0.42-15.12,0.42-19.63v-28.2l-0.08-17.44
		c0-3.79-0.05-6.88-0.15-9.26c-0.1-2.38-0.28-4.08-0.54-5.11c-0.26-1.02-0.55-1.74-0.88-2.15c-0.33-0.41-0.87-0.75-1.61-1.04
		c-0.74-0.28-2.01-0.52-3.8-0.73l-5.84-0.46l-0.61-0.54V1322.5z"/>
	<path class="st0" d="M518.63,1431.05l-0.69-0.69v-3.54l0.69-0.61c3.12-0.05,5.62-0.23,7.49-0.54c1.87-0.31,3.07-0.82,3.61-1.54
		c0.54-0.72,0.9-1.87,1.08-3.46c0.18-1.59,0.36-5.17,0.54-10.76c0.18-5.58,0.27-9.58,0.27-11.98v-62.08c0-2.61-0.47-4.54-1.42-5.8
		c-0.95-1.26-2.24-2.05-3.88-2.38c-1.64-0.33-4.43-0.53-8.38-0.58l-0.61-0.61v-3.61l0.61-0.69c7.07,0.26,11.7,0.38,13.91,0.38
		c5.17,0,9.42-0.13,12.75-0.38l24.51,31.81l36.03,45.17c4.35,5.48,8.78,10.68,13.29,15.6v-59.46c0-1.84-0.09-5.77-0.27-11.79
		c-0.18-6.02-0.4-9.83-0.65-11.45c-0.26-1.61-0.71-2.7-1.35-3.27c-0.64-0.56-1.84-0.98-3.61-1.27c-1.77-0.28-4.16-0.45-7.18-0.5
		l-0.62-0.61v-3.53l0.62-0.69c4.15,0.26,10.07,0.38,17.75,0.38c7.02,0,12.11-0.13,15.29-0.38l0.69,0.69v3.53l-0.61,0.61
		c-3.38,0.05-5.99,0.24-7.84,0.58c-1.84,0.33-3,0.88-3.46,1.65c-0.46,0.77-0.78,1.9-0.96,3.38c-0.18,1.49-0.36,5.02-0.54,10.6
		c-0.18,5.58-0.27,9.6-0.27,12.06v36.49l0.08,21.13c0.1,6.92,0.2,13.86,0.31,20.82c-2.56-0.87-6.99-1.95-13.29-3.23l-5.45-6.45
		l-16.36-19.98l-52.09-65.07v58.93c0,2.36,0.09,6.56,0.27,12.6c0.18,6.04,0.4,9.71,0.65,10.99c0.26,1.28,0.59,2.16,1,2.65
		c0.41,0.49,1.29,0.94,2.65,1.34c1.36,0.41,4.16,0.64,8.41,0.69l0.62,0.61v3.61l-0.62,0.61c-2.66-0.36-6.96-0.54-12.91-0.54
		C531.05,1430.52,524.37,1430.69,518.63,1431.05"/>
	<path class="st0" d="M697.44,1430.44v-3.69l18.52-22.89l43.87-56.47c6.66-8.5,11.14-14.6,13.44-18.28h-3.15l-12.37-0.08
		c-10.86,0-19.61,0.17-26.24,0.5c-6.63,0.33-11.01,0.68-13.14,1.04c-2.13,0.36-3.43,0.86-3.92,1.5c-0.49,0.64-0.88,2.16-1.19,4.57
		l-1.08,10.14l-0.69,0.69h-3.61l-0.69-0.69c0.26-3.89,0.39-6.99,0.39-9.3c0-6.25-0.13-11.19-0.39-14.83l0.69-0.69
		c18.28,0.41,31.06,0.61,38.34,0.61c12.09,0,27.97-0.2,47.63-0.61l0.69,0.69v3.92c-5.63,6.66-9.58,11.42-11.83,14.29l-64,82.43
		l31.12,0.54c6.2,0,12.45-0.16,18.75-0.46c6.3-0.31,10.45-0.62,12.45-0.92c2-0.31,3.37-0.76,4.11-1.34c0.74-0.59,1.24-1.18,1.5-1.77
		c0.26-0.59,0.66-2.34,1.23-5.26l1.69-10.29l0.69-0.61h3.61l0.61,0.61c-0.36,3.28-0.72,12.19-1.08,26.73l-0.69,0.61
		c-21.62-0.41-38.67-0.61-51.17-0.61c-8.76,0-23.23,0.2-43.41,0.61L697.44,1430.44z"/>
	<path class="st0" d="M854.5,1321.96l9.6,0.31c6.3,0.2,10.42,0.31,12.37,0.31c1.74,0,9.09-0.2,22.05-0.61l0.61,0.54v3.84l-0.61,0.54
		c-3.53,0.1-6.26,0.26-8.18,0.46c-1.92,0.2-3.32,0.59-4.19,1.15c-0.87,0.56-1.45,1.88-1.73,3.96c-0.28,2.07-0.42,4.95-0.42,8.64
		l-0.15,17.67v35.57l0.08,14.98c0.05,5.79,0.2,9.53,0.46,11.22c0.26,1.69,0.63,2.82,1.11,3.38c0.49,0.57,1.42,1.04,2.81,1.42
		c1.38,0.38,4.79,0.68,10.22,0.88l0.61,0.46v3.84l-0.61,0.61c-0.26,0-4.76-0.15-13.52-0.46c-3.64-0.1-6.48-0.15-8.53-0.15
		c-1.59,0-8.91,0.2-21.97,0.61l-0.62-0.61v-3.84l0.62-0.46c4.76-0.2,7.94-0.46,9.53-0.77c1.59-0.31,2.65-0.7,3.19-1.19
		c0.54-0.49,0.97-1.52,1.31-3.11c0.33-1.59,0.52-5.12,0.58-10.6l0.08-16.21v-35.57l-0.15-14.98c-0.05-5.84-0.19-9.6-0.42-11.29
		c-0.23-1.69-0.59-2.82-1.08-3.38c-0.49-0.56-1.42-1.02-2.8-1.38c-1.38-0.36-4.79-0.64-10.22-0.84l-0.62-0.54v-3.84L854.5,1321.96z"
		/>
	<path class="st0" d="M956.71,1431.13l-0.69-0.61v-3.99l0.69-0.61c3.74-0.05,6.15-0.24,7.22-0.58c1.08-0.33,2.04-1,2.88-2
		c0.84-1,2.55-4.26,5.11-9.8l8.07-17.52l20.9-47.32c3.94-9.27,7.86-18.54,11.75-27.81h4.99l32.8,77.13l4.38,10.29
		c1.28,2.92,2.75,6.1,4.42,9.53c1.66,3.43,2.82,5.46,3.46,6.07c0.64,0.61,1.43,1.09,2.38,1.42c0.95,0.33,3.06,0.52,6.34,0.58
		l0.61,0.61v3.99l-0.61,0.61c-5.43-0.46-10.32-0.69-14.67-0.69c-8.5,0.26-17.01,0.49-25.51,0.69l-0.61-0.61v-3.99l0.61-0.61
		c5.74-0.1,9.32-0.35,10.76-0.73c1.43-0.38,2.15-1.27,2.15-2.65c0-1.13-0.36-2.61-1.08-4.46l-9.45-23.43h-44.48l-8.37,19.67
		c-1.49,3.53-2.23,6.12-2.23,7.76c0,1.28,0.69,2.23,2.07,2.84c1.38,0.61,4.87,0.95,10.45,1l0.69,0.61v3.99l-0.61,0.61
		c-6.61-0.41-12.4-0.61-17.36-0.61C968.13,1430.51,962.44,1430.72,956.71,1431.13 M991.74,1388.03h38.88l-19.28-46.33
		L991.74,1388.03z"/>
	<rect y="1277.31" class="st1" width="1097" height="11.38"/>
	<rect y="1465.38" class="st2" width="1097" height="11.37"/>
	<g>
		<g>
			<g>
				<g>
					<path class="st0" d="M290.15,228.58l8.57-3.87l1.8,3.98v0.04l13.61,29.92l-5.3,4.62c-6.99,6.09-13.95,12.59-20.64,19.4
						c-3.2,3.27-6.35,6.62-9.59,10.15c-1.32,1.43-2.67,2.93-4.02,4.44l-7.03-6.16h-0.04v-0.04v-0.04l2.18-16.13
						c0-0.04,0-0.08,0-0.11c1.69-1.77,3.38-3.53,5.11-5.26c2.14-2.22,4.32-4.36,6.54-6.54c3.27-3.16,6.58-6.24,9.89-9.25l-2.22-4.85
						l-4.36-9.62L290.15,228.58z"/>
				</g>
			</g>
			<g>
				<g>
					<path class="st0" d="M175.91,437.17l-7.74-4.32c-0.11,0.23-0.23,0.41-0.34,0.6c-1.65,2.89-3.08,5.41-4.25,7.59
						c-0.19,0.38-0.38,0.71-0.56,1.05l-4.02,7.14l0.26,0.15l10.38,5.79l4.02,2.26c-2.82,13.68-4.81,26.61-6.09,39.17L139,502.5
						l-9.25,1.92h-0.04v0.08l-0.3,7.29c-0.08,2.37-0.15,6.69-0.19,11.92c-0.08,13.12-0.04,31.69,0.19,37.67l0.3,7.37l37.85,7.82
						c1.28,12.22,3.31,25.15,6.13,39.13l-33.79,19.25l2.22,7.18c1.17,3.83,4.17,13.38,7.29,23.08c0.6,1.84,1.2,3.72,1.8,5.56
						l1.35,4.06l1.39-0.45l7.52-2.48l5.38-12.97c0.04-0.08,0.11-0.19,0.15-0.34c-1.01-3.23-2.07-6.47-3.01-9.44
						c0-0.04,0-0.04,0-0.04c-0.6-1.92-1.17-3.65-1.69-5.3l5.98-3.38l11.54-6.58h0.04l12.67-20c0,0-0.04,0,0-0.04
						c-0.04-0.15-0.08-0.3-0.11-0.45c-0.6-3.01-1.17-5.94-1.69-8.8c-2.44-13.12-4.14-25.19-5.07-36.61l-0.56-6.99l-37.03-7.63
						c-0.11-9.4-0.11-24.1,0-33.53l37.03-7.63l0.56-7.03c1.28-15.94,3.83-32.44,7.82-50.48l1.5-6.8l-8.72-4.89l-7.74-4.32
						L175.91,437.17z"/>
				</g>
			</g>
			<g>
				<g>
					<path class="st0" d="M937.54,671.44l-5.86-1.92L926,656.63c0.53-1.62,1.05-3.23,1.54-4.81c0.3-0.94,0.6-1.88,0.86-2.78
						c0.6-1.84,1.13-3.57,1.58-5.11L909.2,632l-6.01-3.46l5.64-11.58l1.17,0.23l2.78-4.85l4.89,2.78l34.02,19.55l-1.54,6.8
						c-0.83,3.61-2.97,10.6-4.36,15.07c-0.11,0.34-0.19,0.68-0.3,0.98c-0.86,2.63-1.73,5.38-2.63,8.12L937.54,671.44z"/>
				</g>
			</g>
			<g>
				<path class="st0" d="M546.28,953.53c-10.29,0-20.6-0.07-24.83-0.2l-7.4-0.24l-7.83-37.92c-12.55-1.29-25.66-3.33-39.15-6.09
					l-18.82,33.64l-7.15-2.05c-8.14-2.33-39.21-12.38-47.29-15.37l-6.89-2.56l4.33-38.44c-12.06-5.35-23.96-11.38-35.54-18
					l-28.27,26l-6.12-3.98c-6.44-4.19-33.53-23.66-40.3-29.22l-5.56-4.56l15.85-35.2c-10.4-9.5-19.69-18.69-28.15-27.87l-34.99,15.9
					l-4.57-5.71c-1.11-1.38-2.89-3.75-5.06-6.71l-1.82-2.5c-2.8-3.85-6.11-8.38-9.31-12.81l15.23-11.01
					c3.19,4.41,6.47,8.92,9.26,12.75l1.81,2.48c0.06,0.08,0.12,0.17,0.18,0.25l34.03-15.46l4.6,5.18
					c10.52,11.84,22.43,23.65,36.41,36.11l5.14,4.59l-15.5,34.41c7.45,5.59,19.31,14.15,27,19.54l27.66-25.43l6.02,3.59
					c14.76,8.8,30.16,16.59,45.75,23.17l6.47,2.73l-4.23,37.57c8.95,3.03,22.89,7.54,31.92,10.36l18.29-32.68l6.82,1.5
					c17.64,3.89,34.63,6.52,50.51,7.82l7.01,0.57l7.65,37c9.44,0.09,24.06,0.09,33.46,0l7.32-36.57l6.92-0.69
					c18.64-1.85,35.17-4.5,50.55-8.11l6.84-1.6l18.63,32.78c9.09-2.82,23.12-7.35,31.97-10.35l-4.23-37.26l6.38-2.77
					c15.91-6.91,31.21-14.8,45.49-23.44l6-3.63l28.03,25.5c7.55-5.29,19.32-13.92,26.9-19.6l-15.8-34.12l5.32-4.63
					c14.04-12.24,25.88-24.07,36.2-36.19l4.58-5.37l34.56,15.57c4.38-5.84,10.6-14.43,15.73-21.65c1.71-2.38,3.25-4.54,4.53-6.41
					l15.5,10.63c-1.35,1.97-2.97,4.24-4.75,6.71c-6.19,8.71-16.89,23.47-20.85,28.3l-4.56,5.56l-35.08-15.8
					c-8.4,9.42-17.71,18.71-28.21,28.15l16.21,35.01l-5.89,4.59c-6.05,4.71-32.86,24.55-40.27,29.17l-6.04,3.76l-28.43-25.86
					c-11.28,6.55-23.11,12.64-35.32,18.18l4.33,38.16l-6.79,2.6c-7.72,2.96-38.91,12.98-47.39,15.41l-7.11,2.04l-19.09-33.57
					c-12.22,2.6-25.14,4.66-39.17,6.24l-7.55,37.7l-7.44,0.25C566.83,953.46,556.57,953.53,546.28,953.53z"/>
			</g>
			<g>
				<g>
					<path class="st0" d="M522.99,120.01c-0.06,0-0.11,0-0.17,0L522.99,120.01z M848.15,293.8l-7.41,3.46l-16.31,7.59l-4.62-5.34
						c-11.24-12.89-23.12-24.77-36.31-36.28l-5.26-4.59l15.56-34.25c-4.92-3.72-11.73-8.76-18.08-13.34
						c-3.42-2.52-6.5-4.7-9.06-6.47l-27.48,25.52l-6.05-3.61c-14.77-8.8-30.15-16.62-45.75-23.19l-6.5-2.71l4.29-37.44
						c-8.83-3.08-22.89-7.63-31.88-10.34l-18.42,32.89l-6.88-1.65c-17.25-4.06-33.76-6.69-50.37-8.04l-7.03-0.56l-7.67-36.84
						c-9.25-0.23-23.91-0.23-33.42-0.04l-7.37,36.88l-7.03,0.56c-18.34,1.54-34.77,4.17-50.26,8.04l-6.88,1.69l-19.02-32.89
						c-8.87,2.71-22.86,7.22-31.69,10.34l4.25,37.4l-6.54,2.74c-15.34,6.39-30.6,14.17-45.37,23.12l-5.98,3.61l-27.97-25.45
						c-1.47,1.05-3.01,2.14-4.47,3.2c-4.77,3.42-10.3,7.44-15.3,11.16c0,0.04-0.04,0.04-0.04,0.04c-0.71,0.53-1.39,1.01-2.07,1.54
						l-5.6-7.56l8.42-17.86c1.24-0.9,2.48-1.77,3.65-2.63c5.3-3.8,9.02-6.39,11.09-7.74l2.44-1.58h0.04l3.61-2.33l28.53,25.94
						c11.54-6.73,23.38-12.74,35.3-18.01l-4.32-37.89l6.62-2.71c8.31-3.35,39.47-13.46,47.48-15.53l6.92-1.8l19.25,33.31
						c12.37-2.78,25.34-4.85,39.28-6.24l7.44-37.1l6.88-0.71c0.38-0.04,0.79-0.04,1.2-0.08l0.83-0.04l0.3-0.04
						c10.04-0.45,40.03-0.41,48.19,0.15l7.07,0.49l7.78,37.33c12.97,1.32,25.9,3.38,39.21,6.28l18.65-33.31l6.95,1.73
						c8.42,2.11,40,12.25,48,15.6l6.5,2.74l-4.32,37.82c12.07,5.34,23.95,11.39,35.52,18.01l27.78-25.83l0.53,0.34c0,0,0,0,0.04,0
						l5.49,3.27c0.71,0.41,1.5,0.94,2.41,1.54c4.17,2.74,10.11,6.95,13.72,9.59c0.04,0.04,0.11,0.08,0.15,0.11
						c3.8,2.71,7.67,5.53,11.24,8.27h0.04c0.56,0.38,1.13,0.83,1.69,1.24c5.15,3.83,9.47,7.18,11.62,8.91l5.6,4.59l-4.29,9.44
						l-11.54,25.49c9.96,8.98,19.25,18.27,28.12,28.12l11.62-5.45l3.61-1.69l3.98,8.53L848.15,293.8z"/>
				</g>
			</g>
			<g>
				<g>
					<path class="st0" d="M907.17,562.05v-0.04l0.11-1.24l7.41-1.32h0.04l0.53-0.11l29.17-6.01c0.23-9.21,0.23-23.8,0-33.46
						l-37.14-7.33l-0.56-7.07c-1.54-18.34-4.17-34.77-8.04-50.26l-1.69-6.92l14.55-8.27l13.5-7.71l6.95,0.71l2.67,4.62l-2.18,11.95
						c0,0.04,0,0.04,0,0.08l-9.51,5.41l-4.4,2.48c2.78,12.37,4.85,25.34,6.24,39.25l19.58,3.91l11.8,2.37
						c2.48,4.02,4.77,7.74,6.88,11.13c0.04,0.71,0.08,1.5,0.08,2.37c0.11,3.87,0.23,9.29,0.23,15.04
						c0.08,11.77-0.08,25.04-0.45,30.07l-0.49,7.1l-37.63,7.74c-0.75,7.44-1.8,15.07-3.12,23.08l-1.13-0.19l-8.16-1.35
						L907.17,562.05z"/>
				</g>
			</g>
			<g>
				<g>
					<path class="st0" d="M846.1,439.1L621.08,434L546,221.25l-74.47,212.46l-225.32,5.44l179.14,136.44l-64.49,216.29
						l185.18-128.09l185.49,128.08l-64.51-215.7L846.1,439.1z M546.03,636.08L401.24,736.24L451.69,567l-140-106.63l176.15-4.25
						l58.23-166.16l58.29,165.17l0.45,1.3l175.93,3.99L640.67,567.63l50.44,168.62L546.03,636.08z"/>
				</g>
			</g>
			<g>
				<path class="st0" d="M626.66,447.26l-15.77-0.37l-3.85-10.85l-5.64-198.02l7,1.47c86.26,18.15,160.18,72.52,202.81,149.19
					l3.48,6.25L626.66,447.26z M618.91,435.8l6.33,0.15l172.54-48.02c-40.32-68.48-106.99-117.52-184.71-135.85l5.18,181.86
					L618.91,435.8z"/>
			</g>
			<g>
				<path class="st0" d="M466.8,447l-187.44-55.32l3.57-6.2c43.88-76.25,118.32-129.68,204.23-146.58l7.03-1.38l-8.46,197.75
					l-3.96,11.34L466.8,447z M296.36,384.94l171.93,50.74l5.41-0.14l0.84-2.42l7.78-181.68
					C404.89,268.67,337.77,316.86,296.36,384.94z"/>
			</g>
			<g>
				<path class="st0" d="M325.86,745.72l-4.79-5.33c-23.74-26.39-42.55-56.42-55.91-89.27l-0.68-1.67l0.41-1.75
					c5.8-24.54,9.54-54.34,8-63.76c-0.51-2.7-1.01-4.43-1.38-5.49c0,0-0.01,0-0.01,0.01l-19.4,14.77l14.72-29.3
					c0.68-1.82,0.96-3.06,1.07-3.86c-3.49-0.12-10.05,0.88-16.25,3.96l-7.49,3.71l-0.64-8.33c-1.5-19.45-1.09-39.23,1.23-58.8
					l0.84-7.12l189.76,70.61l6.5,4.98l-3.88,13.03L325.86,745.72z M276.28,648.52c11.91,28.78,28.18,55.29,48.43,78.93
					l102.95-150.27l1.05-3.53l-173.52-64.57c-1.31,13.97-1.61,28.01-0.91,41.91c7.99-2.35,17.37-3.28,21.26-0.21v0
					c4.18,3.37,4.81,9.1,1.87,17.04c3.83,2.4,5.45,8.13,6.6,14.15C285.98,594.11,281.59,625.45,276.28,648.52z"/>
			</g>
			<g>
				<path class="st0" d="M545.78,840.18c-43.41,0-86.76-9.27-127.05-27.81l-6.53-3l126.1-158.75l7.72-5.37l7.55,5.19l0.54,0.7
					L677,810.6l-6.53,2.92C630.77,831.3,588.25,840.18,545.78,840.18z M430.02,805.06c73.01,31.43,155.76,31.8,229.25,1.02
					l-113.29-147L430.02,805.06z"/>
			</g>
			<g>
				<path class="st0" d="M764.08,748.27L654.51,583.11l-4.01-13.45l6.13-4.76l0.85-0.3l189.69-67.62l0.77,7.11
					c2.98,27.54,2.17,55.39-2.41,82.77l-0.91,5.46l-5.48-0.81c-2.09-0.31-3.84,0.06-4.83,1.02c-1.08,1.05-1.5,3.09-1.19,5.74
					c0.44,3.75,2.17,8.66,5.29,15.02l0.94,1.91l-0.57,2.06c-12.79,46.68-36.93,90.17-69.82,125.75L764.08,748.27z M664.83,578.27
					L765.49,730c28.75-32.7,50.05-71.83,61.85-113.71c-3.15-6.71-4.89-12.06-5.43-16.72c-0.94-7.96,1.94-12.64,4.53-15.15
					c2.3-2.23,5.32-3.64,8.7-4.13c3.38-22.49,4.14-45.27,2.26-67.88l-173.74,61.94L664.83,578.27z"/>
			</g>
			<g>
				<path class="st3" d="M1090.09,619.94c12.56-17.71,14.06-33.68,4.55-47.93c3.46-23.34,1.09-38-7.14-44.06
					c-8.61-6.05-19.21-4.1-31.73,5.83c-7.33-3.87-17.25-0.23-29.81,11.01c2.18-5.6,2.41-10.56,0.68-14.89
					c11.2-5.19,18.46-10.9,21.69-17.18c3.23-6.24,4.85-16.09,4.85-29.47c1.32-8.19,8.87-22.89,22.67-44.06
					c9.51-21.16,2.82-28.49-20.07-22.03c12.52-11.2,18.8-20.94,18.8-29.13c0.86-7.78-2.37-17.71-9.74-29.81
					c-3.01-6.88-7.56-8.19-13.57-3.87c2.14-4.32,3.31-9.51,3.53-15.56c0.23-6.01-3.76-18.76-11.99-38.19
					c-1.28-25.49-7.33-36.09-18.12-31.76c-1.73-13.38-6.05-26.13-12.97-38.19c-10.34-15.56-18.57-19.66-24.58-12.33
					c-16.88-25.04-32.63-35.41-47.29-31.09c-0.45-10.79-4.14-20.52-11.01-29.13c-3.91-16.43-8.65-27.86-14.25-34.36
					c-7.78-3.01-13.19,1.32-16.2,12.97c-1.32-9.51-4.32-19.44-9.06-29.81c-4.77-10.34-12.33-15.75-22.71-16.16
					c-3.87-0.45-7.56,0.19-11.01,1.92c-6.88-4.32-12.71-6.47-17.48-6.47c-14.66-15.56-28.08-16.84-40.15-3.87l-1.95-13.61
					c-4.32-15.98-12.97-19.43-25.9-10.38c-21.16-22.03-39.32-36.5-54.43-43.42c-12.52-4.28-20.71-3.23-24.58,3.27
					c-6.5-6.5-13.42-10.6-20.75-12.33S656.1,2.2,649.63,0.02c-9.96-0.41-14.25,4.96-12.97,16.2c-15.53,0.86-26.24,3.57-32.07,8.08
					c-5.83,4.55-7.33,10.9-4.51,19.13c2.78,8.19,9.17,14.89,19.1,20.07c-2.59,3.01-3.68,7.78-3.23,14.25
					c0.41,6.47,7.33,11.88,20.71,16.2c9.92,2.59,19.66,2.78,29.17,0.64c-2.18,9.92,1.28,16.2,10.34,18.8
					c12.52,12.93,28.08,16.16,46.65,9.7l-1.95,12.33l25.26,10.34c0.86,12.1,6.5,20.75,16.84,25.94l9.92,4.25
					c-2.14,0.26-11.43,7.93-11.54,9.17c-1.5,1.69-4.77,8.38-1.5,12.97c1.32,1.77,3.61,3.27,7.37,3.98
					c4.55,0.53,9.25,1.02,14.02,1.35c6.09,0.49,12.25,0.75,18.31,0.64c0.26,3.16,2.22,8.35,4.25,12.03
					c1.84,3.87,6.35,9.59,13.91,17.78c7.03,7.63,20.26,15.15,31.43,19.89c-0.75,0.79-3.8,9.21-6.58,16.95
					c-1.69,4.66-2.97,10.75-3.05,16.73c-0.08,6.13,1.13,12.1,4.47,16.28c-1.47-0.71-7.67,3.61-9.85,7.07
					c-8.08,12.44,9.4,30.34,12.18,36.5c-1.35-0.15-6.2,2.29-8.76,4.1c-6.01,4.29-3.95,25.75,13.12,29.43
					c4.28,2.07,23.87,13.46,33.68,23.42c1.92,1.95,7.41,12.29,15.26,22.59c4.17,5.49,8.57,14.74,18.83,15
					c0.45,1.43,0.9,2.82,1.35,4.25c7.41,22.44,18.04,44.17,30.79,65.45c1.02,1.77,2.07,3.53,3.16,5.26
					c2.56,4.21,5.23,8.35,7.93,12.52c0,0.94,16.88,18.91,22.97,35.19c-2.03,10.53-1.8,19.59-1.84,20.11
					c-2.22,20.83-5.98,39.96-11.24,57.36c-18.34-8.87-21.39,3.16-24.1,15.04c-0.26-0.6-8.57-1.5-9.74,2.44
					c0.19-1.65-0.3-3.27-1.24-4.74c-3.08-4.85-11.01-7.89-15.15-4.96c-0.15,0.11-5.9,4.13-9.47,6.84c-1.2,0.94-2.26-5.94-2.63-11.01
					c-0.19-3.53-0.9-15.52,1.35-20.26c0.15-0.26,0.79-1.13,1.73-2.37c1.54-2.14,3.95-5.38,5.68-8.42
					c4.17-7.52,2.82-27.44-1.09-45.94c-1.2-5.6-2.59-11.05-4.17-15.98c-2.03-6.39-6.24-9.44-9.92-10.9
					c-1.5-0.56-11.16-0.04-13.01,7.41c-0.53-4.21-7.33-6.73-12.37-7.93c-14.17-3.35-29.32,23.83-27.63,49.13
					c-3.16-2.48-6.62-3.98-9.85-4.4c-7.37-1.09-13.61,3.16-12.44,13.01c0.56,4.85,2.78,10.64,5.83,16.84
					c9.36,19.06,26.54,42.06,27.22,54.06c-8.91-7.93-29.13-8.16-29.17,11.16c0,5.86,4.77,15.83,6.77,20.07
					c-4.1,20.64,19.66,35.71,39.1,55.15c-0.34,8.12,2.07,9.17,4.7,11.77c0.34,0.38,0.71,0.75,1.05,1.17
					c-3.53,5.41-25.26,39.66-25.52,40.49c-1.05,0.41-16.05-8.01-20.98-3.65c-5.26,4.66-9.55,10.98-11.99,14.77l2.59,23.95
					c1.73,9.96-3.57,21.05-15.86,33.38c-12.29,12.29-20.41,23.64-24.28,34.02c-2.18,7.74-10.6,16.16-25.26,25.26
					c-0.86-2.59-4.32-6.69-10.38-12.33c-0.86-1.73-2.59-2.37-5.19-1.95c-14.66,3.91-44.24,16.88-88.71,38.87
					c-7.78,3.91-18.8,15.34-33.04,34.36h-25.26c-6.92-3.91-14.25-9.28-22.03-16.2c-5.64-4.32-15.56-2.82-29.81,4.55
					c-13.38-3.04-26.77-0.23-40.15,8.42c-8.23,3.01-14.25,3.65-18.16,1.92l-31.73-34.32c-65.63-27.63-101.5-39.96-107.55-36.91
					c-6.47,3.87-11.2,9.47-14.25,16.84c-6.47-3.04-16.2-11.24-29.13-24.62l-20.07-22.67c-14.7-16.43-20.75-31.95-18.16-46.65
					l3.23-20.07c0.45-3.01,0-5.41-1.28-7.14c-4.77-5.15-13.16-8.31-17.48-9.17c-0.94-0.38-3.76-1.35-6.92,10.34
					c0.83,2.82-20.75-28.42-21.05-29.43c0.49-0.53,0.98-1.09,1.5-1.77c5.98-7.52,15.11-24.66,20.49-44.36
					c6.69-24.28,9.77-51.05,9.47-61.27c1.02-1.92,1.28-2.44,2.48-3.61c3.91-3.01,8.19-15.71,11.84-31.16
					c5.75-24.32,9.81-55.37,8.08-65.97c-1.32-6.92-2.93-10.49-4.85-10.71c-1.95-0.19-3.8,0.34-5.53,1.65l3.91-7.78
					c2.14-5.64,2.14-9.29,0-11.01c-1.32-1.35-12.78-1.2-22.86,3.8c-0.11,0.04-0.19,0.11-0.3,0.15c-1.2-11.24-6.54-27.74-9.29-33.72
					c-0.94-1.99-3.72,0.15-3.83,0.19c-18.12,10.98-26.16,35.03-32.63,64.84l-5.19,4.77c-5.15,6.43-10.08,13.12-14.7,20.04
					c-2.03,3.04-4.02,6.13-5.94,9.25c-7.33,11.95-13.72,24.55-18.95,37.74c-4.32,10.94-7.78,22.33-10.22,34.13
					c-3.87-6.01-6.09-14.77-9.55-26.24c-3.46-11.43-4.55-19.1-3.23-22.97c3.46-6.05,2.37-11.65-3.27-16.84
					c-4.29-4.32-9.92-23.76-16.84-58.3c0.45-9.06,4.13-22.67,11.01-40.82c6.92-18.12,18.46-41.09,33.61-67.03
					c0.79-1.13,7.52-8.38,9.59-8.91c2.37-0.6,5.6-2.56,9.47-5.68c29.81-24.06,97.81-116.61,102.62-173.48
					c0.45-5.41,0.34-10.49-0.41-15.15c0.9-0.26,6.62-9.55,13.72-22.07c6.69-11.65,14.55-26.13,20.9-38.72
					c5.98-11.8,10.6-21.95,11.65-26.69l5.49-1.77l6.5-2.59c21.58-8.65,39.92-17.89,56.76-25.64l26.13-13.91
					c18.16-7.74,35.41-18.34,51.84-31.73c17.25-15.11,26.54-30.86,27.85-47.29c-3.05-3.87-11.88-6.05-26.58-6.47
					c7.78-8.65,11.88-17.71,12.33-27.22c-5.64-7.78-22.48-9.06-50.52-3.87c-29.36,7.33-55.07,18.76-77.1,34.32
					c-22.44,14.25-42.63,31.65-60.56,52.14c-17.93,20.53-32.29,41.8-43.08,63.83l12.97-29.81c6.47-14.25,13.38-30.86,20.71-49.88
					c2.14-9.06,2.25-15.56,0.34-19.43c-1.95-3.87-6.16-4.96-12.63-3.23c-6.92,1.73-19.44,10.79-37.59,27.22
					c-19.85,20.3-37.44,45.34-52.78,75.14c-15.34,29.77-25.83,53.3-31.43,70.6c3.01-19.43,2.59-36.05-1.28-49.88
					c-2.18-5.6-6.92-7.14-14.28-4.55c-6.88,4.77-13.8,11.88-20.71,21.39c-6.92,9.51-13.61,18.68-20.07,27.52
					c-6.47,8.87-14.13,21.5-23.01,37.89c-8.83,16.43-16.62,35.86-23.31,58.3c-6.69,22.48-11.77,52.25-15.22,89.39
					c-2.18,23.76-0.45,49.24,5.19,76.46c6.92,27.18,13.8,47.29,20.71,60.22c6.92,12.97,13.38,20.53,19.43,22.67
					c3.87,9.51,9.06,25.26,15.56,47.29c3.46,10.38,4.96,18.27,4.51,23.64c-0.41,5.41,0.98,9.17,4.21,11.35
					c3.23,2.14,5.94,6.47,8.12,12.93c5.6,20.75,13.16,39.96,22.67,57.66c-1.73,9.51-2.59,18.98-2.59,28.49
					c-20.75-60.03-37.59-105.37-50.52-136c-25.07-55.71-44.7-81.2-58.94-76.46c-6.92,2.59-11.24,8.87-12.97,18.8
					c-0.41,3.87-0.41,13.83,0,29.81c0.45,15.98,1.95,32.82,4.55,50.52C31,698.77,53.25,746.69,84.79,785.11l47.25,55.71
					c9.51,9.51,18.57,16.5,27.22,21.05c8.65,4.55,16.61,5.71,23.98,3.57c10.79,17.25,24.4,35.41,40.79,54.39
					c10.38,15.98,21.16,23.53,32.4,22.67c4.74,10.38,11.88,15.56,21.39,15.56l9.7-1.28c13.38,12.93,25.49,23.31,36.28,31.09
					l-12.29,34.96c-21.61,3.04-41.46,4.77-59.62,5.19c-16.84-12.1-40.56-28.49-71.23-49.24l-1.95-38.83
					c-0.86-13.42,1.5-24.62,7.14-33.72c1.28-7.33-2.82-14.02-12.33-20.07c-14.25-6.92-24.4-9.7-30.45-8.42
					c-2.59,0.86-4.1,3.23-4.51,7.14v21.35l-61.54,1.32c-5.64,0-10.26,2.14-13.95,6.47c-3.65,4.32-3.76,12.97-0.3,25.94
					c0.41,4.74,0.19,8.83-0.68,12.29c-3.01,13.83-11.01,30.67-23.95,50.52c-1.73,3.01-0.98,7.56,2.25,13.61
					c3.23,6.05,11.35,15.52,24.28,28.49c5.64,5.6,14.17,12.52,25.6,20.75c11.43,8.2,31.61,20.71,60.56,37.55
					c34.13,20.3,66.72,37.14,97.81,50.52c6.5,0.45,49.66-5.41,129.58-17.48l0.64,7.1c-22.89,17.29-37.59,24.4-44.06,21.39
					c-9.06,0.86-11.88,7.56-8.42,20.07c2.59,5.64,7.33,9.51,14.25,11.65l8.42,9.74l23.98,14.25c9.06,2.59,17.71,2.59,25.9,0
					c7.78-3.01,12.97-9.74,15.56-20.07l28.49-28.49l18.8-14.28c14.66-2.56,24.17-7.74,28.49-15.53c0.86-6.92,2.78-11.24,5.83-12.97
					l22.67-15.53c0.86-2.18,10.15,1.5,27.85,11.01c8.65,2.14,16.2,1.73,22.67-1.32l16.84-9.7c15.11,3.46,41.69,22.22,79.69,56.35
					c-0.45,3.87,1.92,8.42,7.1,13.61c3.01,3.87,11.24,7.1,24.62,9.7l9.06,16.84l9.06,3.23c13.42,0.45,25.94-4.28,37.59-14.25
					l14.25-4.51c7.33-5.64,10.56-11.24,9.7-16.84l-5.83-5.83l-12.29-3.27c-15.56-7.33-31.31-17.25-47.29-29.77l-10.38-7.78
					c47.06,8.19,105.59,14.7,175.55,19.43c8.65,1.73,20.19-2.71,34.66-13.27c14.47-10.6,58.19-41.8,131.16-93.6
					c10.83-11.69,19.43-25.07,25.94-40.19c-6.5-6.05-12.22-14.66-17.18-25.9c-4.96-11.24-8.08-20.71-9.4-28.49
					c-1.73-7.37-1.92-13.95-0.64-19.77c1.28-5.83-0.64-11.31-5.83-16.5c-2.18-3.05-7.14-4.96-14.89-5.83
					c-13.83-1.32-29.4-1.09-46.65,0.64c-8.2-0.86-12.97-2.82-14.25-5.83l0.64-15.56c1.28-6.92-0.64-9.92-5.83-9.06
					c-19.02,4.74-30.45,9.51-34.32,14.25c-5.64,6.05-5.41,12.52,0.64,19.43c4.74,4.32,7.11,9.28,7.11,14.89
					c-2.56,28.53-4.96,47.74-7.11,57.67c-31.54,25.04-52.89,40.37-64.13,46.01c-9.06,3.01-29.36,1.69-60.9-3.91
					c-6.92-6.05-11.88-16.39-14.89-31.09c10.79-6.47,22.22-14.25,34.32-23.31c8.19-1.32,15.11-2.93,20.75-4.89
					c5.6-1.92,8.42-7.22,8.42-15.86c5.6-2.14,9.7-6.92,12.29-14.25l37.55-45.34c12.1-10.37,25.26-16.43,39.54-18.16
					c17.25-1.28,39.7-11.01,67.36-29.13c4.32-4.74,4.32-11.43,0-20.07c8.19-4.77,21.58-18.16,40.15-40.18
					c7.33-10.34,9.06-21.8,5.19-34.32c17.25-20.71,26.99-37.14,29.13-49.21c1.73-10.83,1.5-22.48-0.64-35
					c8.19-5.19,13.95-9.62,17.18-13.27c3.23-3.68,4.85-8.76,4.85-15.22C1097.23,629.64,1094.86,624.26,1090.09,619.94z
					 M750.68,133.47l-22.03-7.14l1.28-14.89l-12.29,2.59c-11.65,3.87-23.31,0.41-34.96-10.38c-7.78,1.32-11.01-1.73-9.74-9.06
					c3.01-6.47,2.18-9.92-2.59-10.38l-18.8,1.95c-12.07-1.73-20.07-5.19-23.95-10.38c-2.59-4.32-0.86-9.7,5.19-16.2
					c-11.65-4.74-18.91-9.92-21.73-15.53c-2.78-5.6-1.05-10.15,5.19-13.61c6.28-3.46,17.82-4.1,34.66-1.95
					c-3.87-4.74-4.96-9.7-3.23-14.89c0.45-5.19,11.65-2.37,33.68,8.42l12.97,7.78c3.46-6.5,9.29-8.42,17.48-5.83
					c9.92,4.74,19.21,10.45,27.85,17.14c8.65,6.69,18.34,16.31,29.13,28.83c9.1-6.05,15.56-4.74,19.43,3.91l1.95,15.53
					c-9.51-9.06-21.16-9.7-34.96-1.95l-9.1-3.87c-12.52-15.11-20.07-26.54-22.67-34.32c-2.59-9.92-3.87-10.79-3.87-2.59
					c0.41,8.65,5.6,19.66,15.52,33.04c-18.98-6.05-32.93-13.83-41.76-23.34c-8.87-9.47-15.68-17.48-20.41-23.95
					c-4.74-7.78-6.69-7.78-5.83,0c5.19,9.47,12.29,18.34,21.39,26.54c-6.92-3.01-13.38-6.05-19.44-9.06
					c-15.11-6.47-27.67-9.92-37.59-10.38c-4.74,0-4.96,0.86-0.64,2.59c16.84,4.32,29.06,8.31,36.61,11.99
					c7.56,3.68,12.63,7.03,15.22,10.04c-12.1,5.19-24.62,7.56-37.59,7.14c-8.19-0.45-11.88-0.23-11.01,0.64
					c0.86,0.86,3.46,1.73,7.78,2.59c15.53,1.73,31.31,0,47.29-5.19c11.65,6.05,25.26,11.88,40.79,17.48
					c-9.47,2.18-18.76,6.47-27.82,12.97c-3.46,4.32-1.73,4.51,5.15,0.64c6.92-5.19,17.29-8.42,31.13-9.7l10.98,4.51
					c-0.86,11.65,1.95,23.53,8.42,35.64L750.68,133.47z M802.52,195.65c-24.21,0.41-29.06-0.15-30.45-3.91
					c-0.9-2.86-1.39-5.49,7.1-10.34l4.4-7.37c-14.06-6.39-27.03-14.02-27.71-31.5l11.65-4.55c5.19-6.01,5.3-10.56,0.34-13.57
					c-5-3.05-7.67-11.01-8.12-23.98c4.77-10.38,16.43-10.38,35,0c8.2-15.98,18.12-20.71,29.77-14.25c-12.52,0-19.85,5.41-22.03,16.2
					c-1.28,6.92-1.28,15.34,0,25.26c-4.28-6.05-9.47-11.24-15.52-15.56c-11.65-6.05-13.83-5.38-6.47,1.95
					c7.33,7.33,13.8,14.89,19.43,22.67c-9.51,7.78-19.89,11.24-31.13,10.38c-3.87,1.73-3.23,2.78,1.95,3.23
					c5.19,1.28,11.24,0.86,18.16-1.32c-0.86,6.92,1.39,18.38,4.4,25.3c4.1,5.9,9.59,11.09,15.98,15.83
					C806.28,190.99,803.79,192.6,802.52,195.65z M816.09,207.98c-0.41-5.19,4.1-8.12,13.61-8.76c9.51-0.64,11.01-3.35,4.55-8.12
					c-12.52-4.29-22.89-11.65-31.09-21.99c-5.64-7.37-5.64-12.56,0-15.56l9.7-2.59l4.55-5.83l-5.83-22.67
					c-1.73-11.65,1.5-19.85,9.7-24.62c11.65-1.73,23.12,1.73,34.32,10.38c0.45-6.05,4.44-7.89,11.99-5.53
					c7.56,2.41,14.59,18.46,21.05,48.27l10.38,3.91c3.46-8.23,6.28-12.33,8.42-12.33c3.46,0,6.92,7.14,10.38,21.39
					c8.61,7.78,12.74,20.49,12.29,38.19c-5.6,7.37-8.65,16.43-9.06,27.22l-5.19-11.65c-3.01-12.97-4.32-26.58-3.87-40.82
					c-0.45-6.01-1.09-6.01-1.95,0c-1.32,12.56-1.5,23.12-0.64,31.76c-11.65-15.11-24.21-28.72-37.59-40.82
					c-2.59-9.51-3.46-20.3-2.59-32.37c-1.28-10.38-2.37-12.74-3.23-7.14c-0.86,12.97-0.41,25.04,1.32,36.28
					c-9.96-9.92-21.61-24.4-35-43.42c-3.46-6.01-4.96-7.33-4.55-3.87c8.23,15.56,16.88,28.49,25.94,38.87
					c9.06,10.38,16.39,18.57,22.03,24.62c-11.24-3.46-20.98-5.71-29.17-6.8c-8.2-1.09-15.75-3.35-22.67-6.8
					c-6.46-1.32-6.24,0.23,0.64,4.55c3.91,2.56,11.77,4.96,23.64,7.1c11.88,2.18,23.01,5.83,33.38,11.01
					c5.6,3.46,13.16,12.29,22.67,26.58l7.78,17.48c-12.1-6.5-25.49-11.01-40.19-13.61c-14.66-2.59-23.31-4.96-25.9-7.14
					c-11.24-4.74-12.52-4.28-3.87,1.32c2.59,2.59,11.77,5.49,27.52,8.72c15.75,3.27,30.98,9.4,45.67,18.49l1.28,3.87
					c-3.01,3.46-4.1,8.19-3.23,14.25l4.55,12.97c-3.91-4.77-9.29-2.59-16.2,6.47c2.59-5.6,1.95-10.79-1.95-15.56
					c-6.05-9.06-20.71-18.76-44.06-29.13l-3.87,7.14C832.74,235.61,820.86,224.37,816.09,207.98z M973.82,530.88
					c-4.51-6.69-11.01-16.95-19.43-30.79c-8.42-13.83-14.55-25.04-18.46-33.68c-3.87-8.65-4.51-17.48-1.92-26.54
					c0.23-0.75,0.41-1.5,0.64-2.22c1.39-4.85,2.63-9.06,3.76-12.56c0.75-2.29,1.43-4.29,2.07-5.98c1.73-4.74,1.5-5.6-0.64-2.59
					c-0.9,1.62-1.77,3.2-2.59,4.77c-3.38,6.54-5.98,12.97-7.74,19.28c-0.26,0.86-0.49,1.69-0.68,2.52l-0.64-1.8l-12.33-35.15
					c0.49-5.41,1.84-11.43,4.1-17.97c3.83-11.16,10.23-23.95,19.21-38.38c4.32-7.74,3.91-8.42-1.28-1.92
					c-10.11,13.46-17.44,27.07-22.03,40.79c-1.32,3.87-2.41,7.78-3.23,11.65l-4.81-10.68l-15.26-34.02
					c-0.45-8.2,4.74-23.72,15.53-46.61c5.64-12.1,4.32-11.65-3.87,1.28c-6.92,12.97-11.88,25.04-14.89,36.28
					c-1.95-7.86-3.83-15.34-5.71-22.44c-2.63-9.89-5.23-19.02-7.78-27.44c-1.35-4.51-2.67-8.83-4.02-12.93l-4.51-1.32l1.84,5.11
					l0.75,2.03c2.29,14.55,5.22,27.85,8.8,39.88c1.65,5.79,3.5,11.28,5.45,16.46c-3.8-3.38-7.78-6.47-12.03-9.28
					c-4.96-3.35-10.26-6.28-15.83-8.87c-5.64-3.01-5.64-2.37,0,1.95c5.11,3.01,9.74,6.01,13.87,9.06
					c5.94,4.28,10.79,8.65,14.62,12.97c5.19,12.1,9.92,23.12,14.25,33.04c-4.51-3.23-10.79-6.77-18.91-10.64
					c-5.9-2.78-12.78-5.71-20.6-8.8c-6.92-1.32-6.92-0.45,0,2.59c8.87,3.61,16.43,7.22,22.74,10.75
					c7.18,4.06,12.74,8.04,16.61,11.99c1.65,1.73,2.97,3.42,4.02,5.11l12.97,34.32c-4.74,0-11.01-7.1-18.8-21.39
					c-6.47-12.07-22.67-23.72-48.57-34.96c-5.19-2.18-7.56-6.69-7.14-13.61c0.86-4.74,5.83-6.69,14.92-5.83
					c-2.59-7.33-5.64-13.16-9.1-17.48l-5.15-7.78c-6.92-14.25-2.82-21.39,12.29-21.39c-5.6-8.65-7.56-15.34-5.83-20.07
					c-0.07-1.47-0.07-2.89-0.04-4.36c0.34-6.69,2.33-13.19,5.86-19.62c2.59-5.15,4.55-10.34,5.83-15.53
					c8.19,4.74,15.68,8.76,22.37,11.99c6.69,3.23,10.22,9.17,10.68,17.82l-3.23,20.07c1.28,3.87,4.74,2.59,10.34-3.91
					c5.64-7.74,10.15-12.29,13.61-13.61c4.77,2.18,9.28,6.05,13.61,11.69c4.32,8.2,2.82,23.31-4.51,45.34l-7.14,18.12
					c14.7-19.43,26.58-28.72,35.64-27.86c3.01,2.18,3.98,6.62,2.89,13.31c-1.05,6.69-1.05,13.68,0,21.05
					c1.09,7.33-1.39,13.61-7.44,18.76c-6.05,5.19-10.15,13.61-12.29,25.26c13.8-10.34,19.43-8.42,16.84,5.86l-7.78,27.85
					c-2.14,13.38,0,19.62,6.47,18.76c6.5-0.86,10.49,0,11.99,2.59c1.5,2.59,1.84,7.14,0.98,13.61c-3.87,9.06-5.6,15-5.19,17.82
					c0.45,2.82,1.62,5.19,3.57,7.1c1.95,1.95,6.17,1.54,12.63-1.28c6.47-2.82,9.7-0.86,9.7,5.83c0,6.69,0.11,13.19,0.34,19.43
					c0.23,6.28,2.25,12.41,6.16,18.46c2.89,4.17,6.58,6.92,11.13,8.23c0.19,0.07,0.34,0.15,0.53,0.19l5.83-7.1
					c-8.65,0.41-12.63-5.19-11.99-16.84c0.64-11.69,0.56-20.75-0.3-27.22c-3.46-8.2-6.92-12.74-10.38-13.61
					s-11.47-22.44-23.98-64.77l13.61,0.64c9.92,36.28,17.93,55.82,23.98,58.64c6.05,2.78,8.83,6.01,8.42,9.7
					c-0.45,3.68,0.64,11.54,3.23,23.64c7.78-2.14,12.29-9.28,13.61-21.39c2.14-11.2-1.09-19.85-9.74-25.9
					c-9.06-5.19-14.25-9.92-15.52-14.25c-2.59-7.33,0.19-11.88,8.42-13.61c4.74-2.59-6.69-12.97-34.36-31.09
					c-14.25-9.92-18.57-18.8-12.93-26.58c2.14-3.87,6.16-3.76,11.99,0.34c5.83,4.1,9.59,5.07,11.31,2.93
					c3.05-6.05,0.64-10.26-7.11-12.63c-7.78-2.41-11.46-5.08-11.01-8.12c-0.45-13.38-0.22-22.44,0.64-27.22
					c0.86-4.74,0.41-10.34-1.32-16.84c-4.74-6.88-13.8-6.47-27.18,1.32c3.01-7.33,3.76-14.47,2.26-21.39
					c-1.5-6.92-4.85-13.61-10.04-20.07L923,259.14c-1.73-6.92,2.14-11.65,11.65-14.25c-3.05-13.38-3.05-22.89,0-28.49
					c3.01-6.05,5.19-11.01,6.47-14.92c1.32-3.87,5.19-4.32,11.65-1.28c6.5,3.01,16.84,14.47,31.09,34.32
					c6.92-7.78,13.61-4.96,20.11,8.42c7.74,12.1,10.79,26.58,9.06,43.42c15.98-8.65,21.58-2.82,16.84,17.48
					c6.92,14.25,11.13,25.37,12.63,33.34c1.5,8.01,0.23,15.45-3.91,22.37c-4.1,6.92-6.01,12.18-5.83,15.86
					c0.23,3.68,1.73,3.57,4.55-0.34c2.82-3.87,8.53-7.1,17.18-9.7c5.6,12.1,7.97,20.07,7.11,23.95c0,4.77-2.89,9.96-8.72,15.56
					c-5.86,5.6-9.21,12.29-10.07,20.07c0,3.91,1.95,5.83,5.86,5.83l11.65-3.23c6.05-0.86,6.24,3.91,0.64,14.25
					c-6.05,11.24-10.49,20.75-13.27,28.49c-2.82,7.78-4.21,14.06-4.21,18.8c-0.45,9.92-2.18,15.75-5.19,17.48
					c0.86-12.52,0.53-25.56-0.98-39.17c-1.5-13.61-4.21-28.83-8.08-45.67c3.42-3.01,8.19-13.16,14.25-30.45
					c3.01-8.65,2.37-9.7-1.95-3.23c-4.74,12.97-9.51,20.94-14.25,23.98c-4.74-15.98-9.92-35.41-15.56-58.3
					c6.5-10.79,10.6-24.4,12.33-40.82c0.41-13.83-0.45-14.89-2.59-3.23c-2.59,16.39-7.33,29.13-14.25,38.23
					c-5.64-18.16-11.65-35.22-18.16-51.2c2.18-9.06,3.04-19.62,2.59-31.73c-0.41-12.1-1.5-12.52-3.23-1.32
					c0,9.1-1.09,16.88-3.23,23.34l-14.25-36.28l-9.06-20.75c-3.05-6.88-4.14-6.88-3.27,0l8.42,27.22
					c-6.47-7.33-12.52-12.74-18.12-16.2c-5.6-3.46-6.69-3.23-3.23,0.68c9.47,8.19,17.71,17.03,24.62,26.54
					c5.6,13.83,11.2,28.08,16.84,42.74c-16.43-13.8-27.86-21.58-34.36-23.31c-8.19-3.01-8.19-1.5,0,4.55
					c11.65,7.33,25.49,20.3,41.46,38.87c5.19,15.11,10.15,29.77,14.89,44.02c-8.2-4.74-18.12-14.25-29.77-28.49
					c-5.19-5.19-5.41-4.32-0.64,2.59c9.47,14.25,20.49,26.76,33.01,37.59l9.74,39.51c-9.92-9.96-22.89-20.11-38.87-30.45
					c-6.92-4.32-7.33-3.46-1.32,2.59c13.83,9.92,28.31,24.62,43.42,44.02c4.32,12.1,6.28,34.36,5.83,66.72
					c-0.41,8.23-6.47,14.25-18.12,18.16l-0.11,1.32l-2.48,29.77l-16.2,0.64C984.95,546.97,978.37,537.57,973.82,530.88z
					 M994.95,561.26c2.59-0.86,8.42-0.15,14.02-0.15c-6.01,32.82-13.01,68.75-18.61,91.23l-9.1-5.19
					C989.04,616.06,993.22,581.11,994.95,561.26z M879.92,745.94c-2.41-1.95-9.62-7.89-21.73-17.82
					c-10.79-9.51-14.25-18.16-10.34-25.94c-3.05-3.87-5.75-8.42-8.12-13.57c-2.37-5.19-1.84-10.26,1.62-15.22
					c3.46-4.96,11.47-2.71,23.98,6.8c2.14-7.37,2.14-14.28,0-20.75c-2.14-6.47-4.74-12.97-7.78-19.43
					c-5.6-10.38-11.01-19.21-16.2-26.54c-2.52-5.3-3.98-9.36-4.4-12.18c0.34-1.5,0.68-3.01,0.94-4.51c0.07-0.08,0.15-0.11,0.22-0.15
					c2.59-1.32,6.69,0.41,12.33,5.19c10.79-11.69,17.89-15.04,21.35-10.07c3.46,5,6.28,13.31,8.42,24.96
					c2.18,11.65,2.37,23.76,0.68,36.28l-2.59,2.59l2.59,2.59c0.83,2.59-0.23,12.29-3.27,29.13c0,3.42,1.05,6.84,3.2,10.26
					c0.04,0.04,0.04,0.08,0.08,0.11c0-0.08-0.04-0.11-0.04-0.19c-0.83-5.11-1.05-8.91-0.64-11.47c0.45-2.18,1.84-7.25,4.21-15.22
					c2.37-8.01,3.57-12.52,3.57-13.61s0.11-1.84-3.35-2.26c3.91-1.32,4.55-3.16,5.6-5.53c1.09-2.37,1.32-4.74,0.68-7.1
					c-0.68-2.41-1.09-9.21-1.32-20.41c-0.23-11.24-1.28-19.77-3.23-25.6c-1.95-5.83-3.12-10.38-3.57-13.61
					c-0.41-3.23-3.01-5.07-7.78-5.49c-4.74-0.45-11.43,4.32-20.07,14.25c3.91-18.57,7.89-30.98,11.99-37.25
					c4.1-6.28,8.31-8.08,12.63-5.53c4.32,2.59,7.14,5.41,8.42,8.42c1.32,3.05,3.23,2.52,5.83-1.62c2.59-4.1,4.74-5.49,6.47-4.21
					c1.73,1.32,3.57,3.91,5.53,7.78c1.95,3.91,3.35,8.01,4.21,12.33c0.86,4.29,1.62,12.18,2.25,23.64c0.08,1.05,0.11,2.11,0.11,3.08
					c0.23,8.87-0.94,15.15-3.57,18.87c-0.19,0.38-0.49,0.71-0.75,1.01c-3.46,3.91-5.19,8.65-5.19,14.25
					c0.86,22.48,2.59,33.61,5.19,33.38s5.71-1.95,9.4-5.19s6.92-4.44,9.74-3.57c2.25,0.71,3.72,4.92,4.47,12.67
					c0.15,1.84,0.3,3.87,0.38,6.13c0.41,11.65,1.5,12.86,3.23,3.57c1.73-9.29,4.96-13.95,9.7-13.95c4.77,0,5.64,12.52,2.59,37.59
					c-16.84,15.11-28.91,27.63-36.28,37.55c-2.59-10.79-2.67-18.34-0.3-22.67c2.37-4.32,4.51-9.17,6.47-14.59
					c1.95-5.38,3.57-10.26,4.85-14.55c0.41-1.2,0.75-2.29,1.05-3.23c2.11-6.92,1.28-6.99-2.48-0.26c-0.15,0.26-0.3,0.56-0.49,0.9
					c-2.59,5.19-4.89,9.7-6.8,13.61c-1.95,3.87-4.21,7.74-6.8,11.65c-0.71-5.71-2.78-15.15-6.16-28.27
					c-0.68-2.71-1.43-5.64-2.26-8.68c-3.91-12.07-4.96-11.84-3.23,0.68c0.41,2.52,0.83,5.04,1.24,7.56
					c2.74,17.63,4.74,34.73,5.86,51.39c-7.33-7.78-14.77-14.47-22.33-20.07c-1.8-1.35-3.53-2.71-5.23-4.13
					c-5.41-4.4-10.26-9.1-14.55-14.02c-4.74-3.01-5.6-2.59-2.59,1.32c3.72,4.92,8.72,10.53,15,16.69c2.48,2.44,5.15,4.96,8.01,7.59
					c10.15,9.29,16.31,15.41,18.46,18.46c2.14,3.01,3.46,5.6,3.87,7.78c-3.87,5.19-8.42,10.56-13.57,16.16
					c-1.09-0.6-2.03-1.39-2.74-2.29c-1.39-1.65-2.18-3.8-2.44-6.43C883.68,750.9,882.28,747.86,879.92,745.94z M844.36,810.75
					c5.49,0,13.23,2.78,11.28,7.44c-1.92,4.62-4.1,12.48-8.46,12.97c-4.32,0.49-12.78-5.6-12.78-11.09
					C834.39,814.62,838.83,810.75,844.36,810.75z M647.68,982.69c5.19-6.05,11.88-11.47,20.07-16.2
					c36.73-18.12,61.12-28.72,73.19-31.73c2.18-0.86,4.13-0.23,5.86,1.92l5.15,6.5l-7.1,4.51c-4.32,3.46-9.74,4.96-16.2,4.55
					c-5.6-0.45-13.16,1.39-22.67,5.49c-9.51,4.14-14.7,9.85-15.56,17.18c-1.73,5.19-4.1,8.42-7.1,9.74
					c-9.51,5.15-18.16,9.7-25.9,13.57l-20.11-1.28L647.68,982.69z M699.52,987.2c-2.18-7.33,0.41-13.16,7.74-17.48
					c6.92-5.19,14.47-7.33,22.67-6.47c3.46,0.41,3.68,6.69,0.68,18.8c-2.59,6.01-15.34,13.38-38.23,21.99l-21.39-2.56l22.71-12.97
					l5.83,9.06h3.23L699.52,987.2z M575.13,990.47l6.54,6.2l-14.32-6.88L575.13,990.47z M353.9,932.81
					c3.68-1.73,8.35-1.28,13.95,1.28l31.09,14.92l53.12,20.07c12.97,13.83,20.94,23.31,23.98,28.49c-10.83,1.32-22.48,2.18-35,2.59
					l-27.86-19.43c-11.24-13.38-19.43-23.08-24.62-29.13c-5.19-6.05-10.15-10.38-14.89-12.97c-6.92-3.87-12.52-5.19-16.84-3.87
					c-3.01,0.86-6.28,5.19-9.74,12.93l-1.28-1.28C347.55,939.09,350.26,934.54,353.9,932.81z M384.05,960.66
					c-6.05,3.01-12.1,3.01-18.16,0l-10.38-7.78c3.46-8.65,8.01-11.43,13.61-8.42l10.37,9.06L384.05,960.66z M271.32,595.32
					c-0.79,11.88-2.71,25.52-5.75,40.94c-1.95,9.81-4.36,20.34-7.18,31.61c-0.45-23.76-1.54-39.73-3.23-47.93l2.89-8.04l2.93-8.16
					c0.41-5.6-0.68-5.83-3.27-0.64l-1.28,2.33l-2.59,4.77l-0.64-12.93l1.13-1.43l8.57-10.9
					C269.4,578.47,272.18,581.93,271.32,595.32z M261.62,560.36c5.6-1.32,6.69,1.28,3.23,7.74l-12.29,18.16
					c-0.56-4.7-1.2-8.98-1.95-12.82c-0.26-2.11-0.53-4.25-0.71-6.39C253.99,564.23,257.9,562.01,261.62,560.36z M210.46,590.8
					c9.06-35.86,17.71-54.85,25.9-57.03c4.74,12.52,8.65,35.75,11.65,69.66c3.01,33.87,3.01,64.43,0,91.65
					c-3.87,34.55-9.74,57.85-17.48,69.96l-8.42,18.12c0-18.83,0.15-35.22,0.49-49.13c0.11-5.22,0.26-10.11,0.41-14.62
					c0.04-0.56,0.04-1.09,0.08-1.65c0.64-16.84,1.28-39.21,1.92-67.06c0.64-27.82,2.48-59.47,5.53-94.88
					c1.73-8.65,1.28-10.56-1.32-5.83c-6.92,35.82-11.01,81.84-12.29,137.96l-0.34,19.7l-0.3,17.25l-0.41,16.54l-0.86,32.7
					l-0.04,1.28l-8.42-9.74c-0.3-1.54-0.6-3.04-0.87-4.59c-0.45-2.33-0.9-4.7-1.28-7.07c-3.91-23.16-5.86-47.14-5.79-72.02
					c0-3.8,0.04-7.67,0.15-11.54C200.08,645.84,203.95,619.3,210.46,590.8z M153.13,699.29c2.03-9.02,4.81-18.16,8.35-27.4
					c8.8-23.16,22.33-46.99,40.56-71.39c-4.32,17.71-6.73,30.86-7.14,39.51c-8.72,15.07-16.54,30.11-23.46,45.07
					c-8.12,17.67-15,35.22-20.6,52.74c-2.59,9.92-4.74,21.8-6.47,35.64C143.06,755.75,145.99,731.02,153.13,699.29z M195.53,753.39
					l-14.25-18.16l10.38-25.9C191.21,723.58,192.53,738.27,195.53,753.39z M490.29,55.09c0,8.2-4.96,17.25-14.92,27.22
					c-15.11,13.8-33.98,26.54-56.65,38.19c-22.71,11.65-52.18,25.49-88.45,41.46v-3.87c44.06-32.82,84.88-59.62,122.43-80.33
					c9.92-6.05,9.06-7.78-2.59-5.19c-12.93,6.47-27.18,14.47-42.74,23.98c-25.9,16.84-51.16,33.46-75.78,49.85l0.64-7.74
					c49.24-43.19,89.62-71.05,121.12-83.56C468.9,51.63,481.19,51.63,490.29,55.09z M344.21,70.62
					c23.53-19.43,51.73-34.55,84.54-45.34c15.98-4.32,29.77-6.24,41.46-5.83c5.6,1.32,7.1,4.55,4.51,9.74l-14.25,18.76
					c-12.52,1.73-29.7,8.87-51.5,21.39c-21.8,12.52-45.22,29.13-70.3,49.88l-9.06,5.83c-4.74-3.46-13.38-1.95-25.9,4.51
					C343.45,96.33,378,71.07,407.36,53.78c18.98-9.47,30-16.16,33.04-20.07c-9.51,2.59-22.89,8.53-40.19,17.82
					c-17.25,9.29-45.75,28.61-85.48,57.97l-38.23,34.36C298.12,114.45,320.67,90.05,344.21,70.62z M304.36,142.53
					c6.92-3.87,11.65-5.38,14.25-4.55c1.73,4.32,2.18,10.26,1.32,17.82c-0.86,7.56-6.5,23.46-16.84,47.63l-4.92,9.59l-8.01,15.56
					l-11.05,21.5c-16.84,2.14-32.82,9.92-47.93,23.31c7.78-13.38,17.18-28.72,28.19-46.01c10.98-17.25,28.16-43.15,51.46-77.7
					c3.91-6.5,4.02-8.12,0.34-4.89c-3.68,3.27-13.5,15.68-29.47,37.25c-15.98,21.61-37.37,55.07-64.13,100.41
					c-1.17,1.77-2.56,3.91-4.21,6.47c-0.64,1.02-1.35,2.07-2.07,3.19c-0.94,1.43-1.95,3.01-3.04,4.66
					c-0.53,0.83-1.09,1.65-1.65,2.56c-0.6,0.9-1.2,1.8-1.84,2.78c-0.49,0.71-0.98,1.47-1.47,2.25c-1.02,1.54-2.07,3.16-3.16,4.85
					c-0.56,0.83-1.09,1.69-1.65,2.56c-0.56,0.86-1.13,1.77-1.73,2.67c-0.6,0.9-1.2,1.8-1.8,2.74c-0.6,0.94-1.24,1.88-1.84,2.86
					c-1.17,1.77-2.37,3.57-3.57,5.45c-0.79,1.2-1.62,2.44-2.41,3.72c-1.28,1.92-2.56,3.87-3.87,5.9c-0.15,0.23-0.3,0.45-0.41,0.68
					c-1.47,2.26-2.97,4.59-4.55,6.95c-0.79,1.2-1.58,2.41-2.37,3.65c-0.98,1.47-1.95,2.97-2.93,4.51c-1.99,3.04-4.06,6.2-6.16,9.44
					c-0.34,0.53-0.68,1.02-0.98,1.54c-0.86,1.35-1.77,2.74-2.67,4.14c-2.18,2.18-8.65,3.46-19.44,3.87l-21.39,62.85
					c1.73,2.59,7.14,1.73,16.2-2.59c-4.32,8.2-10.79,12.74-19.44,13.61l-5.19-3.87l-2.59-9.74l0.64-5.83l5.19,0.64l22.67-57.63
					l-13.61-16.84l3.27-9.74c4.28,9.06,8.42,14.02,12.29,14.89c6.05-11.65,14.77-27.52,26.24-47.59
					c11.43-20.07,24.92-40.49,40.48-61.24l-0.64-5.15c0-3.05,1.5-3.27,4.51-0.68l32.4-46.61l-26.58,45.97
					c4.32,4.74,2.37,8.01-5.83,9.74c-27.63,36.69-48.79,73.19-63.45,109.47l6.47,1.92c3.87,1.73,7.56,0.04,11.01-5.15l39.51-69.96
					l37.55-69.96C261.17,184.86,281.47,160.24,304.36,142.53z M163.17,375.07c-9.1,16.84-15.98,31.95-20.75,45.37l-5.19-0.68
					l13.61-42.1L163.17,375.07z M134,445.7l-12.93,34.96l-9.1,30.45l3.23-25.9l4.55-18.8l3.87-18.8L134,445.7z M112.64,414.58
					c3.01-19.4,7.11-37.1,12.29-53.12l5.19,6.5L112.64,414.58z M207.86,182.04c7.33-15.11,18.12-32.18,32.37-51.16
					c4.32-9.92,1.95-9.74-7.11,0.64c-21.16,26.35-45.79,68.04-73.87,125.03l12.33-31.09c2.14-6.92,9.06-22.55,20.71-46.99
					c11.65-24.4,23.12-43.72,34.32-57.97c11.24-14.25,19.02-23.53,23.34-27.86c15.53-13.38,24.58-19.62,27.18-18.76
					c2.18,1.69,2.82,4.51,1.95,8.42l-31.73,81.61c-20.75,40.15-47.93,82.02-81.61,125.67c-14.28,15.53-23.12,25.49-26.58,29.77
					c-3.46,4.32-6.28,8.42-8.42,12.33l2.59-11.01l12.29-19.43C162.94,273.16,183.65,233.43,207.86,182.04z M120.39,654.93
					c0-8.65-0.98-14.06-2.89-16.2c-1.95-2.18-3.91-6.16-5.83-11.99c-1.95-5.83-4.89-14.47-8.76-25.9
					c-3.87-11.47-6.69-21.73-8.42-30.79h-0.04c-11.58-5.19-20.07-13.98-25.22-26.24c-5.19-12.29-10.04-28.38-14.58-48.27
					c-4.51-19.85-6.35-43.61-5.49-71.23c2.14-32.82,6.92-64.77,14.25-95.86c10.79-43.19,32.82-84.2,66.09-123.07
					c7.33-8.23,11.84-10.15,13.57-5.86c1.73,17.29,1.62,34.02-0.3,50.22c-1.95,16.2-6.16,34.21-12.63,54.09
					c-16.84,56.12-26.99,93.9-30.45,113.34c-6.47,22.89-13.61,52.7-21.39,89.39c-3.46-17.71-1.39-54.92,6.16-111.72
					s17.18-97.29,28.83-121.46c5.6-12.52,5.38-14.47-0.64-5.83c-26.35,44.92-41.69,111.19-46.01,198.86
					c-0.86,30.67,0.86,52.78,5.19,66.39c4.32,13.61,9.28,21.5,14.89,23.64c3.05,1.73,6.28,1.5,9.74-0.64
					c2.59-16.39,4.32-29.7,5.19-39.85c0.86-10.15,2.03-22.03,3.53-35.6c1.54-13.61,4.21-24.96,8.12-34.02l2.59,2.59
					c-4.32,19.85-6.62,33.68-6.8,41.46c-0.23,7.74-0.75,15.53-1.62,23.31c-0.86,7.78-1.73,22.67-2.59,44.7
					c5.19-17.71,10.79-34.55,16.84-50.52l20.07-58.3l17.71-42.06l8.19-19.47c0.08-0.15,0.15-0.26,0.22-0.41
					c2.59-5.08,5.41-10.26,8.38-15.56c1.39-2.48,2.82-4.96,4.32-7.52c1.54-2.63,3.12-5.34,4.77-8.04c0.23-0.41,0.49-0.79,0.71-1.2
					c1.43-2.33,2.86-4.66,4.32-7.03c2.14-3.46,4.36-6.99,6.65-10.56c2.56-3.98,5.22-8.05,7.97-12.18c0.68-1.05,1.39-2.11,2.11-3.16
					c6.28-9.32,13.01-18.95,20.15-28.91c3.98-4.7,7.86-8.8,11.62-12.29c1.32-1.28,2.59-2.44,3.87-3.5l1.92-1.58
					c0.94-0.75,1.88-1.5,2.82-2.18c0.9-0.68,1.84-1.35,2.74-1.95c0.6-0.41,1.2-0.79,1.8-1.17c1.39-0.86,2.78-1.62,4.1-2.29
					c0.71-0.38,1.47-0.71,2.22-1.02c0.71-0.34,1.43-0.6,2.14-0.86c0.11-0.04,0.23-0.08,0.3-0.11c0.71-0.26,1.43-0.49,2.18-0.68
					c0.64-0.19,1.28-0.34,1.92-0.45c0.19-0.04,0.38-0.08,0.56-0.11c0.04,0,0.04,0,0.08,0c0.11-0.04,0.19-0.04,0.3-0.08
					c0.53-0.11,1.05-0.15,1.58-0.23c1.92,2.78,2.59,7.41,2.07,13.95v0.15c-0.04,0.15-0.04,0.34-0.04,0.49
					c-0.08,0.41-0.11,0.79-0.15,1.2c-0.08,0.68-0.15,1.32-0.26,1.99c-0.11,0.86-0.26,1.8-0.41,2.74c-0.19,1.05-0.38,2.11-0.6,3.2
					c-0.04,0.11-0.08,0.26-0.08,0.38c-0.15,0.68-0.3,1.32-0.45,1.99v0.04c0,0.11-0.04,0.26-0.07,0.41
					c-3.01,13.42-8.2,27.44-15.56,42.1c-0.49,0.19-1.05,0.45-0.45,0.79c-0.71,1.35-1.43,2.71-2.18,4.02
					c-0.11,0.26-0.26,0.53-0.41,0.79c-1.62,2.93-3.23,5.79-4.81,8.61c-0.86,1.54-1.77,3.05-2.63,4.59
					c-1.73,3.01-3.46,5.98-5.19,8.87c-3.57,5.98-7.14,11.69-10.68,17.22c-0.83,1.35-1.69,2.67-2.56,3.95
					c-1.05,1.62-2.14,3.23-3.2,4.81c-0.3,0.49-0.64,0.94-0.98,1.43c-0.3,0.49-0.6,0.94-0.94,1.39c-0.86,1.28-1.69,2.48-2.56,3.72
					c-1.05,1.5-2.07,2.97-3.12,4.44c-1.05,1.47-2.11,2.93-3.12,4.32c-1.05,1.43-2.11,2.82-3.12,4.21c-1.05,1.39-2.11,2.74-3.12,4.1
					c-0.08,0.08-0.11,0.15-0.19,0.23c-1.62,2.1-3.27,4.17-4.89,6.16c-2.56,3.16-5.11,6.16-7.67,9.06c-1.62,1.84-3.27,3.65-4.89,5.41
					c-0.04,0.04-0.08,0.04-0.08,0.08c-1.65,1.77-3.31,3.5-4.92,5.15c-1.47,1.47-2.97,2.93-4.44,4.32c-0.19,0.19-0.34,0.34-0.53,0.53
					c-1.28,1.2-2.59,2.41-3.87,3.57h-0.04c-0.34,0.34-0.71,0.68-1.05,0.98l0.71-1.17l32.97-53.49l-9.66-1.09
					c-0.19,0.3-0.41,0.64-0.6,0.94c-0.83,1.32-1.65,2.59-2.48,3.87c-0.83,1.28-1.58,2.52-2.37,3.76
					c-5.3,8.31-9.85,15.64-13.72,21.95c-1.02,1.65-1.95,3.27-2.86,4.77c-0.79,1.32-1.54,2.59-2.26,3.83
					c-0.79,1.28-1.5,2.52-2.18,3.72c-1.65,2.89-3.08,5.41-4.25,7.59c-0.38,0.71-0.75,1.43-1.09,2.07
					c-8.61,16.84-17.03,32.59-25.26,47.29c-8.19,14.66-13.61,26.13-16.16,34.32c-2.59,8.19-8.01,22.89-16.2,44.06
					c0,3.87,2.59,15.11,7.78,33.68c5.15,18.57,9.59,29.47,13.27,32.7c3.65,3.23,3.98,6.8,0.98,10.68
					c-1.32,3.46-0.45,9.96,2.59,19.43c2.14,10.38,7.1,24.62,14.89,42.78l-1.95,6.47C134.22,696.36,126.89,676.51,120.39,654.93z
					 M99.04,462.54c-4.32,34.55-8.01,61.54-11.01,80.97l-2.59-5.19C82.84,534.42,87.35,509.16,99.04,462.54z M304.36,949.01
					l-8.42-11.01c-2.59-3.05-6.16-3.68-10.68-1.95c-4.55,1.73-8.12-0.86-10.71-7.78c-11.65,6.92-23.53,4.32-35.6-7.74l-21.39-25.94
					l-20.07-34.32l-7.14-5.19c-0.04,0.04-0.08,0.04-0.11,0.04c-0.38,0.26-0.79,0.49-1.17,0.71c-0.79,0.41-1.62,0.79-2.44,1.13
					c0,0,0,0-0.04,0c-2.56,0.9-5.34,1.32-8.27,1.13c-0.6-0.04-1.16-0.11-1.77-0.19c-0.6-0.11-1.16-0.19-1.73-0.34l-25.9-16.73
					c-6.05-5.6-19.02-27.86-38.87-66.72c-26.35-50.07-44.28-87.89-53.79-113.34c-6.88-21.16-11.43-34.55-13.61-40.18
					c-2.14-5.6-3.01-5.71-2.56-0.3c0.41,5.38,3.65,17.48,9.7,36.28c6.05,18.76,17.29,46.31,33.68,82.59
					c14.25,29.36,28.31,56.12,42.1,80.29c-31.95-34.55-55.07-66.91-69.32-97.14c-14.25-29.81-23.72-57.44-28.49-82.93
					c-2.14-9.06-3.46-23.01-3.87-41.8c-0.45-18.76-0.23-29.25,0.64-31.39c2.14-6.5,5.19-9.29,9.06-8.42
					c2.59,0,8.53,6.13,17.82,18.46c9.29,12.29,21.92,39.92,37.89,82.93c15.98,42.97,25.83,71.12,29.47,84.5
					c3.68,13.38,7.37,25.07,11.01,35c3.68,9.92,8.12,20.07,13.27,30.45c7.78,15.53,15.56,26.13,23.34,31.73
					c1.58,1.09,3.05,2.07,4.47,2.89c0.83,0.45,1.62,0.9,2.37,1.28c0.56,0.26,1.13,0.53,1.69,0.79c0.68,0.26,1.35,0.53,1.99,0.75
					c0.6,0.23,1.2,0.38,1.8,0.53c0.56,0.11,1.13,0.23,1.65,0.3c0.38,0.08,0.79,0.08,1.17,0.08c0.11,0.04,0.26,0.04,0.38,0.04
					c0.45,0,0.9-0.04,1.32-0.07c0.45-0.04,0.86-0.11,1.28-0.23c0.41-0.08,0.79-0.19,1.2-0.34c0.38-0.15,0.75-0.3,1.13-0.49
					c0.38-0.23,0.79-0.45,1.17-0.75c0.34-0.26,0.71-0.56,1.05-0.9l-17.48-35.6c-3.05-6.5-2.63-12.86-8.68-11.13l2.33,4.17
					c-2.1-0.9-4.51-0.98-7.25-0.19c-0.45,0.04-0.86,0.04-1.28,0.04h-0.22c-0.11,0-0.23,0-0.34-0.04c-0.3,0-0.56,0-0.83-0.04
					c-1.77-0.15-3.31-0.56-4.62-1.24c-0.94-0.49-1.77-1.13-2.48-1.84c-0.23-0.3-0.49-0.6-0.71-0.9c-0.19-0.3-0.41-0.64-0.6-0.98
					c-0.26-0.49-0.49-1.02-0.71-1.58c-0.19-0.56-0.38-1.17-0.49-1.8c-0.11-0.64-0.22-1.32-0.3-1.99c-0.08-0.68-0.11-1.39-0.11-2.14
					v-0.23c0-0.15,0-0.26,0.04-0.41v-0.49c0-0.45,0.04-0.94,0.08-1.39c0.04-0.79,0.15-1.62,0.26-2.44
					c0.86-7.78,3.68-21.16,8.42-40.15c0.75-2.52,1.5-5,2.33-7.52c0.38-1.17,0.75-2.33,1.13-3.5c0.38-1.17,0.75-2.33,1.16-3.5
					c0.9-2.67,1.81-5.34,2.78-8.01c0.86-2.44,1.77-4.92,2.71-7.41c0.04-0.04,0.04-0.04,0.04-0.08c0.45-1.24,0.94-2.48,1.43-3.72
					c0.45-1.24,0.98-2.48,1.47-3.72c0-0.04,0-0.04,0.04-0.08c0.98-2.48,1.99-4.92,3.05-7.41c1.02-2.44,2.11-4.92,3.2-7.41
					c1.05-2.44,2.18-4.89,3.31-7.37c0.04-0.04,0.04-0.11,0.08-0.15c1.35-2.97,2.78-5.9,4.21-8.87c1.43-2.93,2.89-5.86,4.36-8.76
					c0.08-0.11,0.11-0.23,0.15-0.3c0.11-0.19,0.19-0.41,0.3-0.6c0.26-0.49,0.49-0.94,0.75-1.43c0.08-0.19,0.19-0.34,0.26-0.53
					c0.19-0.34,0.38-0.68,0.56-1.01c0.75-1.43,1.54-2.89,2.29-4.32c1.69-3.19,3.42-6.39,5.23-9.59c-1.5,9.92-2.52,18.72-2.97,26.39
					c-0.04,1.01-0.11,2.03-0.15,3.01c-0.08,1.5-0.11,2.93-0.11,4.32v1.28c-15.98,35.82-27.63,64.77-35,86.8
					c-3.87,15.98-3.65,23.76,0.68,23.31l5.15-2.59l-3.87-9.06l2.59-7.1l7.78,13.57l4.51-3.23l3.91,5.83l-3.91,5.86l29.17,42.1
					l7.11-5.83l5.19,5.83c-8.65,8.61-12.1,14.25-10.37,16.84c7.78,14.25,14.92,25.67,21.39,34.32c12.97,18.98,23.53,24.4,31.73,16.2
					c2.59-2.18,5.86-1.73,9.74,1.28c3.87,3.04,8.19,9.51,12.97,19.43l-0.68-14.89l-23.95-22.67l-13.61-27.22
					c-11.24-15.98-19.21-28.27-23.98-36.91c-4.74-8.65-10.68-19.02-17.82-31.09c-7.11-12.1-15.86-25.71-26.2-40.82l1.92-7.14
					l20.75,25.26c18.57,23.76,31.61,41.8,39.17,54.09c7.56,12.33,11.99,15.22,13.27,8.76l3.91-12.29l5.83,3.23l-3.87,25.26
					l-1.32,7.78c-0.41,6.01,0.75,9.59,3.57,10.68c2.78,1.09,5.3,5.07,7.44,11.99c1.28,4.32,8.08,13.27,20.41,26.88
					c12.29,13.61,25.26,25.04,38.87,34.32c13.61,9.28,24.81,16.84,33.68,22.67c8.83,5.83,13.04,11.54,12.63,17.18l12.29,2.59
					l-3.23-15.56l7.78-1.92c3.87,2.56,7.1,7.33,9.7,14.25c11.24,8.61,20.94,15.53,29.17,20.71l-28.49,5.19l-48.61-29.17
					L304.36,949.01z M185.16,797.44l3.91-3.91l18.12,30.45l-1.92,3.87L185.16,797.44z M215.61,858.3l7.14-9.06l16.84,23.98
					l9.7,17.48l3.27,9.7c-6.05-3.01-11.24-7.56-15.56-13.57l-10.38-13.61L215.61,858.3z M365.26,1014.42l-38.87,6.5l9.06-25.94
					L365.26,1014.42z M457.88,1135.57c-18.12,17.71-38.64,34.55-61.54,50.52l-7.78-2.59c13.38-8.23,32.4-21.61,57.03-40.19
					l11.01-12.29l-5.83-0.64c-8.23,7.33-17.63,14.77-28.19,22.33c-10.56,7.56-22.78,14.81-36.61,21.69l-18.76,9.1l3.23,3.87
					l14.25,1.95c8.19,5.19,11.65,10.38,10.38,15.53c-4.32,6.5-11.24,7.37-20.75,2.59l-15.52-8.42c-5.64-5.6-11.24-9.47-16.84-11.65
					l-6.5-5.19l2.59-6.47l19.43,7.78h5.83l-3.23-11.65l23.31-14.28c6.05-2.14,8.65-5.83,7.78-10.98l1.95-11.69
					c9.92,2.18,20.71,0.56,32.4-4.85c11.65-5.41,22.67-8.53,33-9.4C465.02,1124.97,464.8,1129.94,457.88,1135.57z M442.36,1108.66
					c-22.48,5-42.78,9.4-60.9,13.31c-45.34,8.2-90.03,14.89-134.09,20.07c-11.24-3.05-43.64-19.66-97.17-49.88
					c-38-22.89-64.54-41.46-79.69-55.71c-17.25-18.57-24.17-29.81-20.71-33.68c11.24-18.57,18.8-34.96,22.67-49.24
					c1.73-6.01,2.18-10.79,1.32-14.25c-4.77-14.66-1.32-22.22,10.34-22.67c28.94-1.73,48.38-2.14,58.3-1.28
					c4.32,0.41,7.14-0.86,8.42-3.91l9.74-19.43l-5.83-2.59l-8.42,12.97l-0.68-14.89c0-2.18,1.32-2.82,3.91-1.95
					c18.12,4.74,26.54,10.79,25.26,18.16c-5.64,9.47-8.23,20.26-7.78,32.37l0.64,33.68c-22.89-15.11-47.48-28.49-73.83-40.15
					c3.01-0.45,6.47-0.75,10.34-0.98c3.91-0.23,6.5-1.62,7.78-4.21c1.32-2.59-1.05-4.1-7.1-4.55c-13.38,0-22.03,1.09-25.94,3.23
					c-3.01,3.46-2.37,7.14,1.95,11.01c31.09,15.56,58.53,31.13,82.29,46.65c37.55,23.76,66.69,43.19,87.44,58.3
					c20.3-0.41,48.79-3.23,85.52-8.42l55.67-10.38c22.89-4.32,46.65-7.97,71.27-11.01c9.06-1.28,20.53-2.14,34.32-2.59
					c13.83-0.41,26.58-1.5,38.23-3.23c11.24,21.16,18.12,39.73,20.71,55.71c1.32,8.2,0.23,12.74-3.23,13.61
					C501.71,1091.74,464.8,1103.7,442.36,1108.66z M608.17,1087.61l-3.23-10.34l-17.52,22.03l-14.25,9.06
					c-6.47,5.6-13.16,7.78-20.07,6.47l-22.67-11.01l11.65-5.83l3.23,2.59c-2.14,6.47,0.45,5.6,7.78-2.59l20.07-19.43
					c1.32-11.65-1.5-26.65-8.42-45c-6.88-18.38-12.07-29.92-15.52-34.66c-0.86-3.91-10.79-4.77-29.81-2.59
					c11.24-5.64,24.4-6.05,39.51-1.32l15.56,6.5l8.42-3.65l4.51,4.29c22.03,23.76,34.47,39.92,37.25,48.57
					c2.82,8.65,3.16,17.07,0.98,25.26C617.46,1086.74,611.63,1090.65,608.17,1087.61z M678.77,1179.59
					c-3.87-3.01-4.96-6.02-3.23-9.06l12.97,11.01C685.91,1183.28,682.68,1182.64,678.77,1179.59z M762.97,1180.91l7.14,1.28
					l-2.59,3.23l-16.84,5.19c-7.33,6.5-15.98,10.79-25.9,12.97l-11.01-1.95l-2.59-7.78c2.59-3.87,5.94-6.69,10.04-8.42
					c4.1-1.73,9.4-3.23,15.86-4.51l15.56,2.59L762.97,1180.91z M739.03,1173.77c-11.65,0-19.02,1.32-22.03,3.91h-9.06
					c-12.56-8.65-22.48-16.65-29.81-23.98l-30.45-23.98c5.6-3.01,17.71-1.92,36.28,3.27L739.03,1173.77z M831.65,1041.97
					c12.52,1.05,22.03,0.53,28.49-1.65c11.65-4.74,35.64-22.44,71.91-53.12c34.96-26.31,64.54-44.7,88.75-55.03
					c7.33-4.32,7.67-7.44,0.94-9.4c-6.69-1.95-16.73-2.93-30.11-2.93c-4.32,3.46-3.87,6.28,1.32,8.42c6.01-0.41,10.34,0,12.93,1.32
					c-28.91,15.11-53.12,30.22-72.55,45.34c1.73-9.92,3.23-26.99,4.55-51.16c-0.45-7.78-3.05-14.7-7.78-20.75
					c-3.01-4.32,1.09-8.19,12.33-11.65l9.06-2.59V903l-12.33-3.23l1.32,6.47c2.59,4.77,7.33,8.01,14.25,9.74l34.96,1.95l15.56-0.68
					c18.16,0.45,26.99,4.89,26.58,13.31c-0.45,8.42,0.19,16.28,1.92,23.64c3.05,18.57,10.38,36.28,22.03,53.12
					c-2.59,7.74-8.19,16.84-16.84,27.18l-33.68,22.03c-28.94,20.75-68.23,47.74-117.89,80.97c-35.41,0.86-77.96-1.92-127.62-8.42
					c-35.82-4.74-77.06-13.8-123.71-27.22l-10.38-2.56l4.55-4.55c7.33-9.51,11.31-15.86,11.99-19.1c0.64-3.27-0.45-10.6-3.27-22.03
					c-2.78-11.47-10.9-24.96-24.28-40.49v-3.91l9.74-1.28c26.76,1.73,50.64,5.19,71.57,10.38c20.94,5.15,45.86,9.92,74.81,14.25
					C798.83,1037.76,819.13,1040.88,831.65,1041.97z M783.08,1024.79c-11.24-1.73-29.4-4.96-54.43-9.74l22.67-7.74
					c12.1,2.59,19.02,0,20.75-7.78C773.76,1008.59,777.44,1017.01,783.08,1024.79z M918.45,833.72c-8.65,9.47-11.43,19.4-8.42,29.77
					c-12.1,6.5-23.76,15.98-35,28.49c-11.2,12.56-19.74,23.12-25.56,31.76c-5.83,8.65-11.99,13.8-18.46,15.53
					c-7.37,3.46-15.79,1.73-25.26-5.19l-2.59,16.2l-43.42,26.58l-21.35,9.06c1.69-4.32,2.78-11.65,3.23-22.03l7.74-6.47
					c29.81-15.56,47.1-29.81,51.84-42.74c6.05-10.83,12.52-19.77,19.43-26.92c6.92-7.1,11.88-15.86,14.89-26.24l0.68-15.53
					l-1.95-16.2c6.92,7.78,13.16,9.51,18.8,5.19c9.06-16.84,18.76-32.52,29.13-46.95c10.37-14.47,21.39-27.97,33.04-40.49
					c11.65-12.52,21.58-23.12,29.77-31.76l-0.64,16.2c-25.9,31.95-42.1,53.76-48.57,65.45c-22.03,33.23-36.91,59.58-44.7,79.02
					c-4.77,10.79-11.65,19.43-20.75,25.9c-6.88,3.46-12.07,7.14-15.53,11.01c-3.04,5.6-1.32,7.14,5.19,4.55
					c4.32-4.32,9.06-7.56,14.25-9.74c9.51-4.74,29.77-27.22,60.9-67.36l-0.68-22.67l7.14-12.29c-0.45,12.52,0.64,19.4,3.23,20.71
					c2.59,1.28,6.17-2.26,10.68-10.68c4.55-8.42,15.68-31.65,33.38-69.66c-3.91,11.65-4.1,21.8-0.64,30.45
					c-10.38,7.33-13.19,19.89-8.42,37.59L918.45,833.72z M1063.89,689.89c-1.54,10.79-5.08,20.07-10.71,27.86
					c-17.71,20.3-25.04,32.4-22.03,36.28c4.77,8.19,3.91,17.48-2.59,27.85c-9.47,11.65-22.03,24.62-37.55,38.87
					c4.32,8.65,1.09,15.98-9.74,22.03c-12.52,6.92-26.31,12.93-41.43,18.12c28.04-21.16,45.34-43.83,51.8-68
					c9.06-8.2,17.07-13.61,23.98-16.2c6.05-3.87,7.1-5.6,3.23-5.19c-7.78,3.05-15.98,7.78-24.62,14.25
					c8.19-16.39,14.02-34.1,17.48-53.12c16.84-16.39,27.44-29.36,31.76-38.87c6.05-9.06,6.24-11.01,0.64-5.83
					c-6.47,10.83-16.43,22.25-29.81,34.36c6.05-18.57,11.47-39.32,16.2-62.21c2.14-13.38,1.5-15.75-1.95-7.11l-6.47,22.67
					c-3.01-9.06-6.47-15.98-10.38-20.71l8.42,27.18c-1.73,10.79-5.83,26.13-12.29,46.01c-6.05-17.29-14.02-32.82-23.98-46.65
					c-9.06-11.24-10.56-11.43-4.51-0.64c9.92,14.25,18.12,33.04,24.62,56.35c-5.19,20.71-11.24,38-18.16,51.8
					c-5.19-7.74-10.56-13.16-16.2-16.16c-4.32-2.18-4.32-0.86,0,3.87c5.64,5.6,10.15,11.24,13.61,16.84
					c-5.19,12.52-11.99,23.53-20.41,33.04c-8.42,9.51-16.73,17.48-24.92,23.98c10.38-15.98,13.83-33.68,10.38-53.12
					c0-3.46,2.67-6.28,8.08-8.46c5.41-2.14,7.22-4.51,5.53-7.1c-4.77-9.51-7.14-17.07-7.14-22.67c3.46-1.73,8.65-1.73,15.56,0
					c5.6-3.91,5.04-9.4-1.65-16.54c-6.69-7.1-10.9-17.37-12.63-30.75c0-7.78,5.19-10.6,15.56-8.42c4.74-0.45,5.19-6.05,1.28-16.84
					l-10.98-14.89c-7.78-17.29-4.55-23.57,9.7-18.8l16.84,10.38c11.24,4.29,16.62-3.27,16.2-22.7c0-4.29,3.35-5.26,10.04-2.89
					c6.69,2.37,12.86-2.71,18.46-15.22c5.6-6.05,9.92-0.45,12.97,16.84c-1.32,22.89,4.29,33.68,16.84,32.4
					C1065.05,673.05,1065.39,679.11,1063.89,689.89z M1083.28,634.18c0.68,4.32-0.3,7.89-2.89,10.68c-2.59,2.82-7.56,5.3-14.89,7.48
					l-7.14-12.97c0.45-10.38-3.01-20.3-10.38-29.81c3.05-2.59,7.78-5.19,14.25-7.74c4.77-2.18,3.91-2.82-2.56-1.95
					c-6.92,1.28-12.33,3.01-16.2,5.19h-1.32c3.91-13.83,10.15-26.99,18.8-39.51c2.14-5.64,0.86-5.41-3.87,0.64
					c-7.37,10.34-13.83,21.35-19.43,33.04c-2.59-2.59-4.55-7.37-5.83-14.28c-1.73-8.2-3.04-8.42-3.91-0.64
					c1.32,9.92,3.23,17.07,5.83,21.39c-9.51,14.66-17.07,20.52-22.67,17.48c3.46-20.71,8.01-42.52,13.61-65.41
					c9.92-9.92,18.57-13.19,25.9-9.74c10.38-8.19,19.21-9.7,26.58-4.51c3.87,6.47,5.6,12.82,5.19,19.1
					c-0.45,6.28-2.59,13.27-6.5,21.05c8.23,0,12.52,3.23,12.97,9.7c-3.46,14.7-10.38,25.3-20.71,31.76
					C1077.57,626.85,1082.65,629.86,1083.28,634.18z"/>
			</g>
		</g>
		<g>
			<path class="st0" d="M473.25,1090.44c5.78-1.52,11.57-3.04,15.87-8.87l2.94,4.29l-3.17-21.7l-1.43,1.51
				c0.15,11.6-2.66,20.29-12.78,23.31c-14.48,1.63-20.41-12.77-23.57-27.24c-1.61-14.47-0.41-31.82,14.11-33.47
				c8.66-1.51,16,5.58,19.04,15.73l1.52-0.02l-3.21-18.8l-1.47,0.02l0.06,4.33c-5.82-2.79-10.17-4.2-17.51-2.64
				c-15.83,1.61-24.37,17.69-22.66,36.49C444.13,1082.15,457.37,1093.58,473.25,1090.44"/>
			<path class="st0" d="M645.67,1027.13l0.04,2.87c2.85-0.04,5.74,1.41,5.78,4.27c1.46,2.91,0.11,8.68,0.15,11.61l-3.98,27.58
				c0.04,2.86-1.25,10.13-2.78,11.58c-1.45,2.92-4.3,2.96-7.12,2.99l0.02,1.43c4.35,1.41,7.18,1.37,11.58,1.31
				c4.31,1.35,7.24,1.31,11.6,2.8l-0.04-2.95c-2.85,0.04-5.73,0.07-5.79-4.21c-0.02-1.51-0.11-8.7,1.25-11.67l2.6-27.47
				c1.34-3.01,1.26-8.74,2.76-11.66c1.34-2.95,5.61-3.01,7.17-3.03l1.44-1.41c-4.38,0.06-8.69-1.37-13.07-1.31
				C654.38,1029.89,649.94,1028.5,645.67,1027.13"/>
			<path class="st0" d="M419.91,1040.46c0.04,2.9,1.51,8.61,1.55,11.54l4.72,27.55c0.04,2.84,1.56,8.59,0.15,11.5
				c0.06,4.39-2.79,4.43-5.7,4.46l0.02,1.39c4.34-0.06,8.67-0.11,11.54-1.54l11.57-0.15l-0.04-2.95c-2.84,0.04-5.77,0.07-7.32-2.79
				c-1.4-1.43-2.94-8.67-2.98-11.51l-3.28-27.5c-1.47-2.93-1.54-8.63-1.58-11.65c1.4-2.8,4.3-4.34,5.75-4.36l-0.02-1.46
				c-2.91,0.04-7.25,1.56-11.55,1.61c-2.91,0.04-7.31,0.09-11.62,1.66l1.46,1.38C414.07,1037.63,416.92,1037.59,419.91,1040.46"/>
			<path class="st0" d="M105.32,996.62c7.24,4.34,14.49,4.25,21.62-4.61c7.16-10.18,1.27-17.34-6.06-23.06
				c-1.5-1.41-4.39-4.31-7.32-5.68c-4.4-2.85-7.35-5.7-11.77-8.57l0.04,2.93c1.47,1.41,4.42,2.83,3.06,5.75
				c-1.49,2.89-5.76,8.72-7.2,10.2L82.05,995.6c-1.41,2.82-5.72,8.69-8.61,10.19c-2.85,1.43-4.32,0.06-7.27-1.38l-1.36,1.49
				c4.33,1.34,7.26,4.25,10.25,7.03c2.87,1.46,5.81,4.33,8.72,5.75l1.43-1.48c-2.91-1.45-4.38-2.85-4.42-5.76
				c1.41-2.92,5.63-8.73,7.1-11.63L95,991c2.95,2.89,2.95,2.89,3,7.2l-1.17,23.19l-1.34,7.29c1.46,1.43,4.39,1.39,5.91,2.79
				c1.4,1.47,2.87,2.91,4.42,4.34l1.38-1.46c-2.97-2.91-2.99-4.33-3.05-8.7L105.32,996.62z M97.87,988.06l12.82-17.5
				c1.47-0.02,1.45-1.49,2.94-1.51c0,0,2.93,1.43,4.36,2.81c4.38,2.89,4.47,10.12,0.21,15.93
				C109.65,998.05,105.28,993.8,97.87,988.06"/>
			<path class="st0" d="M356.61,1079.96c-2.97-2.85-7.33-2.8-11.71-2.74c5.75-3.07,11.58-7.41,9.97-16.08
				c-1.59-11.59-11.75-12.97-20.4-11.34c-3,0.04-5.89,1.54-8.68,1.58c-4.41,0.06-7.3,0.09-11.68,1.61l0.02,1.43
				c2.96-0.04,5.83-0.08,7.33,2.74c1.51,1.49,3.02,8.64,3.06,11.59l3.23,27.5c0.04,2.85,1.54,8.68,1.58,11.59
				c0.06,4.35-4.24,4.41-5.66,4.43l0.04,2.82c4.27-1.48,8.59-2.93,13.04-2.99c2.84-0.04,7.22-0.09,8.6-1.6
				c4.38-0.06,10.18-0.13,14.51-4.56c2.81-2.96,5.68-7.33,5.59-14.59C363.93,1087.06,360.92,1082.76,356.61,1079.96 M331.52,1054.19
				c0,0,3-0.04,4.43-1.48c5.72-0.07,8.66,2.75,10.21,9.97c0.06,4.31,0.11,8.64-2.7,11.57c-1.49,1.45-4.36,1.48-7.18,3.09l-1.45,0.02
				l-3.24-18.82L331.52,1054.19z M346.74,1107.61c-2.85,0.04-5.74,0.07-7.27-2.81c-1.49-2.86-1.55-7.27-2.97-10.14l-1.62-13.01
				l2.83-0.04c2.95-0.04,5.82-1.47,10.13-0.13c2.93,2.78,5.93,5.72,6,11.54C355.38,1100.22,352.55,1106.02,346.74,1107.61"/>
			<path class="st0" d="M370,1104.4l0.02,1.48c13.03-1.65,27.51-4.7,40.58-6.34l4.27-0.06l-1.59-17.4l-2.89,1.5
				c0.06,4.4,0.11,8.72-2.8,11.63c-2.79,2.99-7.23,3.05-10.08,4.5c-10.14,1.59-13.05-1.25-14.69-12.86l-3.25-27.41
				c-0.04-3.02-1.57-10.17-1.61-13.08c1.4-2.88,4.3-2.91,7.17-2.95l-1.42-2.9c-2.85,1.54-7.27,1.6-11.6,1.66
				c-2.9,1.45-7.27,1.5-11.61,1.56l1.5,2.84c1.51-1.45,5.76-1.5,7.27,1.34c0.04,2.97,1.6,10.15,1.63,13.06l4.68,25.98
				c0.04,2.88,1.58,10.16,0.17,13.04C375.78,1102.92,372.89,1102.96,370,1104.4"/>
			<path class="st0" d="M310.48,1086.33c-2.87-1.52-7.21-1.46-11.58-1.41c5.72-2.9,10.04-7.24,8.5-15.96
				c-1.66-13.01-13.3-14.29-20.5-12.76c-2.87,1.44-5.72,1.48-10.16,1.53c-2.86,1.54-7.23,1.6-10.08,1.64l0.04,2.91
				c2.83-1.52,5.8-1.56,7.24,1.33c0.04,2.85,1.58,10.1,1.62,12.95l4.72,26.12c0.04,2.88,1.62,10.12,1.66,12.94
				c-1.45,2.9-4.4,2.94-7.26,4.44l0.02,1.51c5.83-0.08,8.65-1.62,14.52-1.69c2.83-1.5,5.72-1.54,10.12-1.59
				c4.37-0.06,10.12-1.55,12.99-4.48c4.37-4.42,7.12-8.75,5.62-14.58C317.86,1093.47,314.91,1089.09,310.48,1086.33 M282.63,1064.96
				l-0.04-2.88c1.47-1.5,4.36-1.54,4.36-1.54c7.2-1.52,10.22,2.77,11.76,10.03c0.06,4.26,0.09,7.25-2.76,10.18
				c-1.48,2.88-4.37,2.92-7.22,2.95l-2.87,1.39L282.63,1064.96z M299.27,1113.97c-2.87,1.46-5.75,1.5-7.31-1.3
				c-1.4-2.95-2.97-8.75-3-11.59l-1.63-11.64l1.48-0.02c4.36-1.45,8.68-1.51,11.56-0.15c4.36,1.44,5.88,5.76,7.42,10.07
				C309.34,1108.09,306.5,1113.88,299.27,1113.97"/>
			<path class="st0" d="M513.71,1082.78l-0.04-2.94c-2.93,0.04-7.31,1.6-7.36-2.81c-1.44-2.84,1.34-10.14,1.28-14.46l-0.04-2.89
				l18.81-3.25l5.99,10.15c0.02,1.44,1.44,4.33,1.46,5.77c1.55,4.31-2.81,4.36-4.2,5.87l0.02,1.42c2.89-0.04,7.21-1.51,11.54-1.57
				c2.89-1.53,7.23-1.58,10.1-1.62l-0.04-2.86c-2.87,0.04-5.74,0.07-7.22-1.38c-1.52-2.82-4.46-7.2-5.93-10.04l-22.35-44.61
				l-2.87,0.04l-6.82,39.09c-1.32,5.91-1.25,11.68-2.58,18.91c-1.45,4.39-2.86,5.92-7.15,7.41l0.02,1.43
				c2.93-0.04,5.74-0.07,8.65-1.54L513.71,1082.78z M514.44,1030.93l11.89,23.04l-15.99,1.63L514.44,1030.93z"/>
			<path class="st0" d="M890.14,1096.75c1.56,5.75,0.09,7.25-2.83,10.13l1.51,1.41c1.45-1.45,4.32-2.9,7.23-4.37
				c2.87-1.52,4.18-2.97,7.12-4.5l-1.48-1.41c-1.48,1.45-5.68,2.99-7.21,0.09c-1.49-4.25-2.99-11.52-3.03-14.41l-1.53-2.88
				l17.27-8.93l7.32,5.77c2.91,1.32,4.39,4.21,5.84,5.67c1.56,2.87-1.36,5.79-4.26,5.83l1.5,2.89c2.83-2.94,7.23-4.45,10.1-5.92
				c2.85-2.93,7.17-4.46,10.09-5.92l-1.49-1.47c-1.47,0.02-4.38,1.55-7.25,0.09c-2.91-1.32-7.3-5.66-8.85-7.1l-38.07-32.78
				l-2.95,0.04l7.76,39.03C888.5,1083.73,890.06,1090.91,890.14,1096.75 M904.3,1069.06l-14.42,7.47l-4.7-24.59L904.3,1069.06z"/>
			<path class="st0" d="M917.36,1025.41l20.68,28.68c2.93,2.89,5.88,7.16,7.46,10.11c1.49,4.31,0.07,5.75-2.8,8.69l1.38,1.45
				c2.94-2.97,4.34-4.42,7.24-5.89c2.89-1.48,5.74-2.94,7.13-5.91l-0.02-1.48c-2.88,1.52-5.73,3.04-8.68,1.59
				c-2.88-2.85-7.28-7.1-8.85-10.02l-19.19-25.76l52.49,16.63c2.95,1.47,5.84,2.85,8.73,2.81l1.43-1.44l-23.56-31.65
				c-3.04-4.25-8.9-11.38-10.38-14.3c-1.54-4.26,1.39-4.3,2.81-7.25l-1.48-1.53c-2.91,1.59-4.32,2.98-5.7,5.93
				c-2.96,1.48-5.83,2.98-8.7,4.47l1.49,1.47c4.3-1.54,5.82-3.01,10.14-0.13c2.97,2.8,5.91,8.62,8.85,11.38l16.28,21.6l-56.85-18.11
				c-1.41,1.49-4.26,2.95-5.75,2.97c-1.45,2.88-2.9,2.9-5.77,4.34l1.53,3C910.07,1024,913.04,1023.96,917.36,1025.41"/>
			<path class="st0" d="M207.48,1050.67c7.16-10.29,1.19-18.87-6.05-23.06c-2.91-1.45-5.88-4.34-8.77-5.7
				c-2.97-2.86-7.35-4.24-10.27-7.13l-1.44,1.5c2.93,1.41,5.84,2.81,4.45,7.12c-1.42,1.59-5.73,7.39-7.09,10.27l-14.19,21.89
				c-1.41,2.97-5.75,8.74-8.58,10.3c-1.49,2.93-4.38,0.06-7.31-1.43l0.04,2.98c2.93,1.41,5.81,4.22,8.75,5.56
				c4.42,2.96,7.39,4.37,10.27,7.18l1.43-1.42c-2.97-2.86-5.79-4.32-4.39-7.24c-0.04-2.84,4.18-8.75,5.57-11.68l7.15-8.76
				c0,0,2.93,2.87,4.4,2.85C188.71,1059.58,200.35,1062.33,207.48,1050.67 M198.78,1046.46c-4.33,7.29-10.13,8.79-15.93,4.53
				c-1.48-1.39-2.95-1.37-2.97-2.84l11.38-17.51c2.83-4.43,2.83-4.43,5.83-1.5C202.91,1033.35,204.48,1039.17,198.78,1046.46"/>
			<path class="st0" d="M991.39,1028.47c0.06,4.41,0.08,5.83-2.78,8.71l1.46,2.91c1.42-2.94,4.38-4.5,5.81-5.85
				c2.88-1.46,5.7-3.02,7.15-4.49l-1.51-2.88c-1.38,1.49-4.23,4.4-7.16,1.56c-1.52-2.88-4.57-10.09-4.63-14.44l-1.44-1.43
				l15.88-11.79l8.7,5.7c1.53,1.44,4.46,2.83,5.86,4.25c1.5,2.87-1.31,5.85-2.76,7.27l1.49,1.49c2.81-2.95,5.73-4.5,8.55-7.41
				c2.81-2.92,5.75-4.39,8.64-5.89l-0.04-2.91c-2.9,1.51-5.83,2.98-8.7,1.58c-1.49,0.02-7.32-4.28-8.72-5.68l-42.53-28.45
				l-1.38,1.52l12.11,37.47C986.86,1015.47,988.41,1021.26,991.39,1028.47 M1001.15,997.93l-12.91,10.33l-8.99-24.54L1001.15,997.93
				z"/>
			<path class="st0" d="M247.09,1055.28l0.04,2.84c1.47,1.49,4.42,2.88,1.55,7.28c-1.41,2.86-12.88,13.24-15.69,16.16l-18.71,14.67
				l5.37-24.64c1.5-4.45,5.65-18.92,7.07-21.91c1.43-2.84,5.83-1.51,7.23-0.09l1.44-1.45c-4.39-1.33-7.29-4.2-10.23-5.58
				c-2.88-1.43-5.95-4.28-8.79-5.73l-1.38,1.5c4.28,4.3,2.94,8.65,1.59,14.46l-12.33,52.23l2.89,1.49l37.29-32.4
				c5.76-4.4,11.49-11.69,17.33-7.5l-0.02-1.38c-1.51-1.44-4.35-2.83-7.32-4.27C252.91,1059.55,250.04,1058.08,247.09,1055.28"/>
			<path class="st0" d="M821.47,1118.83l4.12-17.43l-2.96,0.04c-1.31,5.76-1.27,8.69-7.14,11.7c-2.87,1.46-7.19,0.09-11.59,0.15
				c-8.71-1.37-10.17-4.24-8.9-15.8l3.98-27.66c1.47-2.84,1.38-10.14,2.78-13.03c1.36-2.85,5.78-1.49,7.25-1.51l1.36-2.93
				c-4.34,0.06-8.67,0.11-13.07-1.36c-2.91,0.04-7.29-1.22-10.14-1.18l-1.47,1.33c2.89-0.04,5.76,1.46,7.32,4.34
				c0.04,2.84-1.4,10.07-1.36,13.02l-3.91,26.13c-1.45,2.94-2.83,10.22-2.81,11.63c-2.86,2.92-5.77,2.96-8.59,2.99l0.02,1.44
				c14.46,2.75,27.53,4,42.11,6.73C818.5,1117.44,821.45,1117.41,821.47,1118.83"/>
			<path class="st0" d="M150.5,1050.45c-7.13,7.19-11.48,5.83-18.81,1.55c-2.95-1.27-5.86-4.27-5.92-8.65
				c-0.04-2.84,2.8-5.83,4.23-8.69l8.57-13.16c7.28,4.3,10.23,7.15,4.54,15.83l1.47,1.49c2.84-2.99,4.28-5.83,7.09-10.22
				c1.47-2.91,4.36-5.81,7.13-10.28l-1.44,0.02c-4.26,4.49-8.58,8.85-17.34,1.69l12.8-19c2.89-2.93,2.89-2.93,4.3-1.46l4.41,2.84
				c7.27,5.72,10.27,8.58,4.55,17.29l1.46,1.43l8.59-11.69l-30.76-21.4l-2.87,1.59c2.91,1.41,5.84,2.83,4.43,7.16
				c-1.42,1.46-5.68,7.35-7.07,10.27l-14.28,20.45c-2.87,2.86-7.2,8.71-8.56,10.17c-2.91,1.55-5.76,0.07-7.31-1.34l-1.36,1.46
				l35.11,25.62l8.51-12.98L150.5,1050.45z"/>
			<path class="st0" d="M764.88,1104.03c-1.43-2.91-1.5-8.68-3.09-11.55l-9.32-49.14l-2.89-1.34l-16.95,34.92
				c-2.86,5.85-5.68,11.66-8.5,17.49c-2.94,4.37-4.32,5.89-8.65,5.95l-1.39,1.4c2.85-0.04,5.76,1.43,8.74,1.39
				c2.87-0.04,5.73,1.35,8.67,1.31l-0.02-1.42c-1.46-1.49-5.8-1.43-5.85-5.72c1.41-2.95,4.2-10.22,5.61-13.12l1.46-2.95l20.31,2.67
				l1.57,10.1l0.11,8.72c0.04,2.88-4.29,1.48-5.76,1.49l-1.4,2.99c4.33-0.06,8.62-0.11,11.59,1.23c4.44-0.06,8.71,1.36,11.58,1.32
				l-0.02-1.47C767.78,1106.96,766.32,1106.98,764.88,1104.03 M735.49,1078.38l11.35-23.36l4.67,25.99L735.49,1078.38z"/>
			<path class="st0" d="M723.73,1053.26l1.52,1.38l2.68-14.58l-49.4-8.05l-2.72,14.57l2.93,1.4c1.25-11.52,4.12-11.56,12.9-10.31
				c2.85-0.04,7.27,1.39,5.82,2.78l-5.2,44.99c-1.29,7.3-2.82,8.76-11.52,8.87l0.02,1.42c4.38,1.41,8.72,1.35,13.13,1.29
				c4.32,1.38,8.71,2.75,13.01,2.7l-0.02-1.43c-7.24-2.81-7.26-4.23-7.35-11.53l6.62-44.97c-0.04-2.84,4.4-1.52,8.74-1.58
				C722.16,1041.6,725.12,1044.54,723.73,1053.26"/>
			<path class="st0" d="M847.23,1061.76c0.02,1.52,1.56,8.69,1.59,11.56l1.87,27.5c0.04,2.9,1.49,8.66,0.15,11.61
				c0.06,4.31-4.28,4.37-5.79,4.39l0.02,1.42c4.33-0.06,7.22-0.09,11.58-1.57l11.58-0.15l-0.02-1.43c-2.85,0.04-5.73,0.07-7.24-2.79
				c-1.52-2.91-1.61-10.1-1.65-12.99l-3.23-26.08l-0.17-12.98c1.33-2.97,4.34-3.01,7.21-3.04l-0.04-2.9
				c-4.35,0.06-8.73,1.58-11.6,1.61l-11.58,0.15l0.04,2.95C842.82,1058.98,845.79,1057.42,847.23,1061.76"/>
		</g>
	</g>
</g>
</svg>
