<?xml version="1.0" encoding="utf-8"?>
<!-- Generator: Adobe Illustrator 27.2.0, SVG Export Plug-In . SVG Version: 6.00 Build 0)  -->
<svg version="1.1" id="Livello_1" xmlns="http://www.w3.org/2000/svg" xmlns:xlink="http://www.w3.org/1999/xlink" x="0px" y="0px"
	 viewBox="0 0 2142.2 499.5" style="enable-background:new 0 0 2142.2 499.5;" xml:space="preserve">
<style type="text/css">
	.st0{fill:#003399;}
	.st1{fill:#009245;}
	.st2{fill:#C1272D;}
	.st3{fill:#003399;stroke:#003399;stroke-width:4;stroke-miterlimit:10;}
	.st4{fill-rule:evenodd;clip-rule:evenodd;fill:#003399;}
</style>
<path class="st0" d="M1604.9,496.5h121.4l15.2-222.1c2.8-37.2,0-82.7,0-82.7h1.4c0,0,16.6,51.7,27.6,82.7l51.7,142.7h103.4
	l51.7-142.7c11-31,27.6-82.7,27.6-82.7h1.4c0,0-2.8,45.5,0,82.7l15.2,222.1h120.7l-40-493.1h-131l-71.7,208.3
	c-11,31.7-24.8,81.4-24.8,81.4h-1.4c0,0-13.8-49.6-24.8-81.4L1776.8,3.4h-131L1604.9,496.5z"/>
<path class="st0" d="M965.7,3.5H838.8l-167.6,493h124.1L825,393.1h153.8l30.3,103.4h124.1L965.7,3.5z M853.2,296.5l28.3-95.9
	c9-31,20-84.8,20-84.8h1.4c0,0,11,53.8,20,84.8l27.6,95.9H853.2z"/>
<path class="st0" d="M1329.1,3.5h-175.2v493.1h175.2c155.2,0,254.5-92.4,254.5-247.6S1484.2,3.5,1329.1,3.5 M1324.2,393.1h-49.6
	V106.9h49.6c81.4,0,134.5,48.3,134.5,142C1458.7,343.4,1407.7,393.1,1324.2,393.1"/>
<path class="st0" d="M528.4,57l-0.3-0.2v-1.5l0.3-0.2c1.4,0,2.3-0.1,2.7-0.2s0.8-0.4,1.1-0.7c0.3-0.4,0.9-1.6,1.9-3.6l3-6.5
	l7.8-17.6c1.5-3.4,2.9-6.9,4.4-10.3h1.9l12.2,28.7l1.6,3.8c0.5,1.1,1,2.3,1.6,3.5c0.6,1.3,1,2,1.3,2.3c0.2,0.2,0.5,0.4,0.9,0.5
	s1.1,0.2,2.4,0.2l0.2,0.2v1.5l-0.2,0.2c-2-0.2-3.8-0.3-5.5-0.3c-3.2,0.1-6.3,0.2-9.5,0.3l-0.2-0.2v-1.5l0.2-0.2c2.1,0,3.5-0.1,4-0.3
	c0.5-0.1,0.8-0.5,0.8-1c0-0.4-0.1-1-0.4-1.7l-3.5-8.7h-16.5l-3.1,7.3c-0.6,1.3-0.8,2.3-0.8,2.9c0,0.5,0.3,0.8,0.8,1.1
	c0.5,0.2,1.8,0.4,3.9,0.4l0.3,0.2v1.5l-0.5,0.1c-2.5-0.2-4.6-0.2-6.5-0.2C532.6,56.8,530.5,56.9,528.4,57 M541.4,41h14.5l-7.2-17.2
	L541.4,41z"/>
<path class="st0" d="M570.3,111.5v0.9l-0.1,0.3l-1.4,0.8c-0.3,0.2-0.5,0.4-0.6,0.5s-0.1,0.7-0.2,1.7c-0.1,1-0.1,2.3-0.1,3.7
	c0,1.7,0.1,3.5,0.3,5.4l-0.2,0.3c-5.2,2-10.6,3-16.1,3c-4.2,0-8.1-0.8-11.5-2.4s-6.1-4-8.1-7.1s-3-6.9-3-11.2
	c0-6.6,2.3-11.8,6.8-15.7c4.5-3.9,10.4-5.8,17.6-5.8c5.3,0,10.1,0.9,14.4,2.7l0.2,0.3c-0.3,1.3-0.7,4-1.2,8l-0.2,0.2h-1.3l-0.2-0.2
	l-0.1-3c-0.1-1-0.1-1.6-0.2-1.7c-0.1-0.2-0.3-0.4-0.6-0.7c-0.3-0.3-1.2-0.7-2.6-1.3c-1.4-0.6-2.8-1-4.3-1.3c-1.4-0.3-3-0.4-4.6-0.4
	c-3.5,0-6.6,0.7-9.3,2.2c-2.7,1.4-4.7,3.6-6.1,6.3c-1.4,2.8-2,5.9-2,9.2c0,3.5,0.7,6.8,2.2,9.8s3.6,5.4,6.3,7.1s5.9,2.5,9.6,2.5
	c1.6,0,3.2-0.2,4.8-0.5s3-0.8,4.1-1.3c0.2-0.6,0.3-1.8,0.3-3.7v-3.2c0-1.5-0.1-2.4-0.3-2.8s-0.7-0.6-1.4-0.8
	c-0.8-0.2-2.4-0.2-4.9-0.3l-0.3-0.3v-1.3l0.3-0.3l1.7,0.1c3,0.1,5.4,0.1,7.3,0.1c1.1,0,2.7-0.1,4.8-0.2L570.3,111.5z"/>
<path class="st0" d="M534.1,157.1l0.2-0.2c6.5,0.1,10.7,0.2,12.5,0.2c6.2,0,11.8-0.1,16.7-0.2l0.1,0.2c-0.5,1.8-0.8,4.7-1.1,8.6
	l-0.2,0.2h-1.4l-0.3-0.2c0-0.2,0-0.3,0-0.5c0-1.6-0.1-3.2-0.4-4.6c-1.2-0.5-2.9-0.9-5-1c-2.1-0.2-3.7-0.2-4.8-0.2
	c-1.5,0-3.4,0.1-5.8,0.3l-0.1,4.6l-0.1,5.2l-0.1,5.8c2.1,0.1,4,0.2,5.7,0.2c1.8,0,3.2-0.1,4.4-0.2s1.9-0.2,2.1-0.4
	c0.2-0.1,0.4-0.4,0.5-0.7c0.1-0.4,0.2-1,0.3-1.9l0.1-1.8l0.2-0.2h1.3l0.2,0.2c0,2.1-0.1,4.2-0.1,6.3l0.1,6.4l-0.2,0.2h-1.3l-0.2-0.2
	l-0.2-1.7c-0.2-1.3-0.3-2.1-0.4-2.4c-0.1-0.3-0.3-0.5-0.5-0.7c-0.3-0.2-1-0.3-2.1-0.5c-1.1-0.1-2.7-0.2-4.7-0.2
	c-1.1,0-2.8,0-5.1,0.1c-0.1,1.6-0.1,4.3-0.1,8c0,4,0,6.9,0.1,8.8h5.3c4.6,0,7.5-0.1,8.7-0.2s2.3-0.4,3.3-0.8c0.2-0.4,0.5-1.5,0.8-3
	c0.4-1.6,0.6-2.6,0.7-3l0.3-0.2h1.4l0.2,0.2c-0.2,0.8-0.3,2.2-0.5,4.3c-0.2,2-0.2,3.8-0.2,5.2l-0.2,0.2c-3.6-0.1-8.4-0.2-14.3-0.2
	l-7.8-0.1c-1.8,0-3.7,0.1-5.7,0.2l-0.2-0.2v-0.9l0.2-0.3c1.1-0.6,1.8-0.9,1.9-1.1c0.2-0.1,0.3-1.8,0.4-5c0.1-3.2,0.2-5.6,0.2-7.3
	v-10.5v-6.5c0-1.4,0-2.6-0.1-3.4c0-0.9-0.1-1.5-0.2-1.9c-0.1-0.4-0.2-0.6-0.3-0.8c-0.1-0.2-0.3-0.3-0.6-0.4s-0.7-0.2-1.4-0.3
	l-2.2-0.2l-0.2-0.2v-1.1H534.1z"/>
<path class="st0" d="M527.4,267.7l-0.3-0.3v-1.3l0.3-0.2c1.2,0,2.1-0.1,2.8-0.2c0.7-0.1,1.1-0.3,1.3-0.6s0.3-0.7,0.4-1.3
	c0.1-0.6,0.1-1.9,0.2-4c0.1-2.1,0.1-3.6,0.1-4.5v-23.1c0-1-0.2-1.7-0.5-2.2c-0.4-0.5-0.8-0.8-1.4-0.9c-0.6-0.1-1.6-0.2-3.1-0.2
	l-0.2-0.2v-1.3l0.2-0.3c2.6,0.1,4.4,0.1,5.2,0.1c1.9,0,3.5,0,4.7-0.1l9.1,11.9l13.4,16.8c1.6,2,3.3,4,4.9,5.8v-22.1
	c0-0.7,0-2.1-0.1-4.4c-0.1-2.2-0.1-3.7-0.2-4.3c-0.1-0.6-0.3-1-0.5-1.2s-0.7-0.4-1.3-0.5c-0.7-0.1-1.5-0.2-2.7-0.2l-0.2-0.2v-1.3
	l0.2-0.3c1.5,0.1,3.7,0.1,6.6,0.1c2.6,0,4.5,0,5.7-0.1l0.3,0.3v1.3l-0.2,0.2c-1.3,0-2.2,0.1-2.9,0.2s-1.1,0.3-1.3,0.6
	c-0.2,0.3-0.3,0.7-0.4,1.3c-0.1,0.6-0.1,1.9-0.2,3.9c-0.1,2.1-0.1,3.6-0.1,4.5V253v7.9c0,2.6,0.1,5.2,0.1,7.7
	c-1-0.3-2.6-0.7-4.9-1.2l-2-2.4l-6.1-7.4l-19.4-24.2v21.9c0,0.9,0,2.4,0.1,4.7c0.1,2.2,0.1,3.6,0.2,4.1c0.1,0.5,0.2,0.8,0.4,1
	s0.5,0.3,1,0.5s1.5,0.2,3.1,0.3l0.2,0.2v1.3l-0.2,0.2c-1-0.1-2.6-0.2-4.8-0.2C532,267.5,529.6,267.6,527.4,267.7"/>
<path class="st0" d="M531.4,337.7v-1.4l6.9-8.5l16.3-21c2.5-3.2,4.1-5.4,5-6.8h-1.2h-4.6c-4,0-7.3,0.1-9.8,0.2
	c-2.5,0.1-4.1,0.3-4.9,0.4c-0.8,0.1-1.3,0.3-1.5,0.6c-0.2,0.2-0.3,0.8-0.4,1.7l-0.4,3.8l-0.3,0.3h-1.3l-0.3-0.3
	c0.1-1.4,0.1-2.6,0.1-3.5c0-2.3,0-4.2-0.1-5.5l0.3-0.3c6.8,0.2,11.6,0.2,14.3,0.2c4.5,0,10.4-0.1,17.7-0.2l0.3,0.3v1.5
	c-2.1,2.5-3.6,4.2-4.4,5.3l-23.8,30.7l11.6,0.2c2.3,0,4.6-0.1,7-0.2c2.3-0.1,3.9-0.2,4.6-0.3c0.7-0.1,1.3-0.3,1.5-0.5
	c0.3-0.2,0.5-0.4,0.6-0.7c0.1-0.2,0.2-0.9,0.5-2l0.6-3.8l0.3-0.2h1.3l0.2,0.2c-0.1,1.2-0.3,4.5-0.4,9.9l-0.3,0.2
	c-8-0.2-14.4-0.2-19-0.2c-3.3,0-8.6,0.1-16.1,0.2L531.4,337.7z"/>
<path class="st0" d="M541.7,367.6l3.6,0.1c2.3,0.1,3.9,0.1,4.6,0.1c0.6,0,3.4-0.1,8.2-0.2l0.2,0.2v1.4l-0.2,0.2
	c-1.3,0-2.3,0.1-3,0.2c-0.7,0.1-1.2,0.2-1.6,0.4c-0.3,0.2-0.5,0.7-0.6,1.5s-0.2,1.8-0.2,3.2l-0.1,6.6v13.2v5.6
	c0,2.2,0.1,3.5,0.2,4.2c0.1,0.6,0.2,1,0.4,1.3c0.2,0.2,0.5,0.4,1,0.5s1.8,0.3,3.8,0.3l0.2,0.2v1.4l-0.2,0.2c-0.1,0-1.8-0.1-5-0.2
	c-1.4,0-2.4-0.1-3.2-0.1c-0.6,0-3.3,0.1-8.2,0.2l-0.2-0.2v-1.4l0.2-0.2c1.8-0.1,3-0.2,3.5-0.3c0.6-0.1,1-0.3,1.2-0.4
	c0.2-0.2,0.4-0.6,0.5-1.2c0.1-0.6,0.2-1.9,0.2-3.9v-6v-13.2l-0.1-5.6c0-2.2-0.1-3.6-0.2-4.2c-0.1-0.6-0.2-1-0.4-1.3
	c-0.2-0.2-0.5-0.4-1-0.5s-1.8-0.2-3.8-0.3l-0.2-0.2v-1.4L541.7,367.6z"/>
<path class="st0" d="M528.4,478.5l-0.3-0.2v-1.5l0.3-0.2c1.4,0,2.3-0.1,2.7-0.2c0.4-0.1,0.8-0.4,1.1-0.7c0.3-0.4,0.9-1.6,1.9-3.6
	l3-6.5l7.8-17.6c1.5-3.4,2.9-6.9,4.4-10.3h1.9l12.2,28.7l1.6,3.8c0.5,1.1,1,2.3,1.6,3.5c0.6,1.3,1,2,1.3,2.3
	c0.2,0.2,0.5,0.4,0.9,0.5s1.1,0.2,2.4,0.2l0.2,0.2v1.5l-0.2,0.2c-2-0.2-3.8-0.3-5.5-0.3c-3.2,0.1-6.3,0.2-9.5,0.3l-0.2-0.2v-1.5
	l0.2-0.2c2.1,0,3.5-0.1,4-0.3c0.5-0.1,0.8-0.5,0.8-1c0-0.4-0.1-1-0.4-1.7l-3.5-8.7h-16.5l-3.1,7.3c-0.6,1.3-0.8,2.3-0.8,2.9
	c0,0.5,0.3,0.8,0.8,1.1c0.5,0.2,1.8,0.4,3.9,0.4l0.3,0.2v1.5l-0.2,0.2c-2.5-0.2-4.6-0.2-6.5-0.2
	C532.6,478.2,530.5,478.3,528.4,478.5 M541.4,462.4h14.5l-7.2-17.2L541.4,462.4z"/>
<rect x="511.4" class="st1" width="4.6" height="498.8"/>
<rect x="584.6" y="0.7" class="st2" width="4.6" height="498.8"/>
<g>
	<g>
		<g>
			<g>
				<path class="st0" d="M110.9,97.7l3.4-1.5l0.7,1.6l0,0l5.4,11.9l-2.1,1.8c-2.8,2.4-5.6,5-8.2,7.7c-1.3,1.3-2.5,2.6-3.8,4
					c-0.5,0.6-1.1,1.2-1.6,1.8l-2.8-2.5l0,0l0,0l0,0l0.9-6.4l0,0c0.7-0.7,1.3-1.4,2-2.1c0.9-0.9,1.7-1.7,2.6-2.6
					c1.3-1.3,2.6-2.5,3.9-3.7l-0.9-1.9l-1.7-3.8L110.9,97.7z"/>
			</g>
		</g>
		<g>
			<g>
				<path class="st0" d="M65.4,180.7l-3.1-1.7c0,0.1-0.1,0.2-0.1,0.2c-0.7,1.2-1.2,2.2-1.7,3c-0.1,0.1-0.1,0.3-0.2,0.4l-1.6,2.8
					l0.1,0.1l4.1,2.3l1.6,0.9c-1.1,5.4-1.9,10.6-2.4,15.6l-11.4,2.3l-3.7,0.8l0,0l0,0l-0.1,2.9c0,0.9-0.1,2.7-0.1,4.7
					c0,5.2,0,12.6,0.1,15l0.1,2.9l15.1,3.1c0.5,4.9,1.3,10,2.4,15.6L51,259.3l0.9,2.9c0.5,1.5,1.7,5.3,2.9,9.2
					c0.2,0.7,0.5,1.5,0.7,2.2l0.5,1.6l0.6-0.2l3-1l2.1-5.2c0,0,0-0.1,0.1-0.1c-0.4-1.3-0.8-2.6-1.2-3.8l0,0
					c-0.2-0.8-0.5-1.5-0.7-2.1l2.4-1.3l4.6-2.6l0,0l5-8l0,0c0-0.1,0-0.1,0-0.2c-0.2-1.2-0.5-2.4-0.7-3.5c-1-5.2-1.6-10-2-14.6
					l-0.2-2.8l-14.7-3c0-3.7,0-9.6,0-13.3l14.7-3l0.2-2.8c0.5-6.3,1.5-12.9,3.1-20.1l0.6-2.7l-3.5-1.9l-3.1-1.7L65.4,180.7z"/>
			</g>
		</g>
		<g>
			<g>
				<path class="st0" d="M368.6,274l-2.3-0.8l-2.3-5.1c0.2-0.6,0.4-1.3,0.6-1.9c0.1-0.4,0.2-0.7,0.3-1.1c0.2-0.7,0.4-1.4,0.6-2
					l-8.3-4.7l-2.4-1.4l2.2-4.6l0.5,0.1l1.1-1.9l1.9,1.1l13.5,7.8l-0.6,2.7c-0.3,1.4-1.2,4.2-1.7,6c0,0.1-0.1,0.3-0.1,0.4
					c-0.3,1-0.7,2.1-1,3.2L368.6,274z"/>
			</g>
		</g>
		<g>
			<path class="st0" d="M212.8,386.3c-4.1,0-8.2,0-9.9-0.1l-2.9-0.1l-3.1-15.1c-5-0.5-10.2-1.3-15.6-2.4l-7.5,13.4l-2.8-0.8
				c-3.2-0.9-15.6-4.9-18.8-6.1l-2.7-1l1.7-15.3c-4.8-2.1-9.5-4.5-14.1-7.2l-11.3,10.3l-2.4-1.6c-2.6-1.7-13.3-9.4-16-11.6l-2.2-1.8
				l6.3-14c-4.1-3.8-7.8-7.4-11.2-11.1l-13.9,6.3l-1.8-2.3c-0.4-0.6-1.1-1.5-2-2.7l-0.7-1c-1.1-1.5-2.4-3.3-3.7-5.1l6.1-4.4
				c1.3,1.8,2.6,3.5,3.7,5.1l0.7,1c0,0,0,0.1,0.1,0.1l13.5-6.2l1.8,2.1c4.2,4.7,8.9,9.4,14.5,14.4l2,1.8l-6.2,13.7
				c3,2.2,7.7,5.6,10.7,7.8l11-10.1l2.4,1.4c5.9,3.5,12,6.6,18.2,9.2l2.6,1.1l-1.7,15c3.6,1.2,9.1,3,12.7,4.1l7.3-13l2.7,0.6
				c7,1.5,13.8,2.6,20.1,3.1l2.8,0.2l3,14.7c3.8,0,9.6,0,13.3,0l2.9-14.6l2.8-0.3c7.4-0.7,14-1.8,20.1-3.2l2.7-0.6l7.4,13
				c3.6-1.1,9.2-2.9,12.7-4.1l-1.7-14.8l2.5-1.1c6.3-2.8,12.4-5.9,18.1-9.3l2.4-1.4l11.2,10.1c3-2.1,7.7-5.5,10.7-7.8L305,331
				l2.1-1.8c5.6-4.9,10.3-9.6,14.4-14.4l1.8-2.1l13.8,6.2c1.7-2.3,4.2-5.7,6.3-8.6c0.7-0.9,1.3-1.8,1.8-2.6l6.2,4.2
				c-0.5,0.8-1.2,1.7-1.9,2.7c-2.5,3.5-6.7,9.3-8.3,11.3l-1.8,2.2l-14-6.3c-3.3,3.7-7,7.4-11.2,11.2l6.5,13.9l-2.3,1.8
				c-2.4,1.9-13.1,9.8-16,11.6l-2.4,1.5l-11.3-10.3c-4.5,2.6-9.2,5-14.1,7.2l1.6,15.3l-2.7,1c-3.1,1.2-15.5,5.2-18.9,6.1l-2.8,0.8
				l-7.6-13.4c-4.9,1-10,1.9-15.6,2.5l-3,15l-3,0.1C221,386.2,216.9,386.3,212.8,386.3z"/>
		</g>
		<g>
			<g>
				<path class="st0" d="M203.6,54.5C203.6,54.5,203.5,54.5,203.6,54.5L203.6,54.5z M333,123.7l-2.9,1.4l-6.5,3l-1.8-2.1
					c-4.5-5.1-9.2-9.9-14.5-14.4l-2.1-1.8l6.2-13.6c-2-1.5-4.7-3.5-7.2-5.3c-1.4-1-2.6-1.9-3.6-2.6l-10.9,10.2l-2.4-1.4
					c-5.9-3.5-12-6.6-18.2-9.2l-2.6-1.1l1.7-14.9c-3.5-1.2-9.1-3-12.7-4.1l-7.3,13.1l-2.7-0.7c-6.9-1.6-13.4-2.7-20-3.2l-2.8-0.2
					l-3.1-14.7c-3.7-0.1-9.5-0.1-13.3,0l-2.9,14.7l-2.8,0.2c-7.3,0.6-13.8,1.7-20,3.2l-2.7,0.7l-7.6-13.1c-3.5,1.1-9.1,2.9-12.6,4.1
					l1.7,14.9l-2.6,1.1c-6.1,2.5-12.2,5.6-18.1,9.2l-2.4,1.4l-11.1-10.1c-0.6,0.4-1.2,0.9-1.8,1.3c-1.9,1.4-4.1,3-6.1,4.4l0,0
					c-0.3,0.2-0.6,0.4-0.8,0.6l-2.2-3l3.4-7.1c0.5-0.4,1-0.7,1.5-1c2.1-1.5,3.6-2.5,4.4-3.1l1-0.6l0,0L126,79l11.4,10.3
					c4.6-2.7,9.3-5.1,14-7.2L149.7,67l2.6-1.1c3.3-1.3,15.7-5.4,18.9-6.2L174,59l7.7,13.3c4.9-1.1,10.1-1.9,15.6-2.5l3-14.8l2.7-0.3
					c0.1,0,0.3,0,0.5,0h0.3h0.1c4-0.2,15.9-0.2,19.2,0.1l2.8,0.2l3.1,14.9c5.2,0.5,10.3,1.3,15.6,2.5l7.4-13.3l2.8,0.7
					c3.4,0.8,15.9,4.9,19.1,6.2l2.6,1.1l-1.7,15.1c4.8,2.1,9.5,4.5,14.1,7.2L300,79.1l0.2,0.1l0,0l2.2,1.3c0.3,0.2,0.6,0.4,1,0.6
					c1.7,1.1,4,2.8,5.5,3.8c0,0,0,0,0.1,0c1.5,1.1,3.1,2.2,4.5,3.3l0,0c0.2,0.1,0.4,0.3,0.7,0.5c2,1.5,3.8,2.9,4.6,3.5L321,94
					l-1.7,3.8l-4.6,10.1c4,3.6,7.7,7.3,11.2,11.2l4.6-2.2l1.4-0.7l1.6,3.4L333,123.7z"/>
			</g>
		</g>
		<g>
			<g>
				<path class="st0" d="M356.5,230.4L356.5,230.4v-0.5l2.9-0.5l0,0h0.2l11.6-2.4c0.1-3.7,0.1-9.5,0-13.3l-14.8-2.9l-0.2-2.8
					c-0.6-7.3-1.7-13.8-3.2-20l-0.7-2.8l5.8-3.3l5.4-3.1l2.8,0.3l1.1,1.8l-0.9,4.8l0,0l-3.8,2.2l-1.8,1c1.1,4.9,1.9,10.1,2.5,15.6
					l7.8,1.6l4.7,0.9c1,1.6,1.9,3.1,2.7,4.4c0,0.3,0,0.6,0,0.9c0,1.5,0.1,3.7,0.1,6c0,4.7,0,10-0.2,12l-0.2,2.8l-15,3.1
					c-0.3,3-0.7,6-1.2,9.2l-0.4-0.1l-3.2-0.5L356.5,230.4z"/>
			</g>
		</g>
		<g>
			<path class="st3" d="M140.5,320l25.2-84.4l-69.9-53.3l88-2.1l29.1-82.9l29.3,83.1l87.8,2l-69.9,53.5l25.1,84.1l-72.4-50
				L140.5,320z M212.7,260.9l59.2,40.8L251.3,233l57.1-43.7l-71.7-1.6l-24-67.9L189,187.5l-71.8,1.7l57.1,43.5l-20.6,69L212.7,260.9
				z"/>
		</g>
		<g>
			<path class="st0" d="M244.8,184.8l-6.3-0.1l-1.5-4.3l-2.2-78.8l2.8,0.6c34.3,7.2,63.8,28.9,80.7,59.4l1.4,2.5L244.8,184.8z
				 M241.8,180.2l2.5,0.1l68.7-19.1c-16-27.3-42.6-46.8-73.5-54.1l2.1,72.4L241.8,180.2z"/>
		</g>
		<g>
			<path class="st0" d="M181.2,184.7l-74.6-22l1.4-2.5c17.5-30.3,47.1-51.6,81.3-58.3l2.8-0.6l-3.4,78.7l-1.6,4.5L181.2,184.7z
				 M113.4,160l68.4,20.2l2.2-0.1l0.3-1l3.1-72.3C156.6,113.7,129.9,132.9,113.4,160z"/>
		</g>
		<g>
			<path class="st0" d="M125.1,303.5l-1.9-2.1c-9.4-10.5-16.9-22.5-22.3-35.5l-0.3-0.7l0.2-0.7c2.3-9.8,3.8-21.6,3.2-25.4
				c-0.2-1.1-0.4-1.8-0.6-2.2l0,0l-7.7,5.9l5.9-11.7c0.3-0.7,0.4-1.2,0.4-1.5c-1.4,0-4,0.4-6.5,1.6l-3,1.5l-0.3-3.3
				c-0.6-7.7-0.4-15.6,0.5-23.4l0.3-2.8l75.5,28.1l2.6,2l-1.5,5.2L125.1,303.5z M105.4,264.9c4.7,11.5,11.2,22,19.3,31.4l41-59.8
				l0.4-1.4L97,209.4c-0.5,5.6-0.6,11.1-0.4,16.7c3.2-0.9,6.9-1.3,8.5-0.1l0,0c1.7,1.3,1.9,3.6,0.7,6.8c1.5,1,2.2,3.2,2.6,5.6
				C109.2,243.2,107.5,255.7,105.4,264.9z"/>
		</g>
		<g>
			<path class="st0" d="M212.6,341.1c-17.3,0-34.5-3.7-50.6-11.1l-2.6-1.2l50.2-63.2l3.1-2.1l3,2.1l0.2,0.3l48.9,63.5l-2.6,1.2
				C246.5,337.6,229.6,341.1,212.6,341.1z M166.6,327.2c29.1,12.5,62,12.7,91.2,0.4l-45.1-58.5L166.6,327.2z"/>
		</g>
		<g>
			<path class="st0" d="M299.5,304.6l-43.6-65.7l-1.6-5.4l2.4-1.9l0.3-0.1l75.5-26.9l0.3,2.8c1.2,11,0.9,22-1,32.9l-0.4,2.2
				l-2.2-0.3c-0.8-0.1-1.5,0-1.9,0.4c-0.4,0.4-0.6,1.2-0.5,2.3c0.2,1.5,0.9,3.4,2.1,6l0.4,0.8l-0.2,0.8c-5.1,18.6-14.7,35.9-27.8,50
				L299.5,304.6z M260,236.9l40.1,60.4c11.4-13,19.9-28.6,24.6-45.3c-1.3-2.7-1.9-4.8-2.2-6.7c-0.4-3.2,0.8-5,1.8-6
				c0.9-0.9,2.1-1.5,3.5-1.6c1.3-8.9,1.6-18,0.9-27l-69.1,24.7L260,236.9z"/>
		</g>
		<g>
			<path class="st4" d="M429.3,253.5c5-7,5.6-13.4,1.8-19.1c1.4-9.3,0.4-15.1-2.8-17.5c-3.4-2.4-7.6-1.6-12.6,2.3
				c-2.9-1.5-6.9-0.1-11.9,4.4c0.9-2.2,1-4.2,0.3-5.9c4.5-2.1,7.3-4.3,8.6-6.8s1.9-6.4,1.9-11.7c0.5-3.3,3.5-9.1,9-17.5
				c3.8-8.4,1.1-11.3-8-8.8c5-4.5,7.5-8.3,7.5-11.6c0.3-3.1-0.9-7-3.9-11.9c-1.2-2.7-3-3.3-5.4-1.5c0.9-1.7,1.3-3.8,1.4-6.2
				c0.1-2.4-1.5-7.5-4.8-15.2c-0.5-10.1-2.9-14.4-7.2-12.6c-0.7-5.3-2.4-10.4-5.2-15.2c-4.1-6.2-7.4-7.8-9.8-4.9
				c-6.7-10-13-14.1-18.8-12.4c-0.2-4.3-1.6-8.2-4.4-11.6c-1.6-6.5-3.4-11.1-5.7-13.7c-3.1-1.2-5.3,0.5-6.4,5.2
				c-0.5-3.8-1.7-7.7-3.6-11.9c-1.9-4.1-4.9-6.3-9-6.4c-1.5-0.2-3,0.1-4.4,0.8c-2.7-1.7-5.1-2.6-7-2.6c-5.8-6.2-11.2-6.7-16-1.5
				l-0.8-5.4c-1.7-6.4-5.2-7.7-10.3-4.1c-8.4-8.8-15.6-14.5-21.7-17.3c-5-1.7-8.2-1.3-9.8,1.3c-2.6-2.6-5.3-4.2-8.3-4.9
				s-5.7-1.5-8.2-2.3c-4-0.2-5.7,2-5.2,6.4c-6.2,0.3-10.4,1.4-12.8,3.2c-2.3,1.8-2.9,4.3-1.8,7.6c1.1,3.3,3.7,5.9,7.6,8
				c-1,1.2-1.5,3.1-1.3,5.7s2.9,4.7,8.2,6.4c3.9,1,7.8,1.1,11.6,0.3c-0.9,3.9,0.5,6.4,4.1,7.5c5,5.1,11.2,6.4,18.6,3.9l-0.8,4.9
				l10.1,4.1c0.3,4.8,2.6,8.3,6.7,10.3l4,1.7c-0.9,0.1-4.5,3.2-4.6,3.7c-0.6,0.7-1.9,3.3-0.6,5.2c0.5,0.7,1.4,1.3,2.9,1.6
				c1.8,0.2,3.7,0.4,5.6,0.5c2.4,0.2,4.9,0.3,7.3,0.3c0.1,1.3,0.9,3.3,1.7,4.8c0.7,1.5,2.5,3.8,5.5,7.1c2.8,3,8.1,6,12.5,7.9
				c-0.3,0.3-1.5,3.7-2.6,6.7c-0.7,1.9-1.2,4.3-1.2,6.7c0,2.4,0.4,4.8,1.8,6.5c-0.6-0.3-3.1,1.4-3.9,2.8c-3.2,5,3.7,12.1,4.8,14.5
				c-0.5-0.1-2.5,0.9-3.5,1.6c-2.4,1.7-1.6,10.2,5.2,11.7c1.7,0.8,9.5,5.4,13.4,9.3c0.8,0.8,2.9,4.9,6.1,9c1.7,2.2,3.4,5.9,7.5,6
				c0.2,0.6,0.4,1.1,0.5,1.7c2.9,8.9,7.2,17.6,12.3,26c0.4,0.7,0.8,1.4,1.3,2.1c1,1.7,2.1,3.3,3.2,5c0,0.4,6.7,7.5,9.1,14
				c-0.8,4.2-0.7,7.8-0.7,8c-0.9,8.3-2.4,15.9-4.5,22.8c-7.3-3.5-8.5,1.3-9.6,6c-0.1-0.2-3.4-0.6-3.9,1c0.1-0.7-0.1-1.3-0.5-1.9
				c-1.2-1.9-4.4-3.1-6-2c-0.1,0-2.3,1.6-3.8,2.7c-0.5,0.4-0.9-2.4-1-4.4c-0.1-1.4-0.4-6.2,0.5-8.1c0.1-0.1,0.3-0.4,0.7-0.9
				c0.6-0.9,1.6-2.1,2.3-3.4c1.7-3,1.1-10.9-0.4-18.3c-0.5-2.2-1-4.4-1.7-6.4c-0.8-2.5-2.5-3.8-4-4.3c-0.6-0.2-4.4,0-5.2,2.9
				c-0.2-1.7-2.9-2.7-4.9-3.2c-5.6-1.3-11.7,9.5-11,19.6c-1.3-1-2.6-1.6-3.9-1.8c-2.9-0.4-5.4,1.3-5,5.2c0.2,1.9,1.1,4.2,2.3,6.7
				c3.7,7.6,10.6,16.7,10.8,21.5c-3.5-3.2-11.6-3.2-11.6,4.4c0,2.3,1.9,6.3,2.7,8c-1.6,8.2,7.8,14.2,15.6,21.9
				c-0.1,3.2,0.8,3.7,1.9,4.7c0.1,0.1,0.3,0.3,0.4,0.5c-1.4,2.2-10.1,15.8-10.2,16.1c-0.4,0.2-6.4-3.2-8.3-1.5
				c-2.1,1.9-3.8,4.4-4.8,5.9l1,9.5c0.7,4-1.4,8.4-6.3,13.3c-4.9,4.9-8.1,9.4-9.7,13.5c-0.9,3.1-4.2,6.4-10.1,10.1
				c-0.3-1-1.7-2.7-4.1-4.9c-0.3-0.7-1-0.9-2.1-0.8c-5.8,1.6-17.6,6.7-35.3,15.5c-3.1,1.6-7.5,6.1-13.2,13.7h-10.1
				c-2.8-1.6-5.7-3.7-8.8-6.4c-2.2-1.7-6.2-1.1-11.9,1.8c-5.3-1.2-10.7-0.1-16,3.4c-3.3,1.2-5.7,1.5-7.2,0.8l-12.6-13.7
				c-26.1-11-40.4-15.9-42.8-14.7c-2.6,1.5-4.5,3.8-5.7,6.7c-2.6-1.2-6.4-4.5-11.6-9.8l-8-9c-5.9-6.5-8.3-12.7-7.2-18.6l1.3-8
				c0.2-1.2,0-2.2-0.5-2.8c-1.9-2-5.2-3.3-7-3.7c-0.4-0.1-1.5-0.5-2.8,4.1c0.3,1.1-8.3-11.3-8.4-11.7c0.2-0.2,0.4-0.4,0.6-0.7
				c2.4-3,6-9.8,8.2-17.7c2.7-9.7,3.9-20.3,3.8-24.4c0.4-0.8,0.5-1,1-1.4c1.6-1.2,3.3-6.3,4.7-12.4c2.3-9.7,3.9-22,3.2-26.3
				c-0.5-2.8-1.2-4.2-1.9-4.3c-0.8-0.1-1.5,0.1-2.2,0.7l1.6-3.1c0.9-2.2,0.9-3.7,0-4.4c-0.5-0.5-5.1-0.5-9.1,1.5c0,0-0.1,0-0.1,0.1
				c-0.5-4.5-2.6-11-3.7-13.4c-0.4-0.8-1.5,0.1-1.5,0.1c-7.2,4.4-10.4,13.9-13,25.8l-2.1,1.9c-2,2.6-4,5.2-5.9,8
				c-0.8,1.2-1.6,2.4-2.4,3.7c-2.9,4.8-5.5,9.8-7.5,15c-1.7,4.4-3.1,8.9-4.1,13.6c-1.5-2.4-2.4-5.9-3.8-10.4
				c-1.4-4.5-1.8-7.6-1.3-9.1c1.4-2.4,0.9-4.6-1.3-6.7c-1.7-1.7-4-9.5-6.7-23.2c0.2-3.6,1.6-9,4.4-16.2c2.8-7.2,7.3-16.4,13.4-26.7
				c0.3-0.4,3-3.3,3.8-3.5c0.9-0.2,2.2-1,3.8-2.3c11.9-9.6,38.9-46.4,40.8-69c0.2-2.2,0.1-4.2-0.2-6c0.4-0.1,2.6-3.8,5.5-8.8
				c2.7-4.6,5.8-10.4,8.3-15.4c2.4-4.7,4.2-8.7,4.6-10.6l2.2-0.7l2.6-1c8.6-3.4,15.9-7.1,22.6-10.2l10.4-5.5
				c7.2-3.1,14.1-7.3,20.6-12.6c6.9-6,10.6-12.3,11.1-18.8c-1.2-1.5-4.7-2.4-10.6-2.6c3.1-3.4,4.7-7,4.9-10.8
				c-2.2-3.1-8.9-3.6-20.1-1.5c-11.7,2.9-21.9,7.5-30.7,13.7c-8.9,5.7-17,12.6-24.1,20.8c-7.1,8.2-12.9,16.6-17.1,25.4l5.2-11.9
				c2.6-5.7,5.3-12.3,8.2-19.9c0.9-3.6,0.9-6.2,0.1-7.7c-0.8-1.5-2.5-2-5-1.3c-2.8,0.7-7.7,4.3-15,10.8c-7.9,8.1-14.9,18-21,29.9
				C63.3,84,59.1,93.4,56.9,100.3c1.2-7.7,1-14.3-0.5-19.9c-0.9-2.2-2.8-2.8-5.7-1.8c-2.7,1.9-5.5,4.7-8.2,8.5
				c-2.8,3.8-5.4,7.4-8,11c-2.6,3.5-5.6,8.6-9.2,15.1c-3.5,6.5-6.6,14.3-9.3,23.2c-2.7,8.9-4.7,20.8-6.1,35.6
				c-0.9,9.5-0.2,19.6,2.1,30.4c2.8,10.8,5.5,18.8,8.2,24c2.8,5.2,5.3,8.2,7.7,9c1.5,3.8,3.6,10.1,6.2,18.8c1.4,4.1,2,7.3,1.8,9.4
				c-0.2,2.2,0.4,3.7,1.7,4.5c1.3,0.9,2.4,2.6,3.2,5.1c2.2,8.3,5.2,15.9,9,23c-0.7,3.8-1,7.6-1,11.3c-8.3-23.9-15-41.9-20.1-54.1
				c-10-22.2-17.8-32.3-23.5-30.4c-2.8,1-4.5,3.5-5.2,7.5c-0.2,1.5-0.2,5.5,0,11.9s0.8,13.1,1.8,20.1c5.1,22.9,14,41.9,26.6,57.2
				l18.8,22.2c3.8,3.8,7.4,6.6,10.8,8.4c3.4,1.8,6.6,2.3,9.5,1.4c4.3,6.9,9.7,14.1,16.2,21.6c4.1,6.4,8.4,9.4,12.9,9
				c1.9,4.1,4.7,6.2,8.5,6.2l3.9-0.5c5.3,5.1,10.1,9.3,14.4,12.4l-4.9,13.9c-8.6,1.2-16.5,1.9-23.7,2.1
				c-6.7-4.8-16.1-11.3-28.4-19.6l-0.8-15.5c-0.3-5.3,0.6-9.8,2.8-13.4c0.5-2.9-1.1-5.6-4.9-8c-5.7-2.8-9.7-3.9-12.1-3.4
				c-1,0.3-1.6,1.3-1.8,2.8v8.5l-24.5,0.5c-2.2,0-4.1,0.9-5.6,2.6c-1.5,1.7-1.5,5.2-0.1,10.3c0.2,1.9,0.1,3.5-0.3,4.9
				c-1.2,5.5-4.4,12.2-9.5,20.1c-0.7,1.2-0.4,3,0.9,5.4c1.3,2.4,4.5,6.2,9.7,11.3c2.2,2.2,5.6,5,10.2,8.3
				c4.5,3.3,12.6,8.2,24.1,14.9c13.6,8.1,26.6,14.8,38.9,20.1c2.6,0.2,19.8-2.2,51.6-7l0.3,2.8c-9.1,6.9-15,9.7-17.5,8.5
				c-3.6,0.3-4.7,3-3.4,8c1,2.2,2.9,3.8,5.7,4.6l3.4,3.9l9.5,5.7c3.6,1,7,1,10.3,0c3.1-1.2,5.2-3.9,6.2-8l11.3-11.3l7.5-5.7
				c5.8-1,9.6-3.1,11.3-6.2c0.3-2.8,1.1-4.5,2.3-5.2l9-6.2c0.3-0.9,4,0.6,11.1,4.4c3.4,0.9,6.4,0.7,9-0.5l6.7-3.9
				c6,1.4,16.6,8.8,31.7,22.4c-0.2,1.5,0.8,3.4,2.8,5.4c1.2,1.5,4.5,2.8,9.8,3.9l3.6,6.7l3.6,1.3c5.3,0.2,10.3-1.7,15-5.7l5.7-1.8
				c2.9-2.2,4.2-4.5,3.9-6.7l-2.3-2.3l-4.9-1.3c-6.2-2.9-12.5-6.9-18.8-11.8l-4.1-3.1c18.7,3.3,42,5.8,69.9,7.7
				c3.4,0.7,8-1.1,13.8-5.3s23.2-16.6,52.2-37.3c4.3-4.7,7.7-10,10.3-16c-2.6-2.4-4.9-5.8-6.8-10.3c-2-4.5-3.2-8.2-3.7-11.3
				c-0.7-2.9-0.8-5.6-0.3-7.9c0.5-2.3-0.3-4.5-2.3-6.6c-0.9-1.2-2.8-2-5.9-2.3c-5.5-0.5-11.7-0.4-18.6,0.3c-3.3-0.3-5.2-1.1-5.7-2.3
				l0.3-6.2c0.5-2.8-0.3-3.9-2.3-3.6c-7.6,1.9-12.1,3.8-13.7,5.7c-2.2,2.4-2.2,5,0.3,7.7c1.9,1.7,2.8,3.7,2.8,5.9
				c-1,11.4-2,19-2.8,23c-12.6,10-21.1,16.1-25.5,18.3c-3.6,1.2-11.7,0.7-24.2-1.6c-2.8-2.4-4.7-6.5-5.9-12.4
				c4.3-2.6,8.8-5.7,13.7-9.3c3.3-0.5,6-1.2,8.3-1.9c2.2-0.8,3.4-2.9,3.4-6.3c2.2-0.9,3.9-2.8,4.9-5.7l14.9-18
				c4.8-4.1,10.1-6.5,15.7-7.2c6.9-0.5,15.8-4.4,26.8-11.6c1.7-1.9,1.7-4.5,0-8c3.3-1.9,8.6-7.2,16-16c2.9-4.1,3.6-8.7,2.1-13.7
				c6.9-8.2,10.7-14.8,11.6-19.6c0.7-4.3,0.6-8.9-0.3-13.9c3.3-2.1,5.6-3.8,6.8-5.3c1.3-1.5,1.9-3.5,1.9-6.1
				C432.1,257.3,431.2,255.2,429.3,253.5z M294.2,59.9l-8.8-2.8l0.5-5.9l-4.9,1c-4.6,1.5-9.3,0.2-13.9-4.1c-3.1,0.5-4.4-0.7-3.9-3.6
				c1.2-2.6,0.9-3.9-1-4.1l-7.5,0.8c-4.8-0.7-8-2.1-9.5-4.1c-1-1.7-0.3-3.9,2.1-6.4c-4.6-1.9-7.5-4-8.6-6.2s-0.4-4,2.1-5.4
				s7.1-1.6,13.8-0.8c-1.5-1.9-2-3.9-1.3-5.9c0.2-2.1,4.6-0.9,13.4,3.4l5.2,3.1c1.4-2.6,3.7-3.4,7-2.3c3.9,1.9,7.6,4.2,11.1,6.8
				c3.4,2.7,7.3,6.5,11.6,11.5c3.6-2.4,6.2-1.9,7.7,1.6l0.8,6.2c-3.8-3.6-8.4-3.9-13.9-0.8l-3.6-1.5c-5-6-8-10.6-9-13.7
				c-1-4-1.5-4.3-1.5-1c0.2,3.4,2.2,7.8,6.2,13.2c-7.6-2.4-13.1-5.5-16.6-9.3s-6.2-7-8.1-9.5c-1.9-3.1-2.7-3.1-2.3,0
				c2.1,3.8,4.9,7.3,8.5,10.6c-2.8-1.2-5.3-2.4-7.7-3.6c-6-2.6-11-3.9-15-4.1c-1.9,0-2,0.3-0.3,1c6.7,1.7,11.6,3.3,14.6,4.8
				s5,2.8,6.1,4c-4.8,2.1-9.8,3-15,2.8c-3.3-0.2-4.7-0.1-4.4,0.3c0.3,0.3,1.4,0.7,3.1,1c6.2,0.7,12.5,0,18.8-2.1
				c4.6,2.4,10.1,4.7,16.2,7c-3.8,0.9-7.5,2.6-11.1,5.2c-1.4,1.7-0.7,1.8,2,0.3c2.8-2.1,6.9-3.4,12.4-3.9l4.4,1.8
				c-0.3,4.6,0.8,9.4,3.4,14.2L294.2,59.9z M314.8,84.6c-9.6,0.2-11.6-0.1-12.1-1.6c-0.4-1.1-0.6-2.2,2.8-4.1l1.8-2.9
				c-5.6-2.5-10.8-5.6-11-12.5l4.6-1.8c2.1-2.4,2.1-4.2,0.1-5.4c-2-1.2-3.1-4.4-3.2-9.5c1.9-4.1,6.5-4.1,13.9,0
				c3.3-6.4,7.2-8.2,11.8-5.7c-5,0-7.9,2.2-8.8,6.4c-0.5,2.8-0.5,6.1,0,10.1c-1.7-2.4-3.8-4.5-6.2-6.2c-4.6-2.4-5.5-2.1-2.6,0.8
				c2.9,2.9,5.5,5.9,7.7,9c-3.8,3.1-7.9,4.5-12.4,4.1c-1.5,0.7-1.3,1.1,0.8,1.3c2.1,0.5,4.5,0.3,7.2-0.5c-0.3,2.8,0.6,7.3,1.8,10.1
				c1.6,2.3,3.8,4.4,6.4,6.3C316.3,82.8,315.3,83.4,314.8,84.6z M320.2,89.5c-0.2-2.1,1.6-3.2,5.4-3.5s4.4-1.3,1.8-3.2
				c-5-1.7-9.1-4.6-12.4-8.8c-2.2-2.9-2.2-5,0-6.2l3.9-1l1.8-2.3l-2.3-9c-0.7-4.6,0.6-7.9,3.9-9.8c4.6-0.7,9.2,0.7,13.7,4.1
				c0.2-2.4,1.8-3.1,4.8-2.2c3,1,5.8,7.3,8.4,19.2l4.1,1.6c1.4-3.3,2.5-4.9,3.4-4.9c1.4,0,2.8,2.8,4.1,8.5c3.4,3.1,5.1,8.2,4.9,15.2
				c-2.2,2.9-3.4,6.5-3.6,10.8l-2.1-4.6c-1.2-5.2-1.7-10.6-1.5-16.2c-0.2-2.4-0.4-2.4-0.8,0c-0.5,5-0.6,9.2-0.3,12.6
				c-4.6-6-9.6-11.4-15-16.2c-1-3.8-1.4-8.1-1-12.9c-0.5-4.1-0.9-5.1-1.3-2.8c-0.3,5.2-0.2,10,0.5,14.4c-4-3.9-8.6-9.7-13.9-17.3
				c-1.4-2.4-2-2.9-1.8-1.5c3.3,6.2,6.7,11.3,10.3,15.5c3.6,4.1,6.5,7.4,8.8,9.8c-4.5-1.4-8.3-2.3-11.6-2.7c-3.3-0.4-6.3-1.3-9-2.7
				c-2.6-0.5-2.5,0.1,0.3,1.8c1.6,1,4.7,2,9.4,2.8c4.7,0.9,9.2,2.3,13.3,4.4c2.2,1.4,5.2,4.9,9,10.6l3.1,7c-4.8-2.6-10.1-4.4-16-5.4
				c-5.8-1-9.3-2-10.3-2.8c-4.5-1.9-5-1.7-1.5,0.5c1,1,4.7,2.2,11,3.5s12.3,3.7,18.2,7.4l0.5,1.5c-1.2,1.4-1.6,3.3-1.3,5.7l1.8,5.2
				c-1.6-1.9-3.7-1-6.4,2.6c1-2.2,0.8-4.3-0.8-6.2c-2.4-3.6-8.2-7.5-17.5-11.6l-1.5,2.8C326.9,100.5,322.1,96,320.2,89.5z M383,218
				c-1.8-2.7-4.4-6.7-7.7-12.3c-3.3-5.6-5.8-10-7.3-13.4s-1.8-7-0.8-10.6c0.1-0.3,0.2-0.6,0.3-0.9c0.6-1.9,1-3.6,1.5-5
				c0.3-0.9,0.6-1.7,0.8-2.4c0.7-1.9,0.6-2.2-0.3-1c-0.4,0.6-0.7,1.3-1,1.9c-1.3,2.6-2.4,5.2-3.1,7.7c-0.1,0.3-0.2,0.7-0.3,1
				l-0.3-0.7l-4.9-14c0.2-2.2,0.7-4.5,1.6-7.2c1.5-4.4,4.1-9.5,7.6-15.3c1.7-3.1,1.6-3.4-0.5-0.8c-4,5.4-6.9,10.8-8.8,16.2
				c-0.5,1.5-1,3.1-1.3,4.6l-1.9-4.2l-6.1-13.5c-0.2-3.3,1.9-9.4,6.2-18.6c2.2-4.8,1.7-4.6-1.5,0.5c-2.8,5.2-4.7,10-5.9,14.4
				c-0.8-3.1-1.5-6.1-2.3-8.9c-1-3.9-2.1-7.6-3.1-10.9c-0.5-1.8-1.1-3.5-1.6-5.1l-1.8-0.5l0.7,2l0.3,0.8c0.9,5.8,2.1,11.1,3.5,15.9
				c0.7,2.3,1.4,4.5,2.2,6.6c-1.5-1.3-3.1-2.6-4.8-3.7c-2-1.3-4.1-2.5-6.3-3.5c-2.2-1.2-2.2-0.9,0,0.8c2,1.2,3.9,2.4,5.5,3.6
				c2.4,1.7,4.3,3.4,5.8,5.2c2.1,4.8,3.9,9.2,5.7,13.2c-1.8-1.3-4.3-2.7-7.5-4.2c-2.3-1.1-5.1-2.3-8.2-3.5c-2.8-0.5-2.8-0.2,0,1
				c3.5,1.4,6.5,2.9,9.1,4.3c2.9,1.6,5.1,3.2,6.6,4.8c0.7,0.7,1.2,1.4,1.6,2l5.2,13.7c-1.9,0-4.4-2.8-7.5-8.5
				c-2.6-4.8-9-9.4-19.3-13.9c-2.1-0.9-3-2.7-2.8-5.4c0.3-1.9,2.3-2.7,5.9-2.3c-1-2.9-2.2-5.2-3.6-7l-2-3.1
				c-2.8-5.7-1.1-8.5,4.9-8.5c-2.2-3.4-3-6.1-2.3-8c0-0.6,0-1.2,0-1.7c0.1-2.7,0.9-5.3,2.3-7.8c1-2,1.8-4.1,2.3-6.2
				c3.3,1.9,6.2,3.5,8.9,4.8s4.1,3.7,4.2,7.1l-1.3,8c0.5,1.5,1.9,1,4.1-1.6c2.2-3.1,4-4.9,5.4-5.4c1.9,0.9,3.7,2.4,5.4,4.7
				c1.7,3.3,1.1,9.3-1.8,18l-2.8,7.2c5.8-7.7,10.6-11.4,14.2-11.1c1.2,0.9,1.6,2.6,1.2,5.3c-0.4,2.7-0.4,5.4,0,8.4
				c0.4,2.9-0.6,5.4-3,7.5c-2.4,2.1-4,5.4-4.9,10.1c5.5-4.1,7.7-3.4,6.7,2.3L371,182c-0.9,5.3,0,7.8,2.6,7.5c2.6-0.3,4.2,0,4.8,1
				s0.7,2.8,0.4,5.4c-1.5,3.6-2.2,6-2.1,7.1c0.2,1.1,0.6,2.1,1.4,2.8c0.8,0.8,2.5,0.6,5-0.5c2.6-1.1,3.9-0.3,3.9,2.3
				c0,2.7,0,5.3,0.1,7.7c0.1,2.5,0.9,4.9,2.5,7.3c1.2,1.7,2.6,2.8,4.4,3.3c0.1,0,0.1,0.1,0.2,0.1l2.3-2.8c-3.4,0.2-5-2.1-4.8-6.7
				c0.3-4.7,0.2-8.3-0.1-10.8c-1.4-3.3-2.8-5.1-4.1-5.4c-1.3-0.3-4.6-8.9-9.5-25.8l5.4,0.3c3.9,14.4,7.1,22.2,9.5,23.3
				c2.4,1.1,3.5,2.4,3.4,3.9c-0.2,1.5,0.3,4.6,1.3,9.4c3.1-0.9,4.9-3.7,5.4-8.5c0.9-4.5-0.4-7.9-3.9-10.3c-3.6-2.1-5.7-3.9-6.2-5.7
				c-1-2.9,0.1-4.7,3.4-5.4c1.9-1-2.7-5.2-13.7-12.4c-5.7-3.9-7.4-7.5-5.1-10.6c0.9-1.5,2.5-1.5,4.8,0.1s3.8,2,4.5,1.2
				c1.2-2.4,0.3-4.1-2.8-5c-3.1-1-4.6-2-4.4-3.2c-0.2-5.3-0.1-8.9,0.3-10.8c0.3-1.9,0.2-4.1-0.5-6.7c-1.9-2.7-5.5-2.6-10.8,0.5
				c1.2-2.9,1.5-5.8,0.9-8.5c-0.6-2.8-1.9-5.4-4-8l-2.6-8c-0.7-2.8,0.9-4.6,4.6-5.7c-1.2-5.3-1.2-9.1,0-11.3
				c1.2-2.4,2.1-4.4,2.6-5.9s2.1-1.7,4.6-0.5c2.6,1.2,6.7,5.8,12.4,13.7c2.8-3.1,5.4-2,8,3.4c3.1,4.8,4.3,10.6,3.6,17.3
				c6.4-3.4,8.6-1.1,6.7,7c2.8,5.7,4.4,10.1,5,13.3c0.6,3.2,0.1,6.1-1.6,8.9c-1.6,2.8-2.4,4.8-2.3,6.3c0.1,1.5,0.7,1.4,1.8-0.1
				s3.4-2.8,6.8-3.9c2.2,4.8,3.2,8,2.8,9.5c0,1.9-1.2,4-3.5,6.2s-3.7,4.9-4,8c0,1.6,0.8,2.3,2.3,2.3l4.6-1.3
				c2.4-0.3,2.5,1.6,0.3,5.7c-2.4,4.5-4.2,8.3-5.3,11.3c-1.1,3.1-1.7,5.6-1.7,7.5c-0.2,3.9-0.9,6.3-2.1,7c0.3-5,0.2-10.2-0.4-15.6
				c-0.6-5.4-1.7-11.5-3.2-18.2c1.4-1.2,3.3-5.2,5.7-12.1c1.2-3.4,0.9-3.9-0.8-1.3c-1.9,5.2-3.8,8.3-5.7,9.5
				c-1.9-6.4-3.9-14.1-6.2-23.2c2.6-4.3,4.2-9.7,4.9-16.2c0.2-5.5-0.2-5.9-1-1.3c-1,6.5-2.9,11.6-5.7,15.2c-2.2-7.2-4.6-14-7.2-20.4
				c0.9-3.6,1.2-7.8,1-12.6c-0.2-4.8-0.6-5-1.3-0.5c0,3.6-0.4,6.7-1.3,9.3l-5.7-14.4l-3.6-8.3c-1.2-2.7-1.6-2.7-1.3,0l3.4,10.8
				c-2.6-2.9-5-5.1-7.2-6.4c-2.2-1.4-2.7-1.3-1.3,0.3c3.8,3.3,7,6.8,9.8,10.6c2.2,5.5,4.5,11.2,6.7,17c-6.5-5.5-11.1-8.6-13.7-9.3
				c-3.3-1.2-3.3-0.6,0,1.8c4.6,2.9,10.1,8.1,16.5,15.5c2.1,6,4,11.8,5.9,17.5c-3.3-1.9-7.2-5.7-11.8-11.3c-2.1-2.1-2.2-1.7-0.3,1
				c3.8,5.7,8.2,10.7,13.1,15l3.9,15.7c-3.9-4-9.1-8-15.5-12.1c-2.8-1.7-2.9-1.4-0.5,1c5.5,4,11.3,9.8,17.3,17.5
				c1.7,4.8,2.5,13.7,2.3,26.6c-0.2,3.3-2.6,5.7-7.2,7.2v0.5l-1,11.8l-6.4,0.3C387.4,224.4,384.8,220.7,383,218z M391.4,230.1
				c1-0.3,3.4-0.1,5.6-0.1c-2.4,13.1-5.2,27.4-7.4,36.3l-3.6-2.1C389.1,251.9,390.7,238,391.4,230.1z M345.6,303.6
				c-1-0.8-3.8-3.1-8.6-7.1c-4.3-3.8-5.7-7.2-4.1-10.3c-1.2-1.5-2.3-3.4-3.2-5.4c-0.9-2.1-0.7-4.1,0.6-6.1c1.3-2,4.6-1.1,9.5,2.7
				c0.9-2.9,0.9-5.7,0-8.3c-0.9-2.6-1.9-5.2-3.1-7.7c-2.2-4.1-4.4-7.6-6.4-10.6c-1-2.1-1.6-3.7-1.8-4.8c0.1-0.6,0.3-1.2,0.4-1.8
				c0,0,0.1,0,0.1-0.1c1-0.5,2.7,0.2,4.9,2.1c4.3-4.7,7.1-6,8.5-4c1.4,2,2.5,5.3,3.4,9.9c0.9,4.6,0.9,9.5,0.3,14.4l-1,1l1,1
				c0.3,1-0.1,4.9-1.3,11.6c0,1.4,0.4,2.7,1.3,4.1l0,0c0,0,0,0,0-0.1c-0.3-2-0.4-3.5-0.3-4.6c0.2-0.9,0.7-2.9,1.7-6.1
				c0.9-3.2,1.4-5,1.4-5.4s0-0.7-1.3-0.9c1.6-0.5,1.8-1.3,2.2-2.2s0.5-1.9,0.3-2.8c-0.3-1-0.4-3.7-0.5-8.1
				c-0.1-4.5-0.5-7.9-1.3-10.2c-0.8-2.3-1.2-4.1-1.4-5.4c-0.2-1.3-1.2-2-3.1-2.2c-1.9-0.2-4.5,1.7-8,5.7c1.6-7.4,3.1-12.3,4.8-14.8
				c1.6-2.5,3.3-3.2,5-2.2s2.8,2.2,3.4,3.4c0.5,1.2,1.3,1,2.3-0.6s1.9-2.2,2.6-1.7s1.4,1.6,2.2,3.1c0.8,1.6,1.3,3.2,1.7,4.9
				c0.3,1.7,0.6,4.8,0.9,9.4c0,0.4,0,0.8,0,1.2c0.1,3.5-0.4,6-1.4,7.5c-0.1,0.1-0.2,0.3-0.3,0.4c-1.4,1.6-2.1,3.4-2.1,5.7
				c0.3,8.9,1,13.4,2.1,13.3c1.1-0.1,2.3-0.8,3.7-2.1s2.8-1.8,3.9-1.4c0.9,0.3,1.5,2,1.8,5c0.1,0.7,0.1,1.5,0.1,2.4
				c0.2,4.6,0.6,5.1,1.3,1.4c0.7-3.7,2-5.6,3.9-5.6c1.9,0,2.2,5,1,15c-6.7,6-11.5,11-14.4,14.9c-1-4.3-1.1-7.3-0.1-9
				c0.9-1.7,1.8-3.7,2.6-5.8s1.4-4.1,1.9-5.8c0.2-0.5,0.3-0.9,0.4-1.3c0.8-2.8,0.5-2.8-1-0.1c-0.1,0.1-0.1,0.2-0.2,0.4
				c-1,2.1-1.9,3.9-2.7,5.4c-0.8,1.5-1.7,3.1-2.7,4.6c-0.3-2.3-1.1-6-2.5-11.3c-0.3-1.1-0.6-2.2-0.9-3.5c-1.6-4.8-2-4.7-1.3,0.3
				c0.2,1,0.3,2,0.5,3c1.1,7,1.9,13.8,2.3,20.5c-2.9-3.1-5.9-5.8-8.9-8c-0.7-0.5-1.4-1.1-2.1-1.6c-2.2-1.8-4.1-3.6-5.8-5.6
				c-1.9-1.2-2.2-1-1,0.5c1.5,2,3.5,4.2,6,6.6c1,1,2,2,3.2,3c4,3.7,6.5,6.1,7.3,7.3c0.9,1.2,1.4,2.2,1.5,3.1
				c-1.5,2.1-3.4,4.2-5.4,6.4c-0.4-0.2-0.8-0.6-1.1-0.9c-0.6-0.7-0.9-1.5-1-2.6C347.1,305.6,346.6,304.4,345.6,303.6z M331.5,329.4
				c2.2,0,5.3,1.1,4.5,3c-0.8,1.8-1.6,5-3.4,5.2c-1.7,0.2-5.1-2.2-5.1-4.4S329.3,329.4,331.5,329.4z M253.2,397.9
				c2.1-2.4,4.7-4.6,8-6.4c14.6-7.2,24.3-11.4,29.1-12.6c0.9-0.3,1.6-0.1,2.3,0.8l2,2.6l-2.8,1.8c-1.7,1.4-3.9,2-6.4,1.8
				c-2.2-0.2-5.2,0.6-9,2.2c-3.8,1.6-5.8,3.9-6.2,6.8c-0.7,2.1-1.6,3.4-2.8,3.9c-3.8,2-7.2,3.9-10.3,5.4l-8-0.5L253.2,397.9z
				 M273.8,399.7c-0.9-2.9,0.2-5.2,3.1-7c2.8-2.1,5.8-2.9,9-2.6c1.4,0.2,1.5,2.7,0.3,7.5c-1,2.4-6.1,5.3-15.2,8.8l-8.5-1l9-5.2
				l2.3,3.6h1.3L273.8,399.7z M224.3,401l2.6,2.5l-5.7-2.7L224.3,401z M136.3,378c1.5-0.7,3.3-0.5,5.6,0.5l12.4,5.9l21.1,8
				c5.2,5.5,8.3,9.3,9.5,11.3c-4.3,0.5-8.9,0.9-13.9,1l-11.1-7.7c-4.5-5.3-7.7-9.2-9.8-11.6c-2.1-2.4-4-4.1-5.9-5.2
				c-2.8-1.5-5-2.1-6.7-1.5c-1.2,0.3-2.5,2.1-3.9,5.1l-0.5-0.5C133.8,380.5,134.8,378.7,136.3,378z M148.3,389.1
				c-2.4,1.2-4.8,1.2-7.2,0L137,386c1.4-3.4,3.2-4.5,5.4-3.4l4.1,3.6L148.3,389.1z M103.4,243.7c-0.3,4.7-1.1,10.2-2.3,16.3
				c-0.8,3.9-1.7,8.1-2.9,12.6c-0.2-9.5-0.6-15.8-1.3-19.1l1.2-3.2l1.2-3.2c0.2-2.2-0.3-2.3-1.3-0.3l-0.5,0.9l-1,1.9l-0.3-5.1
				l0.4-0.6l3.4-4.3C102.6,237,103.8,238.4,103.4,243.7z M99.6,229.8c2.2-0.5,2.7,0.5,1.3,3.1l-4.9,7.2c-0.2-1.9-0.5-3.6-0.8-5.1
				c-0.1-0.8-0.2-1.7-0.3-2.5C96.5,231.3,98.1,230.4,99.6,229.8z M79.2,241.9c3.6-14.3,7-21.8,10.3-22.7c1.9,5,3.4,14.2,4.6,27.7
				c1.2,13.5,1.2,25.6,0,36.5c-1.5,13.7-3.9,23-7,27.8l-3.4,7.2c0-7.5,0.1-14,0.2-19.6c0-2.1,0.1-4,0.2-5.8c0-0.2,0-0.4,0-0.7
				c0.3-6.7,0.5-15.6,0.8-26.7c0.3-11.1,1-23.7,2.2-37.8c0.7-3.4,0.5-4.2-0.5-2.3c-2.8,14.3-4.4,32.6-4.9,54.9l-0.1,7.8l-0.1,6.9
				l-0.2,6.6l-0.3,13v0.5l-3.4-3.9c-0.1-0.6-0.2-1.2-0.3-1.8c-0.2-0.9-0.4-1.9-0.5-2.8c-1.6-9.2-2.3-18.8-2.3-28.7
				c0-1.5,0-3.1,0.1-4.6C75.1,263.8,76.6,253.2,79.2,241.9z M56.4,285.1c0.8-3.6,1.9-7.2,3.3-10.9c3.5-9.2,8.9-18.7,16.1-28.4
				c-1.7,7-2.7,12.3-2.8,15.7c-3.5,6-6.6,12-9.3,17.9c-3.2,7-6,14-8.2,21c-1,3.9-1.9,8.7-2.6,14.2C52.4,307.5,53.5,297.7,56.4,285.1
				z M73.2,306.6l-5.7-7.2l4.1-10.3C71.5,294.7,72.1,300.6,73.2,306.6z M190.6,28.7c0,3.3-2,6.9-5.9,10.8
				c-6,5.5-13.5,10.6-22.5,15.2S141.4,64.8,127,71.2v-1.5c17.5-13.1,33.8-23.7,48.7-32c3.9-2.4,3.6-3.1-1-2.1
				c-5.1,2.6-10.8,5.8-17,9.5c-10.3,6.7-20.4,13.3-30.2,19.8l0.3-3.1c19.6-17.2,35.7-28.3,48.2-33.3C182,27.3,186.9,27.3,190.6,28.7
				z M132.4,34.9c9.4-7.7,20.6-13.7,33.6-18c6.4-1.7,11.8-2.5,16.5-2.3c2.2,0.5,2.8,1.8,1.8,3.9l-5.7,7.5c-5,0.7-11.8,3.5-20.5,8.5
				s-18,11.6-28,19.9l-3.6,2.3c-1.9-1.4-5.3-0.8-10.3,1.8c15.8-13.2,29.6-23.3,41.2-30.2c7.6-3.8,11.9-6.4,13.2-8
				c-3.8,1-9.1,3.4-16,7.1s-18.2,11.4-34,23.1L105.5,64C114.1,52.3,123.1,42.6,132.4,34.9z M116.6,63.5c2.8-1.5,4.6-2.1,5.7-1.8
				c0.7,1.7,0.9,4.1,0.5,7.1c-0.3,3-2.6,9.3-6.7,19l-2,3.8l-3.2,6.2l-4.4,8.6c-6.7,0.9-13.1,3.9-19.1,9.3
				c3.1-5.3,6.8-11.4,11.2-18.3s11.2-17.2,20.5-30.9c1.6-2.6,1.6-3.2,0.1-1.9c-1.5,1.3-5.4,6.2-11.7,14.8
				c-6.4,8.6-14.9,21.9-25.5,40c-0.5,0.7-1,1.6-1.7,2.6c-0.3,0.4-0.5,0.8-0.8,1.3c-0.4,0.6-0.8,1.2-1.2,1.9c-0.2,0.3-0.4,0.7-0.7,1
				c-0.2,0.4-0.5,0.7-0.7,1.1c-0.2,0.3-0.4,0.6-0.6,0.9c-0.4,0.6-0.8,1.3-1.3,1.9c-0.2,0.3-0.4,0.7-0.7,1c-0.2,0.3-0.4,0.7-0.7,1.1
				c-0.2,0.4-0.5,0.7-0.7,1.1s-0.5,0.7-0.7,1.1c-0.5,0.7-0.9,1.4-1.4,2.2c-0.3,0.5-0.6,1-1,1.5c-0.5,0.8-1,1.5-1.5,2.3
				c-0.1,0.1-0.1,0.2-0.2,0.3c-0.6,0.9-1.2,1.8-1.8,2.8c-0.3,0.5-0.6,1-0.9,1.5c-0.4,0.6-0.8,1.2-1.2,1.8c-0.8,1.2-1.6,2.5-2.5,3.8
				c-0.1,0.2-0.3,0.4-0.4,0.6c-0.3,0.5-0.7,1.1-1.1,1.6c-0.9,0.9-3.4,1.4-7.7,1.5l-8.5,25c0.7,1,2.8,0.7,6.4-1
				c-1.7,3.3-4.3,5.1-7.7,5.4l-2.1-1.5l-1-3.9l0.3-2.3l2.1,0.3l9-22.9l-5.4-6.7l1.3-3.9c1.7,3.6,3.4,5.6,4.9,5.9
				c2.4-4.6,5.9-11,10.4-18.9c4.5-8,9.9-16.1,16.1-24.4l-0.3-2c0-1.2,0.6-1.3,1.8-0.3l12.9-18.6l-10.6,18.3c1.7,1.9,0.9,3.2-2.3,3.9
				c-11,14.6-19.4,29.1-25.3,43.6l2.6,0.8c1.5,0.7,3,0,4.4-2l15.7-27.8l14.9-27.8C99.4,80.3,107.4,70.5,116.6,63.5z M60.4,156
				c-3.6,6.7-6.4,12.7-8.3,18.1l-2.1-0.3l5.4-16.8L60.4,156z M48.8,184.1L43.7,198l-3.6,12.1l1.3-10.3l1.8-7.5l1.5-7.5L48.8,184.1z
				 M40.3,171.8c1.2-7.7,2.8-14.8,4.9-21.1l2.1,2.6L40.3,171.8z M78.2,79.2c2.9-6,7.2-12.8,12.9-20.4c1.7-3.9,0.8-3.9-2.8,0.3
				c-8.4,10.5-18.2,27.1-29.4,49.8l4.9-12.4c0.9-2.8,3.6-9,8.2-18.7c4.6-9.7,9.2-17.4,13.7-23.1s7.6-9.4,9.3-11.1
				c6.2-5.3,9.8-7.8,10.8-7.5c0.9,0.7,1.1,1.8,0.8,3.4L93.9,72c-8.3,16-19.1,32.6-32.5,50c-5.7,6.2-9.2,10.1-10.6,11.8
				c-1.4,1.7-2.5,3.4-3.4,4.9l1-4.4l4.9-7.7C60.3,115.5,68.5,99.7,78.2,79.2z M43.3,267.4c0-3.4-0.4-5.6-1.2-6.4
				c-0.8-0.9-1.6-2.5-2.3-4.8c-0.8-2.3-1.9-5.8-3.5-10.3c-1.5-4.6-2.7-8.6-3.4-12.3l0,0c-4.6-2.1-8-5.6-10-10.4
				c-2.1-4.9-4-11.3-5.8-19.2c-1.8-7.9-2.5-17.4-2.2-28.4c0.9-13.1,2.8-25.8,5.7-38.2c4.3-17.2,13.1-33.5,26.3-49
				c2.9-3.3,4.7-4,5.4-2.3c0.7,6.9,0.6,13.5-0.1,20c-0.8,6.4-2.5,13.6-5,21.5c-6.7,22.3-10.7,37.4-12.1,45.1
				c-2.6,9.1-5.4,21-8.5,35.6c-1.4-7-0.6-21.9,2.5-44.5s6.8-38.7,11.5-48.3c2.2-5,2.1-5.8-0.3-2.3c-10.5,17.9-16.6,44.3-18.3,79.1
				c-0.3,12.2,0.3,21,2.1,26.4c1.7,5.4,3.7,8.6,5.9,9.4c1.2,0.7,2.5,0.6,3.9-0.3c1-6.5,1.7-11.8,2.1-15.9s0.8-8.8,1.4-14.2
				c0.6-5.4,1.7-9.9,3.2-13.5l1,1c-1.7,7.9-2.6,13.4-2.7,16.5c-0.1,3.1-0.3,6.2-0.6,9.3c-0.3,3.1-0.7,9-1,17.8
				c2.1-7,4.3-13.7,6.7-20.1l8-23.2l7-16.7l3.3-7.8c0-0.1,0.1-0.1,0.1-0.2c1-2,2.2-4.1,3.3-6.2c0.6-1,1.1-2,1.7-3
				c0.6-1,1.2-2.1,1.9-3.2c0.1-0.2,0.2-0.3,0.3-0.5c0.6-0.9,1.1-1.9,1.7-2.8c0.9-1.4,1.7-2.8,2.6-4.2c1-1.6,2.1-3.2,3.2-4.8
				c0.3-0.4,0.6-0.8,0.8-1.3c2.5-3.7,5.2-7.5,8-11.5c1.6-1.9,3.1-3.5,4.6-4.9c0.5-0.5,1-1,1.5-1.4l0.8-0.6c0.4-0.3,0.7-0.6,1.1-0.9
				c0.4-0.3,0.7-0.5,1.1-0.8c0.2-0.2,0.5-0.3,0.7-0.5c0.6-0.3,1.1-0.6,1.6-0.9c0.3-0.1,0.6-0.3,0.9-0.4c0.3-0.1,0.6-0.2,0.9-0.3h0.1
				c0.3-0.1,0.6-0.2,0.9-0.3c0.3-0.1,0.5-0.1,0.8-0.2c0.1,0,0.1,0,0.2,0l0,0h0.1c0.2,0,0.4-0.1,0.6-0.1c0.8,1.1,1,2.9,0.8,5.6v0.1
				c0,0.1,0,0.1,0,0.2c0,0.2,0,0.3-0.1,0.5c0,0.3-0.1,0.5-0.1,0.8s-0.1,0.7-0.2,1.1c-0.1,0.4-0.1,0.8-0.2,1.3v0.1
				c-0.1,0.3-0.1,0.5-0.2,0.8l0,0c0,0,0,0.1,0,0.2c-1.2,5.3-3.3,10.9-6.2,16.8c-0.2,0.1-0.4,0.2-0.2,0.3c-0.3,0.5-0.6,1.1-0.9,1.6
				c0,0.1-0.1,0.2-0.2,0.3c-0.6,1.2-1.3,2.3-1.9,3.4c-0.3,0.6-0.7,1.2-1,1.8c-0.7,1.2-1.4,2.4-2.1,3.5c-1.4,2.4-2.8,4.7-4.2,6.9
				c-0.3,0.5-0.7,1.1-1,1.6c-0.4,0.6-0.9,1.3-1.3,1.9c-0.1,0.2-0.3,0.4-0.4,0.6c-0.1,0.2-0.2,0.4-0.4,0.6c-0.3,0.5-0.7,1-1,1.5
				c-0.4,0.6-0.8,1.2-1.2,1.8c-0.4,0.6-0.8,1.2-1.2,1.7c-0.4,0.6-0.8,1.1-1.2,1.7s-0.8,1.1-1.2,1.6c0,0,0,0.1-0.1,0.1
				c-0.6,0.8-1.3,1.7-1.9,2.5c-1,1.3-2,2.5-3.1,3.6c-0.6,0.7-1.3,1.5-1.9,2.2l0,0c-0.7,0.7-1.3,1.4-2,2c-0.6,0.6-1.2,1.2-1.8,1.7
				c-0.1,0.1-0.1,0.1-0.2,0.2c-0.5,0.5-1,1-1.5,1.4l0,0c-0.1,0.1-0.3,0.3-0.4,0.4l0.3-0.5l13.1-21.3l-3.8-0.4
				c-0.1,0.1-0.2,0.3-0.2,0.4c-0.3,0.5-0.7,1-1,1.5s-0.6,1-0.9,1.5c-2.1,3.3-3.9,6.2-5.5,8.7c-0.4,0.7-0.8,1.3-1.1,1.9
				c-0.3,0.5-0.6,1-0.9,1.5c-0.3,0.5-0.6,1-0.9,1.5c-0.7,1.2-1.2,2.2-1.7,3c-0.1,0.3-0.3,0.6-0.4,0.8c-3.4,6.7-6.8,13-10.1,18.8
				s-5.4,10.4-6.4,13.7c-1,3.3-3.2,9.1-6.4,17.5c0,1.5,1,6,3.1,13.4c2,7.4,3.8,11.7,5.3,13s1.6,2.7,0.4,4.2c-0.5,1.4-0.2,4,1,7.7
				c0.9,4.1,2.8,9.8,5.9,17l-0.8,2.6C48.8,283.9,45.9,276,43.3,267.4z M34.8,190.8c-1.7,13.7-3.2,24.5-4.4,32.2l-1-2.1
				C28.4,219.4,30.2,209.4,34.8,190.8z M116.6,384.5l-3.4-4.4c-1-1.2-2.5-1.5-4.2-0.8c-1.8,0.7-3.2-0.3-4.3-3.1
				c-4.6,2.8-9.4,1.7-14.2-3.1L82,362.8l-8-13.7l-2.8-2.1l0,0c-0.1,0.1-0.3,0.2-0.5,0.3c-0.3,0.2-0.6,0.3-1,0.4l0,0
				c-1,0.4-2.1,0.5-3.3,0.4c-0.2,0-0.5,0-0.7-0.1c-0.2,0-0.5-0.1-0.7-0.1l-10.3-6.7c-2.4-2.2-7.6-11.1-15.5-26.6
				c-10.5-19.9-17.6-35-21.4-45.1c-2.7-8.4-4.5-13.7-5.4-16c-0.9-2.2-1.2-2.3-1-0.1c0.2,2.1,1.5,7,3.9,14.4
				c2.4,7.5,6.9,18.4,13.4,32.9c5.7,11.7,11.3,22.3,16.8,32C32.8,319,23.6,306.1,17.9,294c-5.7-11.9-9.4-22.9-11.3-33
				c-0.9-3.6-1.4-9.2-1.5-16.6c-0.2-7.5-0.1-11.6,0.3-12.5c0.9-2.6,2.1-3.7,3.6-3.4c1,0,3.4,2.4,7.1,7.3s8.7,15.9,15.1,33
				c6.4,17.1,10.3,28.3,11.7,33.6c1.5,5.3,2.9,10,4.4,13.9s3.2,8,5.3,12.1c3.1,6.2,6.2,10.4,9.3,12.6c0.6,0.4,1.2,0.8,1.8,1.2
				c0.3,0.2,0.6,0.4,0.9,0.5c0.2,0.1,0.4,0.2,0.7,0.3s0.5,0.2,0.8,0.3c0.2,0.1,0.5,0.1,0.7,0.2c0.2,0,0.4,0.1,0.7,0.1
				c0.1,0,0.3,0,0.5,0h0.1c0.2,0,0.4,0,0.5,0c0.2,0,0.3,0,0.5-0.1c0.2,0,0.3-0.1,0.5-0.1c0.1-0.1,0.3-0.1,0.4-0.2
				c0.1-0.1,0.3-0.2,0.5-0.3c0.1-0.1,0.3-0.2,0.4-0.4l-7-14.2c-1.2-2.6-1-5.1-3.5-4.4l0.9,1.7c-0.8-0.4-1.8-0.4-2.9-0.1
				c-0.2,0-0.3,0-0.5,0h-0.1h-0.1c-0.1,0-0.2,0-0.3,0c-0.7-0.1-1.3-0.2-1.8-0.5c-0.4-0.2-0.7-0.4-1-0.7c-0.1-0.1-0.2-0.2-0.3-0.4
				c-0.1-0.1-0.2-0.3-0.2-0.4c-0.1-0.2-0.2-0.4-0.3-0.6c-0.1-0.2-0.1-0.5-0.2-0.7c0-0.3-0.1-0.5-0.1-0.8s0-0.6,0-0.9v-0.1
				c0-0.1,0-0.1,0-0.2V320c0-0.2,0-0.4,0-0.6c0-0.3,0.1-0.6,0.1-1c0.3-3.1,1.5-8.4,3.4-16c0.3-1,0.6-2,0.9-3
				c0.1-0.5,0.3-0.9,0.4-1.4c0.1-0.5,0.3-0.9,0.5-1.4c0.4-1.1,0.7-2.1,1.1-3.2c0.3-1,0.7-2,1.1-2.9l0,0c0.2-0.5,0.4-1,0.6-1.5
				c0.2-0.5,0.4-1,0.6-1.5l0,0c0.4-1,0.8-2,1.2-2.9c0.4-1,0.8-2,1.3-2.9c0.4-1,0.9-1.9,1.3-2.9c0,0,0,0,0-0.1
				c0.5-1.2,1.1-2.3,1.7-3.5c0.6-1.2,1.2-2.3,1.7-3.5c0,0,0-0.1,0.1-0.1c0-0.1,0.1-0.2,0.1-0.2c0.1-0.2,0.2-0.4,0.3-0.6
				c0-0.1,0.1-0.1,0.1-0.2c0.1-0.1,0.1-0.3,0.2-0.4c0.3-0.6,0.6-1.2,0.9-1.7c0.7-1.3,1.4-2.5,2.1-3.8c-0.6,3.9-1,7.5-1.2,10.5
				c0,0.4,0,0.8-0.1,1.2c0,0.6,0,1.2,0,1.7v0.5c-6.4,14.3-11,25.8-13.9,34.5c-1.5,6.4-1.5,9.5,0.3,9.3l2-1l-1.5-3.6l1-2.8l3.1,5.4
				l1.8-1.3l1.6,2.3l-1.6,2.3l11.6,16.8l2.8-2.3l2.1,2.3c-3.4,3.4-4.8,5.7-4.1,6.7c3.1,5.7,5.9,10.2,8.5,13.7
				c5.2,7.6,9.4,9.7,12.6,6.4c1-0.9,2.3-0.7,3.9,0.5c1.5,1.2,3.3,3.8,5.2,7.7l-0.3-5.9l-9.5-9l-5.4-10.8c-4.5-6.4-7.6-11.3-9.5-14.7
				s-4.2-7.6-7.1-12.4c-2.8-4.8-6.3-10.2-10.4-16.2l0.8-2.8l8.3,10.1c7.4,9.5,12.6,16.6,15.6,21.5s4.8,6.1,5.3,3.5l1.6-4.9l2.3,1.3
				l-1.5,10.1l-0.5,3.1c-0.2,2.4,0.3,3.8,1.4,4.2c1.1,0.4,2.1,2,3,4.8c0.5,1.7,3.2,5.3,8.1,10.7c4.9,5.4,10.1,10,15.5,13.7
				s9.9,6.7,13.4,9c3.5,2.3,5.2,4.6,5,6.8l4.9,1l-1.3-6.2l3.1-0.8c1.5,1,2.8,2.9,3.9,5.7c4.5,3.4,8.3,6.2,11.6,8.2l-11.3,2.1
				L135,396L116.6,384.5z M69.1,324.1l1.6-1.6l7.2,12.1l-0.8,1.5L69.1,324.1z M81.2,348.4l2.8-3.6l6.7,9.5l3.9,7l1.3,3.9
				c-2.4-1.2-4.5-3-6.2-5.4l-4.1-5.4L81.2,348.4z M140.8,410.5l-15.5,2.6l3.6-10.3L140.8,410.5z M177.7,458.7
				c-7.2,7-15.4,13.7-24.5,20.1l-3.1-1c5.3-3.3,12.9-8.6,22.7-16l4.4-4.9l-2.3-0.3c-3.3,2.9-7,5.9-11.2,8.9s-9.1,5.9-14.6,8.6
				l-7.5,3.6l1.3,1.5l5.7,0.8c3.3,2.1,4.6,4.1,4.1,6.2c-1.7,2.6-4.5,2.9-8.3,1l-6.2-3.2c-2.2-2.2-4.5-3.8-6.7-4.6l-2.6-2.1l1-2.6
				l7.7,3.1h2.3l-1.3-4.6l9.3-5.7c2.4-0.9,3.4-2.3,3.1-4.4l0.8-4.7c3.9,0.9,8.2,0.2,12.9-1.9c4.6-2.2,9-3.4,13.1-3.7
				C180.5,454.5,180.4,456.5,177.7,458.7z M171.5,448c-8.9,2-17,3.7-24.2,5.3c-18,3.3-35.8,5.9-53.4,8c-4.5-1.2-17.4-7.8-38.7-19.9
				c-15.1-9.1-25.7-16.5-31.7-22.2c-6.9-7.4-9.6-11.9-8.2-13.4c4.5-7.4,7.5-13.9,9-19.6c0.7-2.4,0.9-4.3,0.5-5.7
				c-1.9-5.8-0.5-8.8,4.1-9c11.5-0.7,19.3-0.9,23.2-0.5c1.7,0.2,2.8-0.3,3.4-1.6l3.9-7.7l-2.3-1l-3.4,5.2l-0.3-5.9
				c0-0.9,0.5-1.1,1.6-0.8c7.2,1.9,10.6,4.3,10.1,7.2c-2.2,3.8-3.3,8.1-3.1,12.9l0.3,13.4c-9.1-6-18.9-11.3-29.4-16
				c1.2-0.2,2.6-0.3,4.1-0.4c1.6-0.1,2.6-0.6,3.1-1.7c0.5-1-0.4-1.6-2.8-1.8c-5.3,0-8.8,0.4-10.3,1.3c-1.2,1.4-0.9,2.8,0.8,4.4
				c12.4,6.2,23.3,12.4,32.8,18.6c14.9,9.5,26.5,17.2,34.8,23.2c8.1-0.2,19.4-1.3,34-3.4l22.2-4.1c9.1-1.7,18.6-3.2,28.4-4.4
				c3.6-0.5,8.2-0.9,13.7-1c5.5-0.2,10.6-0.6,15.2-1.3c4.5,8.4,7.2,15.8,8.2,22.2c0.5,3.3,0.1,5.1-1.3,5.4
				C195.1,441.3,180.4,446,171.5,448z M237.5,439.6l-1.3-4.1l-7,8.8l-5.7,3.6c-2.6,2.2-5.2,3.1-8,2.6l-9-4.4l4.6-2.3l1.3,1
				c-0.9,2.6,0.2,2.2,3.1-1l8-7.7c0.5-4.6-0.6-10.6-3.4-17.9c-2.7-7.3-4.8-11.9-6.2-13.8c-0.3-1.6-4.3-1.9-11.9-1
				c4.5-2.2,9.7-2.4,15.7-0.5l6.2,2.6l3.4-1.5l1.8,1.7c8.8,9.5,13.7,15.9,14.8,19.3c1.1,3.4,1.3,6.8,0.4,10.1
				C241.2,439.3,238.9,440.8,237.5,439.6z M265.6,476.2c-1.5-1.2-2-2.4-1.3-3.6l5.2,4.4C268.4,477.7,267.1,477.4,265.6,476.2z
				 M299.1,476.8l2.8,0.5l-1,1.3l-6.7,2.1c-2.9,2.6-6.4,4.3-10.3,5.2l-4.4-0.8l-1-3.1c1-1.5,2.4-2.7,4-3.4c1.6-0.7,3.7-1.3,6.3-1.8
				l6.2,1L299.1,476.8z M289.6,473.9c-4.6,0-7.6,0.5-8.8,1.6h-3.6c-5-3.4-8.9-6.6-11.9-9.5l-12.1-9.5c2.2-1.2,7-0.8,14.4,1.3
				L289.6,473.9z M326.4,421.5c5,0.4,8.8,0.2,11.3-0.7c4.6-1.9,14.2-8.9,28.6-21.1c13.9-10.5,25.7-17.8,35.3-21.9
				c2.9-1.7,3.1-3,0.4-3.7c-2.7-0.8-6.7-1.2-12-1.2c-1.7,1.4-1.5,2.5,0.5,3.4c2.4-0.2,4.1,0,5.1,0.5c-11.5,6-21.1,12-28.9,18
				c0.7-4,1.3-10.7,1.8-20.4c-0.2-3.1-1.2-5.8-3.1-8.3c-1.2-1.7,0.4-3.3,4.9-4.6l3.6-1v5.7l-4.9-1.3l0.5,2.6c1,1.9,2.9,3.2,5.7,3.9
				l13.9,0.8l6.2-0.3c7.2,0.2,10.7,1.9,10.6,5.3c-0.2,3.4,0.1,6.5,0.8,9.4c1.2,7.4,4.1,14.4,8.8,21.1c-1,3.1-3.3,6.7-6.7,10.8
				l-13.4,8.8c-11.5,8.3-27.2,19-46.9,32.2c-14.1,0.3-31-0.8-50.8-3.4c-14.3-1.9-30.7-5.5-49.2-10.8l-4.1-1l1.8-1.8
				c2.9-3.8,4.5-6.3,4.8-7.6s-0.2-4.2-1.3-8.8c-1.1-4.6-4.3-9.9-9.7-16.1v-1.6l3.9-0.5c10.7,0.7,20.2,2.1,28.5,4.1
				s18.3,3.9,29.8,5.7C313.4,419.8,321.4,421,326.4,421.5z M307.1,414.6c-4.5-0.7-11.7-2-21.7-3.9l9-3.1c4.8,1,7.6,0,8.3-3.1
				C303.4,408.2,304.9,411.5,307.1,414.6z M361,338.6c-3.4,3.8-4.5,7.7-3.4,11.8c-4.8,2.6-9.5,6.4-13.9,11.3
				c-4.5,5-7.9,9.2-10.2,12.6c-2.3,3.4-4.8,5.5-7.3,6.2c-2.9,1.4-6.3,0.7-10.1-2.1l-1,6.4l-17.3,10.6l-8.5,3.6
				c0.7-1.7,1.1-4.6,1.3-8.8l3.1-2.6c11.9-6.2,18.7-11.9,20.6-17c2.4-4.3,5-7.9,7.7-10.7c2.8-2.8,4.7-6.3,5.9-10.4l0.3-6.2l-0.8-6.4
				c2.8,3.1,5.2,3.8,7.5,2.1c3.6-6.7,7.5-12.9,11.6-18.7c4.1-5.8,8.5-11.1,13.2-16.1c4.6-5,8.6-9.2,11.8-12.6l-0.3,6.4
				c-10.3,12.7-16.8,21.4-19.3,26c-8.8,13.2-14.7,23.7-17.8,31.4c-1.9,4.3-4.6,7.7-8.3,10.3c-2.7,1.4-4.8,2.8-6.2,4.4
				c-1.2,2.2-0.5,2.8,2.1,1.8c1.7-1.7,3.6-3,5.7-3.9c3.8-1.9,11.8-10.8,24.2-26.8l-0.3-9l2.8-4.9c-0.2,5,0.3,7.7,1.3,8.2
				s2.5-0.9,4.2-4.2c1.8-3.4,6.2-12.6,13.3-27.7c-1.6,4.6-1.6,8.7-0.3,12.1c-4.1,2.9-5.3,7.9-3.4,15L361,338.6z M418.9,281.3
				c-0.6,4.3-2,8-4.3,11.1c-7,8.1-10,12.9-8.8,14.4c1.9,3.3,1.6,7-1,11.1c-3.8,4.6-8.8,9.8-14.9,15.5c1.7,3.4,0.4,6.4-3.9,8.8
				c-5,2.8-10.5,5.1-16.5,7.2c11.2-8.4,18-17.4,20.6-27.1c3.6-3.3,6.8-5.4,9.5-6.4c2.4-1.5,2.8-2.2,1.3-2.1
				c-3.1,1.2-6.4,3.1-9.8,5.7c3.3-6.5,5.6-13.6,7-21.1c6.7-6.5,10.9-11.7,12.6-15.5c2.4-3.6,2.5-4.4,0.3-2.3
				c-2.6,4.3-6.5,8.9-11.9,13.7c2.4-7.4,4.6-15.6,6.4-24.8c0.9-5.3,0.6-6.3-0.8-2.8l-2.6,9c-1.2-3.6-2.6-6.4-4.1-8.2l3.4,10.8
				c-0.7,4.3-2.3,10.4-4.9,18.3c-2.4-6.9-5.6-13.1-9.5-18.6c-3.6-4.5-4.2-4.5-1.8-0.3c3.9,5.7,7.2,13.2,9.8,22.4
				c-2.1,8.2-4.5,15.1-7.2,20.6c-2.1-3.1-4.2-5.2-6.4-6.4c-1.7-0.9-1.7-0.3,0,1.5c2.2,2.2,4,4.5,5.4,6.7c-2.1,5-4.8,9.4-8.1,13.2
				c-3.4,3.8-6.7,7-9.9,9.5c4.1-6.4,5.5-13.4,4.1-21.1c0-1.4,1.1-2.5,3.2-3.4c2.2-0.9,2.9-1.8,2.2-2.8c-1.9-3.8-2.8-6.8-2.8-9
				c1.4-0.7,3.4-0.7,6.2,0c2.2-1.6,2-3.7-0.7-6.6c-2.7-2.8-4.3-6.9-5-12.2c0-3.1,2.1-4.2,6.2-3.4c1.9-0.2,2.1-2.4,0.5-6.7l-4.4-5.9
				c-3.1-6.9-1.8-9.4,3.9-7.5l6.7,4.1c4.5,1.7,6.6-1.3,6.4-9c0-1.7,1.3-2.1,4-1.2s5.1-1.1,7.3-6.1c2.2-2.4,3.9-0.2,5.2,6.7
				c-0.5,9.1,1.7,13.4,6.7,12.9C419.3,274.6,419.5,277,418.9,281.3z M426.6,259.2c0.3,1.7-0.1,3.1-1.2,4.2c-1,1.1-3,2.1-5.9,3
				l-2.8-5.2c0.2-4.1-1.2-8.1-4.1-11.9c1.2-1,3.1-2.1,5.7-3.1c1.9-0.9,1.6-1.1-1-0.8c-2.8,0.5-4.9,1.2-6.4,2.1h-0.7
				c1.6-5.5,4-10.7,7.5-15.7c0.9-2.2,0.3-2.2-1.5,0.3c-2.9,4.1-5.5,8.5-7.7,13.2c-1-1-1.8-2.9-2.3-5.7c-0.7-3.3-1.2-3.4-1.6-0.3
				c0.5,3.9,1.3,6.8,2.3,8.5c-3.8,5.8-6.8,8.2-9,7c1.4-8.2,3.2-16.9,5.4-26c3.9-4,7.4-5.3,10.3-3.9c4.1-3.3,7.6-3.9,10.6-1.8
				c1.5,2.6,2.2,5.1,2.1,7.6c-0.2,2.5-1,5.3-2.6,8.4c3.3,0,5,1.3,5.2,3.9c-1.4,5.8-4.1,10.1-8.2,12.6
				C424.3,256.2,426.3,257.4,426.6,259.2z"/>
		</g>
	</g>
	<g>
		<path class="st0" d="M183.8,440.7c2.3-0.6,4.6-1.2,6.3-3.5l1.2,1.7l-1.3-8.6l-0.6,0.6c0.1,4.6-1.1,8.1-5.1,9.3
			c-5.8,0.6-8.1-5.1-9.4-10.8c-0.6-5.8-0.2-12.7,5.6-13.3c3.4-0.6,6.4,2.2,7.6,6.3h0.6l-1.3-7.5h-0.6v1.7c-2.3-1.1-4-1.7-7-1
			c-6.3,0.6-9.7,7-9,14.5C172.2,437.4,177.5,442,183.8,440.7"/>
		<path class="st0" d="M252.4,415.5v1.1c1.1,0,2.3,0.6,2.3,1.7c0.6,1.2,0,3.5,0.1,4.6l-1.6,11c0,1.1-0.5,4-1.1,4.6
			c-0.6,1.2-1.7,1.2-2.8,1.2v0.6c1.7,0.6,2.9,0.5,4.6,0.5c1.7,0.5,2.9,0.5,4.6,1.1v-1.2c-1.1,0-2.3,0-2.3-1.7c0-0.6,0-3.5,0.5-4.6
			l1-10.9c0.5-1.2,0.5-3.5,1.1-4.6c0.5-1.2,2.2-1.2,2.9-1.2l0.6-0.6c-1.7,0-3.5-0.5-5.2-0.5C255.9,416.6,254.1,416.1,252.4,415.5"/>
		<path class="st0" d="M162.6,420.9c0,1.2,0.6,3.4,0.6,4.6l1.9,11c0,1.1,0.6,3.4,0.1,4.6c0,1.7-1.1,1.8-2.3,1.8v0.6
			c1.7,0,3.4,0,4.6-0.6l4.6-0.1v-1.2c-1.1,0-2.3,0-2.9-1.1c-0.6-0.6-1.2-3.4-1.2-4.6l-1.3-10.9c-0.6-1.2-0.6-3.4-0.6-4.6
			c0.6-1.1,1.7-1.7,2.3-1.7v-0.6c-1.2,0-2.9,0.6-4.6,0.6c-1.2,0-2.9,0-4.6,0.7l0.6,0.6C160.2,419.7,161.4,419.7,162.6,420.9"/>
		<path class="st0" d="M37.3,403.4c2.9,1.7,5.8,1.7,8.6-1.8c2.8-4.1,0.5-6.9-2.4-9.2c-0.6-0.6-1.7-1.7-2.9-2.3
			c-1.8-1.1-2.9-2.3-4.7-3.4v1.2c0.6,0.6,1.8,1.1,1.2,2.3s-2.3,3.5-2.9,4.1l-6.2,8.8c-0.6,1.1-2.3,3.5-3.4,4.1
			c-1.1,0.6-1.7,0-2.9-0.5l-0.5,0.6c1.7,0.5,2.9,1.7,4.1,2.8c1.1,0.6,2.3,1.7,3.5,2.3l0.6-0.6c-1.2-0.6-1.7-1.1-1.8-2.3
			c0.6-1.2,2.2-3.5,2.8-4.6l2.8-3.5c1.2,1.1,1.2,1.1,1.2,2.9l-0.5,9.2l-0.5,2.9c0.6,0.6,1.7,0.6,2.4,1.1c0.6,0.6,1.1,1.2,1.8,1.7
			l0.6-0.6c-1.2-1.2-1.2-1.7-1.2-3.5L37.3,403.4z M34.4,400l5.1-7c0.6,0,0.6-0.6,1.2-0.6c0,0,1.2,0.6,1.7,1.1c1.7,1.1,1.8,4,0.1,6.3
			C39.1,404,37.3,402.3,34.4,400"/>
		<path class="st0" d="M137.4,436.6c-1.2-1.1-2.9-1.1-4.7-1.1c2.3-1.2,4.6-2.9,4-6.4c-0.6-4.6-4.7-5.2-8.1-4.5
			c-1.2,0-2.3,0.6-3.5,0.6c-1.8,0-2.9,0-4.6,0.6v0.6c1.2,0,2.3,0,2.9,1.1c0.6,0.6,1.2,3.4,1.2,4.6l1.3,10.9c0,1.1,0.6,3.5,0.6,4.6
			c0,1.7-1.7,1.8-2.3,1.8v1.1c1.7-0.6,3.4-1.2,5.2-1.2c1.1,0,2.9,0,3.4-0.6c1.7,0,4.1-0.1,5.8-1.8c1.1-1.2,2.3-2.9,2.2-5.8
			C140.3,439.4,139.1,437.7,137.4,436.6 M127.4,426.3c0,0,1.2,0,1.8-0.6c2.3,0,3.4,1.1,4.1,4c0,1.7,0,3.4-1.1,4.6
			c-0.6,0.6-1.7,0.6-2.9,1.2h-0.6l-1.3-7.5V426.3z M133.4,447.6c-1.1,0-2.3,0-2.9-1.1c-0.6-1.1-0.6-2.9-1.2-4l-0.6-5.2h1.1
			c1.2,0,2.3-0.6,4-0.1c1.2,1.1,2.4,2.3,2.4,4.6C136.9,444.6,135.7,447,133.4,447.6"/>
		<path class="st0" d="M142.7,446.3v0.6c5.2-0.7,11-1.9,16.2-2.5h1.7l-0.6-6.9l-1.1,0.6c0,1.7,0,3.5-1.1,4.6c-1.1,1.2-2.9,1.2-4,1.8
			c-4,0.6-5.2-0.5-5.8-5.1l-1.3-10.9c0-1.2-0.6-4-0.6-5.2c0.6-1.1,1.7-1.2,2.9-1.2l-0.6-1.2c-1.1,0.6-2.9,0.6-4.6,0.7
			c-1.2,0.6-2.9,0.6-4.6,0.6l0.6,1.1c0.6-0.6,2.3-0.6,2.9,0.5c0,1.2,0.6,4,0.6,5.2l1.9,10.3c0,1.1,0.6,4,0.1,5.2
			C145,445.7,143.8,445.7,142.7,446.3"/>
		<path class="st0" d="M119,439.1c-1.1-0.6-2.9-0.6-4.6-0.6c2.3-1.2,4-2.9,3.4-6.4c-0.7-5.2-5.3-5.7-8.2-5.1c-1.1,0.6-2.3,0.6-4,0.6
			c-1.1,0.6-2.9,0.6-4,0.7v1.2c1.1-0.6,2.3-0.6,2.9,0.5c0,1.1,0.6,4,0.6,5.2l1.9,10.4c0,1.1,0.6,4,0.7,5.2c-0.6,1.2-1.8,1.2-2.9,1.8
			v0.6c2.3,0,3.4-0.6,5.8-0.7c1.1-0.6,2.3-0.6,4-0.6s4-0.6,5.2-1.8c1.7-1.8,2.8-3.5,2.2-5.8C121.9,442,120.8,440.2,119,439.1
			 M107.9,430.6v-1.1c0.6-0.6,1.7-0.6,1.7-0.6c2.9-0.6,4.1,1.1,4.7,4c0,1.7,0,2.9-1.1,4.1c-0.6,1.1-1.7,1.2-2.9,1.2l-1.1,0.6
			L107.9,430.6z M114.5,450.1c-1.1,0.6-2.3,0.6-2.9-0.5c-0.6-1.2-1.2-3.5-1.2-4.6l-0.6-4.6h0.6c1.7-0.6,3.5-0.6,4.6-0.1
			c1.7,0.6,2.3,2.3,3,4C118.5,447.8,117.4,450.1,114.5,450.1"/>
		<path class="st0" d="M199.9,437.7v-1.2c-1.2,0-2.9,0.6-2.9-1.1c-0.6-1.1,0.5-4,0.5-5.8v-1.1l7.5-1.3l2.4,4c0,0.6,0.6,1.7,0.6,2.3
			c0.6,1.7-1.1,1.7-1.7,2.3v0.6c1.2,0,2.9-0.6,4.6-0.6c1.2-0.6,2.9-0.6,4-0.6v-1.1c-1.1,0-2.3,0-2.9-0.5c-0.6-1.1-1.8-2.9-2.4-4
			l-8.9-17.8h-1.1l-2.7,15.6c-0.5,2.4-0.5,4.6-1,7.5c-0.6,1.7-1.1,2.4-2.8,2.9v0.6c1.2,0,2.3,0,3.4-0.6L199.9,437.7z M200.2,417.1
			l4.7,9.2l-6.4,0.6L200.2,417.1z"/>
		<path class="st0" d="M349.7,443.3c0.6,2.3,0,2.9-1.1,4l0.6,0.6c0.6-0.6,1.7-1.2,2.9-1.7c1.1-0.6,1.7-1.2,2.8-1.8l-0.6-0.6
			c-0.6,0.6-2.3,1.2-2.9,0c-0.6-1.7-1.2-4.6-1.2-5.7l-0.6-1.1l6.9-3.6l2.9,2.3c1.2,0.5,1.7,1.7,2.3,2.3c0.6,1.1-0.5,2.3-1.7,2.3
			l0.6,1.1c1.1-1.2,2.9-1.8,4-2.4c1.1-1.2,2.9-1.8,4-2.4L368,436c-0.6,0-1.7,0.6-2.9,0c-1.2-0.5-2.9-2.3-3.5-2.8l-15.2-13h-1.2
			l3.1,15.5C349.1,438.1,349.7,440.9,349.7,443.3 M355.3,432.2l-5.7,3l-1.9-9.8L355.3,432.2z"/>
		<path class="st0" d="M360.5,414.9l8.2,11.4c1.2,1.1,2.3,2.8,3,4c0.6,1.7,0,2.3-1.1,3.5l0.6,0.6c1.2-1.2,1.7-1.8,2.9-2.3
			c1.1-0.6,2.3-1.2,2.8-2.4v-0.6c-1.1,0.6-2.3,1.2-3.5,0.6c-1.1-1.1-2.9-2.8-3.5-4l-7.6-10.3l20.9,6.6c1.2,0.6,2.3,1.1,3.5,1.1
			l0.6-0.6l-9.4-12.6c-1.2-1.7-3.5-4.5-4.1-5.7c-0.6-1.7,0.6-1.7,1.1-2.9l-0.6-0.6c-1.2,0.6-1.7,1.2-2.3,2.4
			c-1.2,0.6-2.3,1.2-3.5,1.8l0.6,0.6c1.7-0.6,2.3-1.2,4-0.1c1.2,1.1,2.4,3.4,3.5,4.5l6.5,8.6l-22.6-7.2c-0.6,0.6-1.7,1.2-2.3,1.2
			c-0.6,1.1-1.2,1.2-2.3,1.7l0.6,1.2C357.6,414.3,358.8,414.3,360.5,414.9"/>
		<path class="st0" d="M78,424.9c2.8-4.1,0.5-7.5-2.4-9.2c-1.2-0.6-2.3-1.7-3.5-2.3c-1.2-1.1-2.9-1.7-4.1-2.8l-0.6,0.6
			c1.2,0.6,2.3,1.1,1.8,2.8c-0.6,0.6-2.3,2.9-2.8,4.1l-5.6,8.7c-0.6,1.2-2.3,3.5-3.4,4.1c-0.6,1.2-1.7,0-2.9-0.6v1.2
			c1.2,0.6,2.3,1.7,3.5,2.2c1.8,1.2,2.9,1.7,4.1,2.9l0.6-0.6c-1.2-1.1-2.3-1.7-1.7-2.9c0-1.1,1.7-3.5,2.2-4.6L66,425
			c0,0,1.2,1.1,1.7,1.1C70.5,428.5,75.2,429.6,78,424.9 M74.5,423.2c-1.7,2.9-4,3.5-6.3,1.8c-0.6-0.6-1.2-0.5-1.2-1.1l4.5-7
			c1.1-1.8,1.1-1.8,2.3-0.6C76.2,418,76.8,420.3,74.5,423.2"/>
		<path class="st0" d="M390,416.1c0,1.8,0,2.3-1.1,3.5l0.6,1.2c0.6-1.2,1.7-1.8,2.3-2.3c1.1-0.6,2.3-1.2,2.8-1.8l-0.6-1.1
			c-0.6,0.6-1.7,1.8-2.8,0.6c-0.6-1.1-1.8-4-1.8-5.7l-0.6-0.6l6.3-4.7l3.5,2.3c0.6,0.6,1.8,1.1,2.3,1.7c0.6,1.1-0.5,2.3-1.1,2.9
			l0.6,0.6c1.1-1.2,2.3-1.8,3.4-3c1.1-1.2,2.3-1.7,3.4-2.3v-1.2c-1.2,0.6-2.3,1.2-3.5,0.6c-0.6,0-2.9-1.7-3.5-2.3l-16.9-11.3
			l-0.6,0.6l4.8,14.9C388.2,410.9,388.8,413.2,390,416.1 M393.9,403.9l-5.1,4.1l-3.6-9.8L393.9,403.9z"/>
		<path class="st0" d="M93.8,426.8v1.1c0.6,0.6,1.8,1.1,0.6,2.9c-0.6,1.1-5.1,5.3-6.2,6.4l-7.4,5.8l2.1-9.8c0.6-1.8,2.2-7.5,2.8-8.7
			c0.6-1.1,2.3-0.6,2.9,0l0.6-0.6c-1.7-0.5-2.9-1.7-4.1-2.2c-1.1-0.6-2.4-1.7-3.5-2.3l-0.5,0.6c1.7,1.7,1.2,3.4,0.6,5.8l-4.9,20.8
			l1.2,0.6l14.8-12.9c2.3-1.8,4.6-4.7,6.9-3v-0.6c-0.6-0.6-1.7-1.1-2.9-1.7C96.1,428.5,94.9,427.9,93.8,426.8"/>
		<path class="st0" d="M322.4,452l1.6-6.9h-1.2c-0.5,2.3-0.5,3.5-2.8,4.7c-1.1,0.6-2.9,0-4.6,0.1c-3.5-0.5-4-1.7-3.5-6.3l1.6-11
			c0.6-1.1,0.5-4,1.1-5.2c0.5-1.1,2.3-0.6,2.9-0.6l0.5-1.2c-1.7,0-3.5,0-5.2-0.5c-1.2,0-2.9-0.5-4-0.5l-0.6,0.5
			c1.2,0,2.3,0.6,2.9,1.7c0,1.1-0.6,4-0.5,5.2l-1.6,10.4c-0.6,1.2-1.1,4.1-1.1,4.6c-1.1,1.2-2.3,1.2-3.4,1.2v0.6
			c5.8,1.1,11,1.6,16.8,2.7C321.2,451.5,322.4,451.5,322.4,452"/>
		<path class="st0" d="M55.3,424.8c-2.8,2.9-4.6,2.3-7.5,0.6c-1.2-0.5-2.3-1.7-2.4-3.4c0-1.1,1.1-2.3,1.7-3.5l3.4-5.2
			c2.9,1.7,4.1,2.8,1.8,6.3l0.6,0.6c1.1-1.2,1.7-2.3,2.8-4.1c0.6-1.2,1.7-2.3,2.8-4.1h-0.6c-1.7,1.8-3.4,3.5-6.9,0.7l5.1-7.6
			c1.2-1.2,1.2-1.2,1.7-0.6l1.8,1.1c2.9,2.3,4.1,3.4,1.8,6.9l0.6,0.6l3.4-4.7l-12.2-8.5l-1.1,0.6c1.2,0.6,2.3,1.1,1.8,2.8
			c-0.6,0.6-2.3,2.9-2.8,4.1l-5.7,8.1c-1.1,1.1-2.9,3.5-3.4,4c-1.2,0.6-2.3,0-2.9-0.5l-0.5,0.6l14,10.2l3.4-5.2L55.3,424.8z"/>
		<path class="st0" d="M299.9,446.2c-0.6-1.2-0.6-3.5-1.2-4.6L295,422l-1.1-0.5l-6.7,13.9c-1.1,2.3-2.3,4.6-3.4,7
			c-1.2,1.7-1.7,2.3-3.4,2.4l-0.6,0.6c1.1,0,2.3,0.6,3.5,0.6c1.1,0,2.3,0.5,3.4,0.5v-0.6c-0.6-0.6-2.3-0.6-2.3-2.3
			c0.6-1.2,1.7-4.1,2.2-5.2l0.6-1.2l8.1,1.1l0.6,4v3.5c0,1.1-1.7,0.6-2.3,0.6l-0.6,1.2c1.7,0,3.4,0,4.6,0.5c1.8,0,3.5,0.5,4.6,0.5
			V448C301,447.3,300.4,447.3,299.9,446.2 M288.2,435.9l4.5-9.3l1.9,10.3L288.2,435.9z"/>
		<path class="st0" d="M283.5,425.9l0.6,0.6l1.1-5.8l-19.7-3.2l-1.1,5.8l1.2,0.6c0.5-4.6,1.6-4.6,5.1-4.1c1.1,0,2.9,0.6,2.3,1.1
			l-2.1,17.9c-0.5,2.9-1.1,3.5-4.6,3.5v0.6c1.7,0.6,3.5,0.5,5.2,0.5c1.7,0.6,3.5,1.1,5.2,1.1v-0.6c-2.9-1.1-2.9-1.7-2.9-4.6
			l2.6-17.9c0-1.1,1.8-0.6,3.5-0.6C282.8,421.3,284,422.5,283.5,425.9"/>
		<path class="st0" d="M332.6,429.3c0,0.6,0.6,3.5,0.6,4.6l0.7,10.9c0,1.2,0.6,3.4,0.1,4.6c0,1.7-1.7,1.7-2.3,1.7v0.6
			c1.7,0,2.9,0,4.6-0.6l4.6-0.1v-0.6c-1.1,0-2.3,0-2.9-1.1c-0.6-1.2-0.6-4-0.7-5.2l-1.3-10.4l-0.1-5.2c0.5-1.2,1.7-1.2,2.9-1.2v-1.2
			c-1.7,0-3.5,0.6-4.6,0.6l-4.6,0.1v1.2C330.9,428.2,332.1,427.6,332.6,429.3"/>
	</g>
</g>
</svg>
