<?xml version="1.0" encoding="utf-8"?>
<!-- Generator: Adobe Illustrator 27.2.0, SVG Export Plug-In . SVG Version: 6.00 Build 0)  -->
<svg version="1.1" id="Livello_1" xmlns="http://www.w3.org/2000/svg" xmlns:xlink="http://www.w3.org/1999/xlink" x="0px" y="0px"
	 viewBox="0 0 1559 481" style="enable-background:new 0 0 1559 481;" xml:space="preserve">
<style type="text/css">
	.st0{display:none;fill:#003399;}
	.st1{fill:#FFFFFF;}
	.st2{fill:#009245;}
	.st3{fill:#C1272D;}
	.st4{fill-rule:evenodd;clip-rule:evenodd;fill:#FFFFFF;}
</style>
<rect x="-211.8" y="-322" class="st0" width="1986" height="1128"/>
<g>
	<g>
		<g>
			<g>
				<path class="st1" d="M1167.9,361.5h88.4l11-161.7c2-27.1,0-60.2,0-60.2h1c0,0,12.1,37.7,20.1,60.2l37.7,103.9h75.3l37.7-103.9
					c8-22.6,20.1-60.2,20.1-60.2h1c0,0-2,33.1,0,60.2l11,161.7h87.9l-29.1-359h-95.4l-52.2,151.6c-8,23.1-18.1,59.2-18.1,59.2h-1
					c0,0-10.1-36.1-18.1-59.2L1292.9,2.5h-95.4L1167.9,361.5z"/>
			</g>
		</g>
		<g>
			<g>
				<path class="st1" d="M702.5,2.5h-92.4l-122,359h90.4l21.6-75.3h112l22.1,75.3h90.4L702.5,2.5z M620.7,215.9l20.6-69.8
					c6.5-22.6,14.6-61.8,14.6-61.8h1c0,0,8,39.2,14.6,61.8l20.1,69.8H620.7z"/>
			</g>
		</g>
		<g>
			<g>
				<path class="st1" d="M967.1,2.5H839.6v359h127.5c113,0,185.2-67.3,185.2-180.2S1080.1,2.5,967.1,2.5 M963.6,286.2h-36.1V77.8
					h36.1c59.2,0,97.9,35.1,97.9,103.4C1061.5,250,1024.3,286.2,963.6,286.2"/>
			</g>
		</g>
		<g>
			<g>
				<path class="st1" d="M384.2,41.5l-0.2-0.2v-1.1l0.2-0.2c1,0,1.7-0.1,2-0.2c0.3-0.1,0.5-0.3,0.8-0.5c0.2-0.3,0.7-1.1,1.4-2.6
					l2.2-4.7l5.7-12.8c1.1-2.5,2.1-5,3.2-7.5h1.3l8.9,20.9l1.2,2.8c0.3,0.8,0.8,1.6,1.2,2.6s0.8,1.5,0.9,1.6
					c0.2,0.2,0.4,0.3,0.7,0.4s0.8,0.1,1.7,0.2l0.2,0.2v1.1l-0.2,0.2c-1.5-0.1-2.8-0.2-4-0.2c-2.3,0.1-4.6,0.1-6.9,0.2l-0.2-0.2v-1.1
					l0.2-0.2c1.5,0,2.5-0.1,2.9-0.2c0.4-0.1,0.6-0.3,0.6-0.7c0-0.3-0.1-0.7-0.3-1.2l-2.6-6.4h-12l-2.3,5.3c-0.4,1-0.6,1.7-0.6,2.1
					c0,0.4,0.2,0.6,0.6,0.8c0.4,0.2,1.3,0.3,2.8,0.3l0.2,0.2v1.1l-0.2,0.2c-1.8-0.1-3.4-0.2-4.7-0.2
					C387.3,41.3,385.7,41.4,384.2,41.5 M393.6,29.8h10.5L399,17.3L393.6,29.8z"/>
			</g>
		</g>
		<g>
			<g>
				<path class="st1" d="M414.7,81.1v0.6l-0.1,0.2l-1,0.6c-0.2,0.1-0.4,0.3-0.4,0.4c0,0.1-0.1,0.5-0.2,1.2c-0.1,0.7-0.1,1.6-0.1,2.7
					c0,1.2,0.1,2.5,0.2,3.9l-0.1,0.2c-3.8,1.5-7.7,2.2-11.7,2.2c-3.1,0-5.9-0.6-8.3-1.8c-2.5-1.2-4.5-2.9-5.9-5.2
					c-1.5-2.3-2.2-5-2.2-8.2c0-4.8,1.6-8.6,4.9-11.4c3.3-2.8,7.6-4.2,12.8-4.2c3.9,0,7.4,0.7,10.5,2l0.2,0.2
					c-0.2,0.9-0.5,2.9-0.9,5.9l-0.2,0.1h-1l-0.2-0.2l-0.1-2.2c0-0.7-0.1-1.1-0.1-1.3c0-0.1-0.2-0.3-0.5-0.5c-0.2-0.2-0.9-0.5-1.9-1
					c-1-0.4-2.1-0.8-3.1-1c-1-0.2-2.2-0.3-3.3-0.3c-2.5,0-4.8,0.5-6.7,1.6c-2,1-3.4,2.6-4.4,4.6s-1.5,4.3-1.5,6.7
					c0,2.5,0.5,4.9,1.6,7.1c1.1,2.2,2.6,3.9,4.6,5.1c2,1.2,4.3,1.9,7,1.9c1.2,0,2.3-0.1,3.5-0.3s2.2-0.5,3-1
					c0.1-0.4,0.2-1.3,0.2-2.7v-2.3c0-1.1-0.1-1.8-0.2-2s-0.5-0.5-1-0.6c-0.5-0.1-1.7-0.2-3.5-0.2l-0.2-0.2v-0.9l0.2-0.2l1.3,0
					c2.2,0.1,4,0.1,5.3,0.1c0.8,0,2,0,3.5-0.1L414.7,81.1z"/>
			</g>
		</g>
		<g>
			<g>
				<path class="st1" d="M388.3,114.4l0.2-0.1c4.8,0.1,7.8,0.1,9.1,0.1c4.5,0,8.6,0,12.2-0.1l0.1,0.1c-0.3,1.3-0.6,3.4-0.8,6.3
					l-0.1,0.2h-1l-0.2-0.2c0-0.1,0-0.2,0-0.3c0-1.2-0.1-2.3-0.3-3.4c-0.9-0.4-2.1-0.6-3.6-0.8s-2.7-0.2-3.5-0.2
					c-1.1,0-2.5,0.1-4.2,0.2l-0.1,3.3l-0.1,3.8l-0.1,4.2c1.5,0.1,2.9,0.1,4.1,0.1c1.3,0,2.3,0,3.2-0.1c0.9-0.1,1.4-0.2,1.5-0.3
					s0.3-0.3,0.3-0.5c0.1-0.3,0.1-0.7,0.2-1.4l0.1-1.3l0.2-0.2h1l0.2,0.2c0,1.5-0.1,3-0.1,4.6l0.1,4.7l-0.2,0.2h-1l-0.2-0.2
					l-0.2-1.2c-0.1-1-0.2-1.5-0.3-1.7s-0.2-0.4-0.4-0.5c-0.2-0.1-0.7-0.2-1.5-0.3s-2-0.1-3.4-0.1c-0.8,0-2,0-3.7,0.1
					c-0.1,1.2-0.1,3.1-0.1,5.8c0,2.9,0,5.1,0.1,6.4h3.8c3.4,0,5.5,0,6.3-0.1c0.8-0.1,1.7-0.3,2.4-0.6c0.1-0.3,0.3-1.1,0.6-2.2
					c0.3-1.2,0.5-1.9,0.5-2.2l0.2-0.1h1l0.2,0.1c-0.1,0.6-0.2,1.6-0.4,3.1c-0.1,1.5-0.2,2.8-0.2,3.8l-0.2,0.2
					c-2.7-0.1-6.1-0.1-10.4-0.1l-5.7,0c-1.3,0-2.7,0.1-4.1,0.2l-0.2-0.2v-0.7l0.2-0.2c0.8-0.4,1.3-0.7,1.4-0.8
					c0.1-0.1,0.2-1.3,0.3-3.6c0.1-2.3,0.1-4.1,0.1-5.3v-7.6l0-4.7c0-1,0-1.9,0-2.5c0-0.6-0.1-1.1-0.2-1.4c-0.1-0.3-0.2-0.5-0.2-0.6
					c-0.1-0.1-0.2-0.2-0.4-0.3s-0.5-0.1-1-0.2l-1.6-0.1l-0.2-0.1L388.3,114.4L388.3,114.4z"/>
			</g>
		</g>
		<g>
			<g>
				<path class="st1" d="M383.5,194.9l-0.2-0.2v-1l0.2-0.2c0.8,0,1.5-0.1,2-0.1c0.5-0.1,0.8-0.2,1-0.4c0.2-0.2,0.2-0.5,0.3-0.9
					s0.1-1.4,0.1-2.9c0-1.5,0.1-2.6,0.1-3.2v-16.8c0-0.7-0.1-1.2-0.4-1.6s-0.6-0.6-1-0.6s-1.2-0.1-2.3-0.2l-0.2-0.2v-1l0.2-0.2
					c1.9,0.1,3.2,0.1,3.8,0.1c1.4,0,2.5,0,3.5-0.1l6.6,8.6l9.8,12.2c1.2,1.5,2.4,2.9,3.6,4.2v-16.1c0-0.5,0-1.6-0.1-3.2
					s-0.1-2.7-0.2-3.1s-0.2-0.7-0.4-0.9s-0.5-0.3-1-0.3c-0.5-0.1-1.1-0.1-2-0.1l-0.2-0.2v-1l0.2-0.2c1.1,0.1,2.7,0.1,4.8,0.1
					c1.9,0,3.3,0,4.1-0.1l0.2,0.2v1l-0.2,0.2c-0.9,0-1.6,0.1-2.1,0.2s-0.8,0.2-0.9,0.5c-0.1,0.2-0.2,0.5-0.3,0.9
					c0,0.4-0.1,1.4-0.2,2.9c0,1.5-0.1,2.6-0.1,3.3v9.9l0,5.7c0,1.9,0.1,3.8,0.1,5.6c-0.7-0.2-1.9-0.5-3.6-0.9l-1.5-1.8l-4.4-5.4
					l-14.1-17.6v16c0,0.6,0,1.8,0.1,3.4c0,1.6,0.1,2.6,0.2,3c0.1,0.4,0.2,0.6,0.3,0.7c0.1,0.1,0.3,0.2,0.7,0.4s1.1,0.2,2.3,0.2
					l0.2,0.2v1l-0.2,0.2c-0.7-0.1-1.9-0.1-3.5-0.1C386.8,194.8,385,194.8,383.5,194.9"/>
			</g>
		</g>
		<g>
			<g>
				<path class="st1" d="M386.4,245.9v-1l5-6.2l11.9-15.3c1.8-2.3,3-4,3.6-5H406l-3.3,0c-2.9,0-5.3,0-7.1,0.1s-3,0.2-3.6,0.3
					c-0.6,0.1-0.9,0.2-1.1,0.4c-0.1,0.2-0.2,0.6-0.3,1.2l-0.3,2.8l-0.2,0.2h-1l-0.2-0.2c0.1-1,0.1-1.9,0.1-2.5c0-1.7,0-3-0.1-4
					l0.2-0.2c5,0.1,8.4,0.2,10.4,0.2c3.3,0,7.6-0.1,12.9-0.2l0.2,0.2v1.1c-1.5,1.8-2.6,3.1-3.2,3.9l-17.3,22.3l8.4,0.2
					c1.7,0,3.4,0,5.1-0.1c1.7-0.1,2.8-0.2,3.4-0.2s0.9-0.2,1.1-0.4s0.3-0.3,0.4-0.5c0.1-0.2,0.2-0.6,0.3-1.4l0.5-2.8l0.2-0.2h1
					l0.2,0.2c-0.1,0.9-0.2,3.3-0.3,7.2l-0.2,0.2c-5.8-0.1-10.5-0.2-13.9-0.2c-2.4,0-6.3,0.1-11.8,0.2L386.4,245.9z"/>
			</g>
		</g>
		<g>
			<g>
				<path class="st1" d="M393.9,267.6l2.6,0.1c1.7,0.1,2.8,0.1,3.3,0.1c0.5,0,2.5-0.1,6-0.2l0.2,0.2v1l-0.2,0.2
					c-1,0-1.7,0.1-2.2,0.1c-0.5,0-0.9,0.2-1.1,0.3c-0.2,0.2-0.4,0.5-0.5,1.1c-0.1,0.6-0.1,1.3-0.1,2.3l0,4.8v9.6l0,4.1
					c0,1.6,0.1,2.6,0.1,3c0.1,0.5,0.2,0.8,0.3,0.9c0.1,0.2,0.4,0.3,0.8,0.4c0.4,0.1,1.3,0.2,2.8,0.2l0.2,0.1v1l-0.2,0.2
					c-0.1,0-1.3,0-3.7-0.1c-1,0-1.8,0-2.3,0c-0.4,0-2.4,0.1-6,0.2l-0.2-0.2v-1l0.2-0.1c1.3-0.1,2.2-0.1,2.6-0.2
					c0.4-0.1,0.7-0.2,0.9-0.3c0.2-0.1,0.3-0.4,0.3-0.8c0.1-0.4,0.1-1.4,0.2-2.9l0-4.4v-9.6l0-4.1c0-1.6,0-2.6-0.1-3.1
					s-0.2-0.8-0.3-0.9c-0.1-0.2-0.4-0.3-0.8-0.4c-0.4-0.1-1.3-0.2-2.8-0.2l-0.2-0.2v-1L393.9,267.6z"/>
			</g>
		</g>
		<g>
			<g>
				<path class="st1" d="M384.2,348.3l-0.2-0.2v-1.1l0.2-0.2c1,0,1.7-0.1,2-0.2c0.3-0.1,0.5-0.3,0.8-0.5c0.2-0.3,0.7-1.2,1.4-2.7
					l2.2-4.7l5.7-12.8c1.1-2.5,2.1-5,3.2-7.5h1.3l8.9,20.9l1.2,2.8c0.3,0.8,0.8,1.7,1.2,2.6s0.8,1.5,0.9,1.6
					c0.2,0.2,0.4,0.3,0.7,0.4s0.8,0.1,1.7,0.2l0.2,0.2v1.1l-0.2,0.2c-1.5-0.1-2.8-0.2-4-0.2c-2.3,0.1-4.6,0.1-6.9,0.2l-0.2-0.2v-1.1
					l0.2-0.2c1.5,0,2.5-0.1,2.9-0.2c0.4-0.1,0.6-0.3,0.6-0.7c0-0.3-0.1-0.7-0.3-1.2l-2.6-6.3h-12l-2.3,5.3c-0.4,1-0.6,1.7-0.6,2.1
					c0,0.3,0.2,0.6,0.6,0.8c0.4,0.2,1.3,0.3,2.8,0.3l0.2,0.2v1.1l-0.2,0.2c-1.8-0.1-3.4-0.2-4.7-0.2
					C387.3,348.2,385.7,348.2,384.2,348.3 M393.6,336.7h10.5l-5.2-12.5L393.6,336.7z"/>
			</g>
		</g>
		<g>
			<g>
				<rect x="371.8" class="st2" width="3.3" height="363.2"/>
			</g>
		</g>
		<g>
			<g>
				<rect x="425.1" y="0.5" class="st3" width="3.3" height="363.2"/>
			</g>
		</g>
		<g>
			<g>
				<g>
					<g>
						<g>
							<g>
								<path class="st1" d="M80.2,71.1l2.5-1.1l0.5,1.1v0l3.9,8.7l-1.5,1.3c-2,1.8-4,3.6-6,5.6c-0.9,1-1.8,1.9-2.8,2.9
									c-0.4,0.4-0.8,0.9-1.2,1.3l-2-1.8h0v0v0l0.6-4.7c0,0,0,0,0,0c0.5-0.5,1-1,1.5-1.5c0.6-0.6,1.2-1.3,1.9-1.9
									c0.9-0.9,1.9-1.8,2.9-2.7L79.9,77l-1.3-2.8L80.2,71.1z"/>
							</g>
						</g>
					</g>
				</g>
				<g>
					<g>
						<g>
							<g>
								<path class="st1" d="M47.1,131.6l-2.2-1.2c0,0.1-0.1,0.1-0.1,0.2c-0.5,0.8-0.9,1.6-1.2,2.2c-0.1,0.1-0.1,0.2-0.2,0.3
									l-1.2,2.1l0.1,0l3,1.7l1.2,0.6c-0.8,4-1.4,7.7-1.8,11.4l-8.3,1.7l-2.7,0.6h0v0l-0.1,2.1c0,0.7,0,1.9-0.1,3.5
									c0,3.8,0,9.2,0.1,10.9l0.1,2.1l11,2.3c0.4,3.5,1,7.3,1.8,11.3l-9.8,5.6l0.6,2.1c0.3,1.1,1.2,3.9,2.1,6.7
									c0.2,0.5,0.4,1.1,0.5,1.6l0.4,1.2l0.4-0.1l2.2-0.7l1.6-3.8c0,0,0,0,0-0.1c-0.3-0.9-0.6-1.9-0.9-2.7c0,0,0,0,0,0
									c-0.2-0.6-0.3-1.1-0.5-1.5l1.7-1l3.3-1.9h0l3.7-5.8c0,0,0,0,0,0c0,0,0-0.1,0-0.1c-0.2-0.9-0.3-1.7-0.5-2.5
									c-0.7-3.8-1.2-7.3-1.5-10.6l-0.2-2l-10.7-2.2c0-2.7,0-7,0-9.7l10.7-2.2l0.2-2c0.4-4.6,1.1-9.4,2.3-14.6l0.4-2l-2.5-1.4
									l-2.2-1.2L47.1,131.6z"/>
							</g>
						</g>
					</g>
				</g>
				<g>
					<g>
						<g>
							<g>
								<path class="st1" d="M267.8,199.5l-1.7-0.6l-1.6-3.7c0.1-0.5,0.3-0.9,0.5-1.4c0.1-0.3,0.2-0.5,0.2-0.8
									c0.2-0.5,0.3-1,0.5-1.5l-6-3.5l-1.7-1l1.6-3.4l0.3,0.1l0.8-1.4l1.4,0.8l9.9,5.7l-0.5,2c-0.2,1-0.9,3.1-1.3,4.4
									c0,0.1,0,0.2-0.1,0.3c-0.2,0.8-0.5,1.6-0.8,2.4L267.8,199.5z"/>
							</g>
						</g>
					</g>
				</g>
				<g>
					<g>
						<g>
							<path class="st1" d="M154.5,281.2c-3,0-6,0-7.2-0.1l-2.1-0.1l-2.3-11c-3.6-0.4-7.4-1-11.3-1.8l-5.5,9.8l-2.1-0.6
								c-2.4-0.7-11.4-3.6-13.7-4.5l-2-0.7l1.2-11.1c-3.5-1.5-6.9-3.3-10.3-5.2l-8.2,7.5l-1.8-1.2c-1.9-1.2-9.7-6.9-11.7-8.5
								l-1.6-1.3l4.6-10.2c-3-2.8-5.7-5.4-8.2-8.1l-10.1,4.6l-1.3-1.7c-0.3-0.4-0.8-1.1-1.5-1.9l-0.5-0.7c-0.8-1.1-1.8-2.4-2.7-3.7
								l4.4-3.2c0.9,1.3,1.9,2.6,2.7,3.7l0.5,0.7c0,0,0,0,0.1,0.1l9.9-4.5l1.3,1.5c3.1,3.4,6.5,6.8,10.6,10.5l1.5,1.3l-4.5,10
								c2.2,1.6,5.6,4.1,7.8,5.7l8-7.4l1.7,1c4.3,2.5,8.7,4.8,13.3,6.7l1.9,0.8l-1.2,10.9c2.6,0.9,6.6,2.2,9.2,3l5.3-9.5l2,0.4
								c5.1,1.1,10,1.9,14.6,2.3l2,0.2l2.2,10.7c2.7,0,7,0,9.7,0l2.1-10.6l2-0.2c5.4-0.5,10.2-1.3,14.6-2.3l2-0.5l5.4,9.5
								c2.6-0.8,6.7-2.1,9.3-3l-1.2-10.8l1.9-0.8c4.6-2,9-4.3,13.2-6.8l1.7-1l8.1,7.4c2.2-1.5,5.6-4,7.8-5.7l-4.6-9.9l1.5-1.3
								c4.1-3.5,7.5-7,10.5-10.5l1.3-1.6l10,4.5c1.3-1.7,3.1-4.2,4.6-6.3c0.5-0.7,0.9-1.3,1.3-1.9l4.5,3.1c-0.4,0.6-0.9,1.2-1.4,1.9
								c-1.8,2.5-4.9,6.8-6,8.2l-1.3,1.6l-10.2-4.6c-2.4,2.7-5.1,5.4-8.2,8.2l4.7,10.1l-1.7,1.3c-1.8,1.4-9.5,7.1-11.7,8.5l-1.8,1.1
								l-8.2-7.5c-3.3,1.9-6.7,3.7-10.2,5.3l1.3,11.1l-2,0.8c-2.2,0.9-11.3,3.8-13.7,4.5l-2.1,0.6l-5.5-9.7
								c-3.5,0.8-7.3,1.3-11.4,1.8l-2.2,10.9l-2.2,0.1C160.4,281.2,157.4,281.2,154.5,281.2z"/>
						</g>
					</g>
				</g>
				<g>
					<g>
						<g>
							<g>
								<path class="st1" d="M147.7,39.7C147.7,39.7,147.7,39.7,147.7,39.7L147.7,39.7z M241.9,90l-2.1,1l-4.7,2.2l-1.3-1.5
									c-3.3-3.7-6.7-7.2-10.5-10.5l-1.5-1.3l4.5-9.9c-1.4-1.1-3.4-2.5-5.2-3.9c-1-0.7-1.9-1.4-2.6-1.9l-8,7.4l-1.8-1
									c-4.3-2.5-8.7-4.8-13.3-6.7l-1.9-0.8l1.2-10.9c-2.6-0.9-6.6-2.2-9.2-3l-5.3,9.5l-2-0.5c-5-1.2-9.8-1.9-14.6-2.3l-2-0.2
									l-2.2-10.7c-2.7-0.1-6.9-0.1-9.7,0l-2.1,10.7l-2,0.2c-5.3,0.5-10.1,1.2-14.6,2.3l-2,0.5l-5.5-9.5c-2.6,0.8-6.6,2.1-9.2,3
									l1.2,10.8l-1.9,0.8c-4.4,1.9-8.9,4.1-13.1,6.7l-1.7,1l-8.1-7.4c-0.4,0.3-0.9,0.6-1.3,0.9c-1.4,1-3,2.2-4.4,3.2c0,0,0,0,0,0
									c-0.2,0.1-0.4,0.3-0.6,0.5l-1.6-2.2l2.4-5.2c0.4-0.3,0.7-0.5,1.1-0.8c1.5-1.1,2.6-1.9,3.2-2.2L90,58h0l1-0.7l8.3,7.5
									c3.3-2,6.8-3.7,10.2-5.2l-1.2-11l1.9-0.8c2.4-1,11.4-3.9,13.8-4.5l2-0.5l5.6,9.6c3.6-0.8,7.3-1.4,11.4-1.8l2.2-10.8l2-0.2
									c0.1,0,0.2,0,0.4,0l0.2,0l0.1,0c2.9-0.1,11.6-0.1,14,0l2,0.1l2.2,10.8c3.8,0.4,7.5,1,11.4,1.8l5.4-9.6l2,0.5
									c2.4,0.6,11.6,3.5,13.9,4.5l1.9,0.8l-1.2,11c3.5,1.5,6.9,3.3,10.3,5.2l8-7.5l0.1,0.1c0,0,0,0,0,0l1.6,1
									c0.2,0.1,0.4,0.3,0.7,0.5c1.2,0.8,2.9,2,4,2.8c0,0,0,0,0,0c1.1,0.8,2.2,1.6,3.3,2.4h0c0.2,0.1,0.3,0.2,0.5,0.4
									c1.5,1.1,2.7,2.1,3.4,2.6l1.6,1.3l-1.2,2.7l-3.3,7.4c2.9,2.6,5.6,5.3,8.1,8.1l3.4-1.6l1-0.5l1.1,2.5L241.9,90z"/>
							</g>
						</g>
					</g>
				</g>
				<g>
					<g>
						<g>
							<g>
								<path class="st1" d="M259,167.8L259,167.8l0-0.4l2.1-0.4h0l0.1,0l8.5-1.7c0.1-2.7,0.1-6.9,0-9.7l-10.8-2.1l-0.2-2
									c-0.5-5.3-1.2-10.1-2.3-14.6l-0.5-2l4.2-2.4l3.9-2.2l2,0.2l0.8,1.3l-0.6,3.5c0,0,0,0,0,0l-2.8,1.6l-1.3,0.7
									c0.8,3.6,1.4,7.3,1.8,11.4l5.7,1.1l3.4,0.7c0.7,1.2,1.4,2.2,2,3.2c0,0.2,0,0.4,0,0.7c0,1.1,0.1,2.7,0.1,4.4
									c0,3.4,0,7.2-0.1,8.7l-0.1,2.1l-10.9,2.2c-0.2,2.2-0.5,4.4-0.9,6.7l-0.3,0l-2.4-0.4L259,167.8z"/>
							</g>
						</g>
					</g>
				</g>
				<g>
					<g>
						<g>
							<path class="st1" d="M101.8,233l18.3-61.5l-50.9-38.8l64-1.5l21.2-60.4l21.3,60.5l64,1.5l-50.9,39l18.3,61.3l-52.7-36.4
								L101.8,233z M154.4,189.9l43.1,29.7l-15-50.1l41.6-31.8l-52.2-1.2l-17.4-49.4l-17.3,49.3l-52.3,1.3l41.6,31.6l-15,50.2
								L154.4,189.9z"/>
						</g>
						<g>
							<path class="st1" d="M99.2,236.5l19.2-64.5L65,131.4l67.2-1.6l22.2-63.3l22.4,63.4l67.1,1.5l-53.4,40.9l19.2,64.3l-55.3-38.2
								L99.2,236.5z M73.4,134l48.4,36.9l-17.4,58.5l50-34.6l50.1,34.6l-17.4-58.3l48.4-37l-60.8-1.4l-20.3-57.5l-20.1,57.4
								L73.4,134z M200,223.2l-45.6-31.5l-45.6,31.5l15.9-53.2l-44.1-33.6l55.4-1.3l18.3-52.3l18.5,52.4l55.4,1.3l-44.1,33.7
								L200,223.2z M154.4,188.1l40.5,27.9l-14.1-47l39.1-29.9l-49.1-1.1l-16.4-46.5l-16.2,46.4L89,139.1l39.1,29.8L114,216.1
								L154.4,188.1z"/>
						</g>
					</g>
				</g>
				<g>
					<g>
						<g>
							<path class="st1" d="M177.8,134.5l-4.6-0.1l-1.1-3.1l-1.6-57.4l2,0.4c25,5.3,46.4,21,58.8,43.2l1,1.8L177.8,134.5z
								 M175.5,131.2l1.8,0l50-13.9c-11.7-19.8-31-34-53.5-39.4l1.5,52.7L175.5,131.2z"/>
						</g>
					</g>
				</g>
				<g>
					<g>
						<g>
							<path class="st1" d="M131.4,134.4l-54.3-16l1-1.8c12.7-22.1,34.3-37.6,59.2-42.5l2-0.4l-2.5,57.3l-1.1,3.3L131.4,134.4z
								 M82,116.5l49.8,14.7l1.6,0l0.2-0.7l2.2-52.6C113.5,82.8,94,96.7,82,116.5z"/>
						</g>
					</g>
				</g>
				<g>
					<g>
						<g>
							<path class="st1" d="M90.6,221l-1.4-1.5c-6.9-7.6-12.3-16.4-16.2-25.9l-0.2-0.5l0.1-0.5c1.7-7.1,2.8-15.7,2.3-18.5
								c-0.1-0.8-0.3-1.3-0.4-1.6l0,0l-5.6,4.3l4.3-8.5c0.2-0.5,0.3-0.9,0.3-1.1c-1,0-2.9,0.3-4.7,1.1l-2.2,1.1l-0.2-2.4
								c-0.4-5.6-0.3-11.4,0.4-17l0.2-2.1l55,20.5l1.9,1.4l-1.1,3.8L90.6,221z M76.2,192.8c3.4,8.3,8.2,16,14,22.9l29.8-43.5l0.3-1
								l-50.3-18.7c-0.4,4-0.5,8.1-0.3,12.1c2.3-0.7,5-1,6.2-0.1l0,0c1.2,1,1.4,2.6,0.5,4.9c1.1,0.7,1.6,2.4,1.9,4.1
								C79,177.1,77.8,186.1,76.2,192.8z"/>
						</g>
					</g>
				</g>
				<g>
					<g>
						<g>
							<path class="st1" d="M154.3,248.4c-12.6,0-25.1-2.7-36.8-8.1l-1.9-0.9l36.5-46l2.2-1.6l2.2,1.5l0.2,0.2l35.6,46.2l-1.9,0.8
								C178.9,245.8,166.6,248.4,154.3,248.4z M120.8,238.2c21.1,9.1,45.1,9.2,66.4,0.3l-32.8-42.6L120.8,238.2z"/>
						</g>
					</g>
				</g>
				<g>
					<g>
						<g>
							<path class="st1" d="M217.6,221.7l-31.8-47.9l-1.2-3.9l1.8-1.4l0.2-0.1l55-19.6l0.2,2.1c0.9,8,0.6,16-0.7,24l-0.3,1.6
								l-1.6-0.2c-0.6-0.1-1.1,0-1.4,0.3c-0.3,0.3-0.4,0.9-0.3,1.7c0.1,1.1,0.6,2.5,1.5,4.4l0.3,0.5l-0.2,0.6
								c-3.7,13.5-10.7,26.1-20.2,36.4L217.6,221.7z M188.8,172.5l29.2,44c8.3-9.5,14.5-20.8,17.9-33c-0.9-1.9-1.4-3.5-1.6-4.8
								c-0.3-2.3,0.6-3.7,1.3-4.4c0.7-0.6,1.5-1.1,2.5-1.2c1-6.5,1.2-13.1,0.6-19.7l-50.3,18L188.8,172.5z"/>
						</g>
					</g>
				</g>
				<g>
					<g>
						<g>
							<path class="st4" d="M312,184.5c3.6-5.1,4.1-9.8,1.3-13.9c1-6.8,0.3-11-2.1-12.8c-2.5-1.8-5.6-1.2-9.2,1.7
								c-2.1-1.1-5-0.1-8.6,3.2c0.6-1.6,0.7-3.1,0.2-4.3c3.2-1.5,5.4-3.2,6.3-5c0.9-1.8,1.4-4.7,1.4-8.5c0.4-2.4,2.6-6.6,6.6-12.8
								c2.8-6.1,0.8-8.3-5.8-6.4c3.6-3.2,5.5-6.1,5.5-8.4c0.2-2.2-0.7-5.1-2.8-8.6c-0.9-2-2.2-2.4-3.9-1.1c0.6-1.2,1-2.8,1-4.5
								c0.1-1.7-1.1-5.4-3.5-11.1c-0.4-7.4-2.1-10.5-5.2-9.2c-0.5-3.9-1.8-7.6-3.8-11.1c-3-4.5-5.4-5.7-7.1-3.6
								c-4.9-7.2-9.5-10.3-13.7-9c-0.1-3.1-1.2-6-3.2-8.4c-1.1-4.8-2.5-8.1-4.1-10c-2.2-0.9-3.8,0.4-4.7,3.8
								c-0.4-2.8-1.2-5.6-2.6-8.6c-1.4-3-3.6-4.6-6.6-4.7c-1.1-0.1-2.2,0-3.2,0.6c-2-1.2-3.7-1.9-5.1-1.9c-4.2-4.5-8.1-4.9-11.6-1.1
								l-0.6-3.9c-1.2-4.6-3.8-5.6-7.5-3c-6.1-6.4-11.4-10.6-15.8-12.6c-3.6-1.2-6-0.9-7.1,1c-1.9-1.9-3.9-3.1-6-3.6s-4.1-1.1-6-1.7
								c-2.9-0.1-4.1,1.4-3.8,4.7c-4.5,0.2-7.6,1-9.3,2.3c-1.7,1.3-2.1,3.2-1.3,5.5c0.8,2.4,2.7,4.3,5.5,5.8
								c-0.8,0.9-1.1,2.2-0.9,4.1c0.1,1.9,2.1,3.4,6,4.7c2.9,0.8,5.7,0.8,8.5,0.2c-0.6,2.9,0.4,4.7,3,5.5c3.6,3.8,8.1,4.7,13.5,2.8
								l-0.6,3.6l7.3,3c0.2,3.5,1.9,6,4.9,7.5l2.9,1.2c-0.6,0.1-3.3,2.3-3.3,2.7c-0.4,0.5-1.4,2.4-0.4,3.8c0.4,0.5,1,1,2.1,1.1
								c1.3,0.1,2.7,0.3,4.1,0.4c1.8,0.1,3.5,0.2,5.3,0.2c0.1,0.9,0.6,2.4,1.2,3.5c0.5,1.1,1.8,2.8,4,5.1c2,2.2,5.9,4.4,9.1,5.8
								c-0.2,0.2-1.1,2.7-1.9,4.9c-0.5,1.4-0.9,3.1-0.9,4.9c0,1.8,0.3,3.5,1.3,4.7c-0.4-0.2-2.2,1-2.9,2c-2.3,3.6,2.7,8.8,3.5,10.6
								c-0.4,0-1.8,0.7-2.5,1.2c-1.7,1.2-1.1,7.5,3.8,8.5c1.2,0.6,6.9,3.9,9.8,6.8c0.6,0.6,2.1,3.6,4.4,6.5c1.2,1.6,2.5,4.3,5.5,4.4
								c0.1,0.4,0.3,0.8,0.4,1.2c2.1,6.5,5.2,12.8,8.9,19c0.3,0.5,0.6,1,0.9,1.5c0.7,1.2,1.5,2.4,2.3,3.6c0,0.3,4.9,5.5,6.7,10.2
								c-0.6,3-0.5,5.7-0.5,5.8c-0.6,6-1.7,11.6-3.3,16.6c-5.3-2.6-6.2,0.9-7,4.4c-0.1-0.2-2.5-0.4-2.8,0.7c0-0.5-0.1-1-0.4-1.4
								c-0.9-1.4-3.2-2.3-4.4-1.4c0,0-1.7,1.2-2.7,2c-0.4,0.3-0.6-1.7-0.8-3.2c0-1-0.3-4.5,0.4-5.9c0-0.1,0.2-0.3,0.5-0.7
								c0.5-0.6,1.1-1.6,1.6-2.4c1.2-2.2,0.8-8-0.3-13.3c-0.4-1.6-0.8-3.2-1.2-4.6c-0.6-1.9-1.8-2.7-2.9-3.2c-0.4-0.2-3.2,0-3.8,2.1
								c-0.1-1.2-2.1-2-3.6-2.3c-4.1-1-8.5,6.9-8,14.2c-0.9-0.7-1.9-1.1-2.9-1.3c-2.1-0.3-3.9,0.9-3.6,3.8c0.2,1.4,0.8,3.1,1.7,4.9
								c2.7,5.5,7.7,12.2,7.9,15.7c-2.6-2.3-8.4-2.4-8.5,3.2c0,1.7,1.4,4.6,2,5.8c-1.2,6,5.7,10.4,11.3,16c-0.1,2.3,0.6,2.7,1.4,3.4
								c0.1,0.1,0.2,0.2,0.3,0.3c-1,1.6-7.3,11.5-7.4,11.7c-0.3,0.1-4.6-2.3-6.1-1.1c-1.5,1.3-2.8,3.2-3.5,4.3l0.8,6.9
								c0.5,2.9-1,6.1-4.6,9.7c-3.6,3.6-5.9,6.8-7,9.9c-0.6,2.2-3.1,4.7-7.3,7.3c-0.2-0.8-1.2-1.9-3-3.6c-0.2-0.5-0.8-0.7-1.5-0.6
								c-4.2,1.1-12.8,4.9-25.7,11.3c-2.2,1.1-5.5,4.4-9.6,10h-7.3c-2-1.1-4.1-2.7-6.4-4.7c-1.6-1.2-4.5-0.8-8.6,1.3
								c-3.9-0.9-7.8-0.1-11.6,2.4c-2.4,0.9-4.1,1.1-5.3,0.6l-9.2-9.9c-19-8-29.4-11.6-31.2-10.7c-1.9,1.1-3.2,2.7-4.1,4.9
								c-1.9-0.9-4.7-3.3-8.4-7.1l-5.8-6.6c-4.3-4.8-6-9.3-5.3-13.5l0.9-5.8c0.1-0.9,0-1.6-0.4-2.1c-1.4-1.5-3.8-2.4-5.1-2.7
								c-0.3-0.1-1.1-0.4-2,3c0.2,0.8-6-8.2-6.1-8.5c0.1-0.2,0.3-0.3,0.4-0.5c1.7-2.2,4.4-7.2,5.9-12.8c1.9-7,2.8-14.8,2.7-17.8
								c0.3-0.6,0.4-0.7,0.7-1c1.1-0.9,2.4-4.5,3.4-9c1.7-7,2.8-16,2.3-19.1c-0.4-2-0.9-3-1.4-3.1c-0.6,0-1.1,0.1-1.6,0.5L75,169
								c0.6-1.6,0.6-2.7,0-3.2c-0.4-0.4-3.7-0.4-6.6,1.1c0,0-0.1,0-0.1,0c-0.4-3.3-1.9-8-2.7-9.8c-0.3-0.6-1.1,0-1.1,0
								c-5.2,3.2-7.6,10.1-9.4,18.8l-1.5,1.4c-1.5,1.9-2.9,3.8-4.3,5.8c-0.6,0.9-1.2,1.8-1.7,2.7c-2.1,3.5-4,7.1-5.5,10.9
								c-1.2,3.2-2.2,6.5-3,9.9c-1.1-1.7-1.8-4.3-2.8-7.6c-1-3.3-1.3-5.5-0.9-6.7c1-1.8,0.7-3.4-0.9-4.9c-1.2-1.2-2.9-6.9-4.9-16.9
								c0.1-2.6,1.2-6.6,3.2-11.8c2-5.2,5.4-11.9,9.7-19.4c0.2-0.3,2.2-2.4,2.8-2.6c0.7-0.2,1.6-0.7,2.7-1.6
								c8.6-7,28.3-33.8,29.7-50.3c0.1-1.6,0.1-3-0.1-4.4c0.3-0.1,1.9-2.8,4-6.4c1.9-3.4,4.2-7.6,6.1-11.2c1.7-3.4,3.1-6.4,3.4-7.7
								l1.6-0.5l1.9-0.8c6.2-2.5,11.6-5.2,16.5-7.4l7.6-4c5.3-2.2,10.3-5.3,15-9.2c5-4.4,7.7-8.9,8.1-13.7c-0.9-1.1-3.4-1.8-7.7-1.9
								c2.2-2.5,3.4-5.1,3.6-7.9c-1.6-2.2-6.5-2.6-14.6-1.1c-8.5,2.1-16,5.4-22.3,9.9C94,22.8,88.2,27.9,83,33.8
								c-5.2,6-9.4,12.1-12.5,18.5l3.8-8.6c1.9-4.1,3.9-8.9,6-14.5c0.6-2.6,0.6-4.5,0.1-5.6c-0.6-1.1-1.8-1.4-3.7-0.9
								c-2,0.5-5.6,3.1-10.9,7.9C60,36.4,54.9,43.7,50.5,52.3c-4.4,8.6-7.5,15.5-9.1,20.5c0.9-5.6,0.8-10.5-0.4-14.5
								c-0.6-1.6-2-2.1-4.1-1.3c-2,1.4-4,3.4-6,6.2s-3.9,5.4-5.8,8c-1.9,2.6-4.1,6.2-6.7,11c-2.6,4.8-4.8,10.4-6.8,16.9
								c-1.9,6.5-3.4,15.1-4.4,25.9c-0.6,6.9-0.1,14.3,1.5,22.1c2,7.9,4,13.7,6,17.5c2,3.8,3.9,6,5.6,6.6c1.1,2.8,2.6,7.3,4.5,13.7
								c1,3,1.4,5.3,1.3,6.9c-0.1,1.6,0.3,2.7,1.2,3.3c0.9,0.6,1.7,1.9,2.4,3.8c1.6,6,3.8,11.6,6.6,16.7c-0.5,2.8-0.8,5.5-0.8,8.3
								c-6-17.4-10.9-30.5-14.6-39.4C13.7,168.1,8,160.7,3.8,162.1c-2,0.8-3.3,2.6-3.8,5.5c-0.1,1.1-0.1,4,0,8.6
								c0.1,4.6,0.6,9.5,1.3,14.6c3.8,16.6,10.2,30.5,19.3,41.7l13.7,16.1c2.8,2.8,5.4,4.8,7.9,6.1c2.5,1.3,4.8,1.7,6.9,1
								c3.1,5,7.1,10.3,11.8,15.8c3,4.6,6.1,6.8,9.4,6.6c1.4,3,3.4,4.5,6.2,4.5l2.8-0.4c3.9,3.8,7.4,6.8,10.5,9l-3.6,10.1
								c-6.3,0.9-12,1.4-17.3,1.5c-4.9-3.5-11.8-8.3-20.6-14.3l-0.6-11.2c-0.2-3.9,0.4-7.1,2.1-9.8c0.4-2.1-0.8-4.1-3.6-5.8
								c-4.1-2-7.1-2.8-8.8-2.4c-0.8,0.2-1.2,0.9-1.3,2.1v6.2L18.5,268c-1.6,0-3,0.6-4,1.9c-1.1,1.2-1.1,3.8-0.1,7.5
								c0.1,1.4,0.1,2.6-0.2,3.6c-0.9,4-3.2,8.9-6.9,14.6c-0.5,0.9-0.3,2.2,0.6,3.9c0.9,1.8,3.3,4.5,7,8.3c1.6,1.6,4.1,3.6,7.4,6
								c3.3,2.4,9.2,6,17.6,10.9c9.9,5.9,19.3,10.8,28.3,14.6c1.9,0.1,14.4-1.6,37.5-5.1l0.2,2.1c-6.6,5-10.9,7.1-12.8,6.2
								c-2.6,0.2-3.4,2.2-2.4,5.8c0.8,1.6,2.1,2.8,4.1,3.4l2.4,2.8l7,4.1c2.6,0.8,5.1,0.8,7.5,0c2.2-0.9,3.8-2.8,4.5-5.8l8.3-8.3
								l5.5-4.1c4.2-0.7,7-2.2,8.3-4.5c0.2-2,0.8-3.3,1.7-3.8l6.6-4.5c0.2-0.6,2.9,0.4,8.1,3.2c2.5,0.6,4.7,0.5,6.6-0.4l4.9-2.8
								c4.4,1,12.1,6.4,23.1,16.3c-0.1,1.1,0.6,2.4,2.1,3.9c0.9,1.1,3.3,2.1,7.1,2.8l2.6,4.9l2.6,0.9c3.9,0.1,7.5-1.2,10.9-4.1
								l4.1-1.3c2.1-1.6,3.1-3.3,2.8-4.9l-1.7-1.7l-3.6-1c-4.5-2.1-9.1-5-13.7-8.6l-3-2.2c13.6,2.4,30.6,4.3,50.9,5.6
								c2.5,0.5,5.9-0.8,10-3.8c4.2-3.1,16.9-12.1,38-27.1c3.1-3.4,5.6-7.3,7.5-11.6c-1.9-1.8-3.5-4.2-5-7.5c-1.4-3.3-2.3-6-2.7-8.3
								c-0.5-2.1-0.6-4-0.2-5.7s-0.2-3.3-1.7-4.8c-0.6-0.9-2.1-1.4-4.3-1.7c-4-0.4-8.5-0.3-13.5,0.2c-2.4-0.2-3.8-0.8-4.1-1.7
								l0.2-4.5c0.4-2-0.2-2.9-1.7-2.6c-5.5,1.4-8.8,2.8-9.9,4.1c-1.6,1.8-1.6,3.6,0.2,5.6c1.4,1.2,2.1,2.7,2.1,4.3
								c-0.7,8.3-1.4,13.8-2.1,16.7c-9.1,7.2-15.3,11.7-18.6,13.3c-2.6,0.9-8.5,0.5-17.6-1.1c-2-1.8-3.4-4.8-4.3-9
								c3.1-1.9,6.4-4.1,9.9-6.8c2.4-0.4,4.4-0.8,6-1.4c1.6-0.6,2.4-2.1,2.4-4.6c1.6-0.6,2.8-2,3.6-4.1l10.9-13.2
								c3.5-3,7.3-4.8,11.5-5.3c5-0.4,11.5-3.2,19.5-8.4c1.2-1.4,1.2-3.3,0-5.8c2.4-1.4,6.2-5.3,11.6-11.6c2.1-3,2.6-6.3,1.5-9.9
								c5-6,7.8-10.8,8.4-14.3c0.5-3.1,0.4-6.5-0.2-10.1c2.4-1.5,4-2.8,5-3.9c0.9-1.1,1.4-2.5,1.4-4.4
								C314.1,187.4,313.4,185.8,312,184.5z M213.7,43.6l-6.4-2.1l0.4-4.3l-3.6,0.8c-3.4,1.1-6.8,0.1-10.1-3
								c-2.2,0.4-3.2-0.5-2.8-2.6c0.9-1.9,0.6-2.9-0.8-3l-5.5,0.6c-3.5-0.5-5.8-1.5-6.9-3c-0.8-1.2-0.2-2.8,1.5-4.7
								c-3.4-1.4-5.5-2.9-6.3-4.5c-0.8-1.6-0.3-2.9,1.5-3.9c1.8-1,5.2-1.2,10-0.6c-1.1-1.4-1.4-2.8-0.9-4.3c0.1-1.5,3.4-0.7,9.8,2.4
								l3.8,2.2c1-1.9,2.7-2.4,5.1-1.7c2.9,1.4,5.6,3,8.1,5c2.5,1.9,5.3,4.7,8.4,8.4c2.6-1.8,4.5-1.4,5.6,1.1l0.6,4.5
								c-2.8-2.6-6.1-2.8-10.1-0.6l-2.6-1.1c-3.6-4.4-5.8-7.7-6.6-9.9c-0.8-2.9-1.1-3.1-1.1-0.8c0.1,2.5,1.6,5.7,4.5,9.6
								c-5.5-1.8-9.5-4-12.1-6.8c-2.6-2.7-4.5-5.1-5.9-6.9c-1.4-2.2-1.9-2.2-1.7,0c1.5,2.7,3.6,5.3,6.2,7.7c-2-0.9-3.9-1.8-5.6-2.6
								c-4.4-1.9-8-2.9-10.9-3c-1.4,0-1.4,0.2-0.2,0.8c4.9,1.2,8.4,2.4,10.6,3.5c2.2,1.1,3.7,2,4.4,2.9c-3.5,1.5-7.1,2.2-10.9,2.1
								c-2.4-0.1-3.4-0.1-3.2,0.2c0.2,0.2,1,0.5,2.2,0.8c4.5,0.5,9.1,0,13.7-1.5c3.4,1.8,7.3,3.4,11.8,5.1c-2.7,0.6-5.4,1.9-8.1,3.8
								c-1,1.2-0.5,1.3,1.5,0.2c2-1.5,5-2.4,9-2.8l3.2,1.3c-0.2,3.4,0.6,6.8,2.4,10.3L213.7,43.6z M228.7,61.6c-7,0.1-8.4,0-8.8-1.1
								c-0.3-0.8-0.4-1.6,2.1-3l1.3-2.1c-4.1-1.9-7.8-4.1-8-9.1l3.4-1.3c1.5-1.7,1.5-3.1,0.1-3.9c-1.5-0.9-2.2-3.2-2.4-7
								c1.4-3,4.8-3,10.1,0c2.4-4.6,5.2-6,8.6-4.1c-3.6,0-5.8,1.6-6.4,4.7c-0.4,2-0.4,4.4,0,7.3c-1.2-1.8-2.7-3.3-4.5-4.5
								c-3.4-1.8-4-1.6-1.9,0.6c2.1,2.1,4,4.3,5.6,6.6c-2.8,2.2-5.8,3.3-9,3c-1.1,0.5-0.9,0.8,0.6,0.9c1.5,0.4,3.3,0.2,5.3-0.4
								c-0.2,2,0.4,5.3,1.3,7.3c1.2,1.7,2.8,3.2,4.6,4.6C229.8,60.2,229.1,60.7,228.7,61.6z M232.6,65.2c-0.1-1.5,1.2-2.4,3.9-2.5
								c2.8-0.2,3.2-1,1.3-2.4c-3.6-1.2-6.6-3.4-9-6.4c-1.6-2.1-1.6-3.6,0-4.5l2.8-0.8L233,47l-1.7-6.6c-0.5-3.4,0.4-5.8,2.8-7.1
								c3.4-0.5,6.7,0.5,9.9,3c0.1-1.8,1.3-2.3,3.5-1.6c2.2,0.7,4.2,5.4,6.1,14l3,1.1c1-2.4,1.8-3.6,2.4-3.6c1,0,2,2.1,3,6.2
								c2.5,2.2,3.7,5.9,3.6,11.1c-1.6,2.1-2.5,4.8-2.6,7.9l-1.5-3.4c-0.9-3.8-1.2-7.7-1.1-11.8c-0.1-1.7-0.3-1.7-0.6,0
								c-0.4,3.6-0.4,6.7-0.2,9.2c-3.4-4.4-7-8.3-10.9-11.8c-0.8-2.8-1-5.9-0.8-9.4c-0.4-3-0.7-3.7-0.9-2.1
								c-0.2,3.8-0.1,7.2,0.4,10.5c-2.9-2.9-6.3-7.1-10.1-12.6c-1-1.7-1.4-2.1-1.3-1.1c2.4,4.5,4.9,8.3,7.5,11.3
								c2.6,3,4.8,5.4,6.4,7.1c-3.3-1-6.1-1.7-8.5-2c-2.4-0.3-4.6-1-6.6-2c-1.9-0.4-1.8,0.1,0.2,1.3c1.1,0.7,3.4,1.4,6.9,2.1
								c3.4,0.6,6.7,1.7,9.7,3.2c1.6,1,3.8,3.6,6.6,7.7l2.2,5.1c-3.5-1.9-7.4-3.2-11.6-3.9s-6.8-1.4-7.5-2.1
								c-3.3-1.4-3.6-1.2-1.1,0.4c0.8,0.8,3.4,1.6,8,2.5c4.6,1,9,2.7,13.2,5.4l0.4,1.1c-0.9,1-1.2,2.4-0.9,4.1l1.3,3.8
								c-1.1-1.4-2.7-0.8-4.7,1.9c0.8-1.6,0.6-3.1-0.6-4.5c-1.8-2.6-6-5.4-12.8-8.4l-1.1,2.1C237.5,73.2,234,69.9,232.6,65.2z
								 M278.3,158.7c-1.3-1.9-3.2-4.9-5.6-8.9s-4.2-7.2-5.4-9.8c-1.1-2.5-1.3-5.1-0.6-7.7c0.1-0.2,0.1-0.4,0.2-0.6
								c0.4-1.4,0.8-2.6,1.1-3.6c0.2-0.7,0.4-1.2,0.6-1.7c0.5-1.4,0.4-1.6-0.2-0.8c-0.3,0.5-0.5,0.9-0.8,1.4c-1,1.9-1.7,3.8-2.2,5.6
								c-0.1,0.2-0.1,0.5-0.2,0.7l-0.2-0.5l-3.6-10.2c0.1-1.6,0.5-3.3,1.2-5.2c1.1-3.2,3-6.9,5.6-11.1c1.2-2.2,1.1-2.4-0.4-0.6
								c-2.9,3.9-5,7.8-6.4,11.8c-0.4,1.1-0.7,2.2-0.9,3.4l-1.4-3.1l-4.4-9.9c-0.1-2.4,1.4-6.9,4.5-13.5c1.6-3.5,1.2-3.4-1.1,0.4
								c-2,3.8-3.4,7.2-4.3,10.5c-0.6-2.3-1.1-4.4-1.7-6.5c-0.8-2.9-1.5-5.5-2.2-8c-0.4-1.3-0.8-2.6-1.2-3.8l-1.3-0.4l0.5,1.5
								l0.2,0.6c0.7,4.2,1.5,8.1,2.5,11.6c0.5,1.7,1,3.3,1.6,4.8c-1.1-1-2.2-1.9-3.5-2.7c-1.4-1-3-1.8-4.6-2.6
								c-1.6-0.9-1.6-0.7,0,0.6c1.5,0.9,2.8,1.7,4,2.6c1.7,1.2,3.1,2.5,4.2,3.8c1.5,3.5,2.9,6.7,4.1,9.6c-1.3-0.9-3.1-2-5.5-3.1
								c-1.7-0.8-3.7-1.7-6-2.5c-2-0.4-2-0.1,0,0.8c2.6,1,4.8,2.1,6.6,3.1c2.1,1.2,3.7,2.3,4.8,3.5c0.5,0.5,0.9,1,1.2,1.5l3.8,9.9
								c-1.4,0-3.2-2.1-5.5-6.2c-1.9-3.5-6.6-6.9-14.1-10.1c-1.5-0.6-2.2-1.9-2.1-3.9c0.2-1.4,1.7-1.9,4.3-1.7
								c-0.8-2.1-1.6-3.8-2.6-5.1l-1.5-2.2c-2-4.1-0.8-6.2,3.6-6.2c-1.6-2.5-2.2-4.4-1.7-5.8c0-0.4,0-0.8,0-1.3
								c0.1-1.9,0.7-3.8,1.7-5.7c0.8-1.5,1.3-3,1.7-4.5c2.4,1.4,4.5,2.5,6.5,3.5c1.9,0.9,3,2.7,3.1,5.2l-0.9,5.8
								c0.4,1.1,1.4,0.8,3-1.1c1.6-2.2,2.9-3.6,3.9-3.9c1.4,0.6,2.7,1.8,3.9,3.4c1.2,2.4,0.8,6.8-1.3,13.1l-2.1,5.2
								c4.3-5.6,7.7-8.3,10.3-8.1c0.9,0.6,1.1,1.9,0.8,3.9c-0.3,1.9-0.3,4,0,6.1c0.3,2.1-0.4,3.9-2.2,5.4c-1.8,1.5-2.9,3.9-3.6,7.3
								c4-3,5.6-2.4,4.9,1.7l-2.2,8.1c-0.6,3.9,0,5.7,1.9,5.4c1.9-0.2,3,0,3.5,0.8c0.4,0.8,0.5,2.1,0.3,3.9
								c-1.1,2.6-1.6,4.4-1.5,5.2c0.1,0.8,0.5,1.5,1,2.1c0.6,0.6,1.8,0.5,3.7-0.4s2.8-0.2,2.8,1.7s0,3.8,0.1,5.6
								c0.1,1.8,0.6,3.6,1.8,5.4c0.8,1.2,1.9,2,3.2,2.4c0,0,0.1,0,0.1,0l1.7-2.1c-2.5,0.1-3.7-1.5-3.5-4.9c0.2-3.4,0.2-6-0.1-7.9
								c-1-2.4-2-3.7-3-3.9c-1-0.2-3.3-6.5-7-18.8l3.9,0.2c2.9,10.5,5.2,16.2,7,17c1.8,0.8,2.6,1.7,2.4,2.8
								c-0.1,1.1,0.2,3.3,0.9,6.9c2.2-0.6,3.6-2.7,3.9-6.2c0.6-3.2-0.3-5.8-2.8-7.5c-2.6-1.5-4.1-2.9-4.5-4.1
								c-0.8-2.1,0-3.4,2.4-3.9c1.4-0.8-1.9-3.8-10-9c-4.1-2.9-5.4-5.5-3.8-7.7c0.6-1.1,1.8-1.1,3.5,0.1c1.7,1.2,2.8,1.5,3.3,0.9
								c0.9-1.8,0.2-3-2.1-3.7c-2.2-0.7-3.3-1.5-3.2-2.4c-0.1-3.9-0.1-6.5,0.2-7.9c0.2-1.4,0.1-3-0.4-4.9c-1.4-2-4-1.9-7.9,0.4
								c0.9-2.1,1.1-4.2,0.6-6.2c-0.4-2-1.4-3.9-2.9-5.8l-1.9-5.8c-0.5-2,0.6-3.4,3.4-4.1c-0.9-3.9-0.9-6.6,0-8.3
								c0.9-1.8,1.5-3.2,1.9-4.3c0.4-1.1,1.5-1.2,3.4-0.4c1.9,0.9,4.9,4.2,9,9.9c2-2.2,3.9-1.4,5.8,2.4c2.2,3.5,3.1,7.7,2.6,12.6
								c4.6-2.5,6.2-0.8,4.9,5.1c2,4.1,3.2,7.4,3.7,9.7c0.4,2.3,0.1,4.5-1.1,6.5c-1.2,2-1.7,3.5-1.7,4.6c0.1,1.1,0.5,1,1.3-0.1
								c0.8-1.1,2.5-2.1,5-2.8c1.6,3.5,2.3,5.8,2.1,6.9c0,1.4-0.8,2.9-2.5,4.5c-1.7,1.6-2.7,3.6-2.9,5.8c0,1.1,0.6,1.7,1.7,1.7
								l3.4-0.9c1.8-0.2,1.8,1.1,0.2,4.1c-1.8,3.3-3,6-3.9,8.3c-0.8,2.2-1.2,4.1-1.2,5.5c-0.1,2.9-0.6,4.6-1.5,5.1
								c0.2-3.6,0.1-7.4-0.3-11.4c-0.4-3.9-1.2-8.4-2.3-13.2c1-0.9,2.4-3.8,4.1-8.8c0.9-2.5,0.7-2.8-0.6-0.9c-1.4,3.8-2.8,6.1-4.1,7
								c-1.4-4.6-2.9-10.3-4.5-16.9c1.9-3.1,3.1-7.1,3.6-11.8c0.1-4-0.1-4.3-0.8-0.9c-0.8,4.8-2.1,8.4-4.1,11.1
								c-1.6-5.3-3.4-10.2-5.3-14.8c0.6-2.6,0.9-5.7,0.8-9.2c-0.1-3.5-0.4-3.6-0.9-0.4c0,2.6-0.3,4.9-0.9,6.8l-4.1-10.5l-2.6-6
								c-0.9-2-1.2-2-1,0l2.4,7.9c-1.9-2.1-3.6-3.7-5.2-4.7s-1.9-0.9-0.9,0.2c2.7,2.4,5.1,4.9,7.1,7.7c1.6,4,3.2,8.1,4.9,12.4
								c-4.8-4-8.1-6.2-10-6.8c-2.4-0.9-2.4-0.4,0,1.3c3.4,2.1,7.4,5.9,12,11.3c1.5,4.4,2.9,8.6,4.3,12.8c-2.4-1.4-5.2-4.1-8.6-8.3
								c-1.5-1.5-1.6-1.2-0.2,0.8c2.7,4.1,5.9,7.8,9.6,10.9l2.8,11.5c-2.9-2.9-6.6-5.8-11.3-8.8c-2-1.2-2.1-1-0.4,0.8
								c4,2.9,8.2,7.1,12.6,12.8c1.2,3.5,1.8,10,1.7,19.3c-0.1,2.4-1.9,4.1-5.2,5.3l0,0.4l-0.7,8.6l-4.7,0.2
								C281.6,163.4,279.7,160.7,278.3,158.7z M284.5,167.5c0.8-0.2,2.4,0,4.1,0c-1.7,9.5-3.8,19.9-5.4,26.4l-2.6-1.5
								C282.8,183.4,284,173.3,284.5,167.5z M251.1,221c-0.7-0.6-2.8-2.3-6.3-5.2c-3.1-2.8-4.1-5.3-3-7.5c-0.9-1.1-1.7-2.4-2.4-3.9
								c-0.7-1.5-0.5-3,0.5-4.4s3.3-0.8,7,2c0.6-2.1,0.6-4.1,0-6s-1.4-3.8-2.2-5.6c-1.6-3-3.2-5.6-4.7-7.7c-0.7-1.5-1.1-2.7-1.3-3.5
								c0.1-0.4,0.2-0.9,0.3-1.3c0,0,0,0,0.1,0c0.8-0.4,1.9,0.1,3.6,1.5c3.1-3.4,5.2-4.4,6.2-2.9c1,1.5,1.8,3.9,2.4,7.2
								c0.6,3.4,0.7,6.9,0.2,10.5l-0.8,0.8l0.8,0.8c0.2,0.8-0.1,3.6-1,8.4c0,1,0.3,2,0.9,3c0,0,0,0,0,0c0,0,0,0,0,0
								c-0.2-1.5-0.3-2.6-0.2-3.3c0.1-0.6,0.5-2.1,1.2-4.4c0.7-2.3,1-3.6,1-3.9s0-0.5-1-0.6c1.1-0.4,1.3-0.9,1.6-1.6
								c0.3-0.7,0.4-1.4,0.2-2.1c-0.2-0.7-0.3-2.7-0.4-5.9c-0.1-3.3-0.4-5.7-0.9-7.4s-0.9-3-1-3.9c-0.1-0.9-0.9-1.5-2.2-1.6
								c-1.4-0.1-3.3,1.2-5.8,4.1c1.1-5.4,2.3-9,3.5-10.8c1.2-1.8,2.4-2.3,3.7-1.6c1.2,0.8,2.1,1.6,2.4,2.4c0.4,0.9,0.9,0.7,1.7-0.5
								c0.8-1.2,1.4-1.6,1.9-1.2c0.5,0.4,1,1.1,1.6,2.2c0.6,1.1,1,2.3,1.2,3.6c0.2,1.2,0.5,3.5,0.6,6.9c0,0.3,0,0.6,0,0.9
								c0.1,2.6-0.3,4.4-1,5.5c0,0.1-0.1,0.2-0.2,0.3c-1,1.1-1.5,2.5-1.5,4.1c0.2,6.5,0.8,9.7,1.5,9.7c0.8-0.1,1.7-0.6,2.7-1.5
								c1.1-0.9,2-1.3,2.8-1c0.6,0.2,1.1,1.4,1.3,3.7c0,0.5,0.1,1.1,0.1,1.8c0.1,3.4,0.4,3.7,0.9,1c0.5-2.7,1.4-4,2.8-4
								c1.4,0,1.6,3.6,0.8,10.9c-4.9,4.4-8.4,8-10.5,10.9c-0.8-3.1-0.8-5.3-0.1-6.6c0.7-1.2,1.3-2.7,1.9-4.2c0.6-1.6,1-3,1.4-4.2
								c0.1-0.4,0.2-0.7,0.3-0.9c0.6-2,0.4-2-0.7-0.1c0,0.1-0.1,0.2-0.1,0.3c-0.8,1.5-1.4,2.8-2,3.9c-0.6,1.1-1.2,2.2-2,3.4
								c-0.2-1.7-0.8-4.4-1.8-8.2c-0.2-0.8-0.4-1.6-0.6-2.5c-1.1-3.5-1.4-3.4-0.9,0.2c0.1,0.7,0.2,1.5,0.4,2.2
								c0.8,5.1,1.4,10.1,1.7,14.9c-2.1-2.2-4.3-4.2-6.5-5.8c-0.5-0.4-1-0.8-1.5-1.2c-1.6-1.3-3-2.6-4.2-4.1
								c-1.4-0.9-1.6-0.8-0.8,0.4c1.1,1.4,2.5,3,4.4,4.8c0.7,0.7,1.5,1.4,2.3,2.2c2.9,2.7,4.7,4.5,5.4,5.4c0.6,0.9,1,1.6,1.1,2.2
								c-1.1,1.5-2.4,3.1-3.9,4.7c-0.3-0.2-0.6-0.4-0.8-0.7c-0.4-0.5-0.6-1.1-0.7-1.9C252.2,222.5,251.8,221.6,251.1,221z
								 M240.8,239.8c1.6,0,3.8,0.8,3.3,2.2c-0.6,1.3-1.2,3.6-2.5,3.8c-1.2,0.1-3.7-1.6-3.7-3.2C237.9,241,239.2,239.8,240.8,239.8z
								 M183.8,289.7c1.5-1.8,3.4-3.3,5.8-4.7c10.6-5.2,17.7-8.3,21.2-9.2c0.6-0.2,1.2-0.1,1.7,0.6l1.5,1.9l-2.1,1.3
								c-1.2,1-2.8,1.4-4.7,1.3c-1.6-0.1-3.8,0.4-6.6,1.6c-2.8,1.2-4.3,2.8-4.5,5c-0.5,1.5-1.2,2.4-2.1,2.8
								c-2.8,1.5-5.3,2.8-7.5,3.9l-5.8-0.4L183.8,289.7z M198.9,291c-0.6-2.1,0.1-3.8,2.2-5.1c2-1.5,4.2-2.1,6.6-1.9
								c1,0.1,1.1,1.9,0.2,5.5c-0.8,1.7-4.4,3.9-11.1,6.4l-6.2-0.7l6.6-3.8l1.7,2.6h0.9L198.9,291z M162.8,291.9l1.9,1.8l-4.1-2
								L162.8,291.9z M98.7,275.2c1.1-0.5,2.4-0.4,4,0.4l9,4.3l15.4,5.8c3.8,4,6.1,6.8,7,8.3c-3.1,0.4-6.5,0.6-10.1,0.8l-8.1-5.6
								c-3.3-3.9-5.6-6.7-7.1-8.4s-2.9-3-4.3-3.8c-2-1.1-3.6-1.5-4.9-1.1c-0.9,0.2-1.8,1.5-2.8,3.8l-0.4-0.4
								C96.9,277,97.7,275.7,98.7,275.2z M107.5,283.3c-1.8,0.9-3.5,0.9-5.3,0l-3-2.2c1-2.5,2.3-3.3,3.9-2.4l3,2.6L107.5,283.3z
								 M74.8,177.4c-0.2,3.4-0.8,7.4-1.7,11.9c-0.6,2.8-1.3,5.9-2.1,9.2c-0.1-6.9-0.4-11.5-0.9-13.9l0.8-2.3l0.9-2.4
								c0.1-1.6-0.2-1.7-0.9-0.2l-0.4,0.7l-0.8,1.4l-0.2-3.8l0.3-0.4l2.5-3.2C74.2,172.5,75,173.5,74.8,177.4z M72,167.3
								c1.6-0.4,1.9,0.4,0.9,2.2l-3.6,5.3c-0.2-1.4-0.4-2.6-0.6-3.7c-0.1-0.6-0.1-1.2-0.2-1.9C69.8,168.4,70.9,167.8,72,167.3z
								 M57.2,176.1c2.6-10.4,5.1-15.9,7.5-16.5c1.4,3.6,2.5,10.4,3.4,20.2c0.9,9.8,0.9,18.7,0,26.6c-1.1,10-2.8,16.8-5.1,20.3
								l-2.4,5.2c0-5.5,0-10.2,0.1-14.2c0-1.5,0.1-2.9,0.1-4.2c0-0.2,0-0.3,0-0.5c0.2-4.9,0.4-11.4,0.6-19.4
								c0.2-8.1,0.7-17.2,1.6-27.5c0.5-2.5,0.4-3.1-0.4-1.7c-2,10.4-3.2,23.7-3.6,40l-0.1,5.7l-0.1,5l-0.1,4.8l-0.2,9.5l0,0.4
								l-2.4-2.8c-0.1-0.5-0.2-0.9-0.2-1.3c-0.1-0.7-0.3-1.4-0.4-2c-1.1-6.7-1.7-13.7-1.7-20.9c0-1.1,0-2.2,0-3.3
								C54.2,192,55.3,184.4,57.2,176.1z M40.5,207.5c0.6-2.6,1.4-5.3,2.4-7.9c2.6-6.7,6.5-13.6,11.8-20.7
								c-1.2,5.1-1.9,8.9-2.1,11.5c-2.5,4.4-4.8,8.7-6.8,13.1c-2.4,5.1-4.4,10.2-6,15.3c-0.8,2.9-1.4,6.3-1.9,10.3
								C37.6,223.9,38.5,216.7,40.5,207.5z M52.8,223.2l-4.1-5.3l3-7.5C51.6,214.6,52,218.8,52.8,223.2z M138.2,20.9
								c0,2.4-1.4,5-4.3,7.9c-4.4,4-9.9,7.7-16.4,11.1c-6.6,3.4-15.1,7.4-25.6,12v-1.1c12.8-9.5,24.6-17.3,35.5-23.3
								c2.9-1.8,2.6-2.2-0.8-1.5c-3.8,1.9-7.9,4.2-12.4,7c-7.5,4.9-14.8,9.7-22,14.4l0.2-2.2c14.3-12.5,26-20.6,35.1-24.2
								C132,19.9,135.6,19.9,138.2,20.9z M95.9,25.4c6.8-5.6,15-10,24.5-13.1c4.6-1.2,8.6-1.8,12-1.7c1.6,0.4,2.1,1.3,1.3,2.8
								l-4.1,5.4c-3.6,0.5-8.6,2.6-14.9,6.2s-13.1,8.4-20.4,14.5l-2.6,1.7c-1.4-1-3.9-0.6-7.5,1.3c11.5-9.6,21.5-17,30-22
								c5.5-2.7,8.7-4.7,9.6-5.8c-2.8,0.8-6.6,2.5-11.6,5.2c-5,2.7-13.3,8.3-24.8,16.8l-11.1,10C82.6,38.1,89.1,31,95.9,25.4z
								 M84.4,46.2c2-1.1,3.4-1.6,4.1-1.3c0.5,1.2,0.6,3,0.4,5.2S87,56.8,84,63.8l-1.4,2.8l-2.3,4.5L77,77.4
								c-4.9,0.6-9.5,2.9-13.9,6.8c2.2-3.9,5-8.3,8.2-13.3c3.2-5,8.2-12.5,14.9-22.5c1.1-1.9,1.2-2.4,0.1-1.4
								c-1.1,1-3.9,4.5-8.5,10.8c-4.6,6.3-10.8,16-18.6,29.1c-0.3,0.5-0.7,1.1-1.2,1.9c-0.2,0.3-0.4,0.6-0.6,0.9
								c-0.3,0.4-0.6,0.9-0.9,1.4c-0.1,0.2-0.3,0.5-0.5,0.7c-0.2,0.3-0.4,0.5-0.5,0.8c-0.1,0.2-0.3,0.4-0.4,0.6
								c-0.3,0.5-0.6,0.9-0.9,1.4c-0.2,0.2-0.3,0.5-0.5,0.7c-0.2,0.2-0.3,0.5-0.5,0.8c-0.2,0.3-0.4,0.5-0.5,0.8s-0.4,0.5-0.5,0.8
								c-0.3,0.5-0.7,1-1,1.6c-0.2,0.4-0.5,0.7-0.7,1.1c-0.4,0.6-0.7,1.1-1.1,1.7c0,0.1-0.1,0.1-0.1,0.2c-0.4,0.6-0.9,1.3-1.3,2
								c-0.2,0.4-0.5,0.7-0.7,1.1c-0.3,0.4-0.6,0.9-0.9,1.3c-0.6,0.9-1.2,1.8-1.8,2.7c-0.1,0.1-0.2,0.3-0.3,0.5
								c-0.2,0.4-0.5,0.8-0.8,1.2c-0.6,0.6-2.5,1-5.6,1.1l-6.2,18.2c0.5,0.8,2.1,0.5,4.7-0.8c-1.2,2.4-3.1,3.7-5.6,3.9l-1.5-1.1
								l-0.8-2.8l0.2-1.7l1.5,0.2l6.6-16.7l-3.9-4.9l0.9-2.8c1.2,2.6,2.4,4.1,3.6,4.3c1.8-3.4,4.3-8,7.6-13.8
								c3.3-5.8,7.2-11.7,11.7-17.7l-0.2-1.5c0-0.9,0.4-1,1.3-0.2l9.4-13.5l-7.7,13.3c1.2,1.4,0.7,2.3-1.7,2.8
								c-8,10.6-14.1,21.2-18.4,31.7l1.9,0.6c1.1,0.5,2.2,0,3.2-1.5l11.4-20.3l10.9-20.3C71.9,58.5,77.7,51.3,84.4,46.2z
								 M43.5,113.6c-2.6,4.9-4.6,9.3-6,13.1l-1.5-0.2l3.9-12.2L43.5,113.6z M35,134.1l-3.8,10.1l-2.6,8.8l0.9-7.5l1.3-5.5l1.1-5.5
								L35,134.1z M28.8,125c0.9-5.6,2.1-10.8,3.6-15.4l1.5,1.9L28.8,125z M56.4,57.7c2.1-4.4,5.2-9.3,9.4-14.8
								C67,40,66.4,40,63.7,43c-6.1,7.6-13.3,19.7-21.4,36.2l3.6-9c0.6-2,2.6-6.5,6-13.6c3.4-7.1,6.7-12.7,9.9-16.8
								c3.3-4.1,5.5-6.8,6.8-8.1c4.5-3.9,7.1-5.7,7.9-5.4c0.6,0.5,0.8,1.3,0.6,2.4l-9.2,23.6C61.8,64,54,76.2,44.2,88.8
								c-4.1,4.5-6.7,7.4-7.7,8.6c-1,1.2-1.8,2.4-2.4,3.6l0.8-3.2l3.6-5.6C43.4,84.1,49.4,72.5,56.4,57.7z M31.1,194.7
								c0-2.5-0.3-4.1-0.8-4.7c-0.6-0.6-1.1-1.8-1.7-3.5c-0.6-1.7-1.4-4.2-2.5-7.5c-1.1-3.3-1.9-6.3-2.4-8.9h0
								c-3.4-1.5-5.8-4-7.3-7.6c-1.5-3.6-2.9-8.2-4.2-14c-1.3-5.8-1.8-12.6-1.6-20.6c0.6-9.5,2-18.8,4.1-27.8
								c3.1-12.5,9.5-24.4,19.1-35.7c2.1-2.4,3.4-2.9,3.9-1.7c0.5,5,0.5,9.9-0.1,14.5c-0.6,4.7-1.8,9.9-3.7,15.7
								C29,109.2,26,120.2,25,125.8c-1.9,6.6-3.9,15.3-6.2,25.9c-1-5.1-0.4-15.9,1.8-32.4c2.2-16.5,5-28.2,8.4-35.2
								c1.6-3.6,1.6-4.2-0.2-1.7c-7.6,13-12.1,32.2-13.3,57.6c-0.2,8.9,0.2,15.3,1.5,19.2c1.2,3.9,2.7,6.2,4.3,6.9
								c0.9,0.5,1.8,0.4,2.8-0.2c0.8-4.8,1.2-8.6,1.5-11.5s0.6-6.4,1-10.3c0.4-3.9,1.2-7.2,2.4-9.9l0.8,0.8c-1.2,5.8-1.9,9.8-2,12
								c-0.1,2.2-0.2,4.5-0.5,6.8s-0.5,6.6-0.8,13c1.5-5.1,3.1-10,4.9-14.6l5.8-16.9l5.1-12.2l2.4-5.6c0,0,0-0.1,0.1-0.1
								c0.8-1.5,1.6-3,2.4-4.5c0.4-0.7,0.8-1.4,1.2-2.2c0.4-0.8,0.9-1.5,1.4-2.3c0.1-0.1,0.1-0.2,0.2-0.4c0.4-0.7,0.8-1.4,1.2-2
								c0.6-1,1.3-2,1.9-3.1c0.7-1.1,1.5-2.3,2.3-3.5c0.2-0.3,0.4-0.6,0.6-0.9c1.8-2.7,3.8-5.5,5.8-8.4c1.1-1.4,2.3-2.5,3.4-3.6
								c0.4-0.4,0.8-0.7,1.1-1l0.6-0.5c0.3-0.2,0.5-0.4,0.8-0.6c0.3-0.2,0.5-0.4,0.8-0.6c0.2-0.1,0.4-0.2,0.5-0.3
								c0.4-0.2,0.8-0.5,1.2-0.7c0.2-0.1,0.4-0.2,0.6-0.3c0.2-0.1,0.4-0.2,0.6-0.2c0,0,0.1,0,0.1,0c0.2-0.1,0.4-0.1,0.6-0.2
								c0.2,0,0.4-0.1,0.6-0.1c0.1,0,0.1,0,0.2,0c0,0,0,0,0,0c0,0,0.1,0,0.1,0c0.1,0,0.3,0,0.5-0.1c0.6,0.8,0.8,2.1,0.6,4v0
								c0,0,0,0.1,0,0.1c0,0.1,0,0.2,0,0.4c0,0.2,0,0.4-0.1,0.6c0,0.2-0.1,0.5-0.1,0.8c-0.1,0.3-0.1,0.6-0.2,0.9c0,0,0,0.1,0,0.1
								c0,0.2-0.1,0.4-0.1,0.6v0c0,0,0,0.1,0,0.1c-0.9,3.9-2.4,8-4.5,12.2c-0.1,0-0.3,0.1-0.1,0.2c-0.2,0.4-0.4,0.8-0.6,1.2
								c0,0.1-0.1,0.1-0.1,0.2c-0.5,0.9-0.9,1.7-1.4,2.5c-0.2,0.5-0.5,0.9-0.8,1.3c-0.5,0.9-1,1.7-1.5,2.6c-1,1.7-2.1,3.4-3.1,5
								c-0.2,0.4-0.5,0.8-0.7,1.1c-0.3,0.5-0.6,0.9-0.9,1.4c-0.1,0.1-0.2,0.3-0.3,0.4s-0.2,0.3-0.3,0.4c-0.2,0.4-0.5,0.7-0.7,1.1
								c-0.3,0.4-0.6,0.9-0.9,1.3c-0.3,0.4-0.6,0.9-0.9,1.2c-0.3,0.4-0.6,0.8-0.9,1.2c-0.3,0.4-0.6,0.8-0.9,1.2c0,0,0,0-0.1,0.1
								c-0.5,0.6-0.9,1.2-1.4,1.8c-0.7,0.9-1.5,1.8-2.2,2.6c-0.5,0.5-0.9,1.1-1.4,1.6c0,0,0,0,0,0c-0.5,0.5-1,1-1.4,1.5
								c-0.4,0.4-0.9,0.9-1.3,1.2c-0.1,0-0.1,0.1-0.1,0.1c-0.4,0.4-0.8,0.7-1.1,1h0c-0.1,0.1-0.2,0.2-0.3,0.3l0.2-0.3l9.6-15.5
								l-2.8-0.3c-0.1,0.1-0.1,0.2-0.2,0.3c-0.2,0.4-0.5,0.8-0.7,1.1s-0.5,0.7-0.7,1.1c-1.5,2.4-2.9,4.5-4,6.4
								c-0.3,0.5-0.6,1-0.8,1.4c-0.2,0.4-0.4,0.8-0.6,1.1c-0.2,0.4-0.4,0.7-0.6,1.1c-0.5,0.8-0.9,1.6-1.2,2.2
								c-0.1,0.2-0.2,0.4-0.3,0.6c-2.5,4.9-4.9,9.4-7.3,13.7c-2.4,4.2-3.9,7.6-4.7,9.9c-0.8,2.4-2.3,6.6-4.7,12.8
								c0,1.1,0.8,4.4,2.2,9.8c1.5,5.4,2.8,8.5,3.9,9.5c1.1,0.9,1.1,2,0.3,3.1c-0.4,1-0.1,2.9,0.8,5.6c0.6,3,2.1,7.1,4.3,12.4
								l-0.6,1.9C35.1,206.7,32.9,200.9,31.1,194.7z M24.9,138.9c-1.2,10-2.3,17.8-3.2,23.5l-0.8-1.5
								C20.2,159.8,21.5,152.4,24.9,138.9z M84.4,279.9l-2.4-3.2c-0.8-0.9-1.8-1.1-3.1-0.6c-1.3,0.5-2.4-0.2-3.1-2.2
								c-3.4,2-6.8,1.2-10.3-2.2l-6.2-7.5l-5.8-9.9l-2.1-1.5c0,0,0,0,0,0c-0.1,0.1-0.2,0.1-0.3,0.2c-0.2,0.1-0.5,0.2-0.7,0.3
								c0,0,0,0,0,0c-0.7,0.3-1.6,0.4-2.4,0.3c-0.2,0-0.3,0-0.5,0c-0.2,0-0.3,0-0.5-0.1l-7.5-4.8c-1.8-1.6-5.5-8.1-11.3-19.3
								c-7.6-14.5-12.8-25.5-15.6-32.8c-2-6.1-3.3-10-3.9-11.6c-0.6-1.6-0.9-1.7-0.7-0.1c0.1,1.6,1.1,5.1,2.8,10.5
								c1.8,5.4,5,13.4,9.8,23.9c4.1,8.5,8.2,16.3,12.2,23.3c-9.3-10-16-19.4-20.1-28.1c-4.1-8.6-6.9-16.6-8.3-24
								c-0.6-2.6-1-6.7-1.1-12.1C3,172.6,3,169.6,3.3,169c0.6-1.9,1.5-2.7,2.6-2.4c0.8,0,2.5,1.8,5.2,5.4c2.7,3.6,6.4,11.6,11,24
								c4.6,12.5,7.5,20.6,8.5,24.5c1.1,3.9,2.1,7.3,3.2,10.1c1.1,2.9,2.4,5.8,3.9,8.8c2.2,4.5,4.5,7.6,6.8,9.2
								c0.5,0.3,0.9,0.6,1.3,0.8c0.2,0.1,0.5,0.3,0.7,0.4c0.2,0.1,0.3,0.2,0.5,0.2c0.2,0.1,0.4,0.2,0.6,0.2c0.2,0.1,0.4,0.1,0.5,0.2
								c0.2,0,0.3,0.1,0.5,0.1c0.1,0,0.2,0,0.3,0c0,0,0.1,0,0.1,0c0.1,0,0.3,0,0.4,0c0.1,0,0.2,0,0.4-0.1c0.1,0,0.2,0,0.4-0.1
								c0.1,0,0.2-0.1,0.3-0.1c0.1-0.1,0.2-0.1,0.3-0.2c0.1-0.1,0.2-0.2,0.3-0.3l-5.1-10.3c-0.9-1.9-0.8-3.7-2.5-3.2l0.7,1.2
								c-0.6-0.3-1.3-0.3-2.1,0c-0.1,0-0.2,0-0.4,0h-0.1c0,0-0.1,0-0.1,0c-0.1,0-0.2,0-0.2,0c-0.5,0-1-0.2-1.3-0.4
								c-0.3-0.1-0.5-0.3-0.7-0.5c-0.1-0.1-0.1-0.2-0.2-0.3c-0.1-0.1-0.1-0.2-0.2-0.3c-0.1-0.1-0.1-0.3-0.2-0.5
								c-0.1-0.2-0.1-0.3-0.1-0.5c0-0.2-0.1-0.4-0.1-0.6c0-0.2,0-0.4,0-0.6v-0.1c0,0,0-0.1,0-0.1v-0.1c0-0.1,0-0.3,0-0.4
								c0-0.2,0-0.5,0.1-0.7c0.2-2.2,1.1-6.1,2.4-11.6c0.2-0.7,0.4-1.5,0.7-2.2c0.1-0.3,0.2-0.7,0.3-1c0.1-0.3,0.2-0.7,0.3-1
								c0.3-0.8,0.5-1.5,0.8-2.3c0.2-0.7,0.5-1.4,0.8-2.1c0,0,0,0,0,0c0.1-0.4,0.3-0.7,0.4-1.1c0.1-0.4,0.3-0.7,0.4-1.1c0,0,0,0,0,0
								c0.3-0.7,0.6-1.4,0.9-2.1c0.3-0.7,0.6-1.4,0.9-2.1c0.3-0.7,0.6-1.4,1-2.1c0,0,0,0,0,0c0.4-0.9,0.8-1.7,1.2-2.6
								c0.4-0.9,0.8-1.7,1.3-2.5c0,0,0-0.1,0-0.1c0,0,0.1-0.1,0.1-0.2c0.1-0.1,0.1-0.3,0.2-0.4c0,0,0.1-0.1,0.1-0.1
								c0.1-0.1,0.1-0.2,0.2-0.3c0.2-0.4,0.4-0.8,0.7-1.2c0.5-0.9,1-1.9,1.5-2.8c-0.4,2.9-0.7,5.4-0.9,7.6c0,0.3,0,0.6,0,0.9
								c0,0.4,0,0.9,0,1.2v0.4c-4.6,10.4-8,18.8-10.1,25.2c-1.1,4.6-1.1,6.9,0.2,6.8l1.5-0.8l-1.1-2.6l0.8-2.1l2.2,3.9l1.3-0.9
								l1.1,1.7l-1.1,1.7l8.4,12.2l2.1-1.7l1.5,1.7c-2.5,2.5-3.5,4.1-3,4.9c2.2,4.1,4.3,7.4,6.2,9.9c3.8,5.5,6.8,7.1,9.2,4.7
								c0.8-0.6,1.7-0.5,2.8,0.4c1.1,0.9,2.4,2.8,3.8,5.6l-0.2-4.3l-6.9-6.6l-3.9-7.9c-3.3-4.6-5.6-8.2-6.9-10.7
								c-1.4-2.5-3.1-5.5-5.2-9c-2.1-3.5-4.6-7.5-7.6-11.8l0.6-2.1l6,7.3c5.4,6.9,9.2,12.1,11.4,15.7c2.2,3.6,3.5,4.4,3.9,2.5
								l1.1-3.6l1.7,0.9l-1.1,7.3l-0.4,2.2c-0.1,1.7,0.2,2.8,1,3.1c0.8,0.3,1.5,1.5,2.2,3.5c0.4,1.2,2.3,3.8,5.9,7.8
								c3.6,3.9,7.3,7.2,11.3,9.9s7.2,4.9,9.8,6.6c2.6,1.7,3.8,3.3,3.7,5l3.6,0.8l-0.9-4.5l2.2-0.6c1.1,0.7,2.1,2.1,2.8,4.1
								c3.3,2.5,6.1,4.5,8.5,6l-8.3,1.5l-14.1-8.5L84.4,279.9z M49.8,236l1.1-1.1l5.2,8.8l-0.6,1.1L49.8,236z M58.6,253.6l2.1-2.6
								l4.9,7l2.8,5.1l0.9,2.8c-1.8-0.9-3.3-2.2-4.5-3.9l-3-3.9L58.6,253.6z M102,298.8l-11.3,1.9l2.6-7.5L102,298.8z M128.9,334
								c-5.2,5.1-11.2,10-17.8,14.6l-2.2-0.8c3.9-2.4,9.4-6.3,16.5-11.6l3.2-3.6l-1.7-0.2c-2.4,2.1-5.1,4.3-8.2,6.5
								c-3.1,2.2-6.6,4.3-10.6,6.3l-5.4,2.6l0.9,1.1l4.1,0.6c2.4,1.5,3.4,3,3,4.5c-1.2,1.9-3.3,2.1-6,0.8l-4.5-2.4
								c-1.6-1.6-3.3-2.7-4.9-3.4l-1.9-1.5l0.8-1.9l5.6,2.2h1.7l-0.9-3.4l6.8-4.1c1.8-0.6,2.5-1.7,2.2-3.2l0.6-3.4
								c2.9,0.6,6,0.2,9.4-1.4c3.4-1.6,6.6-2.5,9.6-2.7C130.9,330.9,130.9,332.3,128.9,334z M124.4,326.2
								c-6.5,1.5-12.4,2.7-17.6,3.9c-13.1,2.4-26.1,4.3-38.9,5.8c-3.3-0.9-12.6-5.7-28.2-14.5c-11-6.6-18.7-12-23.1-16.1
								c-5-5.4-7-8.6-6-9.8c3.3-5.4,5.4-10.1,6.6-14.3c0.5-1.7,0.6-3.1,0.4-4.1c-1.4-4.2-0.4-6.4,3-6.6c8.4-0.5,14-0.6,16.9-0.4
								c1.2,0.1,2.1-0.2,2.4-1.1l2.8-5.6l-1.7-0.8l-2.4,3.8l-0.2-4.3c0-0.6,0.4-0.8,1.1-0.6c5.2,1.4,7.7,3.1,7.3,5.3
								c-1.6,2.7-2.4,5.9-2.2,9.4l0.2,9.8c-6.6-4.4-13.8-8.3-21.4-11.6c0.9-0.1,1.9-0.2,3-0.3c1.1-0.1,1.9-0.5,2.2-1.2
								c0.4-0.8-0.3-1.2-2.1-1.3c-3.9,0-6.4,0.3-7.5,0.9c-0.9,1-0.7,2.1,0.6,3.2c9,4.5,17,9,23.8,13.5c10.9,6.9,19.3,12.5,25.3,16.9
								c5.9-0.1,14.1-0.9,24.8-2.4l16.1-3c6.6-1.2,13.5-2.3,20.6-3.2c2.6-0.4,6-0.6,9.9-0.8c4-0.1,7.7-0.4,11.1-0.9
								c3.3,6.1,5.2,11.5,6,16.1c0.4,2.4,0.1,3.7-0.9,3.9C141.6,321.2,130.9,324.7,124.4,326.2z M172.4,320l-0.9-3l-5.1,6.4
								l-4.1,2.6c-1.9,1.6-3.8,2.2-5.8,1.9l-6.6-3.2l3.4-1.7l0.9,0.8c-0.6,1.9,0.1,1.6,2.2-0.8l5.8-5.6c0.4-3.4-0.4-7.7-2.4-13
								c-2-5.3-3.5-8.7-4.5-10c-0.2-1.1-3.1-1.4-8.6-0.8c3.3-1.6,7.1-1.8,11.5-0.4l4.5,1.9l2.4-1.1l1.3,1.2
								c6.4,6.9,10,11.6,10.8,14.1c0.8,2.5,0.9,5,0.3,7.3C175.1,319.8,173.4,320.9,172.4,320z M192.9,346.7
								c-1.1-0.9-1.4-1.7-0.9-2.6l3.8,3.2C194.9,347.8,194,347.6,192.9,346.7z M217.3,347.1l2.1,0.4l-0.8,0.9l-4.9,1.5
								c-2.1,1.9-4.6,3.1-7.5,3.8l-3.2-0.6l-0.8-2.2c0.8-1.1,1.7-1.9,2.9-2.4s2.7-0.9,4.6-1.3l4.5,0.8L217.3,347.1z M210.3,345
								c-3.4,0-5.5,0.4-6.4,1.1h-2.6c-3.6-2.5-6.5-4.8-8.6-7l-8.8-7c1.6-0.9,5.1-0.6,10.5,1L210.3,345z M237.2,306.8
								c3.6,0.3,6.4,0.2,8.3-0.5c3.4-1.4,10.3-6.5,20.8-15.4c10.1-7.6,18.7-13,25.7-16c2.1-1.2,2.2-2.2,0.3-2.7
								c-1.9-0.6-4.9-0.8-8.7-0.8c-1.2,1-1.1,1.8,0.4,2.4c1.7-0.1,3,0,3.8,0.4c-8.4,4.4-15.4,8.8-21,13.1c0.5-2.9,0.9-7.8,1.3-14.8
								c-0.1-2.2-0.9-4.3-2.2-6c-0.9-1.2,0.3-2.4,3.6-3.4l2.6-0.8v4.1l-3.6-0.9l0.4,1.9c0.8,1.4,2.1,2.3,4.1,2.8l10.1,0.6l4.5-0.2
								c5.3,0.1,7.8,1.4,7.7,3.9c-0.1,2.4,0,4.7,0.6,6.8c0.9,5.4,3,10.5,6.4,15.4c-0.8,2.2-2.4,4.9-4.9,7.9l-9.8,6.4
								c-8.4,6-19.8,13.8-34.2,23.5c-10.3,0.2-22.6-0.6-37-2.4c-10.4-1.4-22.3-4-35.9-7.9l-3-0.7l1.3-1.3c2.1-2.8,3.3-4.6,3.5-5.5
								c0.2-1-0.1-3.1-1-6.4c-0.8-3.3-3.2-7.2-7-11.7v-1.1l2.8-0.4c7.8,0.5,14.7,1.5,20.7,3c6.1,1.5,13.3,2.9,21.7,4.1
								C227.6,305.6,233.5,306.5,237.2,306.8z M223.1,301.8c-3.3-0.5-8.5-1.4-15.8-2.8l6.6-2.2c3.5,0.8,5.5,0,6-2.2
								C220.4,297.2,221.4,299.6,223.1,301.8z M262.3,246.5c-2.5,2.7-3.3,5.6-2.4,8.6c-3.5,1.9-6.9,4.6-10.1,8.3
								c-3.2,3.6-5.7,6.7-7.4,9.2c-1.7,2.5-3.5,4-5.4,4.5c-2.1,1-4.6,0.5-7.3-1.5l-0.8,4.7l-12.6,7.7l-6.2,2.6
								c0.5-1.2,0.8-3.4,0.9-6.4l2.2-1.9c8.6-4.5,13.6-8.6,15-12.4c1.8-3.1,3.6-5.7,5.6-7.8c2-2.1,3.4-4.6,4.3-7.6l0.2-4.5l-0.6-4.7
								c2,2.2,3.8,2.8,5.5,1.5c2.6-4.9,5.4-9.4,8.4-13.6c3-4.2,6.2-8.1,9.6-11.7c3.4-3.6,6.2-6.7,8.6-9.2l-0.2,4.7
								c-7.5,9.3-12.2,15.6-14.1,19c-6.4,9.6-10.7,17.3-13,22.9c-1.4,3.1-3.4,5.6-6,7.5c-2,1-3.5,2.1-4.5,3.2
								c-0.9,1.6-0.4,2.1,1.5,1.3c1.2-1.2,2.6-2.2,4.1-2.8c2.8-1.4,8.6-7.9,17.6-19.5l-0.2-6.6l2.1-3.6c-0.1,3.6,0.2,5.6,0.9,6
								c0.8,0.4,1.8-0.7,3.1-3.1c1.3-2.4,4.5-9.2,9.7-20.2c-1.1,3.4-1.2,6.3-0.2,8.8c-3,2.1-3.8,5.8-2.4,10.9L262.3,246.5z
								 M304.4,204.8c-0.5,3.1-1.5,5.8-3.1,8.1c-5.1,5.9-7.2,9.4-6.4,10.5c1.4,2.4,1.1,5.1-0.8,8.1c-2.7,3.4-6.4,7.1-10.9,11.3
								c1.2,2.5,0.3,4.6-2.8,6.4c-3.6,2-7.6,3.8-12,5.2c8.1-6.1,13.1-12.7,15-19.7c2.6-2.4,5-3.9,7-4.7c1.8-1.1,2.1-1.6,0.9-1.5
								c-2.2,0.9-4.6,2.2-7.1,4.1c2.4-4.8,4.1-9.9,5.1-15.4c4.9-4.8,8-8.5,9.2-11.3c1.8-2.6,1.8-3.2,0.2-1.7
								c-1.9,3.1-4.8,6.5-8.6,10c1.8-5.4,3.3-11.4,4.7-18c0.6-3.9,0.4-4.6-0.6-2.1l-1.9,6.6c-0.9-2.6-1.9-4.6-3-6l2.4,7.9
								c-0.5,3.1-1.7,7.6-3.6,13.3c-1.8-5-4.1-9.5-7-13.5c-2.6-3.3-3.1-3.3-1.3-0.2c2.9,4.1,5.2,9.6,7.1,16.3c-1.5,6-3.3,11-5.3,15
								c-1.5-2.2-3.1-3.8-4.7-4.7c-1.2-0.6-1.2-0.2,0,1.1c1.6,1.6,2.9,3.3,3.9,4.9c-1.5,3.6-3.5,6.8-5.9,9.6c-2.4,2.8-4.9,5.1-7.2,7
								c3-4.6,4-9.8,3-15.4c0-1,0.8-1.8,2.3-2.5c1.6-0.6,2.1-1.3,1.6-2.1c-1.4-2.8-2.1-5-2.1-6.6c1-0.5,2.5-0.5,4.5,0
								c1.6-1.1,1.5-2.7-0.5-4.8c-1.9-2.1-3.2-5-3.7-8.9c0-2.2,1.5-3.1,4.5-2.4c1.4-0.1,1.5-1.8,0.4-4.9l-3.2-4.3
								c-2.2-5-1.3-6.8,2.8-5.5l4.9,3c3.3,1.2,4.8-1,4.7-6.6c0-1.2,1-1.5,2.9-0.8c1.9,0.7,3.7-0.8,5.4-4.4c1.6-1.8,2.9-0.1,3.8,4.9
								c-0.4,6.6,1.2,9.8,4.9,9.4C304.8,199.9,304.9,201.7,304.4,204.8z M310.1,188.7c0.2,1.2-0.1,2.3-0.8,3.1
								c-0.8,0.8-2.2,1.5-4.3,2.2l-2.1-3.8c0.1-3-0.9-5.9-3-8.6c0.9-0.8,2.2-1.5,4.1-2.2c1.4-0.6,1.1-0.8-0.7-0.6
								c-2,0.4-3.6,0.9-4.7,1.5h-0.4c1.1-4,2.9-7.8,5.5-11.5c0.6-1.6,0.2-1.6-1.1,0.2c-2.1,3-4,6.2-5.6,9.6
								c-0.8-0.8-1.3-2.1-1.7-4.1c-0.5-2.4-0.9-2.4-1.1-0.2c0.4,2.9,0.9,4.9,1.7,6.2c-2.8,4.2-5,6-6.6,5.1c1-6,2.3-12.3,3.9-19
								c2.9-2.9,5.4-3.8,7.5-2.8c3-2.4,5.6-2.8,7.7-1.3c1.1,1.9,1.6,3.7,1.5,5.5c-0.1,1.8-0.8,3.8-1.9,6.1c2.4,0,3.6,0.9,3.8,2.8
								c-1,4.3-3,7.3-6,9.2C308.4,186.5,309.9,187.4,310.1,188.7z"/>
						</g>
					</g>
				</g>
			</g>
			<g>
				<g>
					<g>
						<path class="st1" d="M133.3,320.9c1.7-0.4,3.4-0.9,4.6-2.6l0.9,1.2l-0.9-6.3l-0.4,0.4c0,3.4-0.8,5.9-3.7,6.8
							c-4.2,0.5-5.9-3.7-6.8-7.9c-0.5-4.2-0.1-9.2,4.1-9.7c2.5-0.4,4.6,1.6,5.5,4.6l0.4,0l-0.9-5.5l-0.4,0l0,1.2
							c-1.7-0.8-3-1.2-5.1-0.8c-4.6,0.5-7.1,5.1-6.6,10.6C124.9,318.5,128.7,321.8,133.3,320.9"/>
					</g>
				</g>
				<g>
					<g>
						<path class="st1" d="M183.3,302.5l0,0.8c0.8,0,1.7,0.4,1.7,1.2c0.4,0.8,0,2.5,0,3.4l-1.1,8c0,0.8-0.4,2.9-0.8,3.3
							c-0.4,0.8-1.2,0.9-2.1,0.9l0,0.4c1.3,0.4,2.1,0.4,3.4,0.4c1.2,0.4,2.1,0.4,3.4,0.8l0-0.8c-0.8,0-1.7,0-1.7-1.2
							c0-0.4,0-2.5,0.4-3.4l0.8-8c0.4-0.9,0.4-2.5,0.8-3.4c0.4-0.8,1.6-0.9,2.1-0.9l0.4-0.4c-1.3,0-2.5-0.4-3.8-0.4
							C185.8,303.3,184.5,302.9,183.3,302.5"/>
					</g>
				</g>
				<g>
					<g>
						<path class="st1" d="M117.8,306.4c0,0.8,0.4,2.5,0.5,3.3l1.4,8c0,0.8,0.5,2.5,0,3.3c0,1.3-0.8,1.3-1.6,1.3l0,0.4
							c1.3,0,2.5,0,3.3-0.5l3.4,0l0-0.9c-0.8,0-1.7,0-2.1-0.8c-0.4-0.4-0.9-2.5-0.9-3.3l-1-8c-0.4-0.8-0.5-2.5-0.5-3.4
							c0.4-0.8,1.2-1.3,1.7-1.3l0-0.4c-0.8,0-2.1,0.5-3.4,0.5c-0.8,0-2.1,0-3.4,0.5l0.4,0.4C116.2,305.6,117,305.6,117.8,306.4"/>
					</g>
				</g>
				<g>
					<g>
						<path class="st1" d="M26.7,293.7c2.1,1.3,4.2,1.2,6.3-1.3c2.1-3,0.4-5-1.8-6.7c-0.4-0.4-1.3-1.2-2.1-1.7
							c-1.3-0.8-2.1-1.7-3.4-2.5l0,0.8c0.4,0.4,1.3,0.8,0.9,1.7c-0.4,0.8-1.7,2.5-2.1,3l-4.5,6.4c-0.4,0.8-1.7,2.5-2.5,3
							c-0.8,0.4-1.2,0-2.1-0.4l-0.4,0.4c1.2,0.4,2.1,1.2,3,2c0.8,0.4,1.7,1.2,2.5,1.7l0.4-0.4c-0.8-0.4-1.3-0.8-1.3-1.7
							c0.4-0.8,1.6-2.5,2.1-3.4l2.1-2.5c0.9,0.8,0.9,0.8,0.9,2.1l-0.3,6.7l-0.4,2.1c0.4,0.4,1.3,0.4,1.7,0.8
							c0.4,0.4,0.8,0.8,1.3,1.3l0.4-0.4c-0.9-0.8-0.9-1.3-0.9-2.5L26.7,293.7z M24.5,291.2l3.7-5.1c0.4,0,0.4-0.4,0.9-0.4
							c0,0,0.9,0.4,1.3,0.8c1.3,0.8,1.3,2.9,0.1,4.6C27.9,294.1,26.7,292.9,24.5,291.2"/>
					</g>
				</g>
				<g>
					<g>
						<path class="st1" d="M99.5,317.8c-0.9-0.8-2.1-0.8-3.4-0.8c1.7-0.9,3.4-2.2,2.9-4.7c-0.5-3.4-3.4-3.8-5.9-3.3
							c-0.9,0-1.7,0.5-2.5,0.5c-1.3,0-2.1,0-3.4,0.5l0,0.4c0.9,0,1.7,0,2.1,0.8c0.4,0.4,0.9,2.5,0.9,3.4l0.9,8
							c0,0.8,0.5,2.5,0.5,3.4c0,1.3-1.2,1.3-1.6,1.3l0,0.8c1.2-0.4,2.5-0.8,3.8-0.9c0.8,0,2.1,0,2.5-0.5c1.3,0,3,0,4.2-1.3
							c0.8-0.9,1.6-2.1,1.6-4.2C101.6,319.9,100.8,318.7,99.5,317.8 M92.2,310.4c0,0,0.9,0,1.3-0.4c1.7,0,2.5,0.8,3,2.9
							c0,1.2,0,2.5-0.8,3.3c-0.4,0.4-1.3,0.4-2.1,0.9l-0.4,0l-0.9-5.5L92.2,310.4z M96.6,325.8c-0.8,0-1.7,0-2.1-0.8
							c-0.4-0.8-0.5-2.1-0.9-2.9l-0.5-3.8l0.8,0c0.9,0,1.7-0.4,2.9,0c0.9,0.8,1.7,1.7,1.7,3.3C99.1,323.7,98.3,325.4,96.6,325.8"/>
					</g>
				</g>
				<g>
					<g>
						<path class="st1" d="M103.4,324.9l0,0.4c3.8-0.5,8-1.4,11.8-1.8l1.2,0l-0.5-5l-0.8,0.4c0,1.3,0,2.5-0.8,3.4
							c-0.8,0.9-2.1,0.9-2.9,1.3c-2.9,0.5-3.8-0.4-4.3-3.7l-0.9-7.9c0-0.9-0.5-3-0.5-3.8c0.4-0.8,1.2-0.8,2.1-0.9l-0.4-0.8
							c-0.8,0.5-2.1,0.5-3.4,0.5c-0.8,0.4-2.1,0.4-3.4,0.5l0.4,0.8c0.4-0.4,1.7-0.4,2.1,0.4c0,0.9,0.5,2.9,0.5,3.8l1.4,7.5
							c0,0.8,0.5,2.9,0,3.8C105.1,324.5,104.2,324.5,103.4,324.9"/>
					</g>
				</g>
				<g>
					<g>
						<path class="st1" d="M86.1,319.7c-0.8-0.4-2.1-0.4-3.4-0.4c1.7-0.8,2.9-2.1,2.5-4.6c-0.5-3.8-3.9-4.1-5.9-3.7
							c-0.8,0.4-1.7,0.4-2.9,0.4c-0.8,0.5-2.1,0.5-2.9,0.5l0,0.8c0.8-0.4,1.7-0.5,2.1,0.4c0,0.8,0.5,2.9,0.5,3.8l1.4,7.6
							c0,0.8,0.5,2.9,0.5,3.8c-0.4,0.8-1.3,0.8-2.1,1.3l0,0.4c1.7,0,2.5-0.5,4.2-0.5c0.8-0.4,1.7-0.5,2.9-0.5c1.3,0,2.9-0.5,3.8-1.3
							c1.3-1.3,2.1-2.5,1.6-4.2C88.3,321.8,87.4,320.5,86.1,319.7 M78.1,313.5l0-0.8c0.4-0.4,1.3-0.5,1.3-0.5c2.1-0.4,3,0.8,3.4,2.9
							c0,1.2,0,2.1-0.8,3c-0.4,0.8-1.3,0.8-2.1,0.9l-0.8,0.4L78.1,313.5z M82.9,327.7c-0.8,0.4-1.7,0.4-2.1-0.4
							c-0.4-0.9-0.9-2.5-0.9-3.4l-0.5-3.4l0.4,0c1.3-0.4,2.5-0.4,3.4,0c1.3,0.4,1.7,1.7,2.1,2.9C85.8,326,85,327.7,82.9,327.7"/>
					</g>
				</g>
				<g>
					<g>
						<path class="st1" d="M145,318.7l0-0.8c-0.9,0-2.1,0.5-2.1-0.8c-0.4-0.8,0.4-2.9,0.4-4.2l0-0.8l5.5-0.9l1.7,2.9
							c0,0.4,0.4,1.3,0.4,1.7c0.5,1.2-0.8,1.3-1.2,1.7l0,0.4c0.8,0,2.1-0.4,3.4-0.5c0.8-0.4,2.1-0.5,2.9-0.5l0-0.8
							c-0.8,0-1.7,0-2.1-0.4c-0.4-0.8-1.3-2.1-1.7-2.9l-6.5-12.9l-0.8,0l-2,11.3c-0.4,1.7-0.4,3.4-0.8,5.5c-0.4,1.3-0.8,1.7-2.1,2.2
							l0,0.4c0.9,0,1.7,0,2.5-0.5L145,318.7z M145.2,303.6l3.4,6.7l-4.6,0.5L145.2,303.6z"/>
					</g>
				</g>
				<g>
					<g>
						<path class="st1" d="M254.1,322.7c0.5,1.7,0,2.1-0.8,2.9l0.4,0.4c0.4-0.4,1.2-0.8,2.1-1.3c0.8-0.4,1.2-0.9,2.1-1.3l-0.4-0.4
							c-0.4,0.4-1.6,0.9-2.1,0c-0.4-1.2-0.9-3.3-0.9-4.2l-0.4-0.8l5-2.6l2.1,1.7c0.8,0.4,1.3,1.2,1.7,1.6c0.5,0.8-0.4,1.7-1.2,1.7
							l0.4,0.8c0.8-0.8,2.1-1.3,2.9-1.7c0.8-0.8,2.1-1.3,2.9-1.7l-0.4-0.4c-0.4,0-1.3,0.5-2.1,0c-0.8-0.4-2.1-1.6-2.6-2.1l-11-9.5
							l-0.9,0l2.2,11.3C253.6,318.9,254.1,321,254.1,322.7 M258.2,314.7l-4.2,2.2l-1.4-7.1L258.2,314.7z"/>
					</g>
				</g>
				<g>
					<g>
						<path class="st1" d="M262,302l6,8.3c0.9,0.8,1.7,2.1,2.2,2.9c0.4,1.2,0,1.7-0.8,2.5l0.4,0.4c0.9-0.9,1.3-1.3,2.1-1.7
							s1.7-0.8,2.1-1.7l0-0.4c-0.8,0.4-1.7,0.9-2.5,0.5c-0.8-0.8-2.1-2.1-2.6-2.9l-5.6-7.5l15.2,4.8c0.9,0.4,1.7,0.8,2.5,0.8
							l0.4-0.4l-6.8-9.2c-0.9-1.2-2.6-3.3-3-4.1c-0.5-1.2,0.4-1.2,0.8-2.1l-0.4-0.4c-0.8,0.5-1.2,0.9-1.6,1.7
							c-0.9,0.4-1.7,0.9-2.5,1.3l0.4,0.4c1.2-0.5,1.7-0.9,2.9,0c0.9,0.8,1.7,2.5,2.6,3.3l4.7,6.3l-16.5-5.2
							c-0.4,0.4-1.2,0.9-1.7,0.9c-0.4,0.8-0.8,0.8-1.7,1.3l0.4,0.9C259.9,301.6,260.7,301.6,262,302"/>
					</g>
				</g>
				<g>
					<g>
						<path class="st1" d="M56.3,309.3c2.1-3,0.4-5.5-1.8-6.7c-0.8-0.4-1.7-1.3-2.5-1.7c-0.9-0.8-2.1-1.2-3-2.1l-0.4,0.4
							c0.9,0.4,1.7,0.8,1.3,2.1c-0.4,0.5-1.7,2.1-2.1,3l-4.1,6.3c-0.4,0.9-1.7,2.5-2.5,3c-0.4,0.8-1.3,0-2.1-0.4l0,0.9
							c0.9,0.4,1.7,1.2,2.5,1.6c1.3,0.9,2.1,1.3,3,2.1l0.4-0.4c-0.9-0.8-1.7-1.2-1.3-2.1c0-0.8,1.2-2.5,1.6-3.4l2.1-2.5
							c0,0,0.9,0.8,1.3,0.8C50.9,311.9,54.2,312.7,56.3,309.3 M53.8,308.1c-1.2,2.1-2.9,2.5-4.6,1.3c-0.4-0.4-0.9-0.4-0.9-0.8
							l3.3-5.1c0.8-1.3,0.8-1.3,1.7-0.4C55,304.3,55.4,306,53.8,308.1"/>
					</g>
				</g>
				<g>
					<g>
						<path class="st1" d="M283.4,302.9c0,1.3,0,1.7-0.8,2.5l0.4,0.8c0.4-0.8,1.3-1.3,1.7-1.7c0.8-0.4,1.6-0.9,2.1-1.3l-0.4-0.8
							c-0.4,0.4-1.2,1.3-2.1,0.5c-0.4-0.8-1.3-2.9-1.3-4.2l-0.4-0.4l4.6-3.4l2.5,1.7c0.4,0.4,1.3,0.8,1.7,1.2
							c0.4,0.8-0.4,1.7-0.8,2.1l0.4,0.4c0.8-0.8,1.7-1.3,2.5-2.2c0.8-0.8,1.7-1.3,2.5-1.7l0-0.8c-0.8,0.4-1.7,0.9-2.5,0.5
							c-0.4,0-2.1-1.2-2.5-1.7l-12.3-8.2l-0.4,0.4l3.5,10.9C282.1,299.2,282.6,300.8,283.4,302.9 M286.3,294.1l-3.7,3l-2.6-7.1
							L286.3,294.1z"/>
					</g>
				</g>
				<g>
					<g>
						<path class="st1" d="M67.8,310.7l0,0.8c0.4,0.4,1.3,0.8,0.4,2.1c-0.4,0.8-3.7,3.8-4.6,4.7l-5.4,4.2l1.6-7.1
							c0.4-1.3,1.6-5.5,2.1-6.3c0.4-0.8,1.7-0.4,2.1,0l0.4-0.4c-1.3-0.4-2.1-1.2-3-1.6c-0.8-0.4-1.7-1.2-2.6-1.7l-0.4,0.4
							c1.2,1.2,0.9,2.5,0.5,4.2l-3.6,15.1l0.8,0.4l10.8-9.4c1.7-1.3,3.3-3.4,5-2.2l0-0.4c-0.4-0.4-1.3-0.8-2.1-1.2
							C69.5,311.9,68.6,311.5,67.8,310.7"/>
					</g>
				</g>
				<g>
					<g>
						<path class="st1" d="M234.2,329.1l1.2-5l-0.9,0c-0.4,1.7-0.4,2.5-2.1,3.4c-0.8,0.4-2.1,0-3.4,0c-2.5-0.4-3-1.2-2.6-4.6l1.1-8
							c0.4-0.8,0.4-2.9,0.8-3.8c0.4-0.8,1.7-0.4,2.1-0.4l0.4-0.8c-1.3,0-2.5,0-3.8-0.4c-0.8,0-2.1-0.3-2.9-0.3l-0.4,0.4
							c0.8,0,1.7,0.4,2.1,1.3c0,0.8-0.4,2.9-0.4,3.8l-1.1,7.6c-0.4,0.8-0.8,3-0.8,3.4c-0.8,0.8-1.7,0.9-2.5,0.9l0,0.4
							c4.2,0.8,8,1.2,12.2,2C233.3,328.7,234.2,328.7,234.2,329.1"/>
					</g>
				</g>
				<g>
					<g>
						<path class="st1" d="M39.8,309.3c-2.1,2.1-3.3,1.7-5.4,0.5c-0.9-0.4-1.7-1.2-1.7-2.5c0-0.8,0.8-1.7,1.2-2.5l2.5-3.8
							c2.1,1.2,3,2.1,1.3,4.6l0.4,0.4c0.8-0.9,1.2-1.7,2.1-3c0.4-0.8,1.3-1.7,2.1-3l-0.4,0c-1.2,1.3-2.5,2.6-5,0.5l3.7-5.5
							c0.8-0.8,0.8-0.8,1.2-0.4l1.3,0.8c2.1,1.7,3,2.5,1.3,5l0.4,0.4l2.5-3.4l-8.9-6.2l-0.8,0.5c0.8,0.4,1.7,0.8,1.3,2.1
							c-0.4,0.4-1.6,2.1-2.1,3l-4.1,5.9c-0.8,0.8-2.1,2.5-2.5,3c-0.8,0.5-1.7,0-2.1-0.4l-0.4,0.4l10.2,7.4l2.5-3.8L39.8,309.3z"/>
					</g>
				</g>
				<g>
					<g>
						<path class="st1" d="M217.8,324.8c-0.4-0.8-0.4-2.5-0.9-3.3l-2.7-14.2l-0.8-0.4l-4.9,10.1c-0.8,1.7-1.6,3.4-2.5,5.1
							c-0.9,1.3-1.2,1.7-2.5,1.7l-0.4,0.4c0.8,0,1.7,0.4,2.5,0.4c0.8,0,1.7,0.4,2.5,0.4l0-0.4c-0.4-0.4-1.7-0.4-1.7-1.7
							c0.4-0.9,1.2-3,1.6-3.8l0.4-0.9l5.9,0.8l0.5,2.9l0,2.5c0,0.8-1.2,0.4-1.7,0.4l-0.4,0.9c1.3,0,2.5,0,3.4,0.4
							c1.3,0,2.5,0.4,3.4,0.4l0-0.4C218.6,325.7,218.2,325.7,217.8,324.8 M209.3,317.4l3.3-6.8l1.4,7.5L209.3,317.4z"/>
					</g>
				</g>
				<g>
					<g>
						<path class="st1" d="M205.9,310.1l0.4,0.4l0.8-4.2l-14.3-2.3l-0.8,4.2l0.9,0.4c0.4-3.3,1.2-3.3,3.7-3c0.8,0,2.1,0.4,1.7,0.8
							l-1.5,13c-0.4,2.1-0.8,2.5-3.3,2.6l0,0.4c1.3,0.4,2.5,0.4,3.8,0.4c1.2,0.4,2.5,0.8,3.8,0.8l0-0.4c-2.1-0.8-2.1-1.2-2.1-3.3
							l1.9-13c0-0.8,1.3-0.4,2.5-0.5C205.4,306.7,206.3,307.6,205.9,310.1"/>
					</g>
				</g>
				<g>
					<g>
						<path class="st1" d="M241.7,312.6c0,0.4,0.5,2.5,0.5,3.3l0.5,8c0,0.8,0.4,2.5,0,3.4c0,1.2-1.2,1.3-1.7,1.3l0,0.4
							c1.3,0,2.1,0,3.4-0.5l3.4,0l0-0.4c-0.8,0-1.7,0-2.1-0.8c-0.4-0.8-0.5-2.9-0.5-3.8l-0.9-7.6l0-3.8c0.4-0.9,1.3-0.9,2.1-0.9
							l0-0.8c-1.3,0-2.5,0.5-3.4,0.5l-3.4,0l0,0.9C240.4,311.8,241.3,311.3,241.7,312.6"/>
					</g>
				</g>
			</g>
		</g>
	</g>
	<g>
		<path class="st1" d="M43.4,457.5H23l-6,15.8h-5.2l18.8-49h5.3l18.8,49h-5.2L43.4,457.5z M41.8,453.3l-8.6-22.4l-8.6,22.4H41.8z"/>
		<path class="st1" d="M105.9,473.2H102l-0.8-3.6c-4.1,2.9-9,4.5-14.3,4.5c-13.9,0-25.3-11.4-25.3-25.3c0-13.9,11.4-25.3,25.3-25.3
			c6.9,0,13.3,2.9,17.9,7.4l-3.5,3.5c-3.7-3.7-8.8-6-14.4-6c-11.3,0-20.4,9.2-20.4,20.4s9.2,20.4,20.4,20.4c5.4,0,10.4-2.2,14.1-5.6
			v-10.2l-14.4-0.8v-3.9h19.2V473.2z"/>
		<path class="st1" d="M125,429.1v17.2h20.3v4.9H125v17.2h27.3v4.9h-32.2v-49h32.2v4.9L125,429.1L125,429.1z"/>
		<path class="st1" d="M204.4,473.2h-6l-28.3-41.9v41.9h-4.9v-49h6l28.3,41.9v-41.9h4.9V473.2z"/>
		<path class="st1" d="M253.7,473.2H217v-4.9l29.7-39.2h-28.8v-4.9h35v4.9l-29.7,39.2h30.6V473.2z"/>
		<path class="st1" d="M271.5,473.2h-4.9v-49h4.9V473.2z"/>
		<path class="st1" d="M314.3,457.5h-20.4l-6,15.8h-5.2l18.8-49h5.3l18.8,49h-5.2L314.3,457.5z M312.7,453.3l-8.6-22.4l-8.6,22.4
			H312.7z"/>
		<path class="st1" d="M397.6,448.7c0,13.5-11.1,24.5-24.5,24.5h-17.5v-49h17.5C386.5,424.2,397.6,435.3,397.6,448.7z M392.7,448.7
			c0-10.8-8.8-19.6-19.6-19.6h-12.6v39.2h12.6C383.8,468.3,392.7,459.5,392.7,448.7z"/>
		<path class="st1" d="M416.1,429.1v17.2h20.3v4.9h-20.3v17.2h27.3v4.9h-32.2v-49h32.2v4.9L416.1,429.1L416.1,429.1z"/>
		<path class="st1" d="M488.6,468.3v4.9h-32.2v-49h4.9v44.1H488.6z"/>
		<path class="st1" d="M532,468.3v4.9h-32.2v-49h4.9v44.1H532z"/>
		<path class="st1" d="M548.1,429.1v17.2h20.3v4.9h-20.3v17.2h27.3v4.9h-32.2v-49h32.2v4.9L548.1,429.1L548.1,429.1z"/>
		<path class="st1" d="M651.4,448.7c0,13.5-11.1,24.5-24.5,24.5h-17.5v-49h17.5C640.4,424.2,651.4,435.3,651.4,448.7z M646.5,448.7
			c0-10.8-8.8-19.6-19.6-19.6h-12.6v39.2h12.6C637.7,468.3,646.5,459.5,646.5,448.7z"/>
		<path class="st1" d="M712.7,448.7c0,13.9-11.4,25.3-25.3,25.3c-13.9,0-25.3-11.4-25.3-25.3c0-13.9,11.4-25.3,25.3-25.3
			C701.3,423.4,712.7,434.8,712.7,448.7z M707.8,448.7c0-11.3-9.2-20.4-20.4-20.4s-20.4,9.2-20.4,20.4s9.2,20.4,20.4,20.4
			S707.8,460,707.8,448.7z"/>
		<path class="st1" d="M767.4,473.2h-3.9l-0.8-3.6c-4.1,2.9-9,4.5-14.3,4.5c-13.9,0-25.3-11.4-25.3-25.3c0-13.9,11.4-25.3,25.3-25.3
			c6.9,0,13.3,2.9,17.9,7.4l-3.5,3.5c-3.7-3.7-8.8-6-14.4-6c-11.3,0-20.4,9.2-20.4,20.4s9.2,20.4,20.4,20.4c5.4,0,10.4-2.2,14.1-5.6
			v-10.2l-14.3-0.8v-3.9h19.2V473.2z"/>
		<path class="st1" d="M807.9,457.5h-20.4l-6,15.8h-5.2l18.8-49h5.3l18.8,49h-5.2L807.9,457.5z M806.3,453.3l-8.6-22.4l-8.6,22.4
			H806.3z"/>
		<path class="st1" d="M869.3,473.2h-6L835,431.3v41.9h-4.9v-49h6l28.3,41.9v-41.9h4.9V473.2z"/>
		<path class="st1" d="M890.8,429.1v17.2h20.3v4.9h-20.3v17.2h27.3v4.9h-32.2v-49h32.2v4.9L890.8,429.1L890.8,429.1z"/>
		<path class="st1" d="M957,429.1v17.2h20.3v4.9H957v17.2h27.3v4.9h-32.2v-49h32.2v4.9L957,429.1L957,429.1z"/>
		<path class="st1" d="M1060.3,448.7c0,13.5-11.1,24.5-24.5,24.5h-17.5v-49h17.5C1049.3,424.2,1060.3,435.3,1060.3,448.7z
			 M1055.4,448.7c0-10.8-8.8-19.6-19.6-19.6h-12.6v39.2h12.6C1046.6,468.3,1055.4,459.5,1055.4,448.7z"/>
		<path class="st1" d="M1078.9,429.1v17.2h20.3v4.9h-20.3v17.2h27.3v4.9H1074v-49h32.2v4.9L1078.9,429.1L1078.9,429.1z"/>
		<path class="st1" d="M1124.1,473.2h-4.9v-49h4.9V473.2z"/>
		<path class="st1" d="M1159.8,473.2l4.3-49h5.9l14.7,34.5l14.6-34.5h6l4.3,49h-5l-3.5-40.7l-13.6,31.9h-5.8l-13.5-31.9l-3.6,40.7
			H1159.8z"/>
		<path class="st1" d="M1271.9,448.7c0,13.9-11.4,25.3-25.3,25.3c-13.9,0-25.3-11.4-25.3-25.3c0-13.9,11.4-25.3,25.3-25.3
			C1260.5,423.4,1271.9,434.8,1271.9,448.7z M1267,448.7c0-11.3-9.2-20.4-20.4-20.4c-11.3,0-20.4,9.2-20.4,20.4s9.2,20.4,20.4,20.4
			S1267,460,1267,448.7z"/>
		<path class="st1" d="M1324.4,473.2h-6l-28.3-41.9v41.9h-4.9v-49h6l28.3,41.9v-41.9h4.9V473.2z"/>
		<path class="st1" d="M1388.6,448.7c0,13.9-11.4,25.3-25.3,25.3c-13.9,0-25.3-11.4-25.3-25.3c0-13.9,11.4-25.3,25.3-25.3
			C1377.2,423.4,1388.6,434.8,1388.6,448.7z M1383.7,448.7c0-11.3-9.2-20.4-20.4-20.4c-11.3,0-20.4,9.2-20.4,20.4
			s9.2,20.4,20.4,20.4C1374.5,469.2,1383.7,460,1383.7,448.7z"/>
		<path class="st1" d="M1437,439.3c0,8.3-6.7,15-15.1,15h-15v18.9h-4.9v-49h19.9C1430.3,424.2,1437,431,1437,439.3z M1432.1,439.3
			c0-5.6-4.6-10.2-10.2-10.2h-15v20.3h15C1427.5,449.4,1432.1,444.9,1432.1,439.3z"/>
		<path class="st1" d="M1496.9,448.7c0,13.9-11.4,25.3-25.3,25.3c-13.9,0-25.3-11.4-25.3-25.3c0-13.9,11.4-25.3,25.3-25.3
			C1485.5,423.4,1496.9,434.8,1496.9,448.7z M1492,448.7c0-11.3-9.2-20.4-20.4-20.4c-11.3,0-20.4,9.2-20.4,20.4s9.2,20.4,20.4,20.4
			C1482.8,469.2,1492,460,1492,448.7z"/>
		<path class="st1" d="M1542.5,468.3v4.9h-32.2v-49h4.9v44.1H1542.5z"/>
		<path class="st1" d="M1558.6,473.2h-4.9v-49h4.9V473.2z"/>
	</g>
</g>
</svg>
